<svg xmlns="http://www.w3.org/2000/svg" viewBox="0 0 485 485" width="512" height="512"><g fill="#404447"><path d="M200.478 321.062c13.414-1.676 23.481-13.86 22.453-27.256 0-.223-.066-.446-.083-.669h.118v-82.184l62.995-11.725v65.796c-3.627-1.483-7.691-2.065-11.93-1.536-13.414 1.658-23.498 13.877-22.474 27.256 1.011 13.401 12.731 22.903 26.149 21.227 13.431-1.676 23.481-13.86 22.474-27.261a4.026 4.026 0 0 0-.105-.665h.122V164.161s.031-.411 0-.411l-.087.035-91.398 15.601v94.745c-3.622-1.483-7.687-2.082-11.926-1.553-13.436 1.658-23.498 13.86-22.457 27.256 1.024 13.383 12.714 22.886 26.149 21.228z"/><path d="M242.5 400c86.988 0 157.5-70.512 157.5-157.5S329.488 85 242.5 85 85 155.512 85 242.5 155.512 400 242.5 400zm0-283.504c69.589 0 126.004 56.416 126.004 126.004S312.089 368.504 242.5 368.504s-126.004-56.416-126.004-126.005S172.911 116.496 242.5 116.496z"/><path d="M0 0v485h485V0H0zm455 455H30V30h425v425z"/></g></svg>