<svg xmlns="http://www.w3.org/2000/svg" viewBox="0 0 485 485" width="512" height="512"><g fill="#404447"><path d="M126.943 307.073h.79c10.374 0 18.78-8.474 18.78-18.797v-81.762c0-10.307-8.474-18.78-18.78-18.78h-.79c-10.374 0-18.78 8.474-18.78 18.78v81.762c-.001 10.323 8.406 18.797 18.78 18.797zm28.565 12.728c0 9.533 7.751 17.217 17.284 17.217h18.444v44.202c0 10.373 8.407 18.781 18.797 18.781h.773c10.39 0 18.797-8.474 18.797-18.781v-44.202h25.808v44.202c0 10.373 8.474 18.781 18.781 18.781h.79c10.373 0 18.781-8.474 18.781-18.781v-44.202h18.461c9.449 0 17.267-7.684 17.267-17.217V190.76H155.508v129.041zm174.32-136.859c.118-1.715.252-3.413.252-5.128 0-27.977-17.856-52.407-44.27-65.353l14.661-22.647c.908-1.379.521-3.346-.925-4.271-1.446-.992-3.346-.588-4.271.925l-15.233 23.37c-11.366-4.657-24.11-7.28-37.51-7.28-13.468 0-26.195 2.623-37.561 7.28l-15.182-23.37c-.908-1.513-2.875-1.917-4.321-.925-1.446.925-1.85 2.892-.925 4.271l14.644 22.647c-26.397 12.946-44.269 37.375-44.269 65.353 0 1.715.134 3.413.269 5.128h174.641zm-46.842-46.758c4.674 0 8.407 3.665 8.407 8.339a8.378 8.378 0 0 1-8.407 8.406 8.388 8.388 0 0 1-8.406-8.406c0-4.674 3.748-8.339 8.406-8.339zm-80.973 0c4.657 0 8.407 3.665 8.407 8.339a8.388 8.388 0 0 1-8.407 8.406 8.388 8.388 0 0 1-8.406-8.406c0-4.674 3.749-8.339 8.406-8.339zm155.253 170.889h.791c10.373 0 18.78-8.474 18.78-18.797v-81.762c0-10.307-8.457-18.78-18.78-18.78h-.791c-10.374 0-18.78 8.474-18.78 18.78v81.762c.001 10.323 8.474 18.797 18.78 18.797z"/><path d="M0 0v485h485V0H0zm455 455H30V30h425v425z"/></g></svg>