<svg xmlns="http://www.w3.org/2000/svg" width="512" height="512" viewBox="0 0 556.672 556.672"><g fill="#AAFAC8"><path d="M545.789 241.478l-45.268-60.229-13.474-74.123a54.104 54.104 0 0 0-45.696-43.957L366.76 52.585 304.825 9.701C289.26-1.075 269.619-2.978 252.274 4.605a54.161 54.161 0 0 0-10.843 6.33l-60.224 45.262-74.127 13.474a54.28 54.28 0 0 0-12.016 3.664c-17.08 7.464-29.316 23.573-31.936 42.031l-10.584 74.588-42.89 61.948a54.102 54.102 0 0 0 1.23 63.391l45.267 60.222 13.468 74.125a54.103 54.103 0 0 0 45.699 43.957l74.596 10.584 61.93 42.885c15.33 10.61 35.463 12.572 52.55 5.101a54.167 54.167 0 0 0 10.849-6.333l60.227-45.267 74.136-13.474a54.452 54.452 0 0 0 12.008-3.661c17.082-7.467 29.313-23.57 31.938-42.036l10.579-74.591 42.891-61.94a54.107 54.107 0 0 0-1.233-63.387zM278.336 476.41c-109.219 0-198.071-88.852-198.071-198.068 0-109.22 88.852-198.071 198.071-198.071 109.22 0 198.071 88.851 198.071 198.071 0 109.216-88.851 198.068-198.071 198.068z"/><path d="M278.336 98.945c-98.915 0-179.396 80.473-179.396 179.396 0 98.912 80.476 179.396 179.396 179.396 98.926 0 179.398-80.484 179.398-179.396 0-98.923-80.483-179.396-179.398-179.396zm8.2 62.515c9.424-11.029 25.305-19.221 38.432-19.752 1.673 15.276-4.479 30.611-13.582 41.65-9.119 11.02-24.058 19.602-38.702 18.463-1.967-14.99 5.419-30.573 13.852-40.361zm74.643 208.736c-10.88 15.897-22.147 31.711-39.913 32.032-17.481.336-23.084-10.356-43.072-10.356-19.975 0-26.212 10.04-42.743 10.692-17.143.653-30.215-17.16-41.179-33-22.424-32.389-39.54-91.539-16.534-131.449 11.402-19.83 31.819-32.381 53.974-32.715 16.844-.301 32.759 11.363 43.041 11.363 10.307 0 29.642-14.025 49.956-11.961 8.497.349 32.373 3.425 47.706 25.838-1.222.795-28.501 16.646-28.175 49.689.353 39.452 34.611 52.579 35.015 52.76-.316.902-5.488 18.719-18.076 37.107z"/></g></svg>