<svg xmlns="http://www.w3.org/2000/svg" width="512" height="512" viewBox="0 0 556.664 556.665"><g fill="#AAFAC8"><path d="M545.777 241.474l-45.257-60.229-13.474-74.122a54.11 54.11 0 0 0-45.696-43.958l-74.597-10.584-61.93-42.885c-15.57-10.776-35.216-12.679-52.547-5.095a54.007 54.007 0 0 0-10.843 6.331l-60.232 45.262-74.125 13.474a54.621 54.621 0 0 0-12.019 3.663c-17.078 7.465-29.313 23.574-31.934 42.031L52.549 189.95 9.655 251.897a54.096 54.096 0 0 0 1.23 63.391L56.15 375.51l13.463 74.125a54.11 54.11 0 0 0 45.702 43.957l74.596 10.584 61.93 42.886c15.327 10.609 35.459 12.572 52.547 5.1a54.247 54.247 0 0 0 10.854-6.332l60.217-45.268 74.14-13.474a54.476 54.476 0 0 0 12.003-3.661c17.083-7.467 29.319-23.57 31.938-42.035l10.574-74.592 42.896-61.94a54.088 54.088 0 0 0-1.233-63.386zM278.333 476.405c-109.222 0-198.074-88.852-198.074-198.068 0-109.22 88.857-198.071 198.074-198.071 109.211 0 198.069 88.851 198.069 198.071-.001 109.216-88.852 198.068-198.069 198.068z"/><path d="M302.68 305.025c-1.646 0-3.262.409-4.856 1.253-1.585.834-3.097 2.066-4.516 3.656v-23.012h-10.662v71.447h10.662v-4.033c1.367 1.626 2.879 2.807 4.495 3.572 1.604.771 3.433 1.14 5.52 1.14 3.106 0 5.52-.984 7.156-2.982 1.651-1.994 2.475-4.857 2.475-8.58v-29.257c0-4.309-.864-7.611-2.625-9.849-1.767-2.247-4.314-3.355-7.649-3.355zm-.585 41.02c0 1.688-.311 2.88-.911 3.631-.611.756-1.554 1.128-2.848 1.128a6.066 6.066 0 0 1-2.538-.569c-.808-.367-1.662-1.02-2.495-1.88v-32.829c.714-.72 1.429-1.279 2.159-1.615a5.209 5.209 0 0 1 2.236-.508c1.414 0 2.522.456 3.283 1.357.751.926 1.108 2.272 1.108 4.059v27.227h.006zm-37.899-.34c-1 1.144-2.087 2.086-3.283 2.832-1.18.745-2.164 1.103-2.931 1.103-.989 0-1.708-.259-2.164-.828-.425-.56-.643-1.455-.643-2.708v-40.437h-10.542v44.082c0 3.148.632 5.483 1.859 7.058 1.238 1.574 3.05 2.361 5.499 2.361 1.989 0 4.019-.539 6.116-1.688 2.123-1.103 4.132-2.734 6.089-4.872v5.773h10.527v-52.714h-10.527v40.038zm-60.631-48.39h12.278v61.055h11.879v-61.055h12.277v-10.393h-36.434zm72.919-50.71c1.61 0 2.89-.438 3.847-1.331.942-.896 1.419-2.115 1.419-3.668v-31.639c0-1.269-.486-2.286-1.444-3.086-.969-.779-2.227-1.163-3.816-1.163-1.435 0-2.604.383-3.532 1.163-.891.8-1.346 1.817-1.346 3.086v31.639c0 1.59.425 2.812 1.264 3.687.848.89 2.055 1.312 3.608 1.312z"/><path d="M278.333 98.941c-98.913 0-179.391 80.473-179.391 179.396 0 98.913 80.478 179.396 179.391 179.396 98.922 0 179.391-80.483 179.391-179.396 0-98.923-80.469-179.396-179.391-179.396zm25.119 98.18h11.847v44.526c0 1.37.28 2.361.771 2.97.487.627 1.3.935 2.408.935.859 0 1.979-.409 3.314-1.225a16.245 16.245 0 0 0 3.655-3.12v-44.082h11.857v58.07h-11.857v-6.426c-2.186 2.363-4.453 4.188-6.835 5.424-2.361 1.22-4.66 1.856-6.877 1.856-2.76 0-4.805-.886-6.203-2.62-1.377-1.717-2.087-4.306-2.087-7.762V197.12h.007zm-44.04 13.281c0-4.513 1.584-8.083 4.785-10.75 3.189-2.662 7.487-3.992 12.873-3.992 4.919 0 8.942 1.416 12.075 4.209 3.117 2.807 4.691 6.45 4.691 10.866v30c0 4.974-1.533 8.844-4.599 11.692-3.086 2.827-7.312 4.235-12.696 4.235-5.199 0-9.357-1.468-12.474-4.383-3.107-2.929-4.661-6.841-4.661-11.778V210.4h.006zM227.09 176.47l8.679 31.47h.839l8.264-31.47h13.582l-15.55 46.07v32.656h-13.365v-31.188l-15.896-47.53h13.447v-.008zm155.385 165.671c0 21.008-17.046 38.049-38.059 38.049H212.239c-21.018 0-38.054-17.041-38.054-38.049v-30.576c0-21.008 17.036-38.06 38.054-38.06h132.177c21.013 0 38.059 17.047 38.059 38.06v30.576z"/><path d="M334.494 304.352c-4.722 0-8.554 1.439-11.536 4.312-2.993 2.874-4.49 6.629-4.49 11.175v23.685c0 5.085 1.383 9.072 4.086 11.951 2.703 2.895 6.432 4.34 11.144 4.34 5.261 0 9.206-1.357 11.827-4.07 2.661-2.75 3.977-6.825 3.977-12.226v-2.708h-10.844v2.397c0 3.106-.372 5.095-1.046 6.012-.704.901-1.915 1.372-3.66 1.372-1.688 0-2.869-.533-3.589-1.605-.693-1.077-1.02-2.998-1.02-5.778v-9.937h20.163v-13.433c0-4.986-1.305-8.813-3.884-11.49-2.604-2.661-6.311-3.997-11.128-3.997zm4.163 20.738h-9.32v-5.323c0-2.216.347-3.806 1.098-4.728.735-.984 1.922-1.455 3.604-1.455 1.604 0 2.796.477 3.5 1.455.735.922 1.118 2.512 1.118 4.728v5.323z"/></g></svg>