<svg xmlns="http://www.w3.org/2000/svg" viewBox="0 0 485 485" width="512" height="512"><g fill="#404447"><path d="M242.494 399.992C329.47 399.992 400 329.478 400 242.498c0-86.992-70.53-157.49-157.506-157.49C155.514 85.008 85 155.506 85 242.498c0 86.98 70.514 157.494 157.494 157.494zm60.615-82.693c-2.55 0-4.283-.877-6.66-2.33-22.827-13.805-51.297-21.062-81.489-21.062-16.855 0-33.818 2.157-49.688 5.456-2.582.564-5.816 1.549-7.757 1.549-5.988 0-9.958-4.739-9.958-9.898 0-6.612 3.798-9.91 8.554-10.819 19.465-4.439 38.837-6.973 58.958-6.973 34.458 0 65.166 7.913 91.591 23.767 3.939 2.281 6.24 4.627 6.24 10.459 0 5.692-4.615 9.851-9.791 9.851zm17.167-41.684c-3.422 0-5.564-1.377-7.893-2.738-25.629-15.198-61.135-25.296-100.005-25.296-19.949 0-37.164 2.798-51.409 6.58-3.078.86-4.799 1.769-7.661 1.769-6.768 0-12.304-5.52-12.304-12.352 0-6.693 3.254-11.303 9.79-13.149 17.712-4.863 35.787-8.618 62.1-8.618 41.231 0 81.117 10.275 112.465 29.035 5.251 3.018 7.193 6.848 7.193 12.448 0 6.818-5.427 12.321-12.276 12.321zm-178.928-98.219c22.467-6.616 47.515-9.694 74.769-9.694 46.234 0 94.905 9.506 130.444 30.38 4.783 2.718 8.113 6.801 8.113 14.305-.016 8.581-6.912 14.742-14.87 14.742-3.19 0-5.095-.781-8.097-2.422-28.518-17.091-72.751-26.501-115.531-26.501-21.354 0-43.04 2.173-62.913 7.565-2.302.564-5.175 1.721-8.085 1.721-8.393 0-14.838-6.644-14.838-15.058.001-8.55 5.301-13.349 11.008-15.038z"/><path d="M0 0v485h485V0H0zm455 455H30V30h425v425z"/></g></svg>