<svg xmlns="http://www.w3.org/2000/svg" viewBox="0 0 512 512"><path fill="#363640" d="M89.096 125.157h333.809v349.167H89.096z"/><path fill="#ff6465" d="M385.347 0h86.229v140.213h-86.229z"/><path d="M83.539 325.142L60.26 327.07v109.567h88.797c-8.493-66.097-38.908-106.369-38.908-106.369l-26.61-5.126zm344.918 0l23.279 1.928v109.567h-88.797c8.493-66.097 38.908-106.369 38.908-106.369l26.61-5.126z" fill="#d7565a"/><path d="M60.26 371.856c28.279 0 49.913-5.474 64.656-16.301-8.023-16.35-14.768-25.287-14.768-25.287l-26.61-5.127-23.279 1.928.001 44.787z" opacity=".1"/><path d="M105.816 276.497L60.26 311.05v31.851c78.759 0 53.973-45.663 53.973-45.663l-8.417-20.741z" fill="#f2cc7b"/><path d="M451.736 371.856c-28.279 0-49.913-5.474-64.656-16.301 8.023-16.35 14.768-25.287 14.768-25.287l26.61-5.127 23.279 1.928-.001 44.787z" opacity=".1"/><path d="M406.18 276.497l45.556 34.553v31.851c-78.759 0-53.973-45.663-53.973-45.663l8.417-20.741z" fill="#f2cc7b"/><path d="M60.26 136.738v176.05c112.732 0 96.517-145.162 96.517-145.162v-30.887l-96.517-.001zm391.476 0v176.05c-112.732 0-96.517-145.162-96.517-145.162v-30.887c-.001-.001 96.517-.001 96.517-.001z" fill="#d7565a"/><path fill="#e6dfd0" d="M299.106 0h86.229v140.213h-86.229z"/><path fill="#ff6465" d="M212.889 0h86.229v140.213h-86.229z"/><path d="M212.883 125.155v34.178c0 23.812 19.303 43.115 43.115 43.115s43.115-19.303 43.115-43.115v-34.178h-86.23z" fill="#ff8080"/><path fill="#e6dfd0" d="M126.648 0h86.229v140.213h-86.229z"/><path d="M156.777 136.738H60.26v90.787a71.725 71.725 0 0 0 23.279 3.88c16.154 0 31.083-5.342 43.116-14.353a71.803 71.803 0 0 0 26.711 12.455c6.701-32.394 3.413-61.881 3.413-61.881v-30.888h-.002z" opacity=".1"/><path d="M126.653 125.155v34.178c0 23.812 19.303 43.115 43.115 43.115s43.115-19.303 43.115-43.115v-34.178h-86.23z" fill="#fff7e6"/><path fill="#ff6465" d="M40.424 0h86.229v140.213H40.424z"/><path d="M40.424 125.155v34.178c0 23.812 19.303 43.115 43.115 43.115s43.115-19.303 43.115-43.115v-34.178h-86.23z" fill="#ff8080"/><path d="M355.218 136.738h96.517v90.787a71.725 71.725 0 0 1-23.279 3.88c-16.154 0-31.083-5.342-43.116-14.353a71.803 71.803 0 0 1-26.711 12.455c-6.701-32.394-3.413-61.881-3.413-61.881v-30.888h.002z" opacity=".1"/><path d="M294.52 453.917c0 9.328-17.247 16.89-38.522 16.89s-38.522-7.562-38.522-16.89V343.291h77.044v110.626z" fill="#8cd76e"/><path d="M217.476 389.485c11.875 3.442 24.854 5.324 38.522 5.324s26.647-1.882 38.522-5.324v-46.194h-77.044v46.194z" opacity=".1"/><path d="M180.617 308.765a33.952 33.952 0 0 0-.66 6.657c0 27.853 34.046 50.432 76.043 50.432s76.043-22.579 76.043-50.432c0-2.257-.227-4.479-.66-6.659l-75.382-13.884-75.384 13.886z" fill="#8cd76e"/><path fill="#c89173" d="M60.26 436.635h391.476V512H60.26z"/><path d="M180.617 308.765c17.398 9.734 44.69 16.005 75.382 16.005s57.985-6.272 75.382-16.005c-4.914-24.706-36.788-43.774-75.382-43.774s-70.469 19.068-75.382 43.774z" fill="#b9e578"/><circle cx="214.094" cy="259.776" r="27.191" fill="#fff7e6"/><circle cx="214.094" cy="252.641" r="10.329" fill="#363640"/><circle cx="297.902" cy="259.776" r="27.191" fill="#fff7e6"/><circle cx="297.902" cy="252.641" r="10.329" fill="#363640"/><path d="M385.342 125.155v34.178c0 23.812 19.303 43.115 43.115 43.115s43.115-19.303 43.115-43.115v-34.178h-86.23z" fill="#ff8080"/><path d="M299.112 125.155v34.178c0 23.812 19.303 43.115 43.115 43.115s43.115-19.303 43.115-43.115v-34.178h-86.23z" fill="#fff7e6"/></svg>