<svg xmlns="http://www.w3.org/2000/svg" viewBox="0 0 219.582 219.582"><path d="M55.626 154.767c-1.764.441.87 18.505 8.377 27.777 0 0-.488-13.107 3.115-17.637 0 0 12.628 6.467 5.639 20.87 0 0 7.561.796 11.528-11.359 0 0-3.053 11.427 7.513 17.934 10.565 6.507 17.993 2.459 17.993 2.459v-60.18H52.775l2.851 20.136zm108.429 0c1.764.441-.87 18.505-8.377 27.777 0 0 .488-13.107-3.115-17.637 0 0-12.628 6.467-5.639 20.87 0 0-7.561.796-11.529-11.359 0 0 3.053 11.427-7.512 17.934-10.565 6.507-17.993 2.459-17.993 2.459v-60.18h57.016l-2.851 20.136zM113.239 0C61.426 0 74.371 51.591 74.371 51.591h77.736S165.054 0 113.239 0z" fill="#371c06"/><path fill="#fdcc9b" d="M95.162 169.316h29.395v32.923H95.162z"/><path d="M95.162 173.194s12.364 7.874 29.395 6.051v-9.929H95.162v3.878z" fill="#fcbc85"/><ellipse cx="52.775" cy="118.267" rx="14.343" ry="16.364" fill="#fcbc85"/><ellipse cx="166.943" cy="118.267" rx="14.343" ry="16.364" fill="#fcbc85"/><path d="M166.885 87.011c0-24.104-17.637-41.74-57.025-41.74-39.39 0-57.026 17.637-57.026 41.74 0 24.104-4.115 87.597 57.026 87.597 61.14-.001 57.025-63.493 57.025-87.597z" fill="#fdcc9b"/><ellipse cx="82.083" cy="114.349" rx="6.173" ry="6.761" fill="#3b2519"/><circle cx="79.392" cy="111.363" r="1.846" fill="#fff"/><path d="M72.208 99.771c2.919 1.117 7.606-3.799 18.335.478 1.956.78 3.124-6.668-8.377-6.668-9.958 0-11.722 5.515-9.958 6.19z" fill="#4c2d19"/><ellipse cx="138.397" cy="114.349" rx="6.173" ry="6.761" fill="#3b2519"/><circle cx="135.706" cy="111.363" r="1.847" fill="#fff"/><path d="M147.51 99.771c-2.919 1.117-7.605-3.799-18.335.478-1.956.78-3.123-6.668 8.378-6.668 9.957 0 11.72 5.515 9.957 6.19z" fill="#4c2d19"/><path d="M109.859 138.129c-6.1 0-9.774-4.557-9.774-2.352 0 2.204 1.764 6.393 9.774 6.393s9.773-4.189 9.773-6.393c.001-2.205-3.673 2.352-9.773 2.352zm0 20.271c-2.109 0-3.381-1.576-3.381-.814s.61 2.212 3.381 2.212 3.38-1.449 3.38-2.212-1.27.814-3.38.814z" fill="#fcbc85"/><path d="M109.859 152.782c-9.668 0-15.493-3.938-15.493-2.939 0 .997 2.796 4.924 15.493 4.924 12.697 0 15.492-3.927 15.492-4.924 0-.998-5.824 2.939-15.492 2.939z" fill="#f7945e"/><circle cx="74.145" cy="135.954" r="8.378" fill="#f9aa8d"/><circle cx="146.603" cy="135.954" r="8.377" fill="#f9aa8d"/><path d="M109.859 182.544v37.038H45.486c0-14.991 30.569-37.038 64.373-37.038z" fill="#fdc16e"/><path d="M109.859 182.544v37.038h64.372c0-14.991-30.568-37.038-64.372-37.038z" fill="#fdc16e"/><path d="M95.162 183.826l14.697 26.275c.879 0 14.697-26.275 14.697-26.275s-15.248-5.551-29.394 0z" fill="#fdcc9b"/><path fill="#f68e4d" d="M109.859 219.582v-9.48l-4.85-7.275zm0 0v-9.48l4.459-7.275z"/><path d="M89.136 219.582l-3.04-33.805s-6.456-.273-14.215 5.365l-6.444 28.44h23.699zm41.446 0l3.04-33.805s6.456-.273 14.215 5.365l6.445 28.44h-23.7z" fill="#4d423e"/><path d="M109.859 18.521c-90.83 0-78.926 99.648-67.021 123.649 11.905 24 0 40.373 0 40.373 20.282-8.377 16.461-40.373 16.461-40.373 6.525 7.539 18.373 10.053 18.373 10.053-17.636-7.393-24.854-62.264 4.029-64.478 28.884-2.214 60.344-12.787 60.344-12.787s20.068 55.321 6.066 77.265c0 0 9.779-6.658 14.644-17.049 0 0-4.396 30.614 15.005 47.369 0 0-10.141-29.041 0-47.369 10.142-18.327 22.929-116.653-67.901-116.653z" fill="#4c2d19"/><path d="M95.162 179.519l8.535 8.929 6.162 21.654-8.818-13.227-9.921 5.365-8.597-15.462c0-.001 7.421-6.757 12.639-7.259z" fill="#f68e4d"/><path d="M124.556 179.519l-8.536 8.929-6.161 21.654 8.818-13.227 9.92 5.365 8.598-15.462c0-.001-7.421-6.757-12.639-7.259z" fill="#f68e4d"/></svg>