<svg xmlns="http://www.w3.org/2000/svg" viewBox="0 0 58 58"><path d="M58,48H0V3.503C0,1.568,1.568,0,3.503,0h50.994C56.432,0,58,1.568,58,3.503V48z" fill="#d7dce0"/><path d="M0,48v6.497C0,56.432,1.568,58,3.503,58h50.994C56.432,58,58,56.432,58,54.497V48H0z" fill="#556080"/><circle cx="24" cy="24" r="22" fill="#2c2f38"/><path d="M38.308,34.864l4.722-4.722C43.654,28.206,44,26.144,44,24c0-11.046-8.954-20-20-20S4,12.954,4,24	c0,11.046,8.954,20,20,20c6.401,0,12.086-3.019,15.746-7.697L38.308,34.864z" fill="#35495e"/><path fill="#fff" d="M5 55L4 54 4 52 5 51 7 51 8 52 8 54 7 55zM12 55L11 54 11 52 12 51 14 51 15 52 15 54 14 55zM19 55L18 54 18 52 19 51 21 51 22 52 22 54 21 55zM26 55L25 54 25 52 26 51 28 51 29 52 29 54 28 55z"/><path d="M51 46c-.553 0-1-.448-1-1v-5c0-.552.447-1 1-1s1 .448 1 1v5C52 45.552 51.553 46 51 46zM51 38c-.553 0-1-.448-1-1v-3c0-.552.447-1 1-1s1 .448 1 1v3C52 37.552 51.553 38 51 38z" fill="#556080"/><circle cx="51" cy="7" r="3" fill="#556080"/><path d="M24,15c-4.971,0-9,4.029-9,9c0,4.971,4.029,9,9,9s9-4.029,9-9C33,19.029,28.971,15,24,15z M24,28	c-2.209,0-4-1.791-4-4c0-2.209,1.791-4,4-4s4,1.791,4,4C28,26.209,26.209,28,24,28z" fill="#f3d55b"/><path fill="#fff" d="M48 37H54V40H48z"/><path fill="none" stroke="#464f5d" stroke-width="2" stroke-linecap="round" stroke-miterlimit="10" d="M44.672 31.328L51 25 51 7"/><path transform="rotate(45.001 42.197 33.803)" fill="#fff" d="M40.197 30.303H44.197V37.303H40.197z"/><circle cx="24" cy="24" r="4" fill="#2c2f38"/></svg>