<svg xmlns="http://www.w3.org/2000/svg" viewBox="0 0 222.034 222.034"><path d="M112.681 195.081V171.77s37.002-1.121 37.002 21.275l-37.002 2.036zm-3.17 0V171.77s-37.002-1.121-37.002 21.275l37.002 2.036z" fill="#524039"/><path fill="#fdcc9b" d="M96.319 171.769h29.395v32.922H96.319z"/><path d="M96.319 175.646s12.365 7.874 29.395 6.05v-9.928H96.319v3.878z" fill="#fcbc85"/><ellipse cx="53.933" cy="120.719" rx="14.343" ry="16.364" fill="#fcbc85"/><ellipse cx="168.101" cy="120.719" rx="14.343" ry="16.364" fill="#fcbc85"/><path d="M168.043 89.463c0-24.104-17.637-41.741-57.025-41.741-39.39 0-57.026 17.637-57.026 41.741s-4.115 87.597 57.026 87.597c61.14 0 57.025-63.493 57.025-87.597z" fill="#fdcc9b"/><ellipse cx="83.241" cy="116.8" rx="6.173" ry="6.761" fill="#3b2519"/><circle cx="80.55" cy="113.815" r="1.846" fill="#fff"/><path d="M73.366 100.045c2.918 1.46 7.606-4.96 18.335.625 1.955 1.018 3.123-8.708-8.378-8.708-9.957 0-11.72 7.202-9.957 8.083z" fill="#401900"/><ellipse cx="139.555" cy="116.8" rx="6.173" ry="6.761" fill="#3b2519"/><circle cx="136.864" cy="113.815" r="1.847" fill="#fff"/><path d="M148.668 100.045c-2.919 1.46-7.605-4.96-18.335.625-1.956 1.018-3.123-8.708 8.378-8.708 9.957 0 11.72 7.202 9.957 8.083z" fill="#401900"/><path d="M111.017 140.581c-6.1 0-9.774-4.556-9.774-2.352 0 2.205 1.764 6.394 9.774 6.394s9.773-4.189 9.773-6.394c.001-2.205-3.674 2.352-9.773 2.352zm0 20.27c-2.11 0-3.381-1.576-3.381-.813s.61 2.211 3.381 2.211c2.77 0 3.38-1.448 3.38-2.211s-1.27.813-3.38.813z" fill="#fcbc85"/><path d="M111.017 155.234c-9.669 0-15.493-3.937-15.493-2.939 0 .998 2.795 4.924 15.493 4.924 12.697 0 15.492-3.926 15.492-4.924 0-.998-5.824 2.939-15.492 2.939z" fill="#f7945e"/><path d="M111.017 184.996v37.038H39.589c0-14.992 37.624-37.038 71.428-37.038zm0 0v37.038h71.427c0-14.992-37.623-37.038-71.427-37.038z" fill="#81665d"/><path fill="#935125" d="M111.175 222.034L88.126 195.77l8.193 2.204 14.856 5.541z"/><path fill="#935125" d="M111.017 222.034l23.05-26.264-8.194 2.204-14.856 5.541z"/><path d="M110.686 184.996c-7.756 0-15.71 1.171-23.368 3.141 1.69 6.66 6.948 17.029 23.368 17.029 16.419 0 21.677-10.368 23.368-17.029-7.658-1.97-15.612-3.141-23.368-3.141z" fill="#5d2f06"/><path d="M96.319 186.278s0 13.68 14.698 13.68c14.697 0 14.697-13.68 14.697-13.68s-15.248-5.551-29.395 0z" fill="#fdcc9b"/><path d="M193.763 80.562c7.055-6.054 0-15.368 0-15.368 4.409-10.71-5.291-16.298-5.291-16.298.882-11.642-9.259-13.505-9.259-13.505-1.765-10.71-11.112-10.245-11.112-10.245-4.058-11.642-14.344-9.779-14.344-9.779-3.851-9.779-14.966-6.519-14.966-6.519-6.469-8.382-15.495-1.397-15.495-1.397C122.497 3.725 118.806 0 111.017 0c-7.79 0-11.48 3.725-12.28 7.451 0 0-9.026-6.985-15.496 1.397 0 0-11.115-3.26-14.965 6.519 0 0-10.286-1.863-14.343 9.779 0 0-9.348-.466-11.112 10.245 0 0-10.142 1.863-9.26 13.505 0 0-9.7 5.588-5.291 16.298 0 0-7.055 9.313 0 15.368 0 0-10.141 9.301-.882 17.224-6.614 13.804 4.409 21.095 4.409 21.095-4.409 15.501 10.142 18.68 10.142 18.68.478 10.163 11.994 11.456 11.994 11.456s2.557 7.451 10.017 3.042c7.459-4.409-3.051-20.272-3.051-20.272 6.173-6.985 0-18.247 0-18.247 6.966-5.341 0-15.753 0-15.753 9.259-.938 7.377-13.033 7.377-13.033 9.142 1.863 14.12-8.02 14.12-8.02 10.475 4.553 16.341-2.69 16.341-2.69 8.737 6.054 12.28 0 12.28 0s3.543 6.054 12.279 0c0 0 5.866 7.244 16.341 2.69 0 0 4.979 9.883 14.12 8.02 0 0-1.882 12.095 7.378 13.033 0 0-6.966 10.412 0 15.753 0 0-6.173 11.262 0 18.247 0 0-10.511 15.864-3.052 20.272 7.461 4.408 10.018-3.042 10.018-3.042s11.517-1.293 11.993-11.456c0 0 14.551-3.179 10.142-18.68 0 0 11.023-7.291 4.409-21.095 9.26-7.923-.882-17.224-.882-17.224z" fill="#401900"/><path d="M88.603 187.759c.44-2.861-17.12-.752-16.976 7.322.145 8.074 19.401 14.283 24.692 17.223 5.291 2.939 14.698 9.73 14.698 9.73s1.763-6.82-6.467-12.082c-8.231-5.261-16.535-18.371-15.947-22.193z" fill="#614c45"/><path d="M133.589 187.759c-.44-2.861 17.119-.752 16.976 7.322-.145 8.074-19.401 14.283-24.692 17.223-5.291 2.939-14.855 9.73-14.855 9.73s-1.605-6.82 6.625-12.082c8.23-5.261 16.534-18.371 15.946-22.193z" fill="#614c45"/></svg>