<svg xmlns="http://www.w3.org/2000/svg" viewBox="0 0 512 512"><path d="M388.441,216.712c35.093,8.05,81.101-20.832,81.101-20.832l-67.974-49.351	c-8.956-6.502-21.582-3.705-26.955,5.971l-11.516,20.74H148.898l-11.516-20.74c-5.372-9.676-17.998-12.472-26.955-5.971	L42.454,195.88c0,0,46.006,28.883,81.101,20.832" fill="#e28d40"/><path d="M301.45 131.359c9.385-25.849 33.783-44.557 62.597-45.549.376-.021.752-.052 1.128-.052 33.22 0 61.658-23.678 67.629-56.292 1.399-7.694 8.769-12.789 16.453-11.379 7.694 1.409 12.778 8.769 11.379 16.464-3.341 18.249-11.672 34.493-23.406 47.48 27.008-9.271 46.468-34.89 46.468-64.998v-2.808c0-7.809 6.347-14.146 14.156-14.146 7.819 0 14.146 6.337 14.146 14.146v2.808c0 53.494-43.534 97.017-97.028 97.017h-48.535c-18.468 0-34.107 12.329-39.118 29.19M184.68 143.219c-5.022-16.85-20.66-29.169-39.118-29.169H97.017C43.524 114.05 0 70.526 0 17.033v-2.808C0 6.415 6.327.078 14.146.078c7.809 0 14.146 6.337 14.146 14.146v2.808c0 30.108 19.47 55.728 46.468 64.998-11.734-12.987-20.055-29.231-23.396-47.48-1.409-7.694 3.685-15.054 11.369-16.464 7.694-1.409 15.065 3.685 16.464 11.379 5.972 32.614 34.399 56.292 67.619 56.292.376 0 .752.031 1.138.052 28.803.981 53.201 19.679 62.587 45.538v.01" fill="#c69a6a"/><g fill="#f4a14e"><path d="M406.151,511.922c-6.013-36.686-25.15-68.945-52.429-91.818H158.278 c-27.279,22.874-46.415,55.133-52.429,91.818"/><path d="M174.229,430.348c-35.753-19.346-59.061-53.298-59.061-100.589v-65.08 c0-77.78,63.047-140.827,140.827-140.827c38.89,0,74.097,15.767,99.578,41.249c25.493,25.482,41.249,60.688,41.249,99.578v65.08 c0,47.291-23.309,81.243-59.061,100.589"/></g><path d="M182.475,420.103c-19.997-20.149-32.439-50.515-32.439-90.345v-65.08	c0-77.78,47.436-140.827,105.959-140.827h-0.001c-77.78,0-140.827,63.047-140.827,140.827v65.08	c0,39.83,16.536,70.196,43.113,90.345h-0.003c-27.279,22.874-46.415,55.133-52.429,91.818h37.176	c4.525-36.686,18.922-68.945,39.448-91.818L182.475,420.103L182.475,420.103z" fill="#e28d40"/><path d="M255.997,411.402L255.997,411.402c-59.737,0-108.162-48.426-108.162-108.162v-22.55	c0-30.154,24.445-54.599,54.599-54.599h107.125c30.154,0,54.599,24.445,54.599,54.599v22.55	C364.159,362.976,315.734,411.402,255.997,411.402z" fill="#ffdac5"/><path d="M174.979,303.24v-22.55c0-30.154,24.445-54.599,54.599-54.599h-27.144	c-30.154,0-54.599,24.445-54.599,54.599v22.55c0,59.736,48.426,108.162,108.162,108.162l0,0c4.597,0,9.125-0.289,13.572-0.846	C216.239,403.88,174.979,358.379,174.979,303.24z" fill="#efc1ab"/><path d="M193.876 320.443c-4.324 0-7.83-3.506-7.83-7.83v-18.116c0-4.324 3.506-7.83 7.83-7.83s7.83 3.506 7.83 7.83v18.117C201.706 316.938 198.2 320.443 193.876 320.443zM318.118 320.443c-4.324 0-7.83-3.506-7.83-7.83v-18.116c0-4.324 3.506-7.83 7.83-7.83 4.324 0 7.83 3.506 7.83 7.83v18.117C325.948 316.938 322.442 320.443 318.118 320.443z" fill="#313344"/><path d="M243.453,226.091c0,0,22.084,38.344,80.181,38.344l-20.244-38.344" fill="#5c5e70"/><path d="M255.997,383.104c-11.402,0-22.806-4.34-31.486-13.021c-3.058-3.058-3.058-8.015,0-11.072	c3.058-3.058,8.016-3.059,11.072,0c11.256,11.255,29.571,11.254,40.827,0c3.058-3.058,8.016-3.059,11.072,0	c3.058,3.058,3.058,8.016,0,11.072C278.803,378.764,267.4,383.104,255.997,383.104z" fill="#ce5b6c"/><path d="M255.997,419.232c-63.959,0-115.992-52.033-115.992-115.992v-22.55	c0-34.424,28.006-62.429,62.429-62.429h107.125c34.424,0,62.429,28.006,62.429,62.429v22.55	C371.988,367.199,319.955,419.232,255.997,419.232z M202.434,233.921c-25.789,0-46.769,20.981-46.769,46.769v22.55	c0,55.324,45.008,100.332,100.332,100.332l0,0c55.324,0,100.332-45.008,100.332-100.332v-22.55	c0-25.789-20.981-46.769-46.769-46.769H202.434z" fill="#e28d40"/><path d="M284.138,480.685c0,12.831-8.582,23.646-20.316,27.039c-2.485,0.72-5.116,1.107-7.83,1.107	c-2.714,0-5.345-0.386-7.83-1.107c-11.734-3.393-20.316-14.209-20.316-27.039c0-15.545,12.601-28.146,28.146-28.146	S284.138,465.14,284.138,480.685z" fill="#ffd15c"/><path d="M263.823,480.685v27.039c-2.485,0.72-5.116,1.107-7.83,1.107s-5.345-0.386-7.83-1.107v-27.039	c0-4.322,3.508-7.83,7.83-7.83C260.325,472.855,263.823,476.363,263.823,480.685z" fill="#edbb4c"/></svg>