<svg xmlns="http://www.w3.org/2000/svg" viewBox="0 0 512 512"><path d="M388 104c-6.4 0-12 5.6-12 12v72.8c0 5.6-4.8 11.2-10.4 11.2h-.8c-6.4 0-12 5.6-12 12v73.6c0 5.6-3.2 9.6-8.8 10.4.8-1.6.8-2.4.8-4 0-6.4-5.6-12-12-12H328v-64.8c0-3.2 1.6-6.4 4.8-8 8-2.4 12.8-12 10.4-20s-12-12.8-20-10.4c-7.2 1.6-11.2 8-11.2 15.2 0 3.2.8 5.6 2.4 8.8s1.6 6.4-.8 8.8L302.4 224c-2.4 3.2-8 4-11.2 1.6-.8 0-.8-.8-1.6-1.6l-12-14.4c-2.4-2.4-2.4-6.4-.8-8.8 1.6-2.4 2.4-5.6 2.4-8.8 0-8.8-7.2-16-16-16s-16 7.2-16 16c0 3.2.8 5.6 2.4 8.8 1.6 3.2 1.6 6.4-.8 8.8L238.4 224c-2.4 3.2-8 4-11.2 1.6-.8 0-.8-.8-1.6-1.6l-12-14.4c-2.4-2.4-2.4-6.4-.8-8.8 1.6-2.4 2.4-5.6 2.4-8.8 0-8.8-7.2-16-16-16s-16 7.2-16 16c0 7.2 4.8 12.8 11.2 15.2 3.2 1.6 5.6 4.8 4.8 8V280h-4c-6.4 0-12 5.6-12 12s5.6 12 12 12H328v40c0 35.2-18.4 68.8-48 88-15.2 9.6-24 26.4-24 44.8L392.8 388c4-2.4 7.2-7.2 7.2-12V104h-12z" fill="#d1d9e1"/><path d="M119.2 388c-4.8-3.2-7.2-8-7.2-13.6V32h288v342.4c0 5.6-2.4 10.4-7.2 13.6L256 476.8 119.2 388z" fill="#e2e5e7"/><path d="M112 32v232h12c6.4 0 12-5.6 12-12v-80.8c0-6.4 5.6-11.2 11.2-11.2h.8c6.4 0 12-5.6 12-12V88c0-17.6 14.4-32 32-32h152c13.6 0 24-10.4 24-24H112z" fill="#f1f2f2"/><path d="M400 0H112C94.4 0 80 14.4 80 32v342.4c0 16 8 31.2 21.6 40l145.6 94.4c5.6 3.2 12 3.2 17.6 0l145.6-94.4c13.6-8.8 21.6-24 21.6-40V32c0-17.6-14.4-32-32-32zm0 68.8c-7.2-6.4-15.2-10.4-24.8-12-1.6-8.8-5.6-17.6-12-24.8H400v36.8zM148.8 32c-6.4 7.2-10.4 15.2-12 24.8-9.6 1.6-17.6 5.6-24.8 12V32h36.8zM256 476.8l-26.4-17.6c11.2-4.8 20-12.8 26.4-23.2 6.4 10.4 15.2 18.4 26.4 23.2L256 476.8zm144-102.4c0 5.6-2.4 10.4-7.2 13.6l-92 60c-20.8-1.6-36.8-19.2-36.8-40 0-4.8-3.2-8-8-8s-8 3.2-8 8c0 20.8-16 38.4-36.8 40l-92-60c-4.8-3.2-7.2-8-7.2-13.6V104c0-17.6 14.4-32 32-32 4.8 0 8-3.2 8-8 0-17.6 14.4-32 32-32h144c17.6 0 32 14.4 32 32 0 4.8 3.2 8 8 8 17.6 0 32 14.4 32 32v270.4z" fill="#2d4961"/><path d="M410.4 415.2c13.6-8.8 21.6-24 21.6-40V56c-8.8 0-16 7.2-16 16v304.8c0 8-4 15.2-10.4 20l-136 90.4c-8 5.6-13.6 15.2-13.6 24.8 3.2 0 6.4-.8 8.8-2.4l145.6-94.4z" fill="#123247"/><g fill="#2e485d"><circle cx="256" cy="376" r="8"/><circle cx="160" cy="80" r="8"/><circle cx="352" cy="80" r="8"/></g><path d="M80 32v272c8.8 0 16-7.2 16-16V32c0-8.8 7.2-16 16-16h272c8.8 0 16-7.2 16-16H112C94.4 0 80 14.4 80 32z" fill="#44637f"/><g fill="#2e485d"><circle cx="328" cy="104" r="8"/><circle cx="184" cy="104" r="8"/><circle cx="256" cy="344" r="8"/><path d="M320 168c-8.8 0-16 7.2-16 16 0 3.2.8 5.6 2.4 8.8s1.6 6.4-.8 8.8L294.4 216c-2.4 3.2-8 4-11.2 1.6-.8 0-.8-.8-1.6-1.6l-12-14.4c-2.4-2.4-2.4-6.4-.8-8.8 1.6-2.4 2.4-5.6 2.4-8.8 0-8.8-7.2-16-16-16s-16 7.2-16 16c0 3.2.8 5.6 2.4 8.8 1.6 3.2 1.6 6.4-.8 8.8L230.4 216c-2.4 3.2-8 4-11.2 1.6-.8 0-.8-.8-1.6-1.6l-12-14.4c-2.4-2.4-2.4-6.4-.8-8.8 1.6-2.4 2.4-5.6 2.4-8.8 0-8.8-7.2-16-16-16s-16 7.2-16 16c0 7.2 4.8 12.8 11.2 15.2 3.2 1.6 5.6 4.8 4.8 8V264c0 4.8 3.2 8 8 8h112c4.8 0 8-3.2 8-8v-56.8c0-3.2 1.6-6.4 4.8-8 8-3.2 12-12.8 8.8-20.8-1.6-6.4-6.4-10.4-12.8-10.4z"/></g><path d="M296 256h-96c-4.8 0-8 3.2-8 8v8h128v-56c-8.8 0-16 7.2-16 16v16c0 4.8-3.2 8-8 8zm-47.2-64.8c-1.6 1.6-2.4 4.8 0 6.4l1.6 1.6c8 3.2 17.6-.8 20.8-9.6 1.6-3.2 1.6-7.2 0-11.2-.8-2.4-4-4-6.4-3.2-.8 0-1.6.8-1.6 1.6l-14.4 14.4zm-64 0c-1.6 1.6-2.4 4.8 0 6.4l1.6 1.6c8 3.2 17.6-.8 20.8-9.6 1.6-3.2 1.6-7.2 0-11.2-.8-2.4-4-4-6.4-3.2-.8 0-1.6.8-1.6 1.6l-14.4 14.4zm128 0c-1.6 1.6-2.4 4.8 0 6.4l1.6 1.6c8 3.2 17.6-.8 20.8-9.6 1.6-3.2 1.6-7.2 0-11.2-.8-2.4-4-4-6.4-3.2-.8 0-1.6.8-1.6 1.6l-14.4 14.4z" fill="#123247"/><path d="M188 272h136c6.4 0 12 5.6 12 12s-5.6 12-12 12H188c-6.4 0-12-5.6-12-12s5.6-12 12-12z" fill="#ee2c39"/><path d="M188 296h136c6.4 0 12-5.6 12-12H200c-6.4 0-12 5.6-12 12z" fill="#cc202c"/><g fill="#2e485d"><circle cx="352" cy="232" r="8"/><circle cx="160" cy="232" r="8"/></g></svg>