<svg xmlns="http://www.w3.org/2000/svg" viewBox="0 0 512 512"><path d="M347.513 427.501a321.62 321.62 0 0 1 .668 20.681V512H111.774v-63.818c0-6.984.23-13.885.668-20.681L98.327 279.205l53.117 2.881 206.821 11.212-10.752 134.203z" fill="#ff525d"/><path d="M151.445 282.086V512h-39.671v-63.818c0-6.984.23-13.885.668-20.681L98.327 279.205l53.118 2.881z" fill="#ef4152"/><path d="M421.833 437.356H372.38c-20.076 0-36.351-16.275-36.351-36.351V345.32l-178.446-.01h-33.658v55.696c0 20.076-16.276 36.351-36.351 36.351H38.122a98.389 98.389 0 0 0 40.391-79.467V210.835c0-40.934 16.244-78.089 42.646-105.347l44.233-25.65 1.837-1.065 126.832 6.264 81.148 82.662c4.051 13.666 6.233 28.145 6.233 43.137V357.89a98.388 98.388 0 0 0 40.391 79.466z" fill="#5c5e70"/><g fill="#494b5b"><path d="M169.832 246.363a7.83 7.83 0 0 1-7.83-7.83v-17.269c0-13.509 2.019-26.904 6-39.812a7.83 7.83 0 0 1 14.964 4.614 119.296 119.296 0 0 0-5.304 35.196v17.269a7.83 7.83 0 0 1-7.83 7.832zm130.82 11.483a7.83 7.83 0 0 1-7.83-7.83v-28.753c0-11.942-1.784-23.785-5.304-35.197a7.83 7.83 0 0 1 5.175-9.789 7.829 7.829 0 0 1 9.789 5.175c3.981 12.909 6 26.303 6 39.812v28.753a7.829 7.829 0 0 1-7.83 7.829zm27.547-28.752a7.83 7.83 0 0 1-7.83-7.83v-13.822a7.83 7.83 0 0 1 15.66 0v13.822a7.829 7.829 0 0 1-7.83 7.83z"/><path d="M154.848 241.893c5.397 31.946 5.324 68.526 2.735 103.416h-33.658v55.696c0 20.076-16.276 36.351-36.351 36.351H38.122a98.389 98.389 0 0 0 40.391-79.467V210.835c0-40.934 16.244-78.089 42.646-105.347l44.233-25.65 44.515 15.9c0-.001-71.773 47.26-55.059 146.155z"/></g><circle cx="427.944" cy="104.783" r="45.935" fill="#ff525d"/><path d="M415.413 104.789c0-19.474 12.125-36.105 29.231-42.789a45.795 45.795 0 0 0-16.704-3.145c-25.37 0-45.935 20.565-45.935 45.935s20.565 45.935 45.935 45.935a45.803 45.803 0 0 0 16.704-3.145c-17.106-6.687-29.231-23.317-29.231-42.791z" fill="#ef4152"/><path d="M426.876 57.841l-30.213 36.696L265.144 54.24l-65.969-20.211s8.414-10.001 32.311-20.274c41.456-17.831 87.088-17.915 127.49-2.631v.01a172.317 172.317 0 0 1 67.42 46.175l.48.532z" fill="#fcf8f2"/><path d="M136.026 253.121a7.83 7.83 0 0 1-8.459-7.145l-1.976-23.45a135.464 135.464 0 0 1 11.136-66.142l.294-.664a7.831 7.831 0 0 1 10.332-3.983 7.831 7.831 0 0 1 3.983 10.332l-.294.665a119.764 119.764 0 0 0-9.846 58.476l1.976 23.45a7.831 7.831 0 0 1-7.146 8.461z" fill="#5c5e70"/><path d="M336.029 243.188v124.055c-22.571 28.981-61.636 44.118-106.047 44.118-1.201 0-2.401-.01-3.591-.031-42.928-.804-80.511-15.9-102.466-44.097V243.188h212.104z" fill="#ef4152"/><path d="M150.617 369.026c-7.455 38.151 36.97 69.895 36.97 69.895l42.397-49.482 42.397 49.482s44.424-31.743 36.97-69.895" fill="#fcf8f2"/><path d="M336.029 221.264V345.32c-22.571 28.981-61.636 44.118-106.047 44.118-1.201 0-2.401-.01-3.591-.031-42.928-.804-80.511-15.9-102.466-44.097V221.265l212.104-.001z" fill="#ffdac5"/><path d="M171.281 290.161a7.83 7.83 0 0 1-7.83-7.83v-16.278a7.83 7.83 0 0 1 15.66 0v16.278a7.83 7.83 0 0 1-7.83 7.83z" fill="#313344"/><path d="M358.976 11.124v.01s-76.199-2.954-83.862 32.342c-.971 4.479-4.52 8.007-9.97 10.763l-65.969-20.211s8.414-10.001 32.311-20.274c41.456-17.831 87.088-17.914 127.49-2.63z" fill="#e5e1dc"/><path d="M396.663 94.537l-20.973 73.485c-55.967-38.126-122.604-53.504-173.654-59.496-47.062-5.512-80.876-3.038-80.876-3.038l40.214-70.687s26.673-2.829 65.906 1.096c46.612 4.666 110.973 18.854 169.383 58.64z" fill="#ff525d"/><path d="M292.29 290.161a7.83 7.83 0 0 1-7.83-7.83v-16.278a7.83 7.83 0 0 1 15.66 0v16.278a7.83 7.83 0 0 1-7.83 7.83z" fill="#313344"/><path d="M202.036 108.526c-47.062-5.512-80.876-3.038-80.876-3.038l40.214-70.687s26.673-2.829 65.906 1.096c-.001 0-35.841 24.116-25.244 72.629z" fill="#ef4152"/><path d="M231.786 346.461c-10.449 0-20.897-3.978-28.852-11.932a7.828 7.828 0 0 1 0-11.072 7.827 7.827 0 0 1 11.072 0c9.804 9.803 25.754 9.803 35.558 0a7.828 7.828 0 0 1 11.072 0 7.828 7.828 0 0 1 0 11.072c-7.953 7.954-18.401 11.932-28.85 11.932z" fill="#ce5b6c"/><path d="M336.029 229.365v-8.1H123.926V345.31c21.955 28.198 59.538 43.293 102.466 44.097a182.745 182.745 0 0 0 17.935-1.18c-50.727-7.746-89.479-51.708-89.479-104.533v-36.682c0-9.747 7.901-17.647 17.647-17.647h163.534z" fill="#efc1ab"/><path d="M229.975 431.615c-6.808 0-10.362-8.547-5.533-13.373 2.111-2.109 5.366-2.837 8.173-1.83 3.331 1.195 5.513 4.607 5.151 8.14-.405 3.951-3.803 7.063-7.791 7.063zm0 33.668c-6.947 0-10.45-8.867-5.301-13.596 2.167-1.991 5.376-2.591 8.12-1.537 3.303 1.271 5.4 4.738 4.948 8.258-.497 3.872-3.843 6.875-7.767 6.875z" fill="#fcf8f2"/><g fill="#fcb997"><ellipse cx="304.139" cy="307.387" rx="15.733" ry="9.538"/><ellipse cx="155.822" cy="307.387" rx="15.733" ry="9.538"/></g><path d="M229.975 498.951c-6.888 0-10.417-8.695-5.417-13.484 2.265-2.169 5.722-2.765 8.589-1.501 3.283 1.448 5.191 5.078 4.519 8.604-.694 3.649-3.959 6.381-7.691 6.381z" fill="#fcf8f2"/></svg>