<svg xmlns="http://www.w3.org/2000/svg" viewBox="0 0 512 512"><path d="M375.013,82.521c-3.128,0-6.22,0.152-9.274,0.433C352.603,35.134,308.824,0,256.833,0	c-62.374,0-112.939,50.565-112.939,112.939c0,1.289,0.03,2.572,0.073,3.852c-7.184-2.001-14.746-3.095-22.568-3.095	c-46.359,0-83.94,37.581-83.94,83.94s37.581,83.94,83.94,83.94h253.616c54.967,0,99.528-44.56,99.528-99.528	S429.981,82.521,375.013,82.521z" fill="#f0eae5"/><path d="M388.544,268.046H134.929c-46.359,0-83.94-37.581-83.94-83.94	c0-19.732,6.825-37.858,18.221-52.188c-19.339,15.377-31.752,39.092-31.752,65.719c0,46.359,37.581,83.94,83.94,83.94h253.615	c30.93,0,58.563-14.109,76.818-36.24C434.63,259.523,412.582,268.046,388.544,268.046z" opacity=".1"/><path d="M438.483,512H73.516c-7.372,0-13.349-5.976-13.349-13.349v-19.13c0-7.372,5.976-13.348,13.349-13.348	h364.967c7.372,0,13.349,5.976,13.349,13.348v19.13C451.831,506.024,445.855,512,438.483,512z" fill="#00b7cf"/><path d="M281.766,489.624h-51.532c-12.951,0-23.45-10.498-23.45-23.45l0,0h98.432	l0,0C305.215,479.124,294.716,489.624,281.766,489.624z" opacity=".2"/><path d="M395.358,254.761H116.64c-12.073,0-21.859,9.787-21.859,21.859v189.553h322.436V276.62	C417.218,264.547,407.431,254.761,395.358,254.761z" fill="#006375"/><path fill="#fff" d="M121.595 281.575H390.398V439.354H121.595z"/><circle cx="197.327" cy="374.315" r="14.571" fill="#72d9e8"/><circle cx="314.666" cy="374.315" r="14.571" fill="#ffdf52"/><path opacity=".15" d="M94.786 452.511H417.219V466.17400000000004H94.786z"/><path d="M203.044,140.307v153.151h-31.885c-4.744,0-7.227,5.638-4.023,9.138	l70.19,76.681c3.857,4.213,10.497,4.213,14.354,0l70.19-76.681c3.204-3.499,0.721-9.138-4.023-9.138h-31.885l-0.01-153.152	c0-7.46-6.047-13.506-13.507-13.506h-55.891C209.091,126.799,203.044,132.847,203.044,140.307z" opacity=".1"/><path d="M214.541,128.425v153.151h-31.885c-4.745,0-7.227,5.638-4.023,9.138l70.19,76.681	c3.857,4.213,10.497,4.213,14.354,0l70.19-76.681c3.204-3.499,0.721-9.138-4.023-9.138h-31.885l-0.01-153.152	c0-7.46-6.047-13.506-13.507-13.506h-55.893C220.588,114.918,214.541,120.966,214.541,128.425z" fill="#dc6c84"/></svg>