<svg xmlns="http://www.w3.org/2000/svg" viewBox="0 0 512 512"><path d="M378.026 293.231h-.453v-74.179h43.586v31.045c.001 23.822-19.311 43.134-43.133 43.134zm-244.052 0h.453v-74.179H90.84v31.045c0 23.822 19.312 43.134 43.134 43.134z" fill="#ffdac5"/><path d="M403.374 255.043h-20.569a7.847 7.847 0 0 1-7.847-7.847 7.847 7.847 0 0 1 7.847-7.847h20.569a7.847 7.847 0 1 1 0 15.694zm-274.179 0h-20.569a7.847 7.847 0 0 1-7.847-7.847 7.847 7.847 0 0 1 7.847-7.847h20.569a7.847 7.847 0 1 1 0 15.694z" fill="#fcb997"/><path d="M393.022 512v-47.978c0-42.174-19.052-79.902-49.027-105.032H168.007c-29.975 25.131-49.027 62.858-49.027 105.032V512" fill="#ff525d"/><path d="M218.132 358.99h-50.126c-29.975 25.131-49.027 62.858-49.027 105.032V512h50.126v-47.978c0-42.175 19.052-79.901 49.027-105.032z" fill="#ef4152"/><path d="M390.735 439.004s-25.779-25.455-59.259-31.733c0 0 .628 39.381-11.509 61.728 0 0-30.896-4.76-63.967-41.85-33.061 37.089-63.967 41.85-63.967 41.85-10.525-19.387-11.456-51.59-11.519-59.782 0-1.255.01-1.946.01-1.946-33.48 6.277-59.249 31.733-59.249 31.733h-.01c5.88-31.921 22.839-59.971 46.746-80.017H344c23.907 20.046 40.866 48.096 46.746 80.017h-.011z" fill="#4bc999"/><path d="M218.136 358.987c-16.123 13.517-29.086 30.686-37.623 50.23 0-1.255.01-1.946.01-1.946-33.48 6.277-59.249 31.733-59.249 31.733h-.01c5.88-31.921 22.839-59.971 46.746-80.017h50.126z" fill="#41b787"/><path d="M362.288 112.984H149.712C166.609 71.866 202.255 31.115 256 0c53.746 31.115 89.391 71.866 106.288 112.984z" fill="#4bc999"/><path d="M185.881 148.028l105.591-9.803 90.747 68.628c.387 4.018.586 8.087.586 12.199v58.6c0 70.025-56.769 107.585-126.805 107.585s-126.805-37.56-126.805-107.585v-58.6c0-4.112.199-8.182.586-12.199l56.1-58.825z" fill="#ffdac5"/><path d="M171.113 277.652v-58.6c0-4.112.199-8.182.586-12.199l56.1-58.825 67.853-6.299-4.633-3.504-105.591 9.803-56.1 58.825a127.21 127.21 0 0 0-.586 12.199v58.6c0 70.025 56.769 107.585 126.805 107.585 7.22 0 14.296-.406 21.185-1.198-59.948-6.897-105.619-43.581-105.619-106.387z" fill="#efc1ab"/><path d="M197.174 285.752a7.847 7.847 0 0 1-7.847-7.847v-16.313c0-4.334 3.513-7.847 7.847-7.847s7.847 3.513 7.847 7.847v16.313a7.847 7.847 0 0 1-7.847 7.847zm121.272 0a7.847 7.847 0 0 1-7.847-7.847v-16.313a7.847 7.847 0 0 1 7.847-7.847 7.847 7.847 0 0 1 7.847 7.847v16.313a7.847 7.847 0 0 1-7.847 7.847z" fill="#313344"/><path d="M233.935 98.849c1.967 5.451 1.894 10.128.126 14.135h-84.348C166.609 71.866 202.255 31.115 256 0c0 0-44.131 37.696-22.065 98.849z" fill="#41b787"/><path d="M257.81 342.175c-10.473 0-20.942-3.985-28.914-11.957a7.846 7.846 0 0 1 11.096-11.096c9.825 9.824 25.811 9.824 35.635 0a7.846 7.846 0 0 1 11.096 11.096c-7.969 7.97-18.442 11.957-28.913 11.957z" fill="#ce5b6c"/><path d="M393.009 142.356v55.982c0 8.505-8.176 14.679-16.328 12.253a423.138 423.138 0 0 0-182.197-13.086 422.873 422.873 0 0 0-59.151 13.082c-8.154 2.428-16.335-3.741-16.335-12.249v-55.991c0-12.89 8.506-24.283 20.904-27.82a425.098 425.098 0 0 1 54.917-11.802 422.97 422.97 0 0 1 177.286 11.802c12.398 3.535 20.904 14.929 20.904 27.829z" fill="#ff525d"/><path d="M194.481 197.499a422.873 422.873 0 0 0-59.151 13.082c-8.154 2.428-16.335-3.741-16.335-12.249v-55.991c0-12.89 8.506-24.283 20.904-27.82a425.098 425.098 0 0 1 54.917-11.802l.042.01c0 .002-26.303 45.377-.377 94.77z" fill="#ef4152"/><path d="M393.009 163.019v21.793c-11.812-11.404-24.848-23.896-32.256-30.644a667.577 667.577 0 0 0-32.339 16.008 7.853 7.853 0 0 1-8.569-.816c-9.333-7.46-19-14.794-28.814-21.814a677.029 677.029 0 0 0-30.707 19.01 7.862 7.862 0 0 1-8.621 0 679.384 679.384 0 0 0-30.718-19.021 689.89 689.89 0 0 0-28.803 21.825 7.838 7.838 0 0 1-7.23 1.371 7.456 7.456 0 0 1-1.35-.555 659.377 659.377 0 0 0-32.371-16.018c-8.035 7.24-21.364 19.962-32.235 30.425v-21.751c10.222-9.741 20.391-19.303 25.769-23.896a7.834 7.834 0 0 1 8.328-1.182 686.64 686.64 0 0 1 33.302 16.165 696.025 696.025 0 0 1 29.63-22.107 7.842 7.842 0 0 1 8.422-.398 699.078 699.078 0 0 1 31.565 19.219 689.813 689.813 0 0 1 31.555-19.219 7.842 7.842 0 0 1 8.422.398 694.501 694.501 0 0 1 29.63 22.107 687.168 687.168 0 0 1 33.291-16.164 7.855 7.855 0 0 1 8.339 1.182c4.678 3.994 14.837 13.609 25.76 24.082z" fill="#4bc999"/><circle cx="256.005" cy="473.948" r="17.786" fill="#5c5e70"/><g fill="#fcb997"><ellipse cx="337.351" cy="307.595" rx="17.263" ry="10.462"/><ellipse cx="174.66" cy="307.595" rx="17.263" ry="10.462"/></g><path d="M184.953 170.73a7.456 7.456 0 0 1-1.35-.555 659.377 659.377 0 0 0-32.371-16.018c-8.035 7.24-21.364 19.962-32.235 30.425v-21.751c10.222-9.741 20.391-19.303 25.769-23.896a7.834 7.834 0 0 1 8.328-1.182 686.64 686.64 0 0 1 29.975 14.449 97.921 97.921 0 0 0 1.884 18.528z" fill="#41b787"/></svg>