<svg xmlns="http://www.w3.org/2000/svg" viewBox="0 0 512.002 512.002"><path fill="#ff525d" d="M390.532 4.079L480.605.297l-17.729 76.947"/><path fill="#ef4152" d="M390.532 4.079L480.605.297l-61.451 41.781"/><path d="M364.989 405.213c14.893-7.736 25.69-23.017 26.259-41.721v-.046h.046c33.37-1.024 55.818-34.587 44.031-65.818l-.011-.046c18.488-8.351 28.648-26.236 28.648-44.452 0-11.776-4.243-23.676-13.232-33.233l-.023-.023.023-.012c22.88-24.325 15.03-63.953-15.417-77.697l.011-.034-16.17-100.053-93.724-9.851-.046.011c-8.351-18.489-26.236-28.637-44.452-28.637-11.776 0-23.688 4.243-33.233 13.232l-.023.011-.011-.011c-24.325-22.892-63.953-15.03-77.697 15.405l-.035-.011c-31.243-11.788-64.794 10.661-65.818 44.031v.056h-.056c-33.37 1.024-55.818 34.576-44.031 65.818l.011.034c-18.488 8.351-28.637 26.236-28.637 44.452 0 11.776 4.243 23.688 13.232 33.245l.011.012-.011.023c-22.892 24.325-15.03 63.942 15.405 77.685l-.011.046c-11.788 31.231 10.661 64.794 44.031 65.818h.056v.046c.568 18.705 11.366 33.984 26.248 41.732" fill="#5c5e70"/><path d="M174.344 363.493v-.045h-.056c-33.37-1.024-55.818-34.587-44.031-65.818l.012-.045c43.189-23.539 42.144-53.36-15.405-77.685l.011-.023-.011-.012c-8.988-9.557-13.232-21.47-13.232-33.245 0-18.216 10.149-36.1 28.637-44.452l-.011-.034c-11.788-31.243 10.661-64.794 44.031-65.818h.056v-.057c1.024-33.37 34.576-55.818 65.818-44.031l.034.011c8.074-17.878 25.079-27.953 42.668-28.596a49.765 49.765 0 0 0-1.932-.042c-11.776 0-23.688 4.244-33.233 13.232l-.023.011-.011-.011C223.34-6.06 183.712 1.802 169.968 32.237l-.034-.011c-31.243-11.788-64.794 10.661-65.818 44.031v.056h-.056c-33.37 1.024-55.818 34.576-44.031 65.818l.011.034c-18.488 8.351-28.637 26.236-28.637 44.452 0 11.776 4.243 23.688 13.232 33.245l.011.012-.011.023c-22.892 24.325-15.03 63.942 15.405 77.685l-.011.045c-11.788 31.231 10.661 64.794 44.031 65.818h.056v.045c.568 18.705 11.366 33.984 26.248 41.732l70.224-.003c-14.88-7.746-25.674-23.025-26.244-41.726z" fill="#494b5b"/><path d="M392.426 512v-17.524c0-44.552-20.126-84.406-51.792-110.954h-185.91c-31.665 26.548-51.792 66.402-51.792 110.954V512" fill="#ffd15c"/><path d="M201.313 383.522h-46.59c-31.665 26.548-51.791 66.402-51.791 110.954V512h46.589v-17.524c.002-44.551 20.128-84.406 51.792-110.954zm38.525-.001h15.674v128.481h-15.674z" fill="#edbb4c"/><path d="M381.63 235.694v61.904c0 73.973-59.97 113.651-133.954 113.651s-133.954-39.678-133.954-113.651v-61.904c0-13.174 1.901-25.918 5.46-37.942 12.301 14.644 33.123 21.397 52.973 13.903l.044-.011c8.113 17.96 25.486 27.818 43.182 27.818 11.44 0 23.011-4.123 32.284-12.854l.022-.012.01.012c23.629 22.238 62.125 14.6 75.476-14.965l.033.011c19.85 7.493 40.661.751 52.963-13.882 3.56 12.015 5.461 24.748 5.461 37.922z" fill="#ffdac5"/><path d="M155.518 297.598v-61.904c0-7.141.577-14.148 1.655-20.99-14.784.555-28.778-5.985-37.992-16.954-3.559 12.025-5.46 24.768-5.46 37.942v61.904c0 73.973 59.97 113.651 133.954 113.651 7.11 0 14.088-.37 20.898-1.098-64.055-6.847-113.055-45.687-113.055-112.551z" fill="#efc1ab"/><path d="M185.535 305.704a7.837 7.837 0 0 1-7.837-7.837v-17.233a7.837 7.837 0 0 1 15.674 0v17.233a7.837 7.837 0 0 1-7.837 7.837zm128.111 0a7.837 7.837 0 0 1-7.837-7.837v-17.233a7.837 7.837 0 0 1 7.837-7.837 7.837 7.837 0 0 1 7.837 7.837v17.233a7.837 7.837 0 0 1-7.837 7.837z" fill="#313344"/><path d="M249.591 365.307c-10.947 0-21.891-4.165-30.225-12.499a7.837 7.837 0 0 1 11.082-11.082c10.556 10.555 27.73 10.555 38.285 0a7.837 7.837 0 0 1 11.081 11.082c-8.33 8.331-19.279 12.499-30.223 12.499z" fill="#ce5b6c"/><path d="M455.838 121.634l-20.522 20.532c-7.576-38.16-34.221-65.348-59.382-83.153-26.081-18.432-50.552-26.781-50.552-26.781l21.003-21.003c11.64-11.64 29.466-14.597 44.147-7.147a160.332 160.332 0 0 1 20.083 12.11c17.941 12.675 37.606 32.005 52.266 61.054 7.46 14.786 4.67 32.685-7.043 44.388z" fill="#fcf8f2"/><path d="M410.615 16.193s-22.873 8.255-34.68 42.82c-26.081-18.432-50.552-26.781-50.552-26.781l21.003-21.003c11.64-11.64 29.466-14.597 44.147-7.147a160.607 160.607 0 0 1 20.082 12.111z" fill="#e5e1dc"/><g fill="#ef4152"><path d="M154.026 182.199a7.837 7.837 0 0 1-7.837-7.837V93.131a7.837 7.837 0 0 1 15.674 0v81.231a7.837 7.837 0 0 1-7.837 7.837z"/><path d="M189.193 161.893a7.807 7.807 0 0 1-3.911-1.051l-70.348-40.615a7.837 7.837 0 0 1 7.837-13.573l70.348 40.615a7.837 7.837 0 0 1-3.926 14.624z"/><path d="M118.859 161.893a7.837 7.837 0 0 1-3.926-14.624l70.348-40.615a7.837 7.837 0 0 1 7.837 13.573l-70.348 40.615a7.796 7.796 0 0 1-3.911 1.051z"/></g><g fill="#fcb997"><ellipse cx="321.894" cy="322.875" rx="15.747" ry="9.546"/><ellipse cx="173.455" cy="322.875" rx="15.747" ry="9.546"/></g><path d="M338.261 482.739H292.81a7.837 7.837 0 0 1-7.837-7.837 7.837 7.837 0 0 1 7.837-7.837h45.451a7.837 7.837 0 0 1 7.837 7.837 7.837 7.837 0 0 1-7.837 7.837z" fill="#edbb4c"/></svg>