<svg xmlns="http://www.w3.org/2000/svg" viewBox="0 0 512 512"><circle cx="380.427" cy="109.657" r="109.657" fill="#7a7a7c"/><path d="M457.97 187.199c-42.824 42.824-112.257 42.824-155.081 0L457.97 32.118c42.825 42.824 42.825 112.257 0 155.081z" fill="#6a6a6b"/><path d="M33.845 512l-11.934-11.933c27.03-27.03 29.989-40.095 33.12-53.927 3.31-14.626 6.735-29.751 33.595-56.611l11.934 11.933c-23.412 23.411-26.033 34.993-29.069 48.404-3.36 14.837-7.167 31.656-37.646 62.134z" fill="#7a7a7c"/><path d="M102.272 419.88l-32.063-32.063c-13.688-13.688-14.086-35.757-.899-49.929l201.669-216.744 97.967 97.967-216.745 201.668c-14.173 13.187-36.24 12.789-49.929-.899z" fill="#4d4d4d"/><path d="M102.272 419.88l-16.031-16.032 233.721-233.721 48.983 48.983-216.744 201.67c-14.173 13.186-36.24 12.788-49.929-.9z" fill="#282828"/><path fill="#95e9d2" d="M248.93 144.84l96.318 96.319 23.697-22.049-97.966-97.966z"/><path fill="#8cd9c3" d="M297.089 192.999l48.159 48.16 23.697-22.049-48.983-48.984z"/><path fill="#7a7a7c" d="M200.474 318.58l-28.963-28.964 48.205-48.205 28.964 28.964z"/><path fill="#6a6a6b" d="M200.471 318.575l-14.481-14.482 48.205-48.205 14.481 14.482z"/><path d="M446.031 197.178l-153.12-153.12c-3.907-3.907-3.907-10.24 0-14.147l7.77-7.77c3.907-3.907 10.24-3.907 14.147 0L467.949 175.26c3.907 3.907 3.907 10.24 0 14.147l-7.77 7.77c-3.907 3.908-10.241 3.908-14.148.001z" fill="#c3c3c9"/><path d="M445.954 197.101l-76.484-76.484L391.387 98.7l76.484 76.484c3.949 3.949 3.949 10.351 0 14.3l-7.617 7.617c-3.949 3.949-10.351 3.949-14.3 0z" fill="#b8b9bd"/></svg>