<svg xmlns="http://www.w3.org/2000/svg" viewBox="0 0 512.001 512.001"><path d="M490.404 436.061l-33.848-9.67a8.259 8.259 0 0 1-5.99-7.94v-13.805h-49.548v13.804a8.258 8.258 0 0 1-5.989 7.94l-33.849 9.671a24.774 24.774 0 0 0-17.968 23.821v43.86A8.258 8.258 0 0 0 351.47 512h148.645a8.258 8.258 0 0 0 8.258-8.258v-43.86a24.775 24.775 0 0 0-17.969-23.821z" fill="#e6af78"/><path d="M490.404 436.061l-30.955-8.844c-4.645 14.811-18.315 25.63-34.659 25.63-16.151 0-29.693-10.564-34.495-25.104l-29.115 8.319a24.774 24.774 0 0 0-17.968 23.821v43.86a8.258 8.258 0 0 0 8.258 8.258h148.645a8.259 8.259 0 0 0 8.258-8.258v-43.86a24.775 24.775 0 0 0-17.969-23.822z" fill="#fff082"/><path d="M367.986 313.806v5.795a66.072 66.072 0 0 0 3.39 20.891l13.126 39.378h24.774v-90.839H392.76c-13.682.001-24.774 11.093-24.774 24.775z" fill="#5a4146"/><path d="M481.057 330.961l-13.974 48.91-66.065-57.806c-9.122 0-16.516-7.395-16.516-16.516 0-13.682 11.092-24.774 24.774-24.774h57.806c9.122 0 16.516 7.395 16.516 16.516v15.522a66.037 66.037 0 0 1-2.541 18.148z" fill="#694b4b"/><path d="M401.018 419.815c7.659 3.112 16.011 4.864 24.774 4.864s17.115-1.752 24.774-4.864v-15.169h-49.548v15.169z" fill="#d29b6e"/><path d="M425.792 412.903c-27.365 0-49.548-22.184-49.548-49.548v-9.675c0-4.38 1.74-8.581 4.837-11.679l14.975-14.975c3.171-3.171 7.507-4.994 11.989-4.853 26.398.833 49.764 6.488 62.537 18.963 3.127 3.054 4.759 7.326 4.759 11.696v10.523c0 27.365-22.184 49.548-49.549 49.548z" fill="#f0c087"/><path d="M401.018 355.729c0-9.526 8-17.098 17.507-16.492 16.671 1.064 41.409 3.85 56.586 11.15-.495-3.484-1.992-6.773-4.529-9.251-12.773-12.475-36.139-18.13-62.537-18.963h-.002c-4.481-.141-8.818 1.683-11.988 4.853L381.081 342a16.513 16.513 0 0 0-4.838 11.679v9.675c0 22.596 15.141 41.621 35.82 47.579-6.883-8.492-11.045-19.272-11.045-31.063v-24.141z" fill="#e6af78"/><path d="M376.244 484.489c0-6.571-2.61-12.872-7.256-17.518l-21.257-21.257c-2.841 4.061-4.519 8.95-4.519 14.169v43.86a8.258 8.258 0 0 0 8.258 8.258h24.774v-27.512zm99.097 0c0-6.571 2.61-12.872 7.256-17.518l21.257-21.257c2.841 4.061 4.519 8.95 4.519 14.169v43.86a8.258 8.258 0 0 1-8.258 8.258h-24.774v-27.512z" fill="#ffdc64"/><ellipse cx="77.952" cy="284.9" rx="33.03" ry="28.903" fill="#785550"/><path d="M69.694 284.903c0-12.124 8.549-22.468 20.645-26.76A36.993 36.993 0 0 0 77.952 256c-18.243 0-33.032 12.941-33.032 28.903s14.789 28.903 33.032 28.903c4.388 0 8.556-.784 12.387-2.143-12.096-4.292-20.645-14.636-20.645-26.76z" fill="#694b4b"/><path d="M138.579 449.297l-26.724-13.361a16.516 16.516 0 0 1-9.13-14.774l.002-24.775h-49.55v24.776a16.515 16.515 0 0 1-9.13 14.772l-26.724 13.362a24.775 24.775 0 0 0-13.695 22.158v32.286a8.258 8.258 0 0 0 8.258 8.258h132.129a8.258 8.258 0 0 0 8.258-8.258v-32.285a24.774 24.774 0 0 0-13.694-22.159z" fill="#e6af78"/><path d="M77.952 429.419c8.892 0 17.409-1.833 25.217-5.096-.205-1.041-.444-2.076-.444-3.161l.002-24.775h-49.55v24.776c0 1.091-.239 2.131-.446 3.176 7.813 3.246 16.326 5.08 25.221 5.08z" fill="#d29b6e"/><path d="M138.579 449.297l-19.038-9.519c-8.828 13.632-24.139 22.673-41.589 22.673s-32.762-9.041-41.59-22.674l-19.038 9.52a24.775 24.775 0 0 0-13.695 22.159v32.286A8.258 8.258 0 0 0 11.887 512h132.129a8.258 8.258 0 0 0 8.258-8.258v-32.285a24.777 24.777 0 0 0-13.695-22.16z" fill="#d5dced"/><circle cx="77.952" cy="338.58" r="57.806" fill="#5a4146"/><path d="M135.216 330.567c-3.177-23.557-21.225-43.251-44.436-48.376a59.438 59.438 0 0 0-12.468-1.415c-27.695-.173-36.943 38.067-12.046 50.198 1.339.652 2.187.945 2.187.945L97.22 384s7.665.524 15.396.762c15.982-12.017 25.585-32.06 22.6-54.195z" fill="#694b4b"/><path d="M77.952 412.903c-25.192 0-45.992-18.8-49.137-43.135-.456-3.525 1.239-6.983 4.413-8.584 3.802-1.918 9.327-5.152 14.617-9.872 5.891-5.256 9.347-10.799 11.299-14.868 1.681-3.504 5.545-5.486 9.311-4.525 29.076 7.416 48.871 22.543 56.053 28.719 1.928 1.658 3.039 4.103 2.841 6.639-2.001 25.531-23.352 45.626-49.397 45.626z" fill="#f0c087"/><path d="M124.507 360.638c-7.181-6.176-26.977-21.303-56.053-28.719-3.766-.961-7.63 1.021-9.311 4.525-1.478 3.082-3.921 7.008-7.546 11.016l-.005.028c-1.125 1.275-2.323 2.553-3.747 3.825-5.29 4.721-10.815 7.954-14.617 9.872-3.174 1.601-4.868 5.059-4.413 8.585 2.825 21.855 19.927 39.12 41.625 42.438-9.887-6.726-17.262-15.845-17.262-32.335v-11.776c1.876-1.385 3.765-2.766 5.663-4.46a65.745 65.745 0 0 0 11.81-13.933c22.243 6.941 37.323 18.502 43.04 23.418 1.565 1.372 5.449 4.952 9.993 9.215 1.955-4.705 3.248-9.753 3.663-15.058.199-2.538-.912-4.983-2.84-6.641z" fill="#e6af78"/><path d="M8.663 456.57c-3.181 4.221-5.034 9.401-5.034 14.887v32.286a8.258 8.258 0 0 0 8.258 8.258h24.774v-25.094c0-5.017-2.281-9.763-6.199-12.897L8.663 456.57zm138.577 0c3.181 4.221 5.034 9.401 5.034 14.887v32.286a8.258 8.258 0 0 1-8.258 8.258h-24.774v-25.094c0-5.017 2.281-9.763 6.199-12.897l21.799-17.44z" fill="#c7cfe2"/><path d="M322.811 125.382c-7.057-18.698-12.654-50.841-13.863-67.576C306.648 25.961 282.649 0 250.208 0s-56.441 25.961-58.741 57.806c-1.209 16.734-6.806 48.878-13.863 67.576-1.555 4.122.24 8.667 4.299 10.507 7.562 3.427 23.685 10.141 43.13 12.756h50.349c19.354-2.621 35.59-9.339 43.13-12.756 4.058-1.84 5.854-6.385 4.299-10.507z" fill="#5a4146"/><path d="M318.512 135.889c4.058-1.84 5.854-6.385 4.298-10.507-7.056-18.698-12.654-50.841-13.862-67.576C306.649 25.961 282.649 0 250.208 0h-.245c-24.893.101-33.69 34.05-12.261 46.717 1.287.761 2.112 1.127 2.112 1.127l18.769 100.8h16.799c19.354-2.62 35.59-9.338 43.13-12.755z" fill="#694b4b"/><path d="M309.939 165.224l-26.724-13.361a16.516 16.516 0 0 1-9.13-14.774l.001-24.775h-49.548v24.776a16.515 16.515 0 0 1-9.13 14.772l-26.724 13.362a24.775 24.775 0 0 0-13.695 22.158v32.286a8.258 8.258 0 0 0 8.258 8.258h132.129a8.258 8.258 0 0 0 8.258-8.258v-32.285a24.775 24.775 0 0 0-13.695-22.159z" fill="#e6af78"/><path d="M249.312 145.346c8.892 0 17.409-1.833 25.217-5.096-.205-1.041-.444-2.076-.444-3.161l.001-24.775h-49.548v24.776c0 1.091-.239 2.131-.446 3.176 7.812 3.246 16.325 5.08 25.22 5.08z" fill="#d29b6e"/><path d="M309.939 165.224l-19.038-9.519c-8.828 13.632-24.139 22.673-41.589 22.673s-32.762-9.041-41.59-22.674l-19.038 9.52a24.775 24.775 0 0 0-13.695 22.159v32.286a8.258 8.258 0 0 0 8.258 8.258h132.129a8.258 8.258 0 0 0 8.258-8.258v-32.285a24.776 24.776 0 0 0-13.695-22.16z" fill="#ff507d"/><path d="M249.312 128.83c-25.192 0-45.992-18.8-49.137-43.135-.456-3.525 1.239-6.983 4.413-8.584 3.802-1.918 9.327-5.152 14.617-9.872 5.891-5.256 9.347-10.799 11.299-14.868 1.681-3.504 5.545-5.486 9.311-4.525 29.076 7.416 48.871 22.543 56.053 28.719 1.928 1.658 3.039 4.103 2.841 6.639-2.001 25.531-23.353 45.626-49.397 45.626z" fill="#f0c087"/><path d="M295.866 76.564c-7.181-6.176-26.977-21.303-56.053-28.719-3.766-.961-7.63 1.021-9.311 4.525-1.478 3.082-3.921 7.008-7.546 11.016l-.005.028c-1.125 1.275-2.323 2.553-3.747 3.825-5.29 4.721-10.815 7.954-14.617 9.872-3.174 1.601-4.868 5.059-4.413 8.585 2.825 21.855 19.927 39.12 41.625 42.438-9.887-6.726-17.262-15.845-17.262-32.335V84.022c1.876-1.385 3.765-2.766 5.663-4.46a65.745 65.745 0 0 0 11.81-13.933c22.243 6.941 37.323 18.502 43.04 23.418 1.565 1.372 5.449 4.952 9.993 9.215 1.955-4.705 3.248-9.753 3.663-15.058.2-2.536-.911-4.982-2.84-6.64z" fill="#e6af78"/><path d="M180.023 172.496c-3.181 4.221-5.034 9.401-5.034 14.887v32.286a8.258 8.258 0 0 0 8.258 8.258h24.774v-25.094c0-5.017-2.281-9.763-6.199-12.897l-21.799-17.44zm138.577 0c3.181 4.221 5.034 9.401 5.034 14.887v32.286a8.258 8.258 0 0 1-8.258 8.258h-24.774v-25.094c0-5.017 2.281-9.763 6.199-12.897l21.799-17.44z" fill="#d23c69"/><path d="M346.645 405.935l-87.016-55.374v-86.303c0-4.56-3.694-8.258-8.258-8.258s-8.258 3.698-8.258 8.258v86.303l-87.016 55.374a8.257 8.257 0 0 0-2.532 11.403c2.444 3.843 7.54 4.98 11.403 2.532l86.403-54.984 86.403 54.984a8.23 8.23 0 0 0 4.427 1.29 8.257 8.257 0 0 0 4.444-15.225z" fill="#d5dced"/></svg>