<svg xmlns="http://www.w3.org/2000/svg" viewBox="0 0 512 512"><path d="M369.427 88.141l-123.732-.533-103.103-.439c.345-1.046.669-2.07 1.035-3.095a122.534 122.534 0 0 0 2.436-7.894c2.488-9.138 3.984-18.59 4.653-28.105l1.861-26.693c.575-8.291 7.706-14.188 15.255-12.651l14.711 2.99a50.656 50.656 0 0 0 20.221.021v-.01a51.638 51.638 0 0 0 9.745-3.001A111.54 111.54 0 0 1 255.858 0h.01c15.286 0 29.893 3.084 43.339 8.73 9.546 3.994 19.918 5.029 29.966 2.99l14.69-2.99c7.57-1.537 14.69 4.36 15.265 12.651L361 48.065c.659 9.515 2.143 18.946 4.632 28.073a121.492 121.492 0 0 0 2.436 7.925c.481 1.349.92 2.709 1.359 4.078z" fill="#ff525d"/><path d="M245.691 87.605l-103.103-.439c.345-1.046.669-2.07 1.035-3.095 3.994-11.543 6.221-23.713 7.089-35.999l1.861-26.693c.575-8.291 7.706-14.188 15.255-12.651l14.711 2.99a50.656 50.656 0 0 0 20.221.021c-.523 1.161-25.146 56.429 24.466 65.411 10.456 1.892 16.102 5.666 18.465 10.455z" fill="#ef4152"/><path d="M410.838 511.999v-61.102c0-37.076-13.028-71.109-34.765-97.771H135.927c-21.737 26.662-34.765 60.695-34.765 97.771v61.102" fill="#34abe0"/><path d="M342.723 390.498v106.364a7.838 7.838 0 0 1-8.082 7.831c-4.297-.125-7.601-3.869-7.601-8.166v-19.249a7.28 7.28 0 0 0-2.143-5.176 7.294 7.294 0 0 0-5.176-2.143 7.314 7.314 0 0 0-7.319 7.319v19.583a7.838 7.838 0 0 1-8.082 7.831c-4.297-.125-7.601-3.869-7.601-8.166v-19.249a7.28 7.28 0 0 0-2.143-5.176 7.294 7.294 0 0 0-5.176-2.143 7.314 7.314 0 0 0-7.319 7.319v19.583a7.838 7.838 0 0 1-8.082 7.831c-4.297-.125-7.601-3.869-7.601-8.166v-84.206l76.325-21.821z" fill="#ff525d"/><path d="M177.896 353.126c-14.136 26.662-22.616 60.695-22.616 97.771V512h-54.118v-61.103c0-37.076 13.028-71.109 34.765-97.771h41.969z" fill="#279fc9"/><path d="M129.277 181.641c-17.682 0-32.015 14.334-32.015 32.015s14.334 32.015 32.015 32.015l253.445.003c17.681 0 32.015-14.335 32.015-32.015 0-13.948-8.929-25.825-21.382-30.206" fill="#efc1ab"/><path d="M382.723 123.875v129.982c0 74.246-56.732 114.046-126.723 114.046s-126.723-39.801-126.723-114.046V143.836" fill="#ffdac5"/><path d="M163.781 246.426v-103.73l218.941-16.259v-2.563l-253.445 18.82v103.731c0 70.001 56.732 132.978 126.723 132.978 5.853 0 11.61-25.721 17.252-26.243-61.827-5.717-109.471-42.587-109.471-106.734z" fill="#efc1ab"/><path d="M369.427 88.141l-123.732-.533-103.103-.439c.345-1.046.669-2.07 1.035-3.095a122.534 122.534 0 0 0 2.436-7.894 883.06 883.06 0 0 1 43.506-4.318 891.359 891.359 0 0 1 176.063 4.276 121.492 121.492 0 0 0 2.436 7.925c.481 1.349.92 2.709 1.359 4.078z" fill="#ef4152"/><path d="M399.274 110.712c-9.577 35.999-13.31 61.835-29.893 71.715-15.568 9.285-49.853 7.591-53.962 7.35.251.063-1.662.063-.408-.031-6.65-.376-22.218-16.907-28.879-17.126a891.308 891.308 0 0 0-89.689 1.495 880.92 880.92 0 0 0-52.331 5.05c-.115.01-.22.031-.335.042-2.938.376-5.782 0-8.354-.962-6.577-2.478-11.365-8.814-11.365-16.394v-60.13c0-8.751 6.472-16.196 15.15-17.346a876.956 876.956 0 0 1 50.354-5.196 891.205 891.205 0 0 1 183.225 5.196c6.723.889 12.097 5.521 14.209 11.637v.01c-.154.648 12.445 14.052 12.278 14.69z" fill="#ff525d"/><path d="M342.723 390.498v21.967c-20.305 14.952-46.894 23.431-76.326 25.031v-25.177l76.326-21.821z" fill="#ef4152"/><path d="M382.727 256.017v58.562c0 3.189-.115 6.326-.345 9.379-4.862 63.957-59.576 98.137-126.378 98.137-20.524 0-39.899-3.22-57.046-9.556-11.804-4.36-22.563-10.184-31.89-17.451-23.327-18.12-37.787-45.179-37.787-80.509v-58.562c0-1.642.031-3.262.094-4.883 1.223 33.05 15.412 58.51 37.693 75.835 9.326 7.256 20.075 13.07 31.89 17.43 17.147 6.336 36.522 9.556 57.046 9.556 68.453 0 124.224-35.894 126.628-102.957.063 1.663.095 3.336.095 5.019z" fill="#ff525d"/><g fill="#ef4152"><path d="M167.068 326.969v68.119c-23.327-18.12-37.787-45.179-37.787-80.509v-58.562c0-1.642.031-3.262.094-4.883 1.224 33.051 15.412 58.51 37.693 75.835zm215.659-47.468v35.079c0 3.189-.115 6.326-.345 9.379-16.363 30.217-41.655 55.77-68.349 65.233a7.65 7.65 0 0 1-2.614.46 7.84 7.84 0 0 1-7.392-5.228c-1.453-4.078.69-8.563 4.768-10.006 33.176-11.763 64.814-54.13 73.932-94.917z"/><path d="M129.277 279.501v35.079c0 3.189.115 6.326.345 9.379 16.363 30.217 41.655 55.77 68.349 65.233a7.65 7.65 0 0 0 2.614.46 7.84 7.84 0 0 0 7.392-5.228c1.453-4.078-.69-8.563-4.768-10.006-33.175-11.763-64.814-54.13-73.932-94.917z"/></g><path d="M195.403 254.529a7.842 7.842 0 0 1-7.842-7.842v-16.302a7.842 7.842 0 0 1 15.684 0v16.302a7.842 7.842 0 0 1-7.842 7.842zm121.195 0a7.842 7.842 0 0 1-7.842-7.842v-16.302a7.842 7.842 0 0 1 15.684 0v16.302a7.842 7.842 0 0 1-7.842 7.842z" fill="#313344"/><path d="M256.001 295.249c-10.916 0-21.178-4.25-28.896-11.969a7.843 7.843 0 0 1 11.089-11.09c4.756 4.756 11.08 7.375 17.806 7.375 6.726 0 13.05-2.619 17.806-7.375a7.841 7.841 0 1 1 11.089 11.09c-7.717 7.719-17.978 11.969-28.894 11.969z" fill="#ce5b6c"/><path d="M196.445 174.115a880.92 880.92 0 0 0-52.331 5.05c-2.865-.293-5.761-.596-8.689-.92-6.577-2.478-11.365-8.814-11.365-16.394v-60.13c0-8.751 6.472-16.196 15.15-17.346a876.956 876.956 0 0 1 50.354-5.196c-.481 1.056-25.571 44.586 6.869 94.927.001-.002.012-.002.012.009z" fill="#ef4152"/><path d="M396.664 180.339c-19.928 19.928-48.702 28.471-72.155 25.01-17.335-2.572-31.775-11.7-37.588-27.645a13.588 13.588 0 0 1-.795-5.081c6.66.22 13.32.523 19.981.899 1.495.084 2.99.073 4.486-.042 0 0 14.188-.889 30.771-10.78 16.583-9.881 35.57-28.774 45.137-64.773.167-.638.335-1.286.491-1.934 1.589-6.294 2.896-13.101 3.858-20.462.001.001 40.318 70.305 5.814 104.808z" fill="#5c5e70"/><g fill="#fcb997"><ellipse cx="337.29" cy="271.303" rx="17.252" ry="10.456"/><ellipse cx="174.704" cy="271.303" rx="17.252" ry="10.456"/></g><path d="M324.51 205.349c-17.335-2.572-31.775-11.7-37.588-27.645a13.588 13.588 0 0 1-.795-5.081c6.66.22 13.32.523 19.981.899 1.495.084 2.99.073 4.486-.042 0 0 14.188-.889 30.771-10.78 16.583-9.881 35.57-28.774 45.137-64.773.167-.638.335-1.286.491-1.934 1.589-6.294 2.896-13.101 3.858-20.462 9.379 124.287-66.341 129.818-66.341 129.818z" fill="#494b5b"/></svg>