<svg xmlns="http://www.w3.org/2000/svg" viewBox="0 0 512 512"><path d="M391.26 271.606c57.466 0 104.045 46.58 104.045 104.045s-46.58 104.045-104.045 104.045l-82.14-104.045 82.14-104.045z" fill="#2d2a2a"/><path d="M391.26 271.606v208.09c-57.466 0-104.045-46.58-104.045-104.045s46.58-104.045 104.045-104.045z" fill="#423d3c"/><path d="M120.744 271.606c57.466 0 104.045 46.58 104.045 104.045s-46.58 104.045-104.045 104.045L38.602 375.651l82.142-104.045z" fill="#2d2a2a"/><path d="M120.744 271.606v208.09c-57.466 0-104.045-46.58-104.045-104.045s46.578-104.045 104.045-104.045z" fill="#423d3c"/><path d="M36.798 351.404l-32.084-9.248L76.937 91.577c12.892-44.73 54.438-75.969 101.032-75.969h20.809v33.391h-20.809c-31.8 0-60.152 21.311-68.947 51.826L36.798 351.404z" fill="#ccbab8"/><path d="M475.408 351.404l-72.223-250.579c-8.794-30.515-37.147-51.826-68.946-51.826h-20.808V15.607h20.808c46.594 0 88.139 31.24 101.032 75.97l72.224 250.578-32.087 9.249z" fill="#928483"/><path d="M256.11 254.908h129.97v33.391H256.11zm44.666 111.003l-27.125 19.478c-5.087-7.09-11.308-11.008-17.541-11.052v-33.391c17.019.045 33.291 9.127 44.666 24.965z" fill="#dfd1d0"/><path d="M256.11 340.946v33.391h-.111c-6.255 0-12.533 3.918-17.653 11.052l-27.114-19.478c11.398-15.872 27.715-24.965 44.766-24.965h.112zm-135.368-86.038H256.11v33.391H120.742z" fill="#f2e8e7"/><path d="M120.742 254.908c66.582 0 120.742 54.172 120.742 120.742s-54.16 120.742-120.742 120.742l-22.261-16.698 22.261-16.693c48.161 0 87.351-39.19 87.351-87.351s-39.19-87.351-87.351-87.351l-22.261-16.693 22.261-16.698z" fill="#ff8c5c"/><path d="M120.742 463.002v33.391C54.172 496.393 0 442.221 0 375.651s54.172-120.742 120.742-120.742V288.3c-48.161 0-87.351 39.19-87.351 87.351s39.19 87.351 87.351 87.351z" fill="#ffb261"/><path d="M391.258 254.908C457.84 254.908 512 309.08 512 375.651s-54.16 120.742-120.742 120.742l-22.261-16.698 22.261-16.693c48.161 0 87.351-39.19 87.351-87.351s-39.19-87.351-87.351-87.351l-22.261-16.693 22.261-16.699z" fill="#ff8c5c"/><path d="M391.258 463.002v33.391c-66.571 0-120.742-54.172-120.742-120.742s54.172-120.742 120.742-120.742V288.3c-48.161 0-87.351 39.19-87.351 87.351s39.189 87.351 87.351 87.351z" fill="#ffb261"/></svg>