<svg xmlns="http://www.w3.org/2000/svg" viewBox="0 0 216.212 216.212"><path d="M48.903 138.801s5.683 11.436 0 25.352c-3.421 8.378 7.161 3.087 10.247 0 0 0 3.087 9.896-3.086 17.735-6.173 7.838 11.613 5.314 17.05-10.841 0 0 2.996 13.829-7.027 23.971-10.023 10.141 42.019 6.173 42.019 6.173v-66.433l-59.203 4.043z" fill="#684b37"/><path d="M168.031 138.801s-5.683 11.436 0 25.352c3.421 8.378-7.161 3.087-10.247 0 0 0-3.086 9.896 3.086 17.735 6.173 7.838-11.613 5.314-17.05-10.841 0 0-2.996 13.829 7.027 23.971 10.023 10.141-42.019 6.173-42.019 6.173v-66.433l59.203 4.043z" fill="#543c2a"/><path fill="#fdcc9b" d="M94.13 165.947h29.395v32.923H94.13z"/><path d="M94.131 169.825s12.365 7.874 29.394 6.051v-9.929H94.131v3.878z" fill="#fcbc85"/><ellipse cx="51.744" cy="114.897" rx="14.343" ry="16.364" fill="#fcbc85"/><ellipse cx="165.912" cy="114.897" rx="14.343" ry="16.364" fill="#fcbc85"/><path d="M165.854 83.641c0-24.104-17.637-41.741-57.026-41.741S51.802 59.537 51.802 83.641s-4.115 87.597 57.026 87.597c61.141.001 57.026-63.493 57.026-87.597z" fill="#fdcc9b"/><ellipse cx="81.052" cy="110.979" rx="6.173" ry="6.761" fill="#3b2519"/><circle cx="78.361" cy="107.994" r="1.846" fill="#fff"/><path d="M71.177 94.224c2.919 1.459 7.606-4.96 18.335.625 1.956 1.018 3.123-8.709-8.377-8.709-9.958 0-11.722 7.202-9.958 8.084z" fill="#684b37"/><ellipse cx="137.366" cy="110.979" rx="6.173" ry="6.761" fill="#3b2519"/><circle cx="134.675" cy="107.994" r="1.846" fill="#fff"/><path d="M146.479 94.224c-2.919 1.459-7.606-4.96-18.335.625-1.956 1.018-3.123-8.709 8.378-8.709 9.957 0 11.721 7.202 9.957 8.084z" fill="#684b37"/><path d="M108.828 134.759c-6.1 0-9.774-4.557-9.774-2.352 0 2.204 1.764 6.394 9.774 6.394s9.774-4.189 9.774-6.394c0-2.204-3.675 2.352-9.774 2.352zm0 20.271c-2.11 0-3.381-1.575-3.381-.814 0 .763.61 2.212 3.381 2.212s3.38-1.449 3.38-2.212c0-.762-1.271.814-3.38.814z" fill="#fcbc85"/><path d="M108.828 149.412c-9.668 0-15.493-3.937-15.493-2.939s2.796 4.924 15.493 4.924c12.697 0 15.493-3.927 15.493-4.924s-5.825 2.939-15.493 2.939z" fill="#f7945e"/><path d="M108.828 179.175v37.037H37.401c0-14.991 37.623-37.037 71.427-37.037z" fill="#c1b397"/><path d="M108.828 179.175v37.037h71.427c0-14.991-37.623-37.037-71.427-37.037z" fill="#c1b397"/><path d="M35.341 114.897c-7.387-36.365 1.764-64.06-1.764-68.028-3.527-3.968-9.259 1.323-9.7-1.764-.441-3.086 9.259-7.937 13.524-12.787 4.264-4.85 3.231-19.842 7.199-15.433 3.968 4.41 0 14.551 0 14.551 45.856-63.052 121.695-15.432 130.072 6.614 8.377 22.046 22.046 37.479 16.314 37.479-6.716 0-10.731-9.259-10.731-9.259s6.322 17.637 3.235 43.57c-3.086 25.934-30.863 41.649-26.715 34.793 8.487-14.025 2.023-40.415 2.023-40.415-.441 2.675-4.85 6.584-4.994 1.929-.726-23.626-14.407-30.618-14.407-30.618s4.85 7.496-2.032 7.055c-20.626-1.321-34.123-9.7-34.123-9.7s4.85 9.7 0 9.7c-16.338 0-32.667-9.7-32.667-9.7s-8.205 16.748-7.979 31.335c.081 5.262-5.21-.471-5.21-4.439 0 0-5.779 31.07 4.341 46.462 4.449 6.764-21.727-8.405-26.386-31.345z" fill="#684b37"/><path d="M84.267 182.628l24.561 33.584v-18.518l-11.032-17.771c-4.555.59-9.095 1.512-13.529 2.705zm49.121 0l-24.56 33.584v-18.518l11.032-17.771c4.554.59 9.095 1.512 13.528 2.705z" fill="#9d937c"/><path d="M94.131 180.457l14.697 22.718 14.697-22.719s-15.248-5.551-29.394.001z" fill="#fdcc9b"/></svg>