<svg xmlns="http://www.w3.org/2000/svg" viewBox="0 0 58 58"><path d="M58 48H0V3.503A3.503 3.503 0 0 1 3.503 0h50.994A3.503 3.503 0 0 1 58 3.503V48z" fill="#d7dce0"/><path d="M0 48v6.497A3.503 3.503 0 0 0 3.503 58h50.994A3.503 3.503 0 0 0 58 54.497V48H0z" fill="#556080"/><circle cx="24" cy="24" r="22" fill="#2c2f38"/><path d="M38.308 34.864l4.722-4.722c.624-1.936.97-3.998.97-6.142 0-11.046-8.954-20-20-20S4 12.954 4 24s8.954 20 20 20c6.401 0 12.086-3.019 15.746-7.697l-1.438-1.439z" fill="#35495e"/><path fill="#fff" d="M5 55l-1-1v-2l1-1h2l1 1v2l-1 1zm7 0l-1-1v-2l1-1h2l1 1v2l-1 1zm7 0l-1-1v-2l1-1h2l1 1v2l-1 1zm7 0l-1-1v-2l1-1h2l1 1v2l-1 1z"/><path d="M51 46a1 1 0 0 1-1-1v-5a1 1 0 1 1 2 0v5a1 1 0 0 1-1 1zm0-8a1 1 0 0 1-1-1v-3a1 1 0 1 1 2 0v3a1 1 0 0 1-1 1z" fill="#556080"/><circle cx="51" cy="7" r="3" fill="#556080"/><path d="M24 15a9 9 0 0 0-9 9c0 4.971 4.029 9 9 9s9-4.029 9-9a9 9 0 0 0-9-9zm0 13a4 4 0 1 1 0-8 4 4 0 0 1 0 8z" fill="#f3d55b"/><path fill="#fff" d="M48 37h6v3h-6z"/><path fill="none" stroke="#464f5d" stroke-width="2" stroke-linecap="round" stroke-miterlimit="10" d="M44.672 31.328L51 25V7"/><path fill="#fff" d="M43.258 29.914l2.828 2.828-4.95 4.95-2.828-2.829z"/><circle cx="24" cy="24" r="4" fill="#2c2f38"/></svg>