<svg xmlns="http://www.w3.org/2000/svg" viewBox="0 0 512.002 512.002"><path d="M119.287 388.062a15.997 15.997 0 0 1-7.28-13.439V31.999h287.987v342.624a15.994 15.994 0 0 1-7.28 13.439L256 476.858l-136.713-88.796z" fill="#ee2c39"/><circle cx="255.985" cy="375.982" r="8" fill="#2e485d"/><path d="M112.008 31.999v231.989h11.999c6.624 0 11.999-5.376 11.999-11.999v-81.196c.16-6.136 5.272-10.983 11.415-10.815.144 0 .288.008.424.016 6.624.088 12.071-5.216 12.159-11.839V87.996c0-17.671 14.327-31.999 31.998-31.999h151.993c13.255 0 23.999-10.743 23.999-23.999H112.008z" fill="#f16351"/><g fill="#2e485d"><circle cx="159.99" cy="79.996" r="8"/><circle cx="351.981" cy="79.996" r="8"/></g><g fill="#cc202c"><path d="M387.995 103.995c-6.624 0-11.999 5.376-11.999 11.999v73.197a10.795 10.795 0 0 1-10.799 10.799h-1.2a11.766 11.766 0 0 0-5.52 1.36 15.992 15.992 0 0 0-15.039 1.12l-79.436 50.558-79.436-50.558c-7.464-4.752-17.367-2.544-22.119 4.92-4.752 7.464-2.544 17.367 4.92 22.119l87.996 55.997a15.997 15.997 0 0 0 17.199 0l79.436-50.558v21.039c-3.032 0-6 .856-8.56 2.48l-79.436 50.558-79.436-50.558c-7.464-4.752-17.367-2.544-22.119 4.92-4.752 7.464-2.544 17.367 4.92 22.119l87.996 55.997a15.997 15.997 0 0 0 17.199 0l55.437-35.438c-.048.64-.048 1.28 0 1.92v35.998a104.96 104.96 0 0 1-47.998 87.996 53.293 53.293 0 0 0-23.999 44.638l136.714-88.556a15.989 15.989 0 0 0 7.28-12.079V103.995h-12.001zm-39.998 189.431a10.718 10.718 0 0 1-2.64 1.68l2.64-1.68z"/><path d="M264.001 231.989c-3.032 0-6-.856-8.56-2.48l-87.996-55.997c-7.616-4.48-10.152-14.287-5.672-21.903 4.48-7.616 14.287-10.152 21.903-5.672.328.192.656.4.968.616L264 197.031l79.436-50.558c7.464-4.752 17.367-2.544 22.119 4.92s2.544 17.367-4.92 22.119l-87.996 55.997a16.026 16.026 0 0 1-8.638 2.48z"/></g><path d="M256.001 335.984c-3.032 0-6-.856-8.56-2.48l-87.996-55.997c-7.616-4.48-10.152-14.287-5.672-21.903 4.48-7.616 14.287-10.152 21.903-5.672.328.192.656.4.968.616L256 301.026l79.436-50.558c7.464-4.752 17.367-2.544 22.119 4.92 4.752 7.464 2.544 17.367-4.92 22.119l-87.996 55.997a16.021 16.021 0 0 1-8.638 2.48z" fill="#fff"/><path d="M357.516 255.428a16 16 0 0 0-7.04-6c3.288 7.232.768 15.783-5.92 20.079l-97.195 63.997a15.997 15.997 0 0 0 17.199 0l87.996-55.997c7.464-4.728 9.688-14.607 4.96-22.079z" fill="#dddfe1"/><g fill="#fff"><path d="M256.001 279.987c-3.032 0-6-.856-8.56-2.48l-87.996-55.997c-7.616-4.48-10.152-14.287-5.672-21.903 4.48-7.616 14.287-10.152 21.903-5.672.328.192.656.4.968.616L256 245.029l79.436-50.558c7.464-4.752 17.367-2.544 22.119 4.92 4.752 7.464 2.544 17.367-4.92 22.119l-87.996 55.997a16.021 16.021 0 0 1-8.638 2.48z"/><path d="M256.001 223.99c-3.032 0-6-.856-8.56-2.48l-87.996-55.997c-7.616-4.48-10.152-14.287-5.672-21.903 4.48-7.616 14.287-10.152 21.903-5.672.328.192.656.4.968.616L256 189.032l79.436-50.558c7.464-4.752 17.367-2.544 22.119 4.92 4.752 7.464 2.544 17.367-4.92 22.119l-87.996 55.997a16.021 16.021 0 0 1-8.638 2.48z"/></g><path d="M357.516 199.431a16 16 0 0 0-7.04-6c3.288 7.232.768 15.783-5.92 20.079l-97.195 63.997a15.997 15.997 0 0 0 17.199 0l87.996-55.997c7.464-4.728 9.688-14.608 4.96-22.079zm0-55.998a16 16 0 0 0-7.04-6c3.288 7.232.768 15.783-5.92 20.079l-97.195 63.997a15.997 15.997 0 0 0 17.199 0l87.996-55.997c7.464-4.728 9.688-14.607 4.96-22.079z" fill="#dddfe1"/><path d="M399.994 0H112.008C94.337 0 80.009 14.327 80.009 31.999v342.624a47.986 47.986 0 0 0 21.839 39.998l145.433 94.796a15.993 15.993 0 0 0 17.439 0l145.433-94.556a47.987 47.987 0 0 0 21.839-39.998V31.999C431.993 14.327 417.665 0 399.994 0zm0 68.477a47.96 47.96 0 0 0-24.559-11.839 47.971 47.971 0 0 0-11.919-24.639h36.478v36.478zM148.486 31.999a48.019 48.019 0 0 0-11.919 24.559 48.034 48.034 0 0 0-24.559 11.919V31.999h36.478zm107.515 444.859l-26.479-17.199a55.974 55.974 0 0 0 26.479-22.879 55.969 55.969 0 0 0 26.479 22.879l-26.479 17.199zm143.993-102.236a15.994 15.994 0 0 1-7.28 13.439l-91.756 59.917c-20.895-1.592-37.022-19.039-36.958-39.998 0-4.416-3.584-8-8-8s-8 3.584-8 8c.064 20.959-16.063 38.406-36.958 39.998l-91.756-59.917a15.997 15.997 0 0 1-7.28-13.439V103.995c0-17.671 14.327-31.998 31.998-31.998 4.416 0 8-3.584 8-8 0-17.671 14.327-31.999 31.999-31.999h143.993c17.671 0 31.999 14.327 31.999 31.999 0 4.416 3.584 8 8 8 17.671 0 31.999 14.327 31.999 31.998v270.627z" fill="#2d4961"/><path d="M80.009 31.999v271.987c8.84 0 15.999-7.16 15.999-15.999V31.999c0-8.84 7.16-15.999 15.999-15.999h271.987c8.84 0 15.999-7.16 15.999-15.999H112.008C94.329 0 80.009 14.327 80.009 31.999z" fill="#44637f"/><path d="M410.154 414.861a47.987 47.987 0 0 0 21.839-39.998V55.997c-8.84 0-15.999 7.16-15.999 15.999v304.466c0 8.04-4.024 15.551-10.719 19.999L269.28 487.097a29.909 29.909 0 0 0-13.279 24.879c3.096.008 6.12-.88 8.72-2.56l145.433-94.555z" fill="#123247"/></svg>