<svg xmlns="http://www.w3.org/2000/svg" viewBox="0 0 512.002 512.002"><path d="M119.287 388.062a15.997 15.997 0 0 1-7.28-13.439V31.999h287.987v342.624a15.994 15.994 0 0 1-7.28 13.439L256 476.858l-136.713-88.796z" fill="#3cb54a"/><path d="M112.008 31.999v231.989h11.999c6.624 0 11.999-5.376 11.999-11.999v-81.196c.16-6.136 5.272-10.983 11.415-10.815.144 0 .288.008.424.016 6.624.088 12.071-5.216 12.159-11.839V87.996c0-17.671 14.327-31.999 31.998-31.999h151.993c13.255 0 23.999-10.743 23.999-23.999H112.008z" fill="#89c763"/><g fill="#0e9347"><path d="M287.44 165.032l-15.999-39.998c-1.624-4.112-6.272-6.12-10.384-4.496a7.99 7.99 0 0 0-4.496 4.496l-15.999 39.998a7.97 7.97 0 0 0 0 5.92l15.999 39.998c1.624 4.112 6.272 6.12 10.384 4.496a7.99 7.99 0 0 0 4.496-4.496l15.999-39.998a8.05 8.05 0 0 0 0-5.92zm0 111.995l-15.999-39.998c-1.624-4.112-6.272-6.12-10.384-4.496a7.99 7.99 0 0 0-4.496 4.496l-15.999 39.998a7.97 7.97 0 0 0 0 5.92l15.999 39.998c1.624 4.112 6.272 6.12 10.384 4.496a7.99 7.99 0 0 0 4.496-4.496l15.999-39.998a8.05 8.05 0 0 0 0-5.92z"/><path d="M387.995 103.995c-6.624 0-11.999 5.376-11.999 11.999v73.197a10.795 10.795 0 0 1-10.799 10.799h-1.2c-6.584-.048-11.951 5.256-11.999 11.839v.08l-29.039-11.599a7.97 7.97 0 0 0-5.92 0l-39.999 16c-4.112 1.624-6.12 6.272-4.496 10.384a7.99 7.99 0 0 0 4.496 4.496l39.998 15.999a7.97 7.97 0 0 0 5.92 0l29.039-11.359v49.438c-.048 5.968-4.912 10.768-10.88 10.72h-1.04c-6.624-.048-12.031 5.296-12.079 11.919v36.078A104.96 104.96 0 0 1 280 431.981a53.293 53.293 0 0 0-23.999 44.638l136.714-88.556a15.989 15.989 0 0 0 7.28-12.079V103.995h-12zM210.963 247.428l39.998-15.999c4.112-1.624 6.12-6.272 4.496-10.384a7.99 7.99 0 0 0-4.496-4.496l-39.998-15.999a7.97 7.97 0 0 0-5.92 0l-39.998 15.999c-4.112 1.624-6.12 6.272-4.496 10.384a7.99 7.99 0 0 0 4.496 4.496l39.998 15.999a7.97 7.97 0 0 0 5.92 0z"/></g><path d="M279.44 157.033l-15.999-39.998c-1.624-4.112-6.272-6.12-10.384-4.496a7.99 7.99 0 0 0-4.496 4.496l-15.999 39.998a7.97 7.97 0 0 0 0 5.92l15.999 39.998c1.624 4.112 6.272 6.12 10.383 4.496a7.99 7.99 0 0 0 4.496-4.496l15.999-39.998a8.044 8.044 0 0 0 .001-5.92zm0 111.994l-15.999-39.998c-1.624-4.112-6.272-6.12-10.384-4.496a7.99 7.99 0 0 0-4.496 4.496l-15.999 39.998a7.97 7.97 0 0 0 0 5.92l15.999 39.998c1.624 4.112 6.272 6.12 10.383 4.496a7.99 7.99 0 0 0 4.496-4.496l15.999-39.998a8.044 8.044 0 0 0 .001-5.92zm35.518-29.598l39.998-15.999c4.112-1.624 6.12-6.272 4.496-10.384a7.99 7.99 0 0 0-4.496-4.496l-39.998-15.999a7.97 7.97 0 0 0-5.92 0L269.04 208.55c-4.112 1.624-6.12 6.272-4.496 10.384a7.99 7.99 0 0 0 4.496 4.496l39.998 15.999a7.97 7.97 0 0 0 5.92 0zm-111.994 0l39.998-15.999c4.112-1.624 6.12-6.272 4.496-10.384a7.99 7.99 0 0 0-4.496-4.496l-39.998-15.999a7.97 7.97 0 0 0-5.92 0l-39.998 15.999c-4.112 1.624-6.12 6.272-4.496 10.384a7.99 7.99 0 0 0 4.496 4.496l39.998 15.999a7.97 7.97 0 0 0 5.92 0z" fill="#fff"/><g fill="#2d4961"><circle cx="255.985" cy="375.982" r="8"/><circle cx="255.985" cy="87.996" r="8"/><circle cx="311.982" cy="159.993" r="8"/><circle cx="311.982" cy="271.987" r="8"/><circle cx="207.987" cy="159.993" r="8"/><circle cx="207.987" cy="271.987" r="8"/><circle cx="255.985" cy="55.997" r="8"/><circle cx="255.985" cy="343.984" r="8"/></g><path d="M263.441 314.945l15.999-39.998a7.97 7.97 0 0 0 0-5.92l-15.999-39.998c-1.2-3.04-7.44 0-7.44 10.959v79.996a8.008 8.008 0 0 0 7.44-5.039zm0-111.994l15.999-39.998a7.97 7.97 0 0 0 0-5.92l-15.999-39.998c-1.2-3.04-7.44 0-7.44 10.959v79.996a8.011 8.011 0 0 0 7.44-5.039zm5.599 20.479l39.998 15.999a7.97 7.97 0 0 0 5.92 0l39.998-15.999a8.003 8.003 0 0 0 5.04-7.44h-95.995a7.992 7.992 0 0 0 5.039 7.44zm-111.994 0l39.998 15.999a7.97 7.97 0 0 0 5.92 0l39.998-15.999a8.003 8.003 0 0 0 5.04-7.44h-95.996a7.99 7.99 0 0 0 5.04 7.44z" fill="#dddfe1"/><path d="M399.994 0H112.008C94.337 0 80.009 14.327 80.009 31.999v342.624a47.986 47.986 0 0 0 21.839 39.998l145.433 94.796a15.993 15.993 0 0 0 17.439 0l145.433-94.556a47.987 47.987 0 0 0 21.839-39.998V31.999C431.993 14.327 417.665 0 399.994 0zm0 68.477a47.96 47.96 0 0 0-24.559-11.839 47.971 47.971 0 0 0-11.919-24.639h36.478v36.478zM148.486 31.999a48.019 48.019 0 0 0-11.919 24.559 48.034 48.034 0 0 0-24.559 11.919V31.999h36.478zm107.515 444.859l-26.479-17.199a55.974 55.974 0 0 0 26.479-22.879 55.969 55.969 0 0 0 26.479 22.879l-26.479 17.199zm143.993-102.236a15.994 15.994 0 0 1-7.28 13.439l-91.756 59.917c-20.895-1.592-37.022-19.039-36.958-39.998 0-4.416-3.584-8-8-8s-8 3.584-8 8c.064 20.959-16.063 38.406-36.958 39.998l-91.756-59.917a15.997 15.997 0 0 1-7.28-13.439V103.995c0-17.671 14.327-31.998 31.998-31.998 4.416 0 8-3.584 8-8 0-17.671 14.327-31.999 31.999-31.999h143.993c17.671 0 31.999 14.327 31.999 31.999 0 4.416 3.584 8 8 8 17.671 0 31.999 14.327 31.999 31.998v270.627z" fill="#2d4961"/><path d="M80.009 31.999v271.987c8.84 0 15.999-7.16 15.999-15.999V31.999c0-8.84 7.16-15.999 15.999-15.999h271.987c8.84 0 15.999-7.16 15.999-15.999H112.008C94.329 0 80.009 14.327 80.009 31.999z" fill="#44637f"/><path d="M410.154 414.861a47.987 47.987 0 0 0 21.839-39.998V55.997c-8.84 0-15.999 7.16-15.999 15.999v304.466c0 8.04-4.024 15.551-10.719 19.999L269.28 487.097a29.909 29.909 0 0 0-13.279 24.879c3.096.008 6.12-.88 8.72-2.56l145.433-94.555z" fill="#123247"/></svg>