<svg xmlns="http://www.w3.org/2000/svg" viewBox="0 0 512 512" width="512" height="512"><path d="M509.107 36.526a2392.758 2392.758 0 0 1-10.345-15.013c-1.948-2.848-5.427-6.328-8.276-8.274a2427.387 2427.387 0 0 1-15.015-10.346C471.713.279 467.284-.619 463.313.428a12.05 12.05 0 0 0-7.813 6.433c-7.546 15.742-27.272 30.573-33.139 34.743-3.072 2.184-5.19 5.496-5.962 9.326l-1.425 7.078c-.147.732-.428 1.299-.833 1.684L270.666 196.153c-1.978-2.665-3.61-4.657-4.854-5.901-25.882-25.882-66.031-27.857-89.502-4.398-6.526 6.526-11.25 16.714-13.658 29.457-4.402 23.203-24.453 39.894-47.814 39.894l-.597-.003c-33.051-.385-63.96 11.314-84.737 32.092-44.942 44.941-37.724 125.287 16.092 179.103 30.081 30.081 68.438 45.606 104.281 45.603 28.288-.002 55.012-9.677 74.837-29.502 22.251-22.263 33.863-55.411 31.86-90.949-1.338-23.628 14.198-44.661 36.948-50.013 11.089-2.618 19.707-6.943 25.618-12.854 6.023-6.023 10.477-13.195 13.229-21.297 3.029-8.834 1.797-18.412-3.378-26.279-5.102-7.756-13.267-12.607-22.401-13.309a16.464 16.464 0 0 1-10.368-4.775c-.168-.168-.318-.348-.477-.522L452.292 97.846c.387-.406.955-.687 1.689-.834l7.076-1.418c3.836-.769 7.153-2.887 9.34-5.964 4.17-5.866 19.001-25.591 34.742-33.136a12.04 12.04 0 0 0 6.432-7.812c1.047-3.967.149-8.398-2.464-12.156zM57.144 454.849a149.613 149.613 0 0 1-12.542-14.241l19.243-13.534 21.083 21.085-13.53 19.237a149.53 149.53 0 0 1-14.254-12.547zm248.192-170.768c4.059.311 7.707 2.499 10.011 6.001 2.377 3.614 2.95 7.989 1.566 12.027-1.948 5.732-5.084 10.786-9.322 15.025-3.681 3.681-9.844 6.623-17.817 8.506-30.472 7.169-51.292 35.276-49.505 66.83 1.742 30.9-8.138 59.505-27.104 78.482-16.686 16.686-39.243 24.803-63.318 24.802-21.494-.001-44.193-6.48-64.991-19.102l17.381-24.713a8.164 8.164 0 0 0-.906-10.471l-30.794-30.794a8.166 8.166 0 0 0-10.471-.906L35.35 427.151C8.591 383.062 9.47 330.424 41.054 298.84c17.688-17.688 44.29-27.634 72.995-27.31.268.003.532.004.799.004 31.2-.001 57.983-22.25 63.851-53.186 1.771-9.373 5.025-16.812 9.159-20.946 17.101-17.092 46.892-15.119 66.408 4.396.737.737 2.227 2.577 4.47 5.702l-40.49 38.51a8.169 8.169 0 0 0-.147 11.691l36.22 36.22a8.166 8.166 0 0 0 5.774 2.392l.103-.001a8.165 8.165 0 0 0 5.815-2.539l18.464-19.42c.07.072.13.149.199.219a32.807 32.807 0 0 0 20.662 9.509zm-45.392-7.628l-24.378-24.378L421.651 75.092l15.246 15.247-176.953 186.114zM457.449 79.662l-6.674 1.337-.098.023-19.707-19.708c.005-.028.014-.056.021-.085l1.344-6.676c8.224-5.897 26.308-20.068 35.888-36.815 5.023 3.484 9.781 6.747 13.05 8.982 1.18.807 3.204 2.831 4.012 4.011 2.366 3.46 5.611 8.19 8.979 13.046-16.748 9.58-30.918 27.659-36.815 35.885z" fill="#4ea6ec"/><path d="M218.687 371.617l-.167-.28c-2.854-4.777-9.611-5.381-13.163-1.095-5.237 6.319-11.479 17.273-14.44 35.327-2.429 14.816-6.708 23.47-9.768 28.045-1.881 2.812-1.841 6.488.147 9.226l.001.001c3.302 4.667 10.261 4.597 13.442-.155 4.359-6.513 9.486-17.349 12.295-34.475 2.102-12.824 6.069-20.689 9.026-25.029a33.33 33.33 0 0 1 1.922-2.559 7.811 7.811 0 0 0 .705-9.006zm-77.92-78.219c-2.759-1.952-6.421-1.977-9.235-.103-4.53 3.018-13.173 7.286-28.037 9.724-32.266 5.291-41.851 21.064-42.839 22.845a8.165 8.165 0 0 0 3.186 11.1h.001a8.166 8.166 0 0 0 11.1-3.186c.058-.105 6.897-10.659 31.197-14.644 17.126-2.808 27.961-7.935 34.474-12.294 4.75-3.181 4.82-10.14.153-13.442zm-7.1 124.973l-40.033-40.033a8.164 8.164 0 0 0-11.547 0 8.164 8.164 0 0 0 0 11.547l40.033 40.033a8.137 8.137 0 0 0 5.774 2.392 8.165 8.165 0 0 0 5.773-13.939zm26.944-26.944l-40.033-40.033a8.164 8.164 0 0 0-11.547 0 8.164 8.164 0 0 0 0 11.547l40.033 40.033c1.594 1.595 3.684 2.392 5.774 2.392s4.18-.797 5.774-2.392a8.165 8.165 0 0 0-.001-11.547zm20.015-20.018l-40.033-40.033a8.164 8.164 0 0 0-11.547 0 8.164 8.164 0 0 0 0 11.547l40.033 40.033a8.137 8.137 0 0 0 5.774 2.392c2.089 0 4.18-.797 5.774-2.392a8.163 8.163 0 0 0-.001-11.547z" fill="#4ea6ec"/></svg>