<svg xmlns="http://www.w3.org/2000/svg" viewBox="0 0 206.363 206.363"><path d="M104.516 201.925V96.721H53.213s-9.802 43.534 12.891 64.669c-.001 0-10.857 40.535 38.412 40.535zm.989 0V96.721h51.302s9.803 43.534-12.891 64.669c0 0 10.857 40.535-38.411 40.535z" fill="#9e773d"/><path fill="#fdcc9b" d="M89.818 156.098h29.395v32.923H89.818z"/><path d="M89.818 159.976s12.364 7.874 29.395 6.051v-9.929H89.818v3.878z" fill="#fcbc85"/><ellipse cx="47.431" cy="105.048" rx="14.343" ry="16.364" fill="#fcbc85"/><ellipse cx="161.599" cy="105.048" rx="14.343" ry="16.364" fill="#fcbc85"/><path d="M161.541 73.793c0-24.103-17.637-41.741-57.025-41.741-39.39 0-57.026 17.637-57.026 41.741s-4.115 87.597 57.026 87.597c61.14 0 57.025-63.493 57.025-87.597z" fill="#fdcc9b"/><ellipse cx="76.74" cy="101.13" rx="6.173" ry="6.761" fill="#3b2519"/><circle cx="74.048" cy="98.145" r="1.846" fill="#fff"/><path d="M66.864 86.553c2.919 1.117 7.606-3.798 18.335.478 1.956.78 3.124-6.668-8.377-6.668-9.958 0-11.722 5.515-9.958 6.19z" fill="#bf904b"/><ellipse cx="133.054" cy="101.13" rx="6.173" ry="6.761" fill="#3b2519"/><circle cx="130.362" cy="98.145" r="1.847" fill="#fff"/><path d="M142.166 86.553c-2.919 1.117-7.605-3.798-18.335.478-1.956.78-3.123-6.668 8.378-6.668 9.957 0 11.721 5.515 9.957 6.19z" fill="#bf904b"/><path d="M104.516 124.91c-6.1 0-9.774-4.557-9.774-2.351 0 2.204 1.764 6.394 9.774 6.394s9.773-4.189 9.773-6.394-3.674 2.351-9.773 2.351zm0 20.271c-2.109 0-3.381-1.575-3.381-.814 0 .763.61 2.212 3.381 2.212s3.38-1.449 3.38-2.212c-.001-.761-1.271.814-3.38.814z" fill="#fcbc85"/><path d="M104.516 139.564c-9.668 0-15.493-3.937-15.493-2.939s2.796 4.924 15.493 4.924c12.697 0 15.492-3.927 15.492-4.924s-5.825 2.939-15.492 2.939z" fill="#f7945e"/><circle cx="68.802" cy="122.735" r="8.378" fill="#f9aa8d"/><circle cx="141.259" cy="122.735" r="8.377" fill="#f9aa8d"/><path d="M104.516 169.326v37.037H40.142c0-14.991 30.569-37.037 64.374-37.037zm0 0v37.037h64.372c0-14.991-30.569-37.037-64.372-37.037z" fill="#9d777b"/><path d="M71.804 176.055l17.439 30.309h15.272v-4.461L83.003 172.26a88.978 88.978 0 0 0-11.199 3.795zm65.422 0l-17.44 30.309h-15.271v-4.461l21.512-29.643a88.978 88.978 0 0 1 11.199 3.795z" fill="#7b5c60"/><path d="M80.621 172.892c5.63 10.071 18.247 33.472 23.895 33.472v-37.037c-8.297-.001-16.391 1.339-23.895 3.565z" fill="#fff"/><path d="M128.409 172.892c-5.629 10.071-18.246 33.472-23.894 33.472v-37.037c8.296-.001 16.391 1.339 23.894 3.565z" fill="#fff"/><path d="M149.637 20.706S129.293-6.484 89.023 1.452C48.752 9.389 24.454 42.759 25.296 76.291c1.323 52.661 33.371 63.007 40.967 71.719-5.94-12.816-14.658-37.356-12.894-53.641 1.326-12.245 7.056-16.344 7.056-16.344 12.867 6.708 19.841-7.721 19.841-7.721 1.764 13.421 27.631-6.389 27.631-6.389s-2.939 8.394 6.394 11.068c9.333 2.675 26.97-17.903 26.97-17.903s.294 23.414 12.199 23.281c0 0 3.656 7.225 2.774 20.767-.882 13.542-6.596 32.011-10.913 44.239 11.225-6.364 35.769-21.05 35.769-61.644-.001-40.592-9.408-59.343-31.453-63.017z" fill="#bf904b"/><path d="M89.818 170.747s4.299 11.777 14.697 11.777 14.697-11.777 14.697-11.777-15.247-5.552-29.394 0z" fill="#fdcc9b"/><path d="M85.735 171.558c2.455 6.537 7.74 15.217 18.78 15.217 11.039 0 16.325-8.68 18.779-15.217-6.019-1.405-12.334-2.232-18.779-2.232-6.446 0-12.76.826-18.78 2.232z" fill="#c7c5c4"/><path d="M119.213 170.747s-1.911 11.777-14.697 11.777c-12.787 0-14.697-11.777-14.697-11.777s5.731-3.288 14.697-3.288c8.964 0 14.697 3.288 14.697 3.288z" fill="#fdcc9b"/></svg>