<svg xmlns="http://www.w3.org/2000/svg" viewBox="0 0 200.796 200.796"><path fill="#fdcc9b" d="M85.701 150.53h29.395v32.923H85.701z"/><path d="M85.701 154.408s12.364 7.874 29.395 6.051v-9.929H85.701v3.878z" fill="#fcbc85"/><ellipse cx="43.314" cy="99.48" rx="14.343" ry="16.364" fill="#fcbc85"/><ellipse cx="157.482" cy="99.48" rx="14.343" ry="16.364" fill="#fcbc85"/><path d="M157.424 68.225c0-24.104-17.637-41.74-57.025-41.74-39.39 0-57.026 17.637-57.026 41.74 0 24.104-4.115 87.597 57.026 87.597 61.14-.001 57.025-63.493 57.025-87.597z" fill="#fdcc9b"/><ellipse cx="72.623" cy="95.562" rx="6.173" ry="6.761" fill="#3b2519"/><circle cx="69.931" cy="92.577" r="1.846" fill="#fff"/><path d="M62.748 78.807c2.918 1.46 7.606-4.96 18.335.625 1.955 1.018 3.123-8.708-8.378-8.708-9.957 0-11.721 7.202-9.957 8.083z" fill="#36221e"/><ellipse cx="128.937" cy="95.562" rx="6.173" ry="6.761" fill="#3b2519"/><circle cx="126.245" cy="92.577" r="1.847" fill="#fff"/><path d="M138.049 78.807c-2.919 1.46-7.605-4.96-18.335.625-1.955 1.018-3.123-8.708 8.378-8.708 9.957 0 11.721 7.202 9.957 8.083z" fill="#36221e"/><path d="M100.399 119.343c-6.1 0-9.774-4.557-9.774-2.352 0 2.204 1.764 6.393 9.774 6.393s9.773-4.189 9.773-6.393c0-2.205-3.675 2.352-9.773 2.352zm0 20.27c-2.11 0-3.381-1.576-3.381-.813 0 .763.61 2.212 3.381 2.212 2.77 0 3.38-1.449 3.38-2.212-.001-.763-1.271.813-3.38.813z" fill="#fcbc85"/><path d="M100.399 133.996c-9.669 0-15.493-3.938-15.493-2.939 0 .997 2.796 4.924 15.493 4.924 12.697 0 15.492-3.927 15.492-4.924 0-.998-5.825 2.939-15.492 2.939z" fill="#f7945e"/><path d="M100.399 163.758v37.038h71.427c-.001-14.991-37.624-37.038-71.427-37.038zm0 0v37.038H28.971c0-14.991 37.623-37.038 71.428-37.038z" fill="#98375e"/><path d="M100.661 163.758c-7.19 0-14.552 1.005-21.689 2.721.048.063 7.916 10.213 21.689 10.213 12.755 0 21.232-8.692 22.462-10.03-7.377-1.831-15.012-2.904-22.462-2.904z" fill="#c05371"/><path d="M85.701 165.04s4.299 5.891 14.698 5.891c10.398 0 14.697-5.891 14.697-5.891s-15.249-5.552-29.395 0z" fill="#fdcc9b"/><path d="M71.117 168.595c-1.245.395-2.475.81-3.693 1.243v30.958h3.693v-32.201zm-14.121 32.201h8.792v-30.374a111.227 111.227 0 0 0-8.792 3.711v26.663zm72.663-32.201c1.244.395 2.475.81 3.692 1.243v30.958h-3.692v-32.201zm14.12 32.201h-8.792v-30.374a111.544 111.544 0 0 1 8.792 3.711v26.663z" fill="#c05371"/><path d="M36.171 53.886C39.404 16.306 69.975 0 100.399 0c30.424 0 60.994 16.306 64.227 53.886 3.233 37.581-6.467 67.398-11.695 63.786-5.227-3.611 2.766-52.695-13.526-49.623-25.72 4.85-68.989-16.535-68.989-16.535s.123 12.832-10.031 19.21c-19.731 12.394-7.291 43.337-12.518 46.948-5.23 3.611-14.93-26.205-11.696-63.786zm64.558 92.794v12.529c-16.314 0-25.502-6.004-26.493-8.679-.991-2.675 7.534 1.499 11.796 0s7.495-3.85 14.697-3.85z" fill="#342620"/><path d="M100.399 146.68v12.529c16.313 0 25.502-6.004 26.493-8.679.99-2.675-7.534 1.499-11.796 0-4.263-1.499-7.496-3.85-14.697-3.85z" fill="#342620"/></svg>