<svg xmlns="http://www.w3.org/2000/svg" viewBox="0 0 496 496"><path d="M328 72c-5.672 0-11.088 1.032-16.144 2.84.04-.944.144-1.88.144-2.84 0-35.344-28.656-64-64-64-27.568 0-50.992 17.464-60 41.904C178.992 25.464 155.568 8 128 8 92.656 8 64 36.656 64 72c0 .248.032.48.04.728C61.416 72.28 58.744 72 56 72 29.488 72 8 93.488 8 120s21.488 48 48 48h64v68c0 15.464 12.536 28 28 28s28-12.536 28-28v72c0 15.464 12.536 28 28 28s28-12.536 28-28V168h40v100c0 15.464 12.536 28 28 28s28-12.536 28-28V168c26.512 0 48-21.488 48-48s-21.488-48-48-48z" fill="#ffa64d"/><g fill="#3f3a34"><path d="M408 176h-60.544a187.073 187.073 0 0 0-1.072-3.12C368.256 165.256 384 144.44 384 120c0-19.44-9.968-36.584-25.056-46.632l.024-.032c-.352-.232-.736-.392-1.088-.616a56.814 56.814 0 0 0-4.96-2.8c-.672-.336-1.336-.672-2.024-.976-2.096-.944-4.24-1.792-6.464-2.48-.376-.112-.76-.184-1.136-.288-1.976-.56-3.992-1-6.048-1.344-.648-.104-1.296-.216-1.944-.296-2.392-.32-4.824-.536-7.304-.536-2.832 0-5.624.24-8.376.656C315.936 28.392 285.224 0 248 0c-25.056 0-47.144 12.88-60.04 32.36C174.784 12.416 152.496 0 128 0 91 0 60.432 28.048 56.44 64H56c-2.48 0-4.912.216-7.312.536-.648.08-1.296.184-1.944.296a56.108 56.108 0 0 0-6.048 1.344c-.376.112-.76.184-1.136.296-2.216.68-4.36 1.536-6.456 2.48-.688.304-1.352.64-2.024.976a56.74 56.74 0 0 0-4.96 2.792c-.352.224-.744.384-1.088.616l.024.032C9.968 83.416 0 100.56 0 120c0 27.088 19.336 49.736 44.928 54.888C38.032 195.168 24 245.544 24 320c0 96.192 23.416 167.536 24.416 170.528L50.232 496H341.76l1.824-5.472c.352-1.048 3.464-10.608 7.336-26.528H408c48.52 0 88-39.48 88-88V264c0-48.52-39.48-88-88-88zM40.92 352c-.568-10.32-.92-20.984-.92-32h130.208c4.968 13.936 18.168 24 33.792 24s28.816-10.064 33.792-24H352c0 11.016-.352 21.68-.92 32H40.92zM112 176v60c0 4.712 1 9.272 2.728 13.504-1.408 17.264-2.256 35.56-2.568 54.496H40.24c1.984-68.584 16.192-113.84 21.28-128H112zm56 128h-39.832c.208-12.736.664-25.176 1.384-37.176.992.6 1.976 1.216 3.032 1.72A35.743 35.743 0 0 0 148 272c7.4 0 14.272-2.256 20-6.096V304zm72-128h24v92c0 1.48.264 2.888.44 4.328l-.432.016c.344 8.016.232 20.016.104 31.656H240V176zm96 92v-74.592c6.208 22.08 14.296 59.944 15.752 110.592h-71.64c.024-2 .04-4 .056-6 5.696 3.776 12.504 6 19.832 6 5.4 0 10.584-1.168 15.416-3.464C327.92 294.608 336 281.832 336 268zm24.928-36H408c17.648 0 32 14.352 32 32v112c0 17.648-14.352 32-32 32h-46.384c3.632-25.32 6.384-55.152 6.384-88 0-34.816-3.088-64.296-7.072-88zM16 120c0-16.336 9.872-30.376 23.944-36.576.528-.232 1.072-.408 1.608-.616a38.873 38.873 0 0 1 5.256-1.632c.656-.152 1.304-.32 1.968-.44C51.128 80.296 53.528 80 56 80c2.08 0 4.272.2 6.696.608l.08.008c14.08 2.432 26.072 12.264 30.944 26.032l15.08-5.344c-6.016-17.016-19.808-29.72-36.52-34.816C75.056 38.192 98.984 16 128 16c22.464 0 42.64 13.336 51.48 33.976A71.591 71.591 0 0 0 176 72h16c0-30.872 25.128-56 56-56 30.048 0 54.576 23.816 55.872 53.552-13.104 6.272-23.624 17.488-28.672 31.76l15.08 5.344c4.856-13.712 16.768-23.512 30.768-25.992l.248-.04C323.736 80.2 325.928 80 328 80c2.472 0 4.872.296 7.224.728.664.12 1.312.288 1.968.44 1.8.424 3.552.976 5.256 1.632.536.208 1.08.384 1.608.616C358.128 89.624 368 103.664 368 120c0 22.056-17.944 40-40 40h-8v108c0 7.688-4.496 14.792-11.456 18.088C305.88 287.36 303 288 300 288c-11.032 0-20-8.968-20-20V160h-56v148c0 11.032-8.968 20-20 20s-20-8.968-20-20v-92h-16v20c0 11.032-8.968 20-20 20-3 0-5.88-.64-8.552-1.912C132.496 250.792 128 243.688 128 236v-76H56c-22.056 0-40-17.944-40-40zm26.024 248h71.728c4 55.36 13.864 94.28 19.208 112H61.912c-4.232-14.456-15.32-56.456-19.888-112zM330.08 480h-71.048c4.2-13.96 11.224-41.016 16-78.992l-15.872-2C253.92 440.6 245.784 468.96 242.256 480h-92.52c-4.352-13.592-15.584-53.408-19.936-112h132.416a640.689 640.689 0 0 1-1.288 15.216l15.92 1.56c.528-5.392.984-11.032 1.4-16.784h71.72C345.4 423.48 334.312 465.528 330.08 480zM480 376c0 39.704-32.296 72-72 72h-53.448c1.536-7.224 3.072-15.256 4.56-24H408c26.472 0 48-21.528 48-48V264c0-26.472-21.528-48-48-48h-50.032c-1.896-9.208-3.848-17.2-5.704-24H408c39.704 0 72 32.296 72 72v112z"/><path d="M96 128h128v16H96zm-32 0h16v16H64z"/></g></svg>