<svg xmlns="http://www.w3.org/2000/svg" viewBox="0 0 512 512" width="512" height="512"><path d="M503.248 88.852H8.752A8.752 8.752 0 0 0 0 97.604v316.792a8.752 8.752 0 0 0 8.752 8.752h494.497a8.752 8.752 0 0 0 8.752-8.752V97.604a8.754 8.754 0 0 0-8.753-8.752zM117.796 405.645H49.009v-239.78h42.108v143.064a8.751 8.751 0 0 0 8.752 8.75h17.927v87.966zm-9.176-105.468V165.864h35.855v134.313H108.62zm95.478 105.469H135.3v-87.967h17.928a8.752 8.752 0 0 0 8.752-8.752V165.864h42.119v239.782zm86.29 0H221.6V165.864h42.109v143.064a8.752 8.752 0 0 0 8.752 8.752h17.927v87.966zm-9.175-105.469V165.864h35.855v134.313h-35.855zm95.477 105.469h-68.798v-87.967h17.928a8.752 8.752 0 0 0 8.752-8.752V165.864h15.44v143.064a8.752 8.752 0 0 0 8.752 8.752h17.927v87.966zm-9.176-105.469V165.864h35.855v134.313h-35.855zm95.477 105.469h-68.798V317.68h17.928a8.752 8.752 0 0 0 8.752-8.752V165.864h42.119v239.782zm31.506-.001h-14.003V157.113a8.752 8.752 0 0 0-8.752-8.752H40.257a8.752 8.752 0 0 0-8.752 8.752v248.533H17.503v-299.29h476.994v299.289z" fill="#4ea6ec"/></svg>