<svg xmlns="http://www.w3.org/2000/svg" viewBox="0 0 470.675 470.675" width="512" height="512"><g fill="#3a6355"><path d="M188.271 67.836c15.199 0 27.517-12.303 27.517-27.494 0-15.191-12.317-27.494-27.517-27.494-15.185 0-27.487 12.303-27.487 27.494-.001 15.191 12.302 27.494 27.487 27.494z"/><path d="M118.91 56.299a11.852 11.852 0 0 0 3.08 5.018l32.941 31.769v33.891c2.864-.176 5.79.053 8.656.935 1.104.337 2.098.842 3.109 1.309 3.11-4.734 7.462-8.427 12.963-10.104 12.364-3.815 26.536 3.516 30.382 16.141 8.487 27.647 5.7 18.546 12.395 40.402l3.97 3.838c-.215-1.73-.521-3.423-.521-5.209 0-.643.168-1.249.184-1.884l-4.459-7.998V93.094l32.941-31.777a11.692 11.692 0 0 0 3.079-5.018l12.272-40.004c1.9-6.205-1.593-12.786-7.797-14.693-6.268-1.93-12.779 1.601-14.695 7.799l-11.384 37.101-27.608 26.628h-40.279l-27.625-26.636L129.13 9.4c-1.915-6.198-8.412-9.722-14.694-7.799-6.205 1.908-9.697 8.488-7.797 14.693l12.271 40.005zm54.408 125.138l-6.068 19.75 7.828-14.012zm-47.083 162.376h92.847V288.58h-92.863zm33.492-128.876l-24.146 23.289 5.439 31.684c1.18 6.879 7.154 11.729 13.896 11.729.796 0 1.593-.061 2.404-.199 7.677-1.318 12.84-8.618 11.522-16.295l-8.703-50.721c-.151.153-.244.36-.412.513zm-82.843-1.125c17.728 0 30.979-14.923 30.979-30.996 0-17.121-13.866-30.987-30.979-30.987s-30.979 13.866-30.979 30.987c0 17.321 14.309 30.996 30.979 30.996z"/><path d="M114.451 242.255l37.14-35.814a13.186 13.186 0 0 0 3.479-5.645l12.104-39.414-3.645-11.867c-.92-2.979-1.211-6.037-.98-9.047-.797-.444-1.504-1.026-2.422-1.31-7.049-2.152-14.418 1.785-16.563 8.779l-12.824 41.805-31.134 30.021H53.181c-4.765 0-13.191 3.601-15.489 9.891L.828 329.48c-2.543 6.864.966 14.487 7.83 17.023 6.926 2.551 14.494-1.004 17.021-7.845l13.65-36.971c0 7.897-.045 30.329-.045 152.004 0 8.787 7.124 15.903 15.904 15.903 8.777 0 15.903-7.116 15.903-15.903v-94.778h11.582v94.778c0 8.787 7.124 15.903 15.903 15.903 8.78 0 15.904-7.116 15.904-15.903.003-152.51-.029-58.896-.029-211.436zm303.87 46.325l.016 55.233h52.338V288.58zm-210.623-24.4c-1.303 7.63 3.8 14.862 11.384 16.242l.014-40.389-6.234-6.006-5.164 30.153z"/><path d="M441.563 224.551l24.762-59.124c2.711-6.489-.338-13.943-6.819-16.656-6.465-2.726-13.942.337-16.653 6.819l-22.094 52.751c-.047.031-28.406 21.274-28.561 21.397-1.286 0-32.42.199-42.425.298-7.415.101-13.145-.221-16.593 7.316l-15.351 33.623.016 61.293 16.563-36.273c0 27.557-.047 73.535-.047 158.331 0 8.435 6.849 15.268 15.276 15.268s15.274-6.834 15.274-15.268v-90.993h11.141v90.993c0 8.435 6.848 15.268 15.274 15.268 8.427 0 15.275-6.834 15.275-15.268 0-140.986-.062-106.154-.062-203.536l35.024-26.239z"/><path d="M352.791 206.318l-5.99 5.785c5.424 7.193 13.973 11.911 23.672 11.911 16.44 0 29.754-13.322 29.754-29.747 0-16.447-13.314-29.753-29.754-29.753-.582 0-1.134.138-1.717.176l-9.59 31.248a24.43 24.43 0 0 1-6.375 10.38zm-116.228-32.029c0 18.225 15.307 31.907 31.899 31.907 16.579 0 31.899-13.659 31.899-31.907 0-17.635-14.264-31.914-31.899-31.914s-31.899 14.279-31.899 31.914z"/><path d="M307.149 235.491l38.228-36.871a13.694 13.694 0 0 0 3.585-5.822l14.233-46.424c2.206-7.201-1.853-14.839-9.054-17.045-7.247-2.275-14.831 1.846-17.053 9.047l-13.193 43.045-32.051 30.919h-46.777l-32.053-30.919-13.191-43.045c-2.222-7.201-9.852-11.323-17.053-9.047-7.201 2.206-11.262 9.844-9.055 17.045l14.234 46.424a13.688 13.688 0 0 0 3.585 5.822l38.241 36.887c0 141.93-.045 29.362-.045 217.716 0 9.048 7.34 16.379 16.378 16.379 9.04 0 16.379-7.331 16.379-16.379v-97.605h11.951v97.605c0 9.048 7.339 16.379 16.378 16.379s16.379-7.331 16.379-16.379c.001-156.921-.046-60.841-.046-217.732z"/></g></svg>