<svg xmlns="http://www.w3.org/2000/svg" viewBox="0 0 512 512"><path fill="#82be00" d="M406.069 353.103L256 441.379l-150.069-88.276 26.483-88.275h247.172z"/><path d="M106.072 352.631l.452.821 53 31.177C186.483 313.379 256 291.31 256 291.31l-66.207-26.483h-57.379l-26.342 87.804z" fill="#75b200"/><ellipse cx="256" cy="194.207" rx="176.552" ry="105.931" fill="#82be00"/><path d="M256 238.345c-73.422 0-138.108-15.489-176.12-39.011 4.488 56.107 81.498 100.804 176.12 100.804s171.633-44.697 176.12-100.804c-38.012 23.522-102.698 39.011-176.12 39.011z" fill="#68a600"/><path d="M114.759 335.448s-42.658 26.268-35.31 35.31l105.93 105.932c23.105 0 36.948 2.548 56.761-9.34l13.86-8.316v-35.31l-141.241-88.276z" fill="#568c00"/><g fill="#68a600"><path d="M176.552 485.517L93.1 470.344a26.485 26.485 0 0 0-23.464 7.329L35.31 512h211.862l-10.698-16.046a23.436 23.436 0 0 0-19.5-10.436h-40.422z"/><path d="M220.69 485.517l-95.458-146.859c-9.941-15.294-31.443-17.549-44.341-4.651l-.039.039c-10.712 10.712-11.25 27.908-1.226 39.268l114.581 129.858 26.483-17.655z"/></g><path d="M397.241 335.448s42.658 26.268 35.31 35.31L326.621 476.69c-23.105 0-36.948 2.548-56.761-9.34L256 459.034v-35.31l141.241-88.276z" fill="#568c00"/><g fill="#68a600"><path d="M335.448 485.517l83.452-15.174a26.486 26.486 0 0 1 23.464 7.329L476.69 512H264.828l10.698-16.046a23.436 23.436 0 0 1 19.5-10.436h40.422z"/><path d="M291.31 485.517l95.458-146.859c9.941-15.294 31.443-17.549 44.341-4.651l.039.039c10.712 10.712 11.25 27.908 1.226 39.268L317.793 503.172l-26.483-17.655z"/></g><path fill="#ffa035" d="M304.552 97.103h-97.104L195.31 12.138l36.414 61.069L256 12.138l24.276 60.69 36.414-60.69z"/><g fill="#ffbe51"><circle cx="256" cy="12.138" r="12.138"/><circle cx="195.31" cy="12.138" r="12.138"/><circle cx="316.69" cy="12.138" r="12.138"/></g><circle cx="158.897" cy="123.586" r="70.621" fill="#82be00"/><circle cx="158.897" cy="123.586" r="44.138" fill="#fff"/><circle cx="158.897" cy="123.586" r="26.483" fill="#2f3f50"/><circle cx="165.517" cy="116.966" r="11.034" fill="#99a0a9"/><circle cx="353.103" cy="123.586" r="70.621" fill="#82be00"/><circle cx="353.103" cy="123.586" r="44.138" fill="#fff"/><circle cx="353.103" cy="123.586" r="26.483" fill="#2f3f50"/><circle cx="359.724" cy="116.966" r="11.034" fill="#99a0a9"/></svg>