<svg xmlns="http://www.w3.org/2000/svg" viewBox="0 0 512 512"><path d="M303.861 78.753L37.064 318.158c-9.082 8.147-14.803 19.979-14.803 33.146 0 5.211.9 10.209 2.544 14.855 11.925 4.484 48.656 16.728 123.229 38.989 86.817 0 161.962-3.325 162.504-3.339l57.878-201.461-64.555-121.595z" fill="#84d993"/><path d="M325.009 144.696L303.861 163.2v226.365c19.061-.513 33.542-5.299 52.989-11.13 115.081-34.504 92.82-222.609 92.82-222.609l17.809-17.391V71.652h-44.522C396.243 62.33 372.87 51.2 348.445 38.749l-44.584 40.004v51.055l21.148 14.888z" fill="#50bf94"/><path d="M422.957 251.13l-37.843 90.574 56.058-.899c16.638-25.945 26.307-56.735 26.307-89.675V138.435h-44.522V251.13zM300.522 373.565H200.348c0 19.339 34.504 44.479 103.512 44.479l.112-.002a165.362 165.362 0 0 0 52.88-9.803l38.279-30.918-38.281-17.507a121.607 121.607 0 0 1-52.989 13.705c-1.11.028-2.223.046-3.339.046z" fill="#fdf3d3"/><path d="M478.609 451.478H463.65l-22.48-110.673-18.214-89.675c-3.373-16.6-18.844-28.267-36.058-26.537-17.213 1.731-30.053 16.246-30.052 33.184l.004 102.036.002 48.426.001 43.238s29.372 13.774 78.926 33.391H512c0-18.439-14.949-33.39-33.391-33.39z" fill="#b9f291"/><path d="M402.389 451.478h-190.91c5.565 11.548 14.122 21.914 25.6 33.391H435.78c0-18.44-14.951-33.391-33.391-33.391z" fill="#50bf94"/><path d="M303.861 418.087c-.012-17.134-6.448-32.717-17.017-44.522-12.228-13.659-29.989-22.261-49.765-22.261H66.783c-15.902 0-30.502 5.573-41.977 14.855a66.677 66.677 0 0 0-5.248 4.704C7.477 382.954 0 399.649 0 418.087l146.922 50.504 156.939-50.504z" fill="#b9f291"/><path d="M294.905 451.478a66.454 66.454 0 0 0 8.956-33.391H0c0 36.886 29.897 66.783 66.783 66.783h170.296c24.715 0 46.278-13.435 57.826-33.392z" fill="#84d993"/><path d="M303.861 129.803h33.391v33.391h-33.391zM161.247 239.994h33.391v33.391h-33.391zm44.521 44.522h33.391v33.391h-33.391z" fill="#b9f291"/><path d="M378.435 116.174c24.587 0 44.522-19.935 44.522-44.522S403.022 27.13 378.435 27.13l-28.939 48.557 28.939 40.487z" fill="#aa3e51"/><path d="M333.913 71.652c0 24.587 19.935 44.522 44.522 44.522V27.13c-11.421 0-21.835 4.305-29.716 11.376-.039.036-.08.069-.119.105-.051.046-.103.091-.155.139-8.929 8.143-14.532 19.867-14.532 32.902z" fill="#f72349"/></svg>