<svg xmlns="http://www.w3.org/2000/svg" viewBox="0 0 512 512"><circle cx="256" cy="256" r="256" fill="#ededed"/><path d="M256 0c-9.617 0-19.103.548-28.444 1.582C355.551 15.733 455.111 124.231 455.111 256s-99.56 240.267-227.556 254.418A258.663 258.663 0 0 0 256 512c141.385 0 256-114.615 256-256S397.385 0 256 0z" fill="#d8d8da"/><circle cx="256" cy="256" r="199.111" fill="#98c8ed"/><path d="M256 56.889c-9.66 0-19.153.703-28.444 2.031C324.045 72.724 398.222 155.694 398.222 256s-74.177 183.276-170.667 197.08a200.61 200.61 0 0 0 28.444 2.031c109.966 0 199.111-89.145 199.111-199.111S365.966 56.889 256 56.889z" fill="#7ab9e8"/><g fill="#ededed"><path d="M192 241.778v56.889h56.889V384h56.889V241.778z"/><circle cx="256" cy="163.556" r="35.556"/></g></svg>