<svg xmlns="http://www.w3.org/2000/svg" viewBox="0 0 512 512"><circle cx="167.748" cy="256" r="167.748" fill="#57565c"/><path d="M30.866 159.183l136.884 96.99-80.634-147.127a168.59 168.59 0 0 0-56.25 50.137z" fill="#787680"/><path d="M167.75 88.25c-6.487 0-12.883.381-19.177 1.097a32.24 32.24 0 0 0-1.721 10.397v312.512c0 3.636.611 7.13 1.721 10.396a169.349 169.349 0 0 0 19.177 1.097c92.646 0 167.75-75.104 167.75-167.75S260.396 88.25 167.75 88.25z" fill="#3e3d42"/><circle cx="167.748" cy="256" r="73.394" fill="#acabb1"/><path d="M167.75 182.609a73.37 73.37 0 0 0-20.898 3.036v140.708a73.375 73.375 0 0 0 20.898 3.036c40.533 0 73.39-32.858 73.39-73.391s-32.857-73.389-73.39-73.389z" fill="#898890"/><circle cx="167.748" cy="256" r="29.487" fill="#b6e892"/><path d="M167.75 226.513c-8.167 0-15.559 3.322-20.898 8.686v41.602c5.339 5.365 12.731 8.686 20.898 8.686 16.286 0 29.487-13.202 29.487-29.487 0-16.286-13.201-29.487-29.487-29.487z" fill="#91dc5a"/><circle cx="167.748" cy="256" r="8.238" fill="#57565c"/><path d="M90.068 371.237C63.742 352.6 43.6 326.288 34.463 295.546a7.837 7.837 0 0 1 5.28-9.745 7.834 7.834 0 0 1 9.745 5.28c8.106 27.276 25.636 51.131 49.36 67.172a7.837 7.837 0 0 1 2.102 10.882c-1.514 2.239-6.59 5.14-10.882 2.102zm-53.497-107.4A7.836 7.836 0 0 1 28.734 256c0-8.631.802-17.277 2.382-25.702.798-4.254 4.898-7.061 9.147-6.257a7.836 7.836 0 0 1 6.257 9.147A124.135 124.135 0 0 0 44.407 256a7.835 7.835 0 0 1-7.836 7.837z" fill="#787680"/><path d="M500.506 423.75H179.244c-6.322 0-11.494-5.172-11.494-11.494V99.744c0-6.322 5.172-11.494 11.494-11.494h321.262c6.322 0 11.494 5.172 11.494 11.494v312.512c0 6.322-5.172 11.494-11.494 11.494z" fill="#ffb655"/><path d="M222.159 412.256V99.744c0-6.322 5.172-11.494 11.494-11.494h-54.409c-6.322 0-11.494 5.172-11.494 11.494v312.512c0 6.322 5.172 11.494 11.494 11.494h54.409c-6.322 0-11.494-5.172-11.494-11.494z" fill="#ffa733"/><circle cx="339.874" cy="256" r="73.206" fill="#ff3f62"/></svg>