<svg xmlns="http://www.w3.org/2000/svg" viewBox="0 0 512 512"><path d="M256 0C114.615 0 0 114.615 0 256s114.615 256 256 256 256-114.615 256-256S397.385 0 256 0zm0 323.918c-37.45 0-67.918-30.468-67.918-67.918S218.55 188.082 256 188.082 323.918 218.55 323.918 256 293.45 323.918 256 323.918z" fill="#b9d8f4"/><path d="M212.676 203.739L92.611 58.925c-27.801 23.074-50.633 51.921-66.673 84.7l169.051 82.573a68.352 68.352 0 0 1 17.687-22.459zm58.027-14.037L311.42 6.033A256.845 256.845 0 0 0 256.004 0c-17.87 0-35.31 1.837-52.148 5.322l38.314 184.18c5.996-1.94 23.237-1.809 28.533.2zm2.644 131.927l48.082 181.866c34.924-9.254 67.766-25.833 96.097-48.834l-118.69-145.977a68.357 68.357 0 0 1-25.489 12.945zm-58.553-11.65l-114.14 149.545a256.928 256.928 0 0 0 47.749 28.766 257.126 257.126 0 0 0 49.555 17.088l42.643-183.226c-7.455-1.235-19.994-7.243-25.807-12.173z" fill="#d1e7f8"/><path d="M256 161.959c-51.854 0-94.041 42.187-94.041 94.041s42.187 94.041 94.041 94.041 94.041-42.187 94.041-94.041-42.187-94.041-94.041-94.041zm0 161.959c-37.45 0-67.918-30.468-67.918-67.918S218.55 188.082 256 188.082 323.918 218.55 323.918 256 293.45 323.918 256 323.918z" fill="#ffeb99"/><path d="M475.429 263.837a7.837 7.837 0 0 1-7.837-7.837c0-15.549-1.702-31.064-5.059-46.11a7.836 7.836 0 0 1 5.942-9.355c4.228-.947 8.412 1.719 9.355 5.942a227.796 227.796 0 0 1 5.436 49.524 7.838 7.838 0 0 1-7.837 7.836zm-25.046-91.415c-13.252-30.7-33.957-58.238-59.876-79.637a7.837 7.837 0 0 1 9.979-12.087c27.826 22.973 50.056 52.543 64.287 85.512 1.716 3.974-.172 8.458-4.09 10.301-4.059 1.908-9.022-1.128-10.3-4.089z" fill="#d1e7f8"/></svg>