<svg xmlns="http://www.w3.org/2000/svg" viewBox="0 0 440.927 440.927" width="512" height="512"><path d="M342.876 210.498h-17.05V37.01c0-9.894-3.853-19.188-10.839-26.162C308.004 3.853 298.709 0 288.816 0c-20.413 0-37.021 16.603-37.021 37.01v125.373c-6.469-5.53-14.852-8.881-24.009-8.881-9.9 0-19.198 3.853-26.172 10.839a36.837 36.837 0 0 0-8.263 12.556c-6.735-6.968-16.167-11.314-26.601-11.314-9.159 0-17.546 3.351-24.016 8.882V92.267c0-20.411-16.605-37.016-37.016-37.016S68.704 71.856 68.704 92.267V300.15c0 45.083 15.638 89.197 44.031 124.217a6.486 6.486 0 0 0 5.053 2.406 6.5 6.5 0 0 0 5.045-10.594c-26.522-32.711-41.129-73.918-41.129-116.029V92.267c0-13.242 10.773-24.016 24.016-24.016s24.016 10.773 24.016 24.016v169.841c0 20.411 16.605 37.016 37.016 37.016 12.327 0 23.259-6.063 29.99-15.358 6.608 10.154 18.052 16.887 31.046 16.887 1.445 0 2.875-.092 4.29-.255-16.394 12.505-27 32.231-27 54.395a6.5 6.5 0 1 0 13 0c0-30.542 24.848-55.39 55.39-55.39h15.18a6.5 6.5 0 0 0 6.5-6.5v-5.223h29.181a6.5 6.5 0 1 0 0-13h-51.633c-14.111 0-25.591-11.48-25.591-25.591s11.479-25.591 25.591-25.591h70.182c9.014 0 16.347 7.333 16.347 16.348v70.741c0 27.916-13.581 54.241-36.329 70.421l-.227.161c-17.204 12.237-27.475 32.146-27.475 53.258a6.5 6.5 0 1 0 13 0c0-16.912 8.228-32.861 22.01-42.664l.227-.161c26.17-18.614 41.794-48.9 41.794-81.015v-70.741c-.002-16.182-13.167-29.348-29.349-29.348zm-176.125 75.625c-13.242 0-24.016-10.773-24.016-24.016v-59.509c0-13.242 10.773-24.015 24.016-24.015s24.016 10.773 24.016 24.015v59.509c0 13.243-10.774 24.016-24.016 24.016zm98.373.806a67.99 67.99 0 0 0-10.442 2.117 37.041 37.041 0 0 0 3.455-4.227 38.16 38.16 0 0 0 6.987 2.11zm-18.055-9.019a24.106 24.106 0 0 1-2.309 2.706c-4.536 4.538-10.564 7.036-16.973 7.036-13.245 0-24.021-10.771-24.021-24.01v-73.12c0-6.423 2.497-12.453 7.041-16.988 4.526-4.535 10.557-7.032 16.979-7.032 13.226 0 23.988 10.755 24.009 23.981v26.188c-10.634 6.88-17.692 18.836-17.692 32.417.001 11.452 5.019 21.748 12.966 28.822zm17.728-66.597l-.001-174.303c0-13.239 10.775-24.01 24.021-24.01 6.416 0 12.443 2.498 16.979 7.041 4.534 4.526 7.031 10.553 7.031 16.97v173.488h-40.132a38.565 38.565 0 0 0-7.898.814z" fill="#63c7b2"/></svg>