<?xml version="1.0" encoding="iso-8859-1"?>
<!-- Generator: Adobe Illustrator 19.0.0, SVG Export Plug-In . SVG Version: 6.00 Build 0)  -->
<svg version="1.1" id="Layer_1" xmlns="http://www.w3.org/2000/svg" xmlns:xlink="http://www.w3.org/1999/xlink" x="0px" y="0px"
	 viewBox="0 0 496 496" style="enable-background:new 0 0 496 496;" xml:space="preserve">
<path style="fill:#FFA64D;" d="M328,72c-5.672,0-11.088,1.032-16.144,2.84C311.896,73.896,312,72.96,312,72
	c0-35.344-28.656-64-64-64c-27.568,0-50.992,17.464-60,41.904C178.992,25.464,155.568,8,128,8C92.656,8,64,36.656,64,72
	c0,0.248,0.032,0.48,0.04,0.728C61.416,72.28,58.744,72,56,72C29.488,72,8,93.488,8,120s21.488,48,48,48h64v68
	c0,15.464,12.536,28,28,28s28-12.536,28-28v72c0,15.464,12.536,28,28,28s28-12.536,28-28V168h40v100c0,15.464,12.536,28,28,28
	s28-12.536,28-28V168c26.512,0,48-21.488,48-48S354.512,72,328,72z"/>
<g>
	<path style="fill:#3F3A34;" d="M408,176h-60.544c-0.384-1.144-0.728-2.152-1.072-3.12C368.256,165.256,384,144.44,384,120
		c0-19.44-9.968-36.584-25.056-46.632l0.024-0.032c-0.352-0.232-0.736-0.392-1.088-0.616c-1.6-1.016-3.256-1.944-4.96-2.8
		c-0.672-0.336-1.336-0.672-2.024-0.976c-2.096-0.944-4.24-1.792-6.464-2.48c-0.376-0.112-0.76-0.184-1.136-0.288
		c-1.976-0.56-3.992-1-6.048-1.344c-0.648-0.104-1.296-0.216-1.944-0.296C332.912,64.216,330.48,64,328,64
		c-2.832,0-5.624,0.24-8.376,0.656C315.936,28.392,285.224,0,248,0c-25.056,0-47.144,12.88-60.04,32.36
		C174.784,12.416,152.496,0,128,0C91,0,60.432,28.048,56.44,64c-0.144,0-0.288,0-0.44,0c-2.48,0-4.912,0.216-7.312,0.536
		c-0.648,0.08-1.296,0.184-1.944,0.296c-2.056,0.344-4.072,0.784-6.048,1.344c-0.376,0.112-0.76,0.184-1.136,0.296
		c-2.216,0.68-4.36,1.536-6.456,2.48c-0.688,0.304-1.352,0.64-2.024,0.976c-1.704,0.848-3.36,1.784-4.96,2.792
		c-0.352,0.224-0.744,0.384-1.088,0.616l0.024,0.032C9.968,83.416,0,100.56,0,120c0,27.088,19.336,49.736,44.928,54.888
		C38.032,195.168,24,245.544,24,320c0,96.192,23.416,167.536,24.416,170.528L50.232,496H341.76l1.824-5.472
		c0.352-1.048,3.464-10.608,7.336-26.528H408c48.52,0,88-39.48,88-88V264C496,215.48,456.52,176,408,176z M40.92,352
		C40.352,341.68,40,331.016,40,320h130.208c4.968,13.936,18.168,24,33.792,24s28.816-10.064,33.792-24H352
		c0,11.016-0.352,21.68-0.92,32H40.92z M112,176v60c0,4.712,1,9.272,2.728,13.504c-1.408,17.264-2.256,35.56-2.568,54.496H40.24
		c1.984-68.584,16.192-113.84,21.28-128H112z M168,304h-39.832c0.208-12.736,0.664-25.176,1.384-37.176
		c0.992,0.6,1.976,1.216,3.032,1.72C137.416,270.832,142.6,272,148,272c7.4,0,14.272-2.256,20-6.096V304z M240,176h24v92
		c0,1.48,0.264,2.888,0.44,4.328l-0.432,0.016c0.344,8.016,0.232,20.016,0.104,31.656H240V176z M336,268v-74.592
		c6.208,22.08,14.296,59.944,15.752,110.592H300h-19.888c0.024-2,0.04-4,0.056-6c5.696,3.776,12.504,6,19.832,6
		c5.4,0,10.584-1.168,15.416-3.464C327.92,294.608,336,281.832,336,268z M360.928,232H408c17.648,0,32,14.352,32,32v112
		c0,17.648-14.352,32-32,32h-46.384c3.632-25.32,6.384-55.152,6.384-88C368,285.184,364.912,255.704,360.928,232z M16,120
		c0-16.336,9.872-30.376,23.944-36.576c0.528-0.232,1.072-0.408,1.608-0.616c1.696-0.664,3.456-1.208,5.256-1.632
		c0.656-0.152,1.304-0.32,1.968-0.44C51.128,80.296,53.528,80,56,80c2.08,0,4.272,0.2,6.696,0.608l0.08,0.008
		c14.08,2.432,26.072,12.264,30.944,26.032l15.08-5.344c-6.016-17.016-19.808-29.72-36.52-34.816C75.056,38.192,98.984,16,128,16
		c22.464,0,42.64,13.336,51.48,33.976C177.24,56.92,176,64.312,176,72h16c0-30.872,25.128-56,56-56
		c30.048,0,54.576,23.816,55.872,53.552c-13.104,6.272-23.624,17.488-28.672,31.76l15.08,5.344
		c4.856-13.712,16.768-23.512,30.768-25.992l0.248-0.04C323.736,80.2,325.928,80,328,80c2.472,0,4.872,0.296,7.224,0.728
		c0.664,0.12,1.312,0.288,1.968,0.44c1.8,0.424,3.552,0.976,5.256,1.632c0.536,0.208,1.08,0.384,1.608,0.616
		C358.128,89.624,368,103.664,368,120c0,22.056-17.944,40-40,40h-8v108c0,7.688-4.496,14.792-11.456,18.088
		C305.88,287.36,303,288,300,288c-11.032,0-20-8.968-20-20V160h-40h-8h-8v148c0,11.032-8.968,20-20,20s-20-8.968-20-20v-72v-20h-16
		v20c0,11.032-8.968,20-20,20c-3,0-5.88-0.64-8.552-1.912C132.496,250.792,128,243.688,128,236v-76H56C33.944,160,16,142.056,16,120
		z M42.024,368h71.728c4,55.36,13.864,94.28,19.208,112H61.912C57.68,465.544,46.592,423.544,42.024,368z M330.08,480h-71.048
		c4.2-13.96,11.224-41.016,16-78.992l-15.872-2C253.92,440.6,245.784,468.96,242.256,480h-92.52
		c-4.352-13.592-15.584-53.408-19.936-112h132.416c-0.384,5.208-0.808,10.312-1.288,15.216l15.92,1.56
		c0.528-5.392,0.984-11.032,1.4-16.784h71.72C345.4,423.48,334.312,465.528,330.08,480z M480,376c0,39.704-32.296,72-72,72h-53.448
		c1.536-7.224,3.072-15.256,4.56-24H408c26.472,0,48-21.528,48-48V264c0-26.472-21.528-48-48-48h-50.032
		c-1.896-9.208-3.848-17.2-5.704-24H408c39.704,0,72,32.296,72,72V376z"/>
	<rect x="96" y="128" style="fill:#3F3A34;" width="128" height="16"/>
	<rect x="64" y="128" style="fill:#3F3A34;" width="16" height="16"/>
</g>
<g>
</g>
<g>
</g>
<g>
</g>
<g>
</g>
<g>
</g>
<g>
</g>
<g>
</g>
<g>
</g>
<g>
</g>
<g>
</g>
<g>
</g>
<g>
</g>
<g>
</g>
<g>
</g>
<g>
</g>
</svg>
