<?xml version="1.0" encoding="iso-8859-1"?>
<!-- Generator: Adobe Illustrator 19.0.0, SVG Export Plug-In . SVG Version: 6.00 Build 0)  -->
<svg version="1.1" id="Capa_1" xmlns="http://www.w3.org/2000/svg" xmlns:xlink="http://www.w3.org/1999/xlink" x="0px" y="0px"
	 viewBox="0 0 511.997 511.997" style="enable-background:new 0 0 511.997 511.997;" xml:space="preserve">
<path style="fill:#FF525D;" d="M377.875,511.446v-62.035c0-37.642-13.227-72.195-35.296-99.264H98.767
	c-22.069,27.069-35.296,61.622-35.296,99.264v62.035"/>
<path style="fill:#EF4152;" d="M130.445,350.148H98.767c-22.069,27.069-35.296,61.622-35.296,99.264v62.035h40.849v-62.035
	C104.321,411.769,114.11,377.217,130.445,350.148z"/>
<g>
	<rect x="212.717" y="350.984" style="fill:#FCF8F2;" width="15.923" height="161.013"/>
	<circle style="fill:#FCF8F2;" cx="405.777" cy="103.064" r="46.707"/>
</g>
<path style="fill:#E5E1DC;" d="M393.035,103.066c0-19.802,12.329-36.712,29.723-43.509c-5.265-2.057-10.99-3.198-16.984-3.198
	c-25.796,0-46.707,20.911-46.707,46.707s20.911,46.707,46.707,46.707c5.994,0,11.719-1.141,16.984-3.198
	C405.364,139.778,393.035,122.868,393.035,103.066z"/>
<path style="fill:#FF525D;" d="M406.251,56.889l-37.589,40.763L261.151,60.626l-78.882-27.165c0,0,8.28-9.83,31.782-19.936
	C249.729-1.813,288.549-3.798,324.312,6.01c0.011,0,0.011,0,0.021,0c30.71,8.418,59.17,25.54,81.441,50.348L406.251,56.889z"/>
<path style="fill:#EFC1AB;" d="M92.017,241.051c-17.952,0-32.504-14.553-32.504-32.504s14.553-32.504,32.504-32.504h257.315
	c17.952,0,32.504,14.553,32.504,32.504s-14.552,32.504-32.504,32.504"/>
<path style="fill:#FCF8F2;" d="M340.117,286.918l11.754,20.388c7.195,12.479,4.795,28.277-5.781,38.058l-53.762,49.716
	c-14.044,12.987-36.399,10.194-46.817-5.848l-24.837-38.244l-24.837,38.244c-10.418,16.042-32.773,18.834-46.817,5.848
	L95.26,345.363c-10.576-9.78-12.976-25.578-5.781-38.058l11.754-20.388"/>
<path style="fill:#FFDAC5;" d="M348.196,165.261c0.754,5.594,1.136,11.305,1.136,17.101v59.456
	c0,71.059-57.599,109.168-128.657,109.168S92.018,312.877,92.018,241.818v-59.456c0-28.364,9.172-54.584,24.734-75.846
	l89.476-26.273l130.568,18.046L348.196,165.261z"/>
<path style="fill:#EFC1AB;" d="M127.047,241.051V135.737l-35.03,46.626v58.689c0,71.069,57.599,109.168,128.657,109.168
	c5.942,0,11.787-0.273,17.515-0.803C175.418,343.611,127.047,306.178,127.047,241.051z"/>
<g>
	<ellipse style="fill:#FCB997;" cx="303.212" cy="266.306" rx="17.515" ry="10.615"/>
	<ellipse style="fill:#FCB997;" cx="138.144" cy="266.306" rx="17.515" ry="10.615"/>
</g>
<g>
	<path style="fill:#5C5E70;" d="M349.332,182.362v59.456c0,5.382-0.329,10.562-0.977,15.562
		c-18.747-5.265-26.039-22.94-28.481-40.285c-1.921-13.577-0.87-48.385-0.021-68.957c9.533,5.085,19.012,10.775,28.343,17.133
		C348.95,170.866,349.332,176.566,349.332,182.362z"/>
	<path style="fill:#5C5E70;" d="M253.359,121.314c0,0-22.388,48.204-125.112,56.144c-2.123,0.17-4.289,0.318-6.486,0.446
		c0,0,12.568,69.159-28.64,79.721c-0.032,0.011-0.064,0.021-0.096,0.032c-0.669-5.085-1.008-10.361-1.008-15.838v-59.456
		c0-28.364,9.172-54.584,24.734-75.846c0,0,13.29-1.412,34.861-0.839C176.855,106.357,213.446,109.754,253.359,121.314z"/>
</g>
<path style="fill:#EF4152;" d="M324.312,6.01c-30.073-5.371-60.762,15.371-60.762,48.756c0,2.548-0.839,4.48-2.399,5.86
	l-78.882-27.165c0,0,8.28-9.83,31.782-19.936C249.729-1.813,288.549-3.798,324.312,6.01z"/>
<path style="fill:#494B5B;" d="M128.248,177.458c-2.123,0.17-4.289,0.318-6.486,0.446c0,0,12.568,69.159-28.64,79.721
	c-0.732-5.308-1.104-10.828-1.104-16.57v-58.692c0-28.364,9.172-54.584,24.734-75.846c0,0,13.29-1.412,34.861-0.839
	C139.043,127.768,131.092,152.183,128.248,177.458z"/>
<path style="fill:#FCF8F2;" d="M367.58,115.826l-19.384,49.446c-62.397-42.514-131.693-55.316-178.05-58.671
	c-32.249-2.325-53.395-0.085-53.395-0.085l21.358-54.51c4.384-11.178,15.106-18.577,27.111-18.725
	c8.365-0.106,19.012,0.064,31.379,0.902c41.049,2.781,100.898,12.961,157.998,45.189C367.4,86.591,372.941,102.142,367.58,115.826z"
	/>
<path style="fill:#E5E1DC;" d="M170.146,106.601c-32.249-2.325-53.395-0.085-53.395-0.085l21.358-54.51
	c4.384-11.178,15.106-18.577,27.111-18.725c8.365-0.106,19.012,0.064,31.379,0.902C190.644,38.164,163.533,59.129,170.146,106.601z"
	/>
<g>
	<path style="fill:#313344;" d="M159.152,250.045c-4.397,0-7.961-3.565-7.961-7.961v-16.551c0-4.397,3.565-7.961,7.961-7.961
		s7.961,3.565,7.961,7.961v16.551C167.113,246.481,163.549,250.045,159.152,250.045z"/>
	<path style="fill:#313344;" d="M282.196,250.045c-4.397,0-7.961-3.565-7.961-7.961v-16.551c0-4.397,3.565-7.961,7.961-7.961
		s7.961,3.565,7.961,7.961v16.551C290.157,246.481,286.593,250.045,282.196,250.045z"/>
</g>
<path style="fill:#CE5B6C;" d="M220.674,291.387c-11.082,0-21.501-4.316-29.337-12.152c-3.109-3.109-3.109-8.149,0-11.259
	s8.15-3.109,11.259,0c4.829,4.829,11.249,7.488,18.078,7.488s13.249-2.659,18.078-7.488c3.109-3.109,8.15-3.109,11.259,0
	c3.109,3.109,3.109,8.15,0,11.26C242.174,287.071,231.756,291.387,220.674,291.387z"/>
<circle style="fill:#FCF8F2;" cx="180.754" cy="446.469" r="19.108"/>
<g>
</g>
<g>
</g>
<g>
</g>
<g>
</g>
<g>
</g>
<g>
</g>
<g>
</g>
<g>
</g>
<g>
</g>
<g>
</g>
<g>
</g>
<g>
</g>
<g>
</g>
<g>
</g>
<g>
</g>
</svg>
