<?xml version="1.0" encoding="iso-8859-1"?>
<!-- Generator: Adobe Illustrator 19.0.0, SVG Export Plug-In . SVG Version: 6.00 Build 0)  -->
<svg version="1.1" id="Capa_1" xmlns="http://www.w3.org/2000/svg" xmlns:xlink="http://www.w3.org/1999/xlink" x="0px" y="0px"
	 viewBox="0 0 512 512" style="enable-background:new 0 0 512 512;" xml:space="preserve">
<path style="fill:#FF525D;" d="M369.427,88.141l-123.732-0.533l-103.103-0.439c0.345-1.046,0.669-2.07,1.035-3.095
	c0.899-2.603,1.715-5.238,2.436-7.894c2.488-9.138,3.984-18.59,4.653-28.105l1.861-26.693c0.575-8.291,7.706-14.188,15.255-12.651
	l14.711,2.99c6.713,1.38,13.571,1.359,20.221,0.021c0-0.01,0-0.01,0-0.01c3.314-0.669,6.577-1.673,9.745-3.001
	C225.944,3.084,240.572,0,255.858,0h0.01c15.286,0,29.893,3.084,43.339,8.73c9.546,3.994,19.918,5.029,29.966,2.99l14.69-2.99
	c7.57-1.537,14.69,4.36,15.265,12.651L361,48.065c0.659,9.515,2.143,18.946,4.632,28.073c0.721,2.677,1.537,5.311,2.436,7.925
	C368.549,85.412,368.988,86.772,369.427,88.141z"/>
<path style="fill:#EF4152;" d="M245.691,87.605l-103.103-0.439c0.345-1.046,0.669-2.07,1.035-3.095
	c3.994-11.543,6.221-23.713,7.089-35.999l1.861-26.693c0.575-8.291,7.706-14.188,15.255-12.651l14.711,2.99
	c6.713,1.38,13.571,1.359,20.221,0.021c-0.523,1.161-25.146,56.429,24.466,65.411C237.682,79.042,243.328,82.816,245.691,87.605z"/>
<path style="fill:#34ABE0;" d="M410.838,511.999v-61.102c0-37.076-13.028-71.109-34.765-97.771H135.927
	c-21.737,26.662-34.765,60.695-34.765,97.771v61.102"/>
<path style="fill:#FF525D;" d="M342.723,390.498v106.364c0,4.412-3.649,7.967-8.082,7.831c-4.297-0.125-7.601-3.869-7.601-8.166
	v-19.249c0-2.018-0.816-3.858-2.143-5.176c-1.328-1.328-3.158-2.143-5.176-2.143c-4.046,0-7.319,3.273-7.319,7.319v19.583
	c0,4.412-3.649,7.967-8.082,7.831c-4.297-0.125-7.601-3.869-7.601-8.166v-19.249c0-2.018-0.816-3.858-2.143-5.176
	c-1.328-1.328-3.158-2.143-5.176-2.143c-4.046,0-7.319,3.273-7.319,7.319v19.583c0,4.412-3.649,7.967-8.082,7.831
	c-4.297-0.125-7.601-3.869-7.601-8.166V469.96c0-0.01,0-0.01,0-0.01v-57.631L342.723,390.498z"/>
<path style="fill:#279FC9;" d="M177.896,353.126c-14.136,26.662-22.616,60.695-22.616,97.771V512h-54.118v-61.103
	c0-37.076,13.028-71.109,34.765-97.771H177.896z"/>
<path style="fill:#EFC1AB;" d="M129.277,181.641c-17.682,0-32.015,14.334-32.015,32.015s14.334,32.015,32.015,32.015l253.445,0.003
	c17.681,0,32.015-14.335,32.015-32.015c0-13.948-8.929-25.825-21.382-30.206"/>
<path style="fill:#FFDAC5;" d="M382.723,123.875v129.982c0,74.246-56.732,114.046-126.723,114.046s-126.723-39.801-126.723-114.046
	V143.836"/>
<path style="fill:#EFC1AB;" d="M163.781,246.426V142.696l218.941-16.259v-2.563l-253.445,18.82v103.731
	c0,70.001,56.732,132.978,126.723,132.978c5.853,0,11.61-25.721,17.252-26.243C211.425,347.443,163.781,310.573,163.781,246.426z"/>
<path style="fill:#EF4152;" d="M369.427,88.141l-123.732-0.533l-103.103-0.439c0.345-1.046,0.669-2.07,1.035-3.095
	c0.899-2.603,1.715-5.238,2.436-7.894c14.481-1.798,28.983-3.241,43.506-4.318c58.656-4.391,117.605-2.959,176.063,4.276
	c0.721,2.677,1.537,5.311,2.436,7.925C368.549,85.412,368.988,86.772,369.427,88.141z"/>
<path style="fill:#FF525D;" d="M399.274,110.712c-9.577,35.999-13.31,61.835-29.893,71.715c-15.568,9.285-49.853,7.591-53.962,7.35
	c0.251,0.063-1.662,0.063-0.408-0.031c-6.65-0.376-22.218-16.907-28.879-17.126c-29.893-1.004-59.827-0.512-89.689,1.495
	c-17.471,1.161-34.922,2.844-52.331,5.05c-0.115,0.01-0.22,0.031-0.335,0.042c-2.938,0.376-5.782,0-8.354-0.962
	c-6.577-2.478-11.365-8.814-11.365-16.394v-60.13c0-8.751,6.472-16.196,15.15-17.346c16.75-2.217,33.542-3.952,50.354-5.196
	c61.051-4.569,122.425-2.833,183.225,5.196c6.723,0.889,12.097,5.521,14.209,11.637v0.01
	C386.842,96.67,399.441,110.074,399.274,110.712z"/>
<path style="fill:#EF4152;" d="M342.723,390.498v21.967c-20.305,14.952-46.894,23.431-76.326,25.031v-25.177L342.723,390.498z"/>
<path style="fill:#FF525D;" d="M382.727,256.017v58.562c0,3.189-0.115,6.326-0.345,9.379
	c-4.862,63.957-59.576,98.137-126.378,98.137c-20.524,0-39.899-3.22-57.046-9.556c-11.804-4.36-22.563-10.184-31.89-17.451
	c-23.327-18.12-37.787-45.179-37.787-80.509v-58.562c0-1.642,0.031-3.262,0.094-4.883c1.223,33.05,15.412,58.51,37.693,75.835
	c9.326,7.256,20.075,13.07,31.89,17.43c17.147,6.336,36.522,9.556,57.046,9.556c68.453,0,124.224-35.894,126.628-102.957
	C382.695,252.661,382.727,254.334,382.727,256.017z"/>
<g>
	<path style="fill:#EF4152;" d="M167.068,326.969v68.119c-23.327-18.12-37.787-45.179-37.787-80.509v-58.562
		c0-1.642,0.031-3.262,0.094-4.883C130.599,284.185,144.787,309.644,167.068,326.969z"/>
	<path style="fill:#EF4152;" d="M382.727,279.501v35.079c0,3.189-0.115,6.326-0.345,9.379
		c-16.363,30.217-41.655,55.77-68.349,65.233c-0.868,0.314-1.746,0.46-2.614,0.46c-3.231,0-6.252-2.008-7.392-5.228
		c-1.453-4.078,0.69-8.563,4.768-10.006C341.971,362.655,373.609,320.288,382.727,279.501z"/>
	<path style="fill:#EF4152;" d="M129.277,279.501v35.079c0,3.189,0.115,6.326,0.345,9.379c16.363,30.217,41.655,55.77,68.349,65.233
		c0.868,0.314,1.746,0.46,2.614,0.46c3.231,0,6.252-2.008,7.392-5.228c1.453-4.078-0.69-8.563-4.768-10.006
		C170.034,362.655,138.395,320.288,129.277,279.501z"/>
</g>
<g>
	<path style="fill:#313344;" d="M195.403,254.529c-4.331,0-7.842-3.511-7.842-7.842v-16.302c0-4.331,3.511-7.842,7.842-7.842
		c4.331,0,7.842,3.511,7.842,7.842v16.302C203.245,251.018,199.734,254.529,195.403,254.529z"/>
	<path style="fill:#313344;" d="M316.598,254.529c-4.331,0-7.842-3.511-7.842-7.842v-16.302c0-4.331,3.511-7.842,7.842-7.842
		c4.331,0,7.842,3.511,7.842,7.842v16.302C324.44,251.018,320.929,254.529,316.598,254.529z"/>
</g>
<path style="fill:#CE5B6C;" d="M256.001,295.249c-10.916,0-21.178-4.25-28.896-11.969c-3.062-3.062-3.062-8.028,0-11.09
	c3.062-3.062,8.028-3.062,11.089,0c4.756,4.756,11.08,7.375,17.806,7.375c6.726,0,13.05-2.619,17.806-7.375
	c3.062-3.062,8.028-3.062,11.089,0c3.062,3.062,3.062,8.028,0,11.09C277.178,290.999,266.917,295.249,256.001,295.249z"/>
<path style="fill:#EF4152;" d="M196.445,174.115c-17.471,1.161-34.922,2.844-52.331,5.05c-2.865-0.293-5.761-0.596-8.689-0.92
	c-6.577-2.478-11.365-8.814-11.365-16.394v-60.13c0-8.751,6.472-16.196,15.15-17.346c16.75-2.217,33.542-3.952,50.354-5.196
	c-0.481,1.056-25.571,44.586,6.869,94.927C196.434,174.104,196.445,174.104,196.445,174.115z"/>
<path style="fill:#5C5E70;" d="M396.664,180.339c-19.928,19.928-48.702,28.471-72.155,25.01
	c-17.335-2.572-31.775-11.7-37.588-27.645c-0.596-1.631-0.847-3.356-0.795-5.081c6.66,0.22,13.32,0.523,19.981,0.899
	c1.495,0.084,2.99,0.073,4.486-0.042c0,0,14.188-0.889,30.771-10.78c16.583-9.881,35.57-28.774,45.137-64.773
	c0.167-0.638,0.335-1.286,0.491-1.934c1.589-6.294,2.896-13.101,3.858-20.462C390.851,75.532,431.168,145.836,396.664,180.339z"/>
<g>
	<ellipse style="fill:#FCB997;" cx="337.29" cy="271.303" rx="17.252" ry="10.456"/>
	<ellipse style="fill:#FCB997;" cx="174.704" cy="271.303" rx="17.252" ry="10.456"/>
</g>
<path style="fill:#494B5B;" d="M324.51,205.349c-17.335-2.572-31.775-11.7-37.588-27.645c-0.596-1.631-0.847-3.356-0.795-5.081
	c6.66,0.22,13.32,0.523,19.981,0.899c1.495,0.084,2.99,0.073,4.486-0.042c0,0,14.188-0.889,30.771-10.78
	c16.583-9.881,35.57-28.774,45.137-64.773c0.167-0.638,0.335-1.286,0.491-1.934c1.589-6.294,2.896-13.101,3.858-20.462
	C400.23,199.818,324.51,205.349,324.51,205.349z"/>
<g>
</g>
<g>
</g>
<g>
</g>
<g>
</g>
<g>
</g>
<g>
</g>
<g>
</g>
<g>
</g>
<g>
</g>
<g>
</g>
<g>
</g>
<g>
</g>
<g>
</g>
<g>
</g>
<g>
</g>
</svg>
