<?xml version="1.0" encoding="iso-8859-1"?>
<!-- Generator: Adobe Illustrator 19.0.0, SVG Export Plug-In . SVG Version: 6.00 Build 0)  -->
<svg version="1.1" id="Layer_1" xmlns="http://www.w3.org/2000/svg" xmlns:xlink="http://www.w3.org/1999/xlink" x="0px" y="0px"
	 viewBox="0 0 512 512" style="enable-background:new 0 0 512 512;" xml:space="preserve">
<path style="fill:#F0EAE5;" d="M375.013,82.521c-3.128,0-6.22,0.152-9.274,0.433C352.603,35.134,308.824,0,256.833,0
	c-62.374,0-112.939,50.565-112.939,112.939c0,1.289,0.03,2.572,0.073,3.852c-7.184-2.001-14.746-3.095-22.568-3.095
	c-46.359,0-83.94,37.581-83.94,83.94s37.581,83.94,83.94,83.94h253.616c54.967,0,99.528-44.56,99.528-99.528
	S429.981,82.521,375.013,82.521z"/>
<path style="opacity:0.1;enable-background:new    ;" d="M388.544,268.046H134.929c-46.359,0-83.94-37.581-83.94-83.94
	c0-19.732,6.825-37.858,18.221-52.188c-19.339,15.377-31.752,39.092-31.752,65.719c0,46.359,37.581,83.94,83.94,83.94h253.615
	c30.93,0,58.563-14.109,76.818-36.24C434.63,259.523,412.582,268.046,388.544,268.046z"/>
<path style="fill:#00B7CF;" d="M438.483,512H73.516c-7.372,0-13.349-5.976-13.349-13.349v-19.13c0-7.372,5.976-13.348,13.349-13.348
	h364.967c7.372,0,13.349,5.976,13.349,13.348v19.13C451.831,506.024,445.855,512,438.483,512z"/>
<path style="opacity:0.2;enable-background:new    ;" d="M281.766,489.624h-51.532c-12.951,0-23.45-10.498-23.45-23.45l0,0h98.432
	l0,0C305.215,479.124,294.716,489.624,281.766,489.624z"/>
<path style="fill:#006375;" d="M395.358,254.761H116.64c-12.073,0-21.859,9.787-21.859,21.859v189.553h322.436V276.62
	C417.218,264.547,407.431,254.761,395.358,254.761z"/>
<rect x="121.595" y="281.575" style="fill:#FFFFFF;" width="268.803" height="157.779"/>
<circle style="fill:#72D9E8;" cx="197.327" cy="374.315" r="14.571"/>
<circle style="fill:#FFDF52;" cx="314.666" cy="374.315" r="14.571"/>
<rect x="94.786" y="452.511" style="opacity:0.15;enable-background:new    ;" width="322.433" height="13.663"/>
<path style="opacity:0.1;enable-background:new    ;" d="M203.044,140.307v153.151h-31.885c-4.744,0-7.227,5.638-4.023,9.138
	l70.19,76.681c3.857,4.213,10.497,4.213,14.354,0l70.19-76.681c3.204-3.499,0.721-9.138-4.023-9.138h-31.885l-0.01-153.152
	c0-7.46-6.047-13.506-13.507-13.506h-55.891C209.091,126.799,203.044,132.847,203.044,140.307z"/>
<path style="fill:#DC6C84;" d="M214.541,128.425v153.151h-31.885c-4.745,0-7.227,5.638-4.023,9.138l70.19,76.681
	c3.857,4.213,10.497,4.213,14.354,0l70.19-76.681c3.204-3.499,0.721-9.138-4.023-9.138h-31.885l-0.01-153.152
	c0-7.46-6.047-13.506-13.507-13.506h-55.893C220.588,114.918,214.541,120.966,214.541,128.425z"/>
<g>
</g>
<g>
</g>
<g>
</g>
<g>
</g>
<g>
</g>
<g>
</g>
<g>
</g>
<g>
</g>
<g>
</g>
<g>
</g>
<g>
</g>
<g>
</g>
<g>
</g>
<g>
</g>
<g>
</g>
</svg>
