<?xml version="1.0" encoding="iso-8859-1"?>
<!-- Generator: Adobe Illustrator 19.0.0, SVG Export Plug-In . SVG Version: 6.00 Build 0)  -->
<svg version="1.1" id="Layer_1" xmlns="http://www.w3.org/2000/svg" xmlns:xlink="http://www.w3.org/1999/xlink" x="0px" y="0px"
	 viewBox="0 0 480.314 480.314" style="enable-background:new 0 0 480.314 480.314;" xml:space="preserve">
<path style="fill:#ABB3B7;" d="M412.8,194.157c0,2.4-1.6,4-4,4l0,0c-2.4,0-4-1.6-4-4v-140c0-2.4,1.6-4,4-4l0,0c2.4,0,4,1.6,4,4
	V194.157z"/>
<path style="fill:#979B9E;" d="M408.8,50.157L408.8,50.157c2.4,0,4,1.6,4,4v140c0,2.4-1.6,4-4,4l0,0c-2.4,0-4-1.6-4-4"/>
<path style="fill:#299EFF;" d="M332.8,112.557c0,29.6-24,53.6-53.6,53.6h-16.8c-29.6,0-53.6-24-53.6-53.6v-45.6
	c0-29.6,24-53.6,53.6-53.6h16.8c29.6,0,53.6,24,53.6,53.6V112.557z"/>
<path style="fill:#1881EA;" d="M262.4,13.357h16.8c29.6,0,53.6,24,53.6,53.6v45.6c0,29.6-24,53.6-53.6,53.6h-16.8
	c-29.6,0-53.6-24-53.6-53.6"/>
<path style="fill:#0662C6;" d="M262.4,69.357c-28,0-50.4,20.8-53.6,48c3.2,27.2,25.6,48,53.6,48h16.8c28,0,50.4-20.8,53.6-48
	c-3.2-27.2-25.6-48-53.6-48C279.2,69.357,262.4,69.357,262.4,69.357z"/>
<path style="fill:#175ABC;" d="M208.8,118.157c3.2,27.2,25.6,48,53.6,48h16.8c28,0,50.4-20.8,53.6-48"/>
<path style="fill:#299EFF;" d="M145.6,112.557c0,29.6-24,53.6-53.6,53.6H75.2c-29.6,0-53.6-24-53.6-53.6v-45.6
	c0-29.6,24-53.6,53.6-53.6H92c29.6,0,53.6,24,53.6,53.6V112.557z"/>
<path style="fill:#1881EA;" d="M75.2,13.357H92c29.6,0,53.6,24,53.6,53.6v45.6c0,29.6-24,53.6-53.6,53.6H75.2
	c-29.6,0-53.6-24-53.6-53.6"/>
<path style="fill:#0662C6;" d="M75.2,69.357c-28,0-50.4,20.8-53.6,48c3.2,27.2,25.6,48,53.6,48H92c28,0,50.4-20.8,53.6-48
	c-3.2-27.2-25.6-48-53.6-48C92,69.357,75.2,69.357,75.2,69.357z"/>
<path style="fill:#175ABC;" d="M21.6,118.157c3.2,27.2,25.6,48,53.6,48H92c28,0,50.4-20.8,53.6-48"/>
<path style="fill:#ABB3B7;" d="M232,51.757c0,4-3.2,7.2-8,7.2h-41.6c-4,0-7.2-3.2-7.2-7.2l0,0c0-4,3.2-7.2,7.2-7.2H224
	C228.8,43.757,232,47.757,232,51.757L232,51.757z"/>
<path style="fill:#979B9E;" d="M232,51.757L232,51.757c0,4-3.2,7.2-8,7.2h-41.6c-4,0-7.2-3.2-7.2-7.2l0,0"/>
<path style="fill:#ABB3B7;" d="M179.2,51.757c0,4-3.2,7.2-7.2,7.2h-41.6c-4,0-7.2-3.2-7.2-7.2l0,0c0-4,3.2-7.2,7.2-7.2H172
	C176,43.757,179.2,47.757,179.2,51.757L179.2,51.757z"/>
<path style="fill:#979B9E;" d="M179.2,51.757L179.2,51.757c0,4-3.2,7.2-7.2,7.2h-41.6c-4,0-7.2-3.2-7.2-7.2l0,0"/>
<path style="fill:#838587;" d="M51.2,388.557c-4-1.6-8.8,0.8-10.4,5.6l-16,51.2c-0.8,4.8,1.6,9.6,5.6,10.4c0.8,0,1.6,0,2.4,0
	c3.2,0,7.2-2.4,8-5.6l16-51.2C58.4,394.957,56,390.157,51.2,388.557z"/>
<path style="fill:#696A6B;" d="M30.4,455.757c0.8,0,1.6,0,2.4,0c3.2,0,7.2-2.4,8-5.6l16-51.2c1.6-4-0.8-8.8-5.6-10.4
	c-4-1.6-8.8,0.8-10.4,5.6"/>
<path style="fill:#067EEA;" d="M42.4,455.757c0,5.6-4.8,10.4-10.4,10.4H18.4c-5.6,0-7.2-4.8-7.2-10.4l0,0c0-5.6,4.8-10.4,10.4-10.4
	H32C38.4,446.157,42.4,450.157,42.4,455.757L42.4,455.757z"/>
<path style="fill:#0662C6;" d="M32,446.157c5.6,0,10.4,4.8,10.4,10.4l0,0c0,5.6-4.8,10.4-10.4,10.4H18.4c-5.6,0-7.2-4.8-7.2-10.4
	l0,0"/>
<path style="fill:#838587;" d="M303.2,388.557c4-1.6,8.8,0.8,10.4,5.6l16,51.2c1.6,4-0.8,8.8-5.6,10.4c-0.8,0-1.6,0-2.4,0
	c-3.2,0-7.2-2.4-8-5.6l-16-51.2C296,394.957,298.4,390.157,303.2,388.557z"/>
<path style="fill:#696A6B;" d="M324,455.757c-0.8,0-1.6,0-2.4,0c-3.2,0-7.2-2.4-8-5.6l-16-51.2c-1.6-4,0.8-8.8,5.6-10.4
	c4-1.6,8.8,0.8,10.4,5.6"/>
<path style="fill:#067EEA;" d="M312,455.757c0,5.6,4.8,10.4,10.4,10.4H336c5.6,0,7.2-4.8,7.2-10.4l0,0c0-5.6-4.8-10.4-10.4-10.4
	h-10.4C316,446.157,312,450.157,312,455.757L312,455.757z"/>
<path style="fill:#0662C6;" d="M322.4,446.157c-5.6,0-10.4,4.8-10.4,10.4l0,0c0,5.6,4.8,10.4,10.4,10.4H336c5.6,0,7.2-4.8,7.2-10.4
	l0,0"/>
<path style="fill:#EFEED5;" d="M337.6,289.357c0,88.8-72,160.8-160.8,160.8s-160.8-72-160.8-160.8s72-160.8,160.8-160.8
	C265.6,128.557,337.6,200.557,337.6,289.357z"/>
<path style="fill:#DDDABF;" d="M64,175.757c62.4-62.4,164.8-62.4,227.2,0s62.4,164.8,0,227.2"/>
<path style="fill:#CCC8A8;" d="M177.6,186.157c79.2,0,144.8,56.8,157.6,132c1.6-9.6,2.4-19.2,2.4-28.8c0-88.8-72-160.8-160.8-160.8
	s-160.8,72-160.8,160.8c0,9.6,0.8,19.2,2.4,28.8C32.8,242.957,98.4,186.157,177.6,186.157z"/>
<path style="fill:#1881EA;" d="M177.6,466.157c-98.4,0-177.6-79.2-177.6-176.8s79.2-177.6,177.6-177.6
	c97.6,0,177.6,79.2,177.6,177.6C354.4,386.957,275.2,466.157,177.6,466.157z M177.6,145.357c-79.2,0-144,64.8-144,144
	s64.8,144,144,144s144-64.8,144-144S256.8,145.357,177.6,145.357z"/>
<g>
	<path style="fill:#0662C6;" d="M177.6,145.357c79.2,0,144,64.8,144,144c0,5.6,0,11.2-0.8,16.8c0.8,5.6,0.8,11.2,0.8,16.8
		c0,79.2-64.8,144-144,144c92,0,168-70.4,176-160.8C345.6,215.757,269.6,145.357,177.6,145.357z"/>
	<path style="fill:#0662C6;" d="M33.6,322.957c0-5.6,0-11.2,0.8-16.8c-0.8-5.6-0.8-11.2-0.8-16.8c0-79.2,64.8-144,144-144
		c-92,0-168,70.4-176.8,160.8c8.8,89.6,84,160.8,176.8,160.8C97.6,466.157,33.6,402.157,33.6,322.957z"/>
</g>
<circle style="fill:#DDDABF;" cx="234.4" cy="346.957" r="35.2"/>
<circle style="fill:#3A382D;" cx="234.4" cy="346.957" r="35.2"/>
<path style="fill:#5B594D;" d="M234.4,337.357c-15.2,0-27.2,9.6-32.8,22.4c4.8,12.8,17.6,22.4,32.8,22.4c15.2,0,27.2-9.6,32.8-22.4
	C262.4,346.157,249.6,337.357,234.4,337.357z"/>
<path style="fill:#0662C6;" d="M168.8,112.557v33.6c2.4,0,5.6-0.8,8-0.8c3.2,0,5.6,0,8,0.8v-33.6c-2.4,0-5.6-0.8-8-0.8
	C174.4,111.757,172,112.557,168.8,112.557z"/>
<path style="fill:#838587;" d="M185.6,120.557c0,4.8-4,4-8,4l0,0c-4.8,0-8,0.8-8-4v-74.4c0-4.8,4-8,8-8l0,0c4.8,0,8,4,8,8V120.557z"
	/>
<path style="fill:#979B9E;" d="M416.8,458.957c0,4-3.2,8-8,8l0,0c-4,0-8-3.2-8-8v-252c0-4,3.2-8,8-8l0,0c4,0,8,3.2,8,8V458.957z"/>
<path style="fill:#878787;" d="M408.8,229.357c2.4,0,5.6,0,8,0v-22.4c0-4-3.2-7.2-7.2-8H408c-4,0.8-7.2,4-7.2,8v22.4
	C403.2,229.357,406.4,229.357,408.8,229.357z"/>
<g>
	<path style="fill:#838587;" d="M439.2,453.357c3.2,3.2,3.2,8,0,11.2l0,0c-3.2,3.2-8,3.2-11.2,0l-24.8-24.8c-3.2-3.2-3.2-8,0-11.2
		l0,0c3.2-3.2,8-3.2,11.2,0L439.2,453.357z"/>
	<path style="fill:#838587;" d="M378.4,453.357c-3.2,3.2-3.2,8,0,11.2l0,0c3.2,3.2,8,3.2,11.2,0l24.8-24.8c3.2-3.2,3.2-8,0-11.2l0,0
		c-3.2-3.2-8-3.2-11.2,0L378.4,453.357z"/>
</g>
<path style="fill:#FFAC1A;" d="M476,189.357H341.6c-1.6,0-3.2,0.8-4,3.2c-0.8,1.6,0,3.2,1.6,4.8c3.2,2.4,32.8,22.4,69.6,22.4
	s66.4-20,69.6-22.4c1.6-1.6,1.6-4,1.6-5.6C479.2,190.157,477.6,189.357,476,189.357z"/>
<path style="fill:#F28F0C;" d="M408.8,218.957c36.8,0,66.4-20,69.6-22.4c1.6-0.8,1.6-3.2,1.6-4.8c-0.8-1.6-2.4-3.2-4-3.2H368"/>
<path style="fill:#FFAC1A;" d="M341.6,178.157H476c1.6,0,3.2-0.8,4-3.2c0.8-1.6,0-3.2-1.6-4.8c-3.2-2.4-32.8-22.4-69.6-22.4
	s-66.4,20-69.6,22.4c-1.6,0.8-2.4,3.2-1.6,4.8C338.4,177.357,340,178.157,341.6,178.157z"/>
<path style="fill:#F28F0C;" d="M408.8,147.757c-36.8,0-66.4,20-69.6,22.4c-1.6,0.8-2.4,3.2-1.6,4.8s2.4,3.2,4,3.2h108"/>
<path style="fill:#838587;" d="M423.2,124.557c0,4.8-4,8-8,8h-12.8c-4.8,0-8-4-8-8l0,0c0-4.8,4-8,8-8h12.8
	C419.2,116.557,423.2,119.757,423.2,124.557L423.2,124.557z"/>
<path style="fill:#ABB3B7;" d="M435.2,128.557c0,2.4-1.6,4-4,4l0,0c-2.4,0-4-1.6-4-4v-8c0-2.4,1.6-4,4-4l0,0c2.4,0,4,1.6,4,4
	V128.557z"/>
<g>
</g>
<g>
</g>
<g>
</g>
<g>
</g>
<g>
</g>
<g>
</g>
<g>
</g>
<g>
</g>
<g>
</g>
<g>
</g>
<g>
</g>
<g>
</g>
<g>
</g>
<g>
</g>
<g>
</g>
</svg>
