<?xml version="1.0" encoding="iso-8859-1"?>
<!-- Generator: Adobe Illustrator 19.0.0, SVG Export Plug-In . SVG Version: 6.00 Build 0)  -->
<svg version="1.1" id="Layer_1" xmlns="http://www.w3.org/2000/svg" xmlns:xlink="http://www.w3.org/1999/xlink" x="0px" y="0px"
	 viewBox="0 0 512 512" style="enable-background:new 0 0 512 512;" xml:space="preserve">
<g>
	<path style="fill:#54E3E3;" d="M248,144v8l-8,4c6.4,16.8,12,30.4,16,39.2c3.2-7.2,7.2-17.6,12-30.4l-4-4.8v-8l11.2-5.6
		c4-9.6,8-20,12-32c-10.4-1.6-20.8-2.4-32-2.4s-21.6,0.8-32,2.4c3.2,8,5.6,15.2,8.8,21.6L248,144z"/>
	<path style="fill:#54E3E3;" d="M74.4,227.2c0-0.8,0.8-1.6,0.8-2.4C75.2,225.6,75.2,226.4,74.4,227.2z"/>
	<path style="fill:#54E3E3;" d="M79.2,218.4c0-0.8,0.8-1.6,0.8-2.4C80,216.8,79.2,217.6,79.2,218.4z"/>
	<path style="fill:#54E3E3;" d="M84,209.6c0.8-0.8,0.8-1.6,1.6-2.4C84.8,208.8,84.8,209.6,84,209.6z"/>
	<path style="fill:#54E3E3;" d="M440,304l-16,8v-8l-16-8v-8l-8-8h-8l8,24l16,16h16l8,8l-32,40v16l-8,16v16l-24,24h-16l-16-40v-24
		l-24-40l-32,8l-16-24l8-8l-8-16l16-24l16-8h8l8-8h16l8,8l16,8l8-8l16,8l16-8l-8-8h-8l-8-16l-8,8v8h-8l-8-24h-8v8h-16l-24,8v-8
		l24-24h16l8-8h16l-8-16h-8l-8,8h-16v-8l16-8l16-16h24l8,16l13.6-4.8c-26.4-29.6-61.6-52-102.4-61.6c-4,9.6-7.2,18.4-10.4,26.4H312
		l8,16l-8,16l-32,8l-8,16l-0.8-0.8c-5.6,13.6-8,19.2-8,20l-1.6,4.8c20,0.8,34.4,8,34.4,16c0,8.8-17.6,16-40,16s-40-7.2-40-16
		c0-8,15.2-14.4,34.4-16l-2.4-4.8c0,0-5.6-12.8-17.6-42.4L224,184l-8-8l-8-8l8-8l11.2,5.6c-1.6-3.2-2.4-6.4-4-9.6l-7.2-4v-14.4
		c-2.4-6.4-4.8-12.8-8-20c-34.4,8-64.8,25.6-89.6,48.8l16-3.2l24.8,14.4L176,176l8-8h16v16l-24,8l8,16v8h8l8-16l16-8l16,8v16l-24,8
		v8h-8l-24,32h-8v16h-8l-8-8h-16l-16,24l8,8l8-8h8l8,16v8l16,8l16-8l24,8v8h16l8,8l32,16v16l-8,32l-16,8l-8,24l-8,8l-8,16v16l-8,8
		h-8l-24-48l8-24v-16l-24-16l-8-24l8-16l-24-24l-16-8l-24-8v-16l-8-8h-8l-8-16v-30.4c-10.4,24-16,50.4-16,78.4
		c0,110.4,89.6,200,200,200s200-89.6,200-200c0-8-0.8-15.2-1.6-22.4L440,304z M176,168h-16v-8l16-8l8,8L176,168z"/>
	<path style="fill:#54E3E3;" d="M112.8,172c1.6-1.6,2.4-2.4,4-4C115.2,169.6,114.4,171.2,112.8,172z"/>
	<path style="fill:#54E3E3;" d="M415.2,191.2c2.4,3.2,4.8,6.4,6.4,9.6C420,197.6,417.6,194.4,415.2,191.2z"/>
	<path style="fill:#54E3E3;" d="M424,204c1.6,2.4,3.2,4.8,4.8,7.2C427.2,208.8,425.6,206.4,424,204z"/>
	<path style="fill:#54E3E3;" d="M436.8,226.4c1.6,3.2,3.2,7.2,4.8,10.4C440,233.6,438.4,229.6,436.8,226.4z"/>
	<path style="fill:#54E3E3;" d="M430.4,214.4c1.6,3.2,3.2,6.4,5.6,9.6C434.4,221.6,432.8,218.4,430.4,214.4z"/>
	<path style="fill:#54E3E3;" d="M450.4,266.4c0.8,4,1.6,8,2.4,12C452.8,274.4,452,270.4,450.4,266.4z"/>
	<path style="fill:#54E3E3;" d="M446.4,252c1.6,4,2.4,8.8,3.2,12.8C448.8,260,448,256,446.4,252z"/>
	<path style="fill:#54E3E3;" d="M442.4,240c1.6,3.2,2.4,7.2,4,11.2C444.8,247.2,444,243.2,442.4,240z"/>
	<path style="fill:#54E3E3;" d="M432,280h16l6.4,6.4c0-2.4-0.8-4.8-0.8-7.2L432,272V280z"/>
	<path style="fill:#54E3E3;" d="M100.8,186.4c0.8-0.8,1.6-1.6,2.4-2.4C101.6,184.8,101.6,185.6,100.8,186.4z"/>
	<path style="fill:#54E3E3;" d="M407.2,180.8c2.4,2.4,4,4.8,5.6,7.2C411.2,185.6,408.8,183.2,407.2,180.8z"/>
	<path style="fill:#54E3E3;" d="M94.4,193.6c0.8-0.8,0.8-1.6,1.6-2.4C96,192,95.2,192.8,94.4,193.6z"/>
	<path style="fill:#54E3E3;" d="M89.6,201.6c0.8-0.8,0.8-1.6,1.6-2.4C90.4,200,89.6,200.8,89.6,201.6z"/>
	<path style="fill:#54E3E3;" d="M106.4,179.2c0.8-0.8,1.6-2.4,3.2-3.2C108.8,176.8,107.2,178.4,106.4,179.2z"/>
</g>
<g>
	<path style="fill:#FFFFFF;" d="M384,168h-24l-16,16l-16,8v8h16l8-8h8l8,16h-16l-8,8h-16l-24,24v8l24-8h16v-8h8l8,24h8v-8l8-8l8,16
		h8l8,8l-16,8l-16-8l-8,8l-16-8l-8-8h-16l-8,8h-8l-16,8l-16,24l8,16l-8,8l16,24l32-8l24,40v24l16,40h16l24-24v-16l8-16v-16l32-40
		l-8-8h-16l-16-16l-8-24h8l8,8v8l16,8v8l16-8l14.4-14.4l1.6-1.6l-1.6-1.6L448,280h-16v-8l21.6,7.2l0,0v-0.8c-0.8-4-1.6-8-2.4-12
		c0-0.8,0-1.6-0.8-1.6c-0.8-4-2.4-8.8-3.2-12.8v-0.8c-0.8-4-2.4-7.2-4-11.2c0-0.8-0.8-2.4-1.6-3.2c-1.6-3.2-3.2-7.2-4.8-10.4
		c0-0.8-0.8-0.8-0.8-1.6c-1.6-3.2-3.2-6.4-5.6-9.6c-0.8-1.6-1.6-2.4-2.4-4c-1.6-2.4-3.2-4.8-4.8-7.2c-0.8-0.8-1.6-2.4-2.4-3.2
		c-2.4-3.2-4-6.4-6.4-9.6c-0.8-0.8-1.6-2.4-2.4-3.2c-1.6-2.4-4-4.8-5.6-7.2c-0.8-0.8-0.8-0.8-1.6-1.6l0,0L392,184L384,168z"/>
	<path style="fill:#FFFFFF;" d="M80,280h8l8,8v16l24,8l16,8l24,24l-8,16l8,24l24,16v16l-8,24l24,48h8l8-8v-16l8-16l8-8l8-24l16-8
		l8-32v-16l-32-16l-8-8h-16v-8l-24-8l-16,8l-16-8v-8l-8-16h-8l-8,8l-8-8l16-24h16l8,8h8v-16h8l24-32h8v-8l24-8v-16l-16-8l-16,8
		l-8,16h-8v-8l-8-16l24-8v-16h-16l-8,8l-16.8,1.6l-24.8-14.4l-16,3.2l0,0l0,0c-0.8,0.8-0.8,0.8-1.6,1.6c-1.6,1.6-2.4,2.4-4,4
		c-0.8,0.8-2.4,2.4-3.2,4c-0.8,0.8-1.6,2.4-3.2,3.2c-1.6,1.6-2.4,3.2-4,4.8c-0.8,0.8-1.6,1.6-2.4,2.4c-1.6,1.6-3.2,3.2-4,5.6
		c-0.8,0.8-0.8,1.6-1.6,2.4c-1.6,1.6-3.2,4-4,5.6c-0.8,0.8-0.8,1.6-1.6,2.4c-1.6,2.4-2.4,4-4,6.4c-0.8,0.8-0.8,1.6-1.6,2.4
		c-1.6,2.4-2.4,4-4,6.4c-0.8,0.8-0.8,1.6-1.6,2.4c-0.8,2.4-2.4,4-3.2,6.4c0,0.8-0.8,1.6-0.8,2.4c-0.8,2.4-1.6,4-2.4,6.4l0,0V264
		L80,280z"/>
	<polygon style="fill:#FFFFFF;" points="160,160 160,168 176,168 184,160 176,152 	"/>
	<path style="fill:#FFFFFF;" d="M216,160l-8,8l8,8l8,8l7.2-7.2c-1.6-3.2-3.2-7.2-4.8-11.2L216,160z"/>
	<path style="fill:#FFFFFF;" d="M272,200l8-16l32-8l8-16l-8-16h-18.4C283.2,169.6,276,187.2,272,200L272,200z"/>
	<path style="fill:#FFFFFF;" d="M264,160l4,4c2.4-5.6,4.8-11.2,7.2-17.6L264,152V160z"/>
	<path style="fill:#FFFFFF;" d="M216,152l7.2,3.2c-2.4-5.6-4.8-12-7.2-18.4V152z"/>
	<path style="fill:#FFFFFF;" d="M248,144l-15.2-8c2.4,7.2,5.6,13.6,8,19.2l8-4V144H248z"/>
</g>
<path style="fill:#1CCACA;" d="M250.4,224c-20,0.8-34.4,8-34.4,16c0,8.8,17.6,16,40,16s40-7.2,40-16c0-8-15.2-14.4-34.4-16
	l-5.6,12.8L250.4,224z"/>
<path style="fill:#2B2B2B;" d="M223.2,155.2c1.6,3.2,2.4,6.4,4,9.6c1.6,4,3.2,8,4.8,11.2c12,29.6,16.8,42.4,17.6,42.4l2.4,4.8
	l5.6,12l5.6-12l2.4-4.8c0,0,2.4-6.4,8-20c4.8-12,12-30.4,21.6-55.2c3.2-8,6.4-16.8,10.4-26.4c3.2-7.2,5.6-15.2,8.8-23.2
	c1.6-8,5.6-18.4,5.6-29.6c0-35.2-28.8-64-64-64s-64,28.8-64,64c0,11.2,4,21.6,7.2,31.2c3.2,8,6.4,16,8.8,23.2c2.4,7.2,5.6,13.6,8,20
	C218.4,144,220.8,149.6,223.2,155.2z M214.4,88.8c-3.2-8-6.4-16.8-6.4-24.8c0-26.4,21.6-48,48-48s48,21.6,48,48
	c0,8-3.2,16.8-6.4,24.8c-3.2,8.8-6.4,17.6-9.6,25.6c-4.8,12-8.8,22.4-12,32c-2.4,6.4-4.8,12.8-7.2,17.6c-4.8,12.8-9.6,23.2-12,30.4
	c-4-8.8-8.8-21.6-16-39.2c-2.4-5.6-4.8-12.8-8-19.2c-2.4-6.4-5.6-14.4-8.8-21.6C220.8,106.4,217.6,98.4,214.4,88.8z"/>
<circle style="fill:#FF661A;" cx="256" cy="64" r="28"/>
<g>
	<rect x="160" y="56" style="fill:#2B2B2B;" width="16" height="16"/>
	<rect x="128" y="56" style="fill:#2B2B2B;" width="16" height="16"/>
	<rect x="96" y="56" style="fill:#2B2B2B;" width="16" height="16"/>
	<rect x="400" y="56" style="fill:#2B2B2B;" width="16" height="16"/>
	<rect x="368" y="56" style="fill:#2B2B2B;" width="16" height="16"/>
	<rect x="336" y="56" style="fill:#2B2B2B;" width="16" height="16"/>
</g>
<g>
</g>
<g>
</g>
<g>
</g>
<g>
</g>
<g>
</g>
<g>
</g>
<g>
</g>
<g>
</g>
<g>
</g>
<g>
</g>
<g>
</g>
<g>
</g>
<g>
</g>
<g>
</g>
<g>
</g>
</svg>
