<?xml version="1.0" encoding="iso-8859-1"?>
<!-- Generator: Adobe Illustrator 19.0.0, SVG Export Plug-In . SVG Version: 6.00 Build 0)  -->
<svg version="1.1" id="Capa_1" xmlns="http://www.w3.org/2000/svg" xmlns:xlink="http://www.w3.org/1999/xlink" x="0px" y="0px"
	 viewBox="0 0 511.999 511.999" style="enable-background:new 0 0 511.999 511.999;" xml:space="preserve">
<g>
	<path style="fill:#FFDAC5;" d="M377.867,292.853h-0.452V218.77h43.53v31.005C420.944,273.566,401.658,292.853,377.867,292.853z"/>
	<path style="fill:#FFDAC5;" d="M134.132,292.853h0.452V218.77h-43.53v31.005C91.055,273.566,110.34,292.853,134.132,292.853z"/>
</g>
<g>
	<path style="fill:#EFC1AB;" d="M397.961,254.714h-20.542c-4.329,0-7.837-3.509-7.837-7.837s3.508-7.837,7.837-7.837h20.542
		c4.329,0,7.837,3.509,7.837,7.837S402.289,254.714,397.961,254.714z"/>
	<path style="fill:#EFC1AB;" d="M134.585,254.714h-20.543c-4.328,0-7.837-3.509-7.837-7.837s3.509-7.837,7.837-7.837h20.543
		c4.328,0,7.837,3.509,7.837,7.837S138.913,254.714,134.585,254.714z"/>
</g>
<path style="fill:#4BC999;" d="M392.844,511.341v-47.916c0-42.12-19.028-79.799-48.964-104.897H168.118
	c-29.936,25.098-48.964,62.777-48.964,104.897v47.916"/>
<path style="fill:#41B787;" d="M218.179,358.528h-50.061c-29.936,25.098-48.964,62.777-48.964,104.897v47.916h50.061v-47.916
	C169.214,421.304,188.243,383.626,218.179,358.528z"/>
<g>
	<path style="fill:#FF525D;" d="M300.928,379.036v30.48c0,14.629-11.86,26.488-26.488,26.488h-36.885
		c-14.629,0-26.488-11.86-26.488-26.488v-30.48"/>
	<path style="fill:#FF525D;" d="M362.149,112.838H149.847C166.722,71.774,202.322,31.075,255.998,0
		C309.674,31.075,345.274,71.774,362.149,112.838z"/>
</g>
<path style="fill:#FFDAC5;" d="M382.637,218.77v58.525c0,13.699-2.173,26.164-6.217,37.334
	c-11.494,31.953-38.128,53.415-72.255,63.477c-14.848,4.399-31.117,6.635-48.17,6.635c-69.945,0-126.641-37.512-126.641-107.447
	V218.77c0-4.106,0.199-8.171,0.585-12.183l56.027-58.744l105.451-9.791l90.634,68.535
	C382.439,210.599,382.637,214.663,382.637,218.77z"/>
<g>
	<path style="fill:#EFC1AB;" d="M376.42,314.629c-11.494,31.953-38.128,53.415-72.255,63.477
		c2.717-51.973-35.025-83.644-47.877-111.48l92.891-11.389L376.42,314.629z"/>
	<path style="fill:#EFC1AB;" d="M171.219,277.294V218.77c0-4.106,0.199-8.171,0.585-12.183l56.027-58.749l67.766-6.291l-4.627-3.499
		l-105.455,9.791l-56.027,58.749c-0.387,4.012-0.585,8.077-0.585,12.183v58.525c0,69.935,56.696,107.447,126.641,107.447
		c7.211,0,14.277-0.405,21.158-1.196C216.832,376.657,171.219,340.02,171.219,277.294z"/>
</g>
<path style="fill:#FFD15C;" d="M331.385,406.747c0,0,12.539-96.13-43.206-115.304c-8.255-2.842-15.109-6.99-20.793-12.016
	c-32.747-28.881-26.927-86.382-26.927-86.382l16.436-10.846l35.432-23.395l90.133,53.331c0,0,0.188-5.548,0.188,65.16
	S331.385,406.747,331.385,406.747z"/>
<path style="fill:#EDBB4C;" d="M267.385,279.426c-32.747-28.881-26.927-86.382-26.927-86.382l16.436-10.846l23.27,11.254
	C280.164,193.452,251.43,228.32,267.385,279.426z"/>
<path style="fill:#EF4152;" d="M210.326,100.623c-0.956,5.708,25.527,8.213,23.761,12.215h-84.24
	C166.722,71.774,202.322,31.075,255.998,0C255.998,0,219.962,43.123,210.326,100.623z"/>
<path style="fill:#4BC999;" d="M392.827,142.169v55.292c0,8.803-8.458,15.178-16.9,12.679
	c-59.028-17.476-120.93-21.77-181.369-12.894c-19.705,2.897-39.246,7.193-58.482,12.889c-8.444,2.5-16.907-3.87-16.907-12.677
	v-55.299c0-12.873,8.495-24.252,20.877-27.784c18.066-5.151,36.383-9.08,54.847-11.786c58.974-8.62,119.338-4.692,177.058,11.786
	C384.332,117.906,392.827,129.285,392.827,142.169z"/>
<path style="fill:#41B787;" d="M194.558,197.245c-19.705,2.897-39.246,7.193-58.482,12.889c-8.444,2.5-16.907-3.87-16.907-12.677
	v-55.299c0-12.873,8.495-24.252,20.877-27.784c18.066-5.151,36.383-9.08,54.847-11.786l0.042,0.01
	C194.934,102.598,168.666,147.915,194.558,197.245z"/>
<path style="fill:#313344;" d="M197.251,280.16c-4.328,0-7.837-3.509-7.837-7.837v-16.292c0-4.328,3.509-7.837,7.837-7.837
	s7.837,3.509,7.837,7.837v16.292C205.087,276.651,201.58,280.16,197.251,280.16z"/>
<path style="fill:#EDBB4C;" d="M165.518,202.563c-0.094,1.014-5.454,59.308-36.164,74.731V218.77c0-2.226,0.063-4.441,0.178-6.635
	C141.413,208.404,153.418,205.207,165.518,202.563z"/>
<path style="fill:#CE5B6C;" d="M257.81,336.509c-10.458,0-20.917-3.981-28.878-11.942c-3.061-3.06-3.061-8.023,0-11.082
	c3.061-3.06,8.023-3.06,11.082,0c9.812,9.812,25.778,9.813,35.589,0c3.062-3.06,8.023-3.06,11.083,0s3.06,8.023,0,11.082
	C278.725,332.529,268.268,336.509,257.81,336.509z"/>
<g>
	<path style="fill:#FF525D;" d="M242.269,168.57c-2.005,0-4.011-0.765-5.541-2.296c-3.061-3.061-3.061-8.023,0-11.082l27.463-27.464
		c3.062-3.061,8.023-3.061,11.083,0c3.06,3.06,3.06,8.023,0,11.082l-27.464,27.464C246.28,167.804,244.275,168.57,242.269,168.57z"
		/>
	<path style="fill:#FF525D;" d="M269.733,168.57c-2.005,0-4.011-0.765-5.542-2.296l-27.463-27.464
		c-3.061-3.061-3.061-8.023,0-11.082c3.061-3.061,8.023-3.061,11.082,0l27.464,27.464c3.06,3.06,3.06,8.023,0,11.082
		C273.744,167.804,271.738,168.57,269.733,168.57z"/>
	<path style="fill:#FF525D;" d="M154.339,180.972c-1.574,0-3.163-0.472-4.542-1.457c-3.524-2.512-4.345-7.405-1.832-10.93
		l22.546-31.627c2.512-3.524,7.405-4.346,10.93-1.832c3.524,2.512,4.345,7.405,1.832,10.93l-22.546,31.627
		C159.198,179.829,156.786,180.972,154.339,180.972z"/>
	<path style="fill:#FF525D;" d="M181.425,176.432c-1.574,0-3.163-0.472-4.542-1.457l-31.627-22.546
		c-3.524-2.512-4.345-7.405-1.832-10.93c2.512-3.524,7.405-4.346,10.93-1.832l31.627,22.546c3.524,2.512,4.345,7.405,1.832,10.93
		C186.284,175.288,183.872,176.432,181.425,176.432z"/>
	<path style="fill:#FF525D;" d="M357.664,180.972c-2.448,0-4.859-1.143-6.389-3.288l-22.545-31.627
		c-2.512-3.524-1.692-8.418,1.833-10.931c3.527-2.513,8.418-1.691,10.931,1.833l22.545,31.627c2.512,3.524,1.692,8.418-1.833,10.93
		C360.827,180.499,359.238,180.972,357.664,180.972z"/>
	<path style="fill:#FF525D;" d="M330.579,176.432c-2.448,0-4.859-1.143-6.388-3.288c-2.512-3.524-1.692-8.418,1.833-10.93
		l31.627-22.546c3.527-2.512,8.419-1.692,10.931,1.832c2.512,3.524,1.692,8.418-1.833,10.93l-31.627,22.546
		C333.741,175.958,332.152,176.432,330.579,176.432z"/>
</g>
<rect x="248.162" y="436.004" style="fill:#41B787;" width="15.673" height="75.995"/>
<g>
	<path style="fill:#FFD15C;" d="M284.729,472.26c-7.177,0-10.571-9.356-4.941-13.909c2.436-1.97,5.869-2.286,8.638-0.837
		c3.042,1.592,4.679,5.176,3.971,8.522C291.637,469.622,288.401,472.26,284.729,472.26z"/>
	<path style="fill:#FFD15C;" d="M284.729,503.785c-7.039,0-10.492-9.028-5.187-13.713c5.336-4.714,13.987-0.071,12.938,7.006
		C291.918,500.87,288.579,503.785,284.729,503.785z"/>
	<path style="fill:#FFD15C;" d="M227.259,472.26c-7.105,0-10.512-9.173-5.089-13.794c5.539-4.719,14.202,0.358,12.769,7.493
		C234.213,469.577,230.958,472.26,227.259,472.26z"/>
	<path style="fill:#FFD15C;" d="M227.259,503.785c-7.003,0-10.457-8.953-5.262-13.647c2.588-2.339,6.502-2.67,9.449-0.812
		c2.714,1.711,4.124,5,3.493,8.148C234.216,501.089,230.959,503.785,227.259,503.785z"/>
</g>
<ellipse style="fill:#FCB997;" cx="179.983" cy="301.975" rx="17.241" ry="10.449"/>
<g>
</g>
<g>
</g>
<g>
</g>
<g>
</g>
<g>
</g>
<g>
</g>
<g>
</g>
<g>
</g>
<g>
</g>
<g>
</g>
<g>
</g>
<g>
</g>
<g>
</g>
<g>
</g>
<g>
</g>
</svg>
