<?xml version="1.0" encoding="iso-8859-1"?>
<!-- Generator: Adobe Illustrator 19.0.0, SVG Export Plug-In . SVG Version: 6.00 Build 0)  -->
<svg version="1.1" id="Capa_1" xmlns="http://www.w3.org/2000/svg" xmlns:xlink="http://www.w3.org/1999/xlink" x="0px" y="0px"
	 viewBox="0 0 512 512" style="enable-background:new 0 0 512 512;" xml:space="preserve">
<path style="fill:#5C5E70;" d="M466.039,466.998c0,15.083-3.302,30.53-8.093,45.002H54.055c-4.792-14.472-8.093-29.919-8.093-45.002
	c0-54.66,48.228-57.876,32.149-136.667c-16.069-78.791,31.012-120.92,31.012-120.92h293.755c0,0,47.081,42.129,31.012,120.92
	C417.81,409.122,466.039,412.338,466.039,466.998z"/>
<path style="fill:#494B5B;" d="M283.92,209.412V512H54.055c-4.792-14.472-8.093-29.919-8.093-45.002
	c0-54.66,48.228-57.876,32.149-136.667c-16.069-78.791,31.012-120.92,31.012-120.92L283.92,209.412L283.92,209.412z"/>
<path style="fill:#FFD15C;" d="M236.698,5.638L135.959,69.945c-10.323,6.589-16.571,17.99-16.571,30.237v98.302h273.22v-98.302
	c0-12.246-6.247-23.647-16.571-30.237L275.302,5.638C263.531-1.877,248.468-1.877,236.698,5.638z"/>
<path style="fill:#EDBB4C;" d="M236.696,5.639C242.581,1.876,249.292,0,255.991,0c-3.923,0-7.825,1.876-11.267,5.639l-58.852,64.308
	c-6.025,6.593-9.68,17.988-9.68,30.23v98.311h-56.804v-98.311c0-12.242,6.25-23.637,16.573-30.23L236.696,5.639z"/>
<path style="fill:#34ABE0;" d="M388.309,512v-1.565c0-41.389-13.368-79.059-35.247-107.198l-194.125,0.011
	c-21.879,28.129-35.247,65.798-35.247,107.187V512"/>
<path style="fill:#279FC9;" d="M202.351,403.247l150.714-0.009c0-0.001-0.001-0.001-0.002-0.002l-194.125,0.011
	c-21.879,28.129-35.247,65.798-35.247,107.187V512h43.413v-1.565C167.104,469.046,180.471,431.376,202.351,403.247z"/>
<polyline style="fill:#FFD15C;" points="278.463,413.942 278.463,512 231.843,512 231.843,414.295 "/>
<path style="fill:#EDBB4C;" d="M216.213,432.202c6.914,14.45,21.675,24.43,38.774,24.43c17.366,0,32.331-10.312,39.106-25.149
	l21.99-89.897l-114.161,12.863L216.213,432.202z"/>
<path style="fill:#FCF8F2;" d="M376.613,316.862l11.87,20.588c7.266,12.602,4.842,28.555-5.838,38.433l-54.292,50.205
	c-14.182,13.115-36.757,10.294-47.278-5.906l-25.081-38.62l-25.081,38.62c-10.52,16.2-33.095,19.019-47.278,5.906l-54.292-50.205
	c-10.68-9.876-13.104-25.829-5.838-38.433l11.87-20.589"/>
<path style="fill:#FFDAC5;" d="M385.533,281.427c-5.221,65.252-61.221,100.134-129.538,100.134c-5.703,0-11.32-0.247-16.83-0.729
	c-60.471-5.306-107.916-39.599-112.697-99.405c31.238-23.455,35.097-59.795,35.097-59.795h188.872
	C350.436,221.632,354.295,257.972,385.533,281.427z"/>
<path style="fill:#EFC1AB;" d="M239.165,380.832c-60.471-5.306-107.916-39.599-112.697-99.405
	c31.238-23.455,35.097-59.795,35.097-59.795h14.461c-10.237,62.711-4.642,134.073,63.108,159.189
	C239.143,380.822,239.154,380.832,239.165,380.832z"/>
<g>
	<path style="fill:#313344;" d="M195.727,279.629c-4.441,0-8.04-3.6-8.04-8.04v-16.714c0-4.44,3.599-8.04,8.04-8.04
		s8.04,3.6,8.04,8.04v16.714C203.767,276.029,200.167,279.629,195.727,279.629z"/>
	<path style="fill:#313344;" d="M319.982,279.629c-4.441,0-8.04-3.6-8.04-8.04v-16.714c0-4.44,3.599-8.04,8.04-8.04
		s8.04,3.6,8.04,8.04v16.714C328.022,276.029,324.422,279.629,319.982,279.629z"/>
</g>
<path style="fill:#CE5B6C;" d="M257.855,337.438c-10.731,0-21.458-4.083-29.626-12.252c-3.14-3.14-3.14-8.231,0-11.369
	c3.141-3.14,8.231-3.14,11.371,0c10.066,10.066,26.445,10.067,36.513,0c3.14-3.139,8.231-3.139,11.369,0
	c3.14,3.14,3.14,8.231-0.001,11.37C279.314,333.354,268.583,337.438,257.855,337.438z"/>
<path style="fill:#FFD15C;" d="M390.662,137.384H121.337c-6.746,0-12.215,5.469-12.215,12.215v59.814
	c0,6.746,5.468,12.215,12.215,12.215h269.326c6.746,0,12.215-5.469,12.215-12.215v-59.814
	C402.878,142.852,397.408,137.384,390.662,137.384z"/>
<g>
	<path style="fill:#EDBB4C;" d="M160.576,209.413v-59.814c0-6.746,5.469-12.215,12.215-12.215h-51.455
		c-6.746,0-12.215,5.469-12.215,12.215v59.814c0,6.746,5.469,12.215,12.215,12.215h51.455
		C166.046,221.628,160.576,216.159,160.576,209.413z"/>
	<path style="fill:#EDBB4C;" d="M135.922,206.524c-4.441,0-8.04-3.6-8.04-8.04v-36.981c0-4.44,3.599-8.04,8.04-8.04
		c4.441,0,8.04,3.6,8.04,8.04v36.981C143.962,202.924,140.362,206.524,135.922,206.524z"/>
	<path style="fill:#EDBB4C;" d="M237.196,206.524c-4.441,0-8.04-3.6-8.04-8.04v-36.981c0-4.44,3.599-8.04,8.04-8.04
		s8.04,3.6,8.04,8.04v36.981C245.236,202.924,241.638,206.524,237.196,206.524z"/>
	<path style="fill:#EDBB4C;" d="M350.016,206.524c-4.441,0-8.04-3.6-8.04-8.04v-36.981c0-4.44,3.599-8.04,8.04-8.04
		s8.04,3.6,8.04,8.04v36.981C358.056,202.924,354.457,206.524,350.016,206.524z"/>
	<path style="fill:#EDBB4C;" d="M199.589,206.524c-4.441,0-8.04-3.6-8.04-8.04v-36.981c0-4.44,3.599-8.04,8.04-8.04
		s8.04,3.6,8.04,8.04v36.981C207.629,202.924,204.03,206.524,199.589,206.524z"/>
	<path style="fill:#EDBB4C;" d="M161.983,206.524c-4.441,0-8.04-3.6-8.04-8.04v-36.981c0-4.44,3.599-8.04,8.04-8.04
		c4.441,0,8.04,3.6,8.04,8.04v36.981C170.023,202.924,166.424,206.524,161.983,206.524z"/>
	<path style="fill:#EDBB4C;" d="M274.803,206.524c-4.441,0-8.04-3.6-8.04-8.04v-36.981c0-4.44,3.599-8.04,8.04-8.04
		s8.04,3.6,8.04,8.04v36.981C282.842,202.924,279.244,206.524,274.803,206.524z"/>
	<path style="fill:#EDBB4C;" d="M312.41,206.524c-4.441,0-8.04-3.6-8.04-8.04v-36.981c0-4.44,3.599-8.04,8.04-8.04
		s8.04,3.6,8.04,8.04v36.981C320.45,202.924,316.851,206.524,312.41,206.524z"/>
	<path style="fill:#EDBB4C;" d="M376.078,206.524c-4.441,0-8.04-3.6-8.04-8.04v-36.981c0-4.44,3.599-8.04,8.04-8.04
		c4.441,0,8.04,3.6,8.04,8.04v36.981C384.118,202.924,380.518,206.524,376.078,206.524z"/>
</g>
<g>
	<ellipse style="fill:#FCB997;" cx="339.347" cy="296.821" rx="17.688" ry="10.72"/>
	<ellipse style="fill:#FCB997;" cx="172.653" cy="296.821" rx="17.688" ry="10.72"/>
</g>
<g>
</g>
<g>
</g>
<g>
</g>
<g>
</g>
<g>
</g>
<g>
</g>
<g>
</g>
<g>
</g>
<g>
</g>
<g>
</g>
<g>
</g>
<g>
</g>
<g>
</g>
<g>
</g>
<g>
</g>
</svg>
