<?xml version="1.0" encoding="iso-8859-1"?>
<!-- Generator: Adobe Illustrator 19.0.0, SVG Export Plug-In . SVG Version: 6.00 Build 0)  -->
<svg version="1.1" id="Capa_1" xmlns="http://www.w3.org/2000/svg" xmlns:xlink="http://www.w3.org/1999/xlink" x="0px" y="0px"
	 viewBox="0 0 512 512" style="enable-background:new 0 0 512 512;" xml:space="preserve">
<path style="fill:#FF525D;" d="M347.513,427.501c0.438,6.796,0.668,13.697,0.668,20.681V512H111.774v-63.818
	c0-6.984,0.23-13.885,0.668-20.681L98.327,279.205l53.117,2.881l206.821,11.212L347.513,427.501z"/>
<path style="fill:#EF4152;" d="M151.445,282.086V512h-39.671v-63.818c0-6.984,0.23-13.885,0.668-20.681L98.327,279.205
	L151.445,282.086z"/>
<path style="fill:#5C5E70;" d="M421.833,437.356H372.38c-20.076,0-36.351-16.275-36.351-36.351V345.32l-178.446-0.01h-33.658v55.696
	c0,20.076-16.276,36.351-36.351,36.351H38.122c25.379-18.52,40.391-48.054,40.391-79.467V210.835
	c0-40.934,16.244-78.089,42.646-105.347l44.233-25.65l1.837-1.065l126.832,6.264l81.148,82.662
	c4.051,13.666,6.233,28.145,6.233,43.137v147.054C381.442,389.302,396.454,418.836,421.833,437.356z"/>
<g>
	<path style="fill:#494B5B;" d="M169.832,246.363c-4.324,0-7.83-3.506-7.83-7.83v-17.269c0-13.509,2.019-26.904,6-39.812
		c1.275-4.132,5.659-6.449,9.789-5.175c4.132,1.275,6.449,5.657,5.175,9.789c-3.52,11.412-5.304,23.253-5.304,35.196v17.269
		C177.662,242.858,174.156,246.363,169.832,246.363z"/>
	<path style="fill:#494B5B;" d="M300.652,257.846c-4.324,0-7.83-3.506-7.83-7.83v-28.753c0-11.942-1.784-23.785-5.304-35.197
		c-1.275-4.132,1.043-8.515,5.175-9.789c4.131-1.276,8.515,1.043,9.789,5.175c3.981,12.909,6,26.303,6,39.812v28.753
		C308.482,254.342,304.976,257.846,300.652,257.846z"/>
	<path style="fill:#494B5B;" d="M328.199,229.094c-4.324,0-7.83-3.506-7.83-7.83v-13.822c0-4.324,3.506-7.83,7.83-7.83
		s7.83,3.506,7.83,7.83v13.822C336.029,225.589,332.525,229.094,328.199,229.094z"/>
	<path style="fill:#494B5B;" d="M154.848,241.893c5.397,31.946,5.324,68.526,2.735,103.416h-33.658v55.696
		c0,20.076-16.276,36.351-36.351,36.351H38.122c25.379-18.52,40.391-48.054,40.391-79.467V210.835
		c0-40.934,16.244-78.089,42.646-105.347l44.233-25.65l44.515,15.9C209.907,95.737,138.134,142.998,154.848,241.893z"/>
</g>
<circle style="fill:#FF525D;" cx="427.944" cy="104.783" r="45.935"/>
<path style="fill:#EF4152;" d="M415.413,104.789c0-19.474,12.125-36.105,29.231-42.789c-5.178-2.023-10.808-3.145-16.704-3.145
	c-25.37,0-45.935,20.565-45.935,45.935s20.565,45.935,45.935,45.935c5.895,0,11.525-1.122,16.704-3.145
	C427.538,140.893,415.413,124.263,415.413,104.789z"/>
<path style="fill:#FCF8F2;" d="M426.876,57.841l-30.213,36.696L265.144,54.24l-65.969-20.211c0,0,8.414-10.001,32.311-20.274
	c41.456-17.831,87.088-17.915,127.49-2.631v0.01c25.295,9.552,48.545,25.139,67.42,46.175L426.876,57.841z"/>
<path style="fill:#5C5E70;" d="M136.026,253.121c-4.308,0.363-8.096-2.835-8.459-7.145l-1.976-23.45
	c-1.902-22.569,1.949-45.44,11.136-66.142l0.294-0.664c1.754-3.952,6.379-5.736,10.332-3.983c3.952,1.754,5.736,6.38,3.983,10.332
	l-0.294,0.665c-8.122,18.303-11.528,38.524-9.846,58.476l1.976,23.45C143.534,248.971,140.335,252.759,136.026,253.121z"/>
<path style="fill:#EF4152;" d="M336.029,243.188v124.055c-22.571,28.981-61.636,44.118-106.047,44.118
	c-1.201,0-2.401-0.01-3.591-0.031c-42.928-0.804-80.511-15.9-102.466-44.097V243.188L336.029,243.188L336.029,243.188z"/>
<path style="fill:#FCF8F2;" d="M150.617,369.026c-7.455,38.151,36.97,69.895,36.97,69.895l42.397-49.482l42.397,49.482
	c0,0,44.424-31.743,36.97-69.895"/>
<path style="fill:#FFDAC5;" d="M336.029,221.264V345.32c-22.571,28.981-61.636,44.118-106.047,44.118
	c-1.201,0-2.401-0.01-3.591-0.031c-42.928-0.804-80.511-15.9-102.466-44.097V221.265L336.029,221.264L336.029,221.264z"/>
<path style="fill:#313344;" d="M171.281,290.161c-4.324,0-7.83-3.506-7.83-7.83v-16.278c0-4.324,3.506-7.83,7.83-7.83
	s7.83,3.506,7.83,7.83v16.278C179.111,286.656,175.605,290.161,171.281,290.161z"/>
<path style="fill:#E5E1DC;" d="M358.976,11.124v0.01c0,0-76.199-2.954-83.862,32.342c-0.971,4.479-4.52,8.007-9.97,10.763
	l-65.969-20.211c0,0,8.414-10.001,32.311-20.274C272.942-4.077,318.574-4.16,358.976,11.124z"/>
<path style="fill:#FF525D;" d="M396.663,94.537l-20.973,73.485c-55.967-38.126-122.604-53.504-173.654-59.496
	c-47.062-5.512-80.876-3.038-80.876-3.038l40.214-70.687c0,0,26.673-2.829,65.906,1.096
	C273.892,40.563,338.253,54.751,396.663,94.537z"/>
<path style="fill:#313344;" d="M292.29,290.161c-4.324,0-7.83-3.506-7.83-7.83v-16.278c0-4.324,3.506-7.83,7.83-7.83
	s7.83,3.506,7.83,7.83v16.278C300.12,286.656,296.614,290.161,292.29,290.161z"/>
<path style="fill:#EF4152;" d="M202.036,108.526c-47.062-5.512-80.876-3.038-80.876-3.038l40.214-70.687
	c0,0,26.673-2.829,65.906,1.096C227.279,35.897,191.439,60.013,202.036,108.526z"/>
<path style="fill:#CE5B6C;" d="M231.786,346.461c-10.449,0-20.897-3.978-28.852-11.932c-3.058-3.058-3.058-8.015,0-11.072
	c3.058-3.058,8.016-3.059,11.072,0c9.804,9.803,25.754,9.803,35.558,0c3.058-3.058,8.016-3.058,11.072,0
	c3.058,3.058,3.058,8.016,0,11.072C252.683,342.483,242.235,346.461,231.786,346.461z"/>
<path style="fill:#EFC1AB;" d="M336.029,229.365v-8.1H154.848h-15.931h-14.991v124.045c21.955,28.198,59.538,43.293,102.466,44.097
	c6.097-0.104,12.079-0.501,17.935-1.18c-50.727-7.746-89.479-51.708-89.479-104.533v-36.682c0-9.747,7.901-17.647,17.647-17.647
	L336.029,229.365L336.029,229.365z"/>
<g>
	<path style="fill:#FCF8F2;" d="M229.975,431.615c-6.808,0-10.362-8.547-5.533-13.373c2.111-2.109,5.366-2.837,8.173-1.83
		c3.331,1.195,5.513,4.607,5.151,8.14C237.361,428.503,233.963,431.615,229.975,431.615z"/>
	<path style="fill:#FCF8F2;" d="M229.975,465.283c-6.947,0-10.45-8.867-5.301-13.596c2.167-1.991,5.376-2.591,8.12-1.537
		c3.303,1.271,5.4,4.738,4.948,8.258C237.245,462.28,233.899,465.283,229.975,465.283z"/>
</g>
<g>
	<ellipse style="fill:#FCB997;" cx="304.139" cy="307.387" rx="15.733" ry="9.538"/>
	<ellipse style="fill:#FCB997;" cx="155.822" cy="307.387" rx="15.733" ry="9.538"/>
</g>
<path style="fill:#FCF8F2;" d="M229.975,498.951c-6.888,0-10.417-8.695-5.417-13.484c2.265-2.169,5.722-2.765,8.589-1.501
	c3.283,1.448,5.191,5.078,4.519,8.604C236.972,496.219,233.707,498.951,229.975,498.951z"/>
<g>
</g>
<g>
</g>
<g>
</g>
<g>
</g>
<g>
</g>
<g>
</g>
<g>
</g>
<g>
</g>
<g>
</g>
<g>
</g>
<g>
</g>
<g>
</g>
<g>
</g>
<g>
</g>
<g>
</g>
</svg>
