<?xml version="1.0" encoding="iso-8859-1"?>
<!-- Generator: Adobe Illustrator 19.0.0, SVG Export Plug-In . SVG Version: 6.00 Build 0)  -->
<svg version="1.1" id="Capa_1" xmlns="http://www.w3.org/2000/svg" xmlns:xlink="http://www.w3.org/1999/xlink" x="0px" y="0px"
	 viewBox="0 0 512 512" style="enable-background:new 0 0 512 512;" xml:space="preserve">
<path style="fill:#C69A6A;" d="M401.05,495.932H120.133c0,0-41.462,2.413-52.723-25.74
	c-14.779-36.958,29.804-104.374,19.305-159.254c-10.585-55.351-8.902-101.082,0.375-138.126l21.514-67.781l87.901-1.888
	l211.312-4.547l24.399,73.68c2.96,25.815,2.016,54.279-4.462,82.356C398.798,380.114,504.652,495.932,401.05,495.932z"/>
<path style="fill:#B58657;" d="M153.649,244.981c11.754,67.996,11.615,169.464,8.805,250.951h-42.32c0,0-41.462,2.413-52.723-25.74
	c-14.779-36.958,29.804-104.374,19.305-159.254c-10.585-55.351-8.902-101.082,0.375-138.126l21.514-67.781l87.901-1.888
	C170.562,123.607,139.889,165.381,153.649,244.981z"/>
<path style="fill:#FFD15C;" d="M400.739,511.44v-49.184c0-22.308-5.202-43.414-14.457-62.14l-251.595-0.783
	c-9.513,18.929-14.865,40.304-14.865,62.923v49.184"/>
<path style="fill:#EDBB4C;" d="M181.267,399.478l-46.58-0.145c-9.513,18.929-14.865,40.304-14.865,62.923v49.184h46.651v-49.184
	C166.473,439.694,171.799,418.372,181.267,399.478z"/>
<polygon style="fill:#FF525D;" points="364.357,439.318 364.357,512 291.986,512 291.986,475.9 "/>
<path style="fill:#EF4152;" d="M364.357,439.318v15.015c-17.664,19.198-43.05,31.542-72.371,36.593V475.9L364.357,439.318z"/>
<path style="fill:#FF525D;" d="M390.579,281.533v86.7c0,3.539-0.139,6.993-0.418,10.36c-5.341,65.121-61.314,99.924-129.567,99.924
	c-21.771,0-42.288-3.539-60.306-10.478c-12.634-4.858-24.056-11.39-33.816-19.541c-22.222-18.554-35.864-45.506-35.864-80.265
	v-80.844l18.565,8.269l51.115,22.78L390.579,281.533z"/>
<path style="fill:#EF4152;" d="M166.472,318.438v130.06c-22.222-18.554-35.864-45.506-35.864-80.265v-97.017l18.565,24.442
	L166.472,318.438z"/>
<path style="fill:#FFDAC5;" d="M390.582,233.72v37.494c0,71.782-58.193,110.284-129.985,110.284s-129.985-38.502-129.985-110.284
	v-58.375c51.25-37.302,152.159-8.628,185.727-52.546c0.817-1.069,2.12-1.654,3.464-1.583l0,0c1.825,0.095,3.364,1.375,3.797,3.151
	C328.606,182.426,344.727,227.54,390.582,233.72z"/>
<path style="fill:#EFC1AB;" d="M279.366,380.586c-1.501,0.15-3.003,0.279-4.515,0.386c-0.483,0.043-0.965,0.075-1.459,0.107
	c-0.922,0.064-1.855,0.118-2.788,0.161c-0.804,0.043-1.598,0.086-2.402,0.107c-0.161,0.011-0.322,0.021-0.483,0.021
	c-0.418,0.011-0.847,0.032-1.266,0.043c-0.837,0.021-1.662,0.043-2.499,0.054c-1.115,0.021-2.231,0.032-3.357,0.032
	c-71.792,0-129.985-38.502-129.985-110.284v-58.386c12.259-8.923,27.37-14.071,43.715-17.342l-5.684,4.386
	c-0.332,3.711-0.493,7.465-0.493,11.261v60.07C168.149,336.625,216.464,374.387,279.366,380.586z"/>
<path style="fill:#FCF8F2;" d="M113.614,75.954C134.115,31.797,191.806,0,259.771,0c42.555,0,81.092,12.469,108.996,32.643
	c16.648,12.037,29.506,26.805,37.163,43.31"/>
<path style="fill:#E5E1DC;" d="M295.759,3.062C284.212,1.064,272.164,0,259.771,0c-67.967,0-125.656,31.797-146.159,75.954h71.95
	C202.329,39.844,243.971,12.011,295.759,3.062z"/>
<path style="fill:#FF525D;" d="M442.494,144.403c2.003,13.322-10.525,24.286-23.427,20.406
	c-94.672-28.472-191.534-28.412-279.446-9.402c-13.359,2.88-26.505,6.202-39.405,9.93c-12.866,3.717-25.24-7.215-23.248-20.458
	l7.313-48.642c1.791-11.937,14.597-21.471,31.038-23.08c14.361-1.405,28.753-2.606,43.146-3.593
	c81.82-5.598,164.144-4.408,245.75,3.593c16.441,1.609,29.247,11.143,31.038,23.08L442.494,144.403z"/>
<path style="fill:#EF4152;" d="M139.621,155.396v0.011c-13.359,2.88-26.505,6.202-39.405,9.93
	c-12.866,3.717-25.24-7.215-23.248-20.458l7.313-48.642c1.791-11.937,14.597-21.471,31.038-23.08
	c14.361-1.405,28.753-2.606,43.146-3.593C158.464,69.565,129.979,108.099,139.621,155.396z"/>
<g>
	<path style="fill:#313344;" d="M200.291,268.791c-4.443,0-8.044-3.601-8.044-8.044v-16.722c0-4.442,3.6-8.044,8.044-8.044
		c4.443,0,8.044,3.601,8.044,8.044v16.722C208.335,265.19,204.733,268.791,200.291,268.791z"/>
	<path style="fill:#313344;" d="M324.606,268.791c-4.443,0-8.044-3.601-8.044-8.044v-16.722c0-4.442,3.6-8.044,8.044-8.044
		s8.044,3.601,8.044,8.044v16.722C332.65,265.19,329.049,268.791,324.606,268.791z"/>
</g>
<path style="fill:#CE5B6C;" d="M262.448,326.628c-10.736,0-21.468-4.085-29.64-12.257c-3.141-3.141-3.141-8.235,0-11.375
	c3.142-3.141,8.235-3.141,11.376,0c10.072,10.071,26.458,10.072,36.53,0c3.14-3.14,8.233-3.14,11.375,0
	c3.141,3.141,3.141,8.235-0.001,11.376C283.917,322.542,273.181,326.628,262.448,326.628z"/>
<g>
	<path style="fill:#EF4152;" d="M390.579,333.806v34.427c0,3.539-0.139,6.993-0.418,10.36
		c-12.945,19.047-32.807,34.255-58.847,44.594c-0.976,0.386-1.973,0.568-2.96,0.568c-3.207,0-6.231-1.92-7.486-5.073
		c-1.641-4.129,0.375-8.805,4.504-10.446C362.791,393.372,385.485,367.257,390.579,333.806z"/>
	<path style="fill:#EF4152;" d="M130.612,333.806v34.427c0,3.539,0.139,6.993,0.418,10.36
		c12.945,19.047,32.807,34.255,58.847,44.594c0.976,0.386,1.973,0.568,2.96,0.568c3.207,0,6.231-1.92,7.486-5.073
		c1.641-4.129-0.375-8.805-4.504-10.446C158.4,393.372,135.706,367.257,130.612,333.806z"/>
</g>
<g>
	<ellipse style="fill:#FCB997;" cx="343.979" cy="296.714" rx="17.696" ry="10.725"/>
	<ellipse style="fill:#FCB997;" cx="177.207" cy="296.714" rx="17.696" ry="10.725"/>
</g>
<g>
</g>
<g>
</g>
<g>
</g>
<g>
</g>
<g>
</g>
<g>
</g>
<g>
</g>
<g>
</g>
<g>
</g>
<g>
</g>
<g>
</g>
<g>
</g>
<g>
</g>
<g>
</g>
<g>
</g>
</svg>
