<?xml version="1.0" encoding="iso-8859-1"?>
<!-- Generator: Adobe Illustrator 19.0.0, SVG Export Plug-In . SVG Version: 6.00 Build 0)  -->
<svg version="1.1" id="Capa_1" xmlns="http://www.w3.org/2000/svg" xmlns:xlink="http://www.w3.org/1999/xlink" x="0px" y="0px"
	 viewBox="0 0 512.002 512.002" style="enable-background:new 0 0 512.002 512.002;" xml:space="preserve">
<polyline style="fill:#FF525D;" points="390.532,4.079 480.605,0.297 462.876,77.244 "/>
<polyline style="fill:#EF4152;" points="390.532,4.079 480.605,0.297 419.154,42.078 "/>
<path style="fill:#5C5E70;" d="M364.989,405.213c14.893-7.736,25.69-23.017,26.259-41.721v-0.046h0.046
	c33.37-1.024,55.818-34.587,44.031-65.818l-0.011-0.046c18.488-8.351,28.648-26.236,28.648-44.452
	c0-11.776-4.243-23.676-13.232-33.233l-0.023-0.023l0.023-0.012c22.88-24.325,15.03-63.953-15.417-77.697l0.011-0.034
	L419.154,42.078l-93.724-9.851l-0.046,0.011c-8.351-18.489-26.236-28.637-44.452-28.637c-11.776,0-23.688,4.243-33.233,13.232
	l-0.023,0.011l-0.011-0.011c-24.325-22.892-63.953-15.03-77.697,15.405l-0.035-0.011c-31.243-11.788-64.794,10.661-65.818,44.031
	v0.056h-0.056c-33.37,1.024-55.818,34.576-44.031,65.818l0.011,0.034c-18.488,8.351-28.637,26.236-28.637,44.452
	c0,11.776,4.243,23.688,13.232,33.245l0.011,0.012l-0.011,0.023c-22.892,24.325-15.03,63.942,15.405,77.685l-0.011,0.046
	c-11.788,31.231,10.661,64.794,44.031,65.818h0.056v0.046c0.568,18.705,11.366,33.984,26.248,41.732"/>
<path style="fill:#494B5B;" d="M174.344,363.493v-0.045h-0.056c-33.37-1.024-55.818-34.587-44.031-65.818l0.012-0.045
	c43.189-23.539,42.144-53.36-15.405-77.685l0.011-0.023l-0.011-0.012c-8.988-9.557-13.232-21.47-13.232-33.245
	c0-18.216,10.149-36.1,28.637-44.452l-0.011-0.034c-11.788-31.243,10.661-64.794,44.031-65.818h0.056v-0.057
	c1.024-33.37,34.576-55.818,65.818-44.031l0.034,0.011c8.074-17.878,25.079-27.953,42.668-28.596
	c-0.644-0.025-1.287-0.042-1.932-0.042c-11.776,0-23.688,4.244-33.233,13.232l-0.023,0.011l-0.011-0.011
	C223.34-6.06,183.712,1.802,169.968,32.237l-0.034-0.011c-31.243-11.788-64.794,10.661-65.818,44.031v0.056h-0.056
	c-33.37,1.024-55.818,34.576-44.031,65.818l0.011,0.034c-18.488,8.351-28.637,26.236-28.637,44.452
	c0,11.776,4.243,23.688,13.232,33.245l0.011,0.012l-0.011,0.023c-22.892,24.325-15.03,63.942,15.405,77.685l-0.011,0.045
	c-11.788,31.231,10.661,64.794,44.031,65.818h0.056v0.045c0.568,18.705,11.366,33.984,26.248,41.732l70.224-0.003
	C185.708,397.473,174.914,382.194,174.344,363.493z"/>
<path style="fill:#FFD15C;" d="M392.426,512v-17.524c0-44.552-20.126-84.406-51.792-110.954h-185.91
	c-31.665,26.548-51.792,66.402-51.792,110.954V512"/>
<g>
	<path style="fill:#EDBB4C;" d="M201.313,383.522h-46.59c-31.665,26.548-51.791,66.402-51.791,110.954V512h46.589v-17.524
		C149.523,449.925,169.649,410.07,201.313,383.522z"/>
	<rect x="239.838" y="383.521" style="fill:#EDBB4C;" width="15.674" height="128.481"/>
</g>
<path style="fill:#FFDAC5;" d="M381.63,235.694v61.904c0,73.973-59.97,113.651-133.954,113.651s-133.954-39.678-133.954-113.651
	v-61.904c0-13.174,1.901-25.918,5.46-37.942c12.301,14.644,33.123,21.397,52.973,13.903l0.044-0.011
	c8.113,17.96,25.486,27.818,43.182,27.818c11.44,0,23.011-4.123,32.284-12.854l0.022-0.012l0.01,0.012
	c23.629,22.238,62.125,14.6,75.476-14.965l0.033,0.011c19.85,7.493,40.661,0.751,52.963-13.882
	C379.729,209.787,381.63,222.52,381.63,235.694z"/>
<path style="fill:#EFC1AB;" d="M155.518,297.598v-61.904c0-7.141,0.577-14.148,1.655-20.99
	c-14.784,0.555-28.778-5.985-37.992-16.954c-3.559,12.025-5.46,24.768-5.46,37.942v61.904c0,73.973,59.97,113.651,133.954,113.651
	c7.11,0,14.088-0.37,20.898-1.098C204.518,403.302,155.518,364.462,155.518,297.598z"/>
<g>
	<path style="fill:#313344;" d="M185.535,305.704c-4.328,0-7.837-3.509-7.837-7.837v-17.233c0-4.328,3.509-7.837,7.837-7.837
		s7.837,3.509,7.837,7.837v17.233C193.372,302.195,189.864,305.704,185.535,305.704z"/>
	<path style="fill:#313344;" d="M313.646,305.704c-4.329,0-7.837-3.509-7.837-7.837v-17.233c0-4.328,3.508-7.837,7.837-7.837
		c4.329,0,7.837,3.509,7.837,7.837v17.233C321.482,302.195,317.975,305.704,313.646,305.704z"/>
</g>
<path style="fill:#CE5B6C;" d="M249.591,365.307c-10.947,0-21.891-4.165-30.225-12.499c-3.061-3.061-3.061-8.023,0-11.082
	c3.061-3.06,8.023-3.06,11.082,0c10.556,10.555,27.73,10.555,38.285,0c3.06-3.06,8.023-3.06,11.082,0
	c3.059,3.061,3.06,8.023-0.001,11.082C271.484,361.139,260.535,365.307,249.591,365.307z"/>
<path style="fill:#FCF8F2;" d="M455.838,121.634l-20.522,20.532c-7.576-38.16-34.221-65.348-59.382-83.153
	c-26.081-18.432-50.552-26.781-50.552-26.781l21.003-21.003c11.64-11.64,29.466-14.597,44.147-7.147
	c6.144,3.114,12.978,7.084,20.083,12.11c17.941,12.675,37.606,32.005,52.266,61.054C470.341,92.032,467.551,109.931,455.838,121.634
	z"/>
<path style="fill:#E5E1DC;" d="M410.615,16.193c0,0-22.873,8.255-34.68,42.82c-26.081-18.432-50.552-26.781-50.552-26.781
	l21.003-21.003c11.64-11.64,29.466-14.597,44.147-7.147C396.676,7.197,403.509,11.167,410.615,16.193z"/>
<g>
	<path style="fill:#EF4152;" d="M154.026,182.199c-4.328,0-7.837-3.509-7.837-7.837V93.131c0-4.328,3.509-7.837,7.837-7.837
		c4.328,0,7.837,3.509,7.837,7.837v81.231C161.863,178.69,158.354,182.199,154.026,182.199z"/>
	<path style="fill:#EF4152;" d="M189.193,161.893c-1.329,0-2.677-0.339-3.911-1.051l-70.348-40.615
		c-3.748-2.164-5.032-6.957-2.868-10.705c2.164-3.748,6.957-5.033,10.705-2.868l70.348,40.615c3.748,2.164,5.032,6.957,2.868,10.705
		C194.535,160.487,191.901,161.893,189.193,161.893z"/>
	<path style="fill:#EF4152;" d="M118.859,161.893c-2.708,0-5.343-1.405-6.794-3.919c-2.164-3.748-0.88-8.541,2.868-10.705
		l70.348-40.615c3.747-2.165,8.541-0.88,10.705,2.868s0.88,8.541-2.868,10.705l-70.348,40.615
		C121.536,161.555,120.188,161.893,118.859,161.893z"/>
</g>
<g>
	<ellipse style="fill:#FCB997;" cx="321.894" cy="322.875" rx="15.747" ry="9.546"/>
	<ellipse style="fill:#FCB997;" cx="173.455" cy="322.875" rx="15.747" ry="9.546"/>
</g>
<path style="fill:#EDBB4C;" d="M338.261,482.739H292.81c-4.329,0-7.837-3.509-7.837-7.837c0-4.328,3.508-7.837,7.837-7.837h45.451
	c4.329,0,7.837,3.509,7.837,7.837C346.098,479.23,342.59,482.739,338.261,482.739z"/>
<g>
</g>
<g>
</g>
<g>
</g>
<g>
</g>
<g>
</g>
<g>
</g>
<g>
</g>
<g>
</g>
<g>
</g>
<g>
</g>
<g>
</g>
<g>
</g>
<g>
</g>
<g>
</g>
<g>
</g>
</svg>
