<?xml version="1.0" encoding="iso-8859-1"?>
<!-- Generator: Adobe Illustrator 18.0.0, SVG Export Plug-In . SVG Version: 6.00 Build 0)  -->
<!DOCTYPE svg PUBLIC "-//W3C//DTD SVG 1.1//EN" "http://www.w3.org/Graphics/SVG/1.1/DTD/svg11.dtd">
<svg xmlns="http://www.w3.org/2000/svg" xmlns:xlink="http://www.w3.org/1999/xlink" version="1.1" id="Capa_1" x="0px" y="0px" viewBox="0 0 440.927 440.927" style="enable-background:new 0 0 440.927 440.927;" xml:space="preserve" width="512px" height="512px">
<path d="M342.876,210.498h-17.05V37.01c0-9.894-3.853-19.188-10.839-26.162C308.004,3.853,298.709,0,288.816,0  c-20.413,0-37.021,16.603-37.021,37.01v125.373c-6.469-5.53-14.852-8.881-24.009-8.881c-9.9,0-19.198,3.853-26.172,10.839  c-3.644,3.637-6.425,7.905-8.263,12.556c-6.735-6.968-16.167-11.314-26.601-11.314c-9.159,0-17.546,3.351-24.016,8.882V92.267  c0-20.411-16.605-37.016-37.016-37.016S68.704,71.856,68.704,92.267v207.883c0,45.083,15.638,89.197,44.031,124.217  c1.284,1.584,3.16,2.406,5.053,2.406c1.438,0,2.886-0.475,4.09-1.451c2.788-2.261,3.216-6.354,0.955-9.143  c-26.522-32.711-41.129-73.918-41.129-116.029V92.267c0-13.242,10.773-24.016,24.016-24.016s24.016,10.773,24.016,24.016v169.841  c0,20.411,16.605,37.016,37.016,37.016c12.327,0,23.259-6.063,29.99-15.358c6.608,10.154,18.052,16.887,31.046,16.887  c1.445,0,2.875-0.092,4.29-0.255c-16.394,12.505-27,32.231-27,54.395c0,3.59,2.91,6.5,6.5,6.5s6.5-2.91,6.5-6.5  c0-30.542,24.848-55.39,55.39-55.39h15.18c3.59,0,6.5-2.91,6.5-6.5v-5.223h29.181c3.59,0,6.5-2.91,6.5-6.5s-2.91-6.5-6.5-6.5  h-51.633c-14.111,0-25.591-11.48-25.591-25.591s11.479-25.591,25.591-25.591h70.182c9.014,0,16.347,7.333,16.347,16.348v70.741  c0,27.916-13.581,54.241-36.329,70.421l-0.227,0.161c-17.204,12.237-27.475,32.146-27.475,53.258c0,3.59,2.91,6.5,6.5,6.5  s6.5-2.91,6.5-6.5c0-16.912,8.228-32.861,22.01-42.664l0.227-0.161c26.17-18.614,41.794-48.9,41.794-81.015v-70.741  C372.223,223.664,359.058,210.498,342.876,210.498z M166.751,286.123c-13.242,0-24.016-10.773-24.016-24.016v-59.509  c0-13.242,10.773-24.015,24.016-24.015s24.016,10.773,24.016,24.015v59.509C190.767,275.35,179.993,286.123,166.751,286.123z   M265.124,286.929c-3.573,0.437-7.06,1.15-10.442,2.117c1.26-1.332,2.416-2.741,3.455-4.227  C260.37,285.733,262.705,286.446,265.124,286.929z M247.069,277.91c-0.703,0.947-1.461,1.859-2.309,2.706  c-4.536,4.538-10.564,7.036-16.973,7.036c-13.245,0-24.021-10.771-24.021-24.01v-73.12c0-6.423,2.497-12.453,7.041-16.988  c4.526-4.535,10.557-7.032,16.979-7.032c13.226,0,23.988,10.755,24.009,23.981v26.188c-10.634,6.88-17.692,18.836-17.692,32.417  C234.104,260.54,239.122,270.836,247.069,277.91z M264.797,211.313L264.796,37.01c0-13.239,10.775-24.01,24.021-24.01  c6.416,0,12.443,2.498,16.979,7.041c4.534,4.526,7.031,10.553,7.031,16.97v173.488h-40.132  C269.988,210.498,267.347,210.781,264.797,211.313z" fill="#4ea6ec"/>
<g>
</g>
<g>
</g>
<g>
</g>
<g>
</g>
<g>
</g>
<g>
</g>
<g>
</g>
<g>
</g>
<g>
</g>
<g>
</g>
<g>
</g>
<g>
</g>
<g>
</g>
<g>
</g>
<g>
</g>
</svg>
