<?xml version="1.0" encoding="iso-8859-1"?>
<!-- Generator: Adobe Illustrator 19.0.0, SVG Export Plug-In . SVG Version: 6.00 Build 0)  -->
<svg version="1.1" id="Layer_1" xmlns="http://www.w3.org/2000/svg" xmlns:xlink="http://www.w3.org/1999/xlink" x="0px" y="0px"
	 viewBox="0 0 496 496" style="enable-background:new 0 0 496 496;" xml:space="preserve">
<g>
	<rect x="224" y="136" style="fill:#FFA64D;" width="48" height="144"/>
	<path style="fill:#FFA64D;" d="M48.48,63.912C47.616,54.84,40.056,48,30.888,48c-7.656,0-14.4,4.864-16.784,12.128
		c-7.28,22.24-28.632,98.568,2.176,147.168c14.52,22.912,38.32,36.592,70.728,40.64L144,160C66.088,160,51.24,92.808,48.48,63.912z"
		/>
	<path style="fill:#FFA64D;" d="M481.896,60.12C479.512,52.864,472.768,48,465.112,48c-9.168,0-16.728,6.84-17.584,15.904
		C444.76,92.808,429.912,160,352,160l56.992,87.936c32.408-4.048,56.2-17.728,70.728-40.64
		C510.528,158.696,489.176,82.368,481.896,60.12z"/>
</g>
<g>
	<path style="fill:#3F3A34;" d="M439.376,320.424C435.56,284.56,409.592,128,248,128S60.44,284.56,56.624,320.424
		C24.8,324.088,0,351.2,0,384c0,35.288,28.712,64,64,64h368c35.288,0,64-28.712,64-64C496,351.2,471.2,324.088,439.376,320.424z
		 M192,272H82.768c1.584-5.192,3.408-10.544,5.488-16H192V272z M192,288v25.992c-17.16-6.616-35.896-9.992-56-9.992
		c-31.328,0-53.44,9.28-63.064,14.272c0.856-7.2,2.488-17.776,5.472-30.272H192z M208,288h32v24.704
		c-10.392,1.136-20.568,4.384-29.584,9.944c-0.792-0.448-1.616-0.832-2.416-1.256V288z M256,288h32v33.392
		c-0.8,0.432-1.624,0.816-2.416,1.264c-9.024-5.56-19.192-8.808-29.584-9.944V288z M304,288h80v-16h-80v-16h103.744
		c2.08,5.456,3.904,10.808,5.488,16h-13.24v16h17.6c2.984,12.496,4.616,23.072,5.48,30.272C413.44,313.28,391.328,304,360,304
		c-20.104,0-38.84,3.376-56,9.992V288z M398.624,235.136c0.816,1.624,1.544,3.248,2.312,4.864H304v-16h16v-16h-16v-16h16v-16h-16
		v-24.104C345.352,164.528,377.088,192.32,398.624,235.136z M288,147.856V272h-80V147.856c12.56-2.52,25.872-3.856,40-3.856
		C262.128,144,275.44,145.336,288,147.856z M192,151.896V176h-16v16h16v16h-16v16h16v16H95.064c0.768-1.624,1.496-3.248,2.312-4.864
		C118.912,192.32,150.648,164.528,192,151.896z M432,432H64c-26.472,0-48-21.528-48-48s21.528-48,48-48s48,21.528,48,48h16
		c0-24.824-14.24-46.344-34.952-56.952C103.248,323.48,117.816,320,136,320c26.432,0,50.136,6.36,70.464,18.896l4.544,2.808
		l4.336-3.128c19.2-13.832,46.112-13.832,65.312,0l4.336,3.128l4.544-2.808C309.864,326.36,333.568,320,360,320
		c18.056,0,32.656,3.496,42.896,7.072C382.208,337.688,368,359.2,368,384h16c0-26.472,21.528-48,48-48s48,21.528,48,48
		S458.472,432,432,432z"/>
	<path style="fill:#3F3A34;" d="M248,200c13.232,0,24-10.768,24-24s-10.768-24-24-24s-24,10.768-24,24S234.768,200,248,200z
		 M248,168c4.416,0,8,3.592,8,8s-3.584,8-8,8s-8-3.592-8-8S243.584,168,248,168z"/>
	<path style="fill:#3F3A34;" d="M248,216c-13.232,0-24,10.768-24,24s10.768,24,24,24s24-10.768,24-24S261.232,216,248,216z M248,248
		c-4.416,0-8-3.592-8-8s3.584-8,8-8c4.416,0,8,3.592,8,8S252.416,248,248,248z"/>
	<path style="fill:#3F3A34;" d="M69.024,210.824l5.92-14.856c-4.088-1.632-7.688-3.672-10.704-6.088l-9.984,12.496
		C58.504,205.776,63.48,208.616,69.024,210.824z"/>
	<path style="fill:#3F3A34;" d="M56.824,181.592c-4.768-7.512-7.904-18.24-8.84-30.216l-15.952,1.248
		c1.144,14.528,5.152,27.856,11.28,37.536L56.824,181.592z"/>
</g>
<g>
</g>
<g>
</g>
<g>
</g>
<g>
</g>
<g>
</g>
<g>
</g>
<g>
</g>
<g>
</g>
<g>
</g>
<g>
</g>
<g>
</g>
<g>
</g>
<g>
</g>
<g>
</g>
<g>
</g>
</svg>
