<?xml version="1.0" encoding="iso-8859-1"?>
<!-- Generator: Adobe Illustrator 19.0.0, SVG Export Plug-In . SVG Version: 6.00 Build 0)  -->
<svg xmlns="http://www.w3.org/2000/svg" xmlns:xlink="http://www.w3.org/1999/xlink" version="1.1" id="Layer_1" x="0px" y="0px" viewBox="0 0 512.002 512.002" style="enable-background:new 0 0 512.002 512.002;" xml:space="preserve" width="512px" height="512px">
<g>
	<g>
		<path d="M382.114,45.083c-1.775-18.458-15.705-33.619-33.877-36.871c-61.203-10.95-123.268-10.95-184.472,0    c-18.171,3.251-32.102,18.413-33.877,36.871c-8.893,92.502-8.893,186.306,0,278.808c1.775,18.458,15.705,33.619,33.877,36.871    c9.596,1.717,19.216,3.133,28.848,4.311l-12.005,86.567H158.85c-4.244,0-7.869,3.06-8.582,7.242l-7.325,42.95    c-0.432,2.528,0.274,5.118,1.928,7.079s4.088,3.091,6.654,3.091h208.945c2.564,0,5-1.131,6.654-3.091    c1.654-1.959,2.36-4.549,1.928-7.079l-7.324-42.95c-0.713-4.184-4.338-7.242-8.582-7.242H331.39l-11.996-86.567    c9.63-1.178,19.248-2.593,28.842-4.31c18.171-3.251,32.101-18.413,33.876-36.871C391.007,231.39,391.007,137.585,382.114,45.083z     M345.799,469.051l4.355,25.538H161.842l4.354-25.538H345.799z M198.187,451.64l11.747-84.709    c7.42,0.658,14.846,1.151,22.275,1.492v83.217H198.187z M249.62,451.639v-82.736c2.127,0.026,4.254,0.071,6.381,0.071    c2.129,0,4.259-0.045,6.388-0.071v82.736H249.62z M279.801,451.639v-83.217c7.428-0.34,14.854-0.833,22.272-1.492l11.738,84.709    H279.801z M336.613,193.2h34.708c-0.032,5.482-0.097,10.964-0.193,16.445h-34.517c-4.808,0-8.706,3.898-8.706,8.706    s3.898,8.706,8.706,8.706h34.108c-0.161,5.484-0.354,10.965-0.578,16.445h-33.53c-4.808,0-8.706,3.898-8.706,8.706    c0,4.808,3.898,8.706,8.706,8.706h32.713c-0.29,5.485-0.612,10.966-0.965,16.445h-31.748c-4.808,0-8.706,3.898-8.706,8.706    s3.898,8.706,8.706,8.706h30.518c-0.703,9.162-1.468,18.318-2.347,27.457c-1.031,10.714-9.095,19.513-19.611,21.394    c-59.17,10.585-119.172,10.585-178.339,0c-10.517-1.882-18.581-10.681-19.611-21.397c-0.879-9.139-1.645-18.294-2.347-27.457    h30.525c4.808,0,8.706-3.898,8.706-8.706s-3.898-8.706-8.706-8.706h-31.755c-0.353-5.479-0.674-10.96-0.965-16.445h32.72    c4.808,0,8.706-3.898,8.706-8.706c0-4.808-3.898-8.706-8.706-8.706h-33.537c-0.224-5.48-0.417-10.961-0.578-16.445h34.115    c4.808,0,8.706-3.898,8.706-8.706s-3.898-8.706-8.706-8.706h-34.522c-0.095-5.481-0.159-10.963-0.193-16.445h34.715    c4.808,0,8.706-3.898,8.706-8.706c0-4.808-3.898-8.706-8.706-8.706h-34.715c0.033-5.483,0.098-10.964,0.193-16.445h34.522    c4.808,0,8.706-3.898,8.706-8.706s-3.898-8.706-8.706-8.706h-34.116c0.161-5.484,0.354-10.965,0.578-16.445h33.538    c4.808,0,8.706-3.898,8.706-8.706s-3.898-8.706-8.706-8.706h-32.72c0.29-5.485,0.612-10.966,0.965-16.445h31.755    c4.808,0,8.706-3.898,8.706-8.706c0-4.808-3.898-8.706-8.706-8.706h-30.526c0.703-9.166,1.47-18.323,2.348-27.466    c1.03-10.717,9.094-19.515,19.611-21.397c2.443-0.436,4.891-0.829,7.336-1.229v7.884c0,4.808,3.898,8.706,8.706,8.706    s8.706-3.898,8.706-8.706V21.566c6.379-0.821,12.763-1.535,19.153-2.112v12.549c0,4.808,3.898,8.706,8.706,8.706    s8.706-3.898,8.706-8.706V18.216c6.382-0.354,12.767-0.595,19.153-0.706v14.498c0,4.808,3.898,8.706,8.706,8.706    c4.808,0,8.706-3.898,8.706-8.706V17.51c6.387,0.11,12.771,0.353,19.153,0.706v13.792c0,4.808,3.898,8.706,8.706,8.706    s8.706-3.898,8.706-8.706V19.459c6.39,0.577,12.775,1.291,19.153,2.112v10.438c0,4.808,3.898,8.706,8.706,8.706    c4.808,0,8.706-3.898,8.706-8.706v-7.884c2.444,0.401,4.888,0.792,7.329,1.228c10.517,1.882,18.581,10.681,19.611,21.397    c0.879,9.141,1.645,18.3,2.348,27.466h-30.519c-4.808,0-8.706,3.898-8.706,8.706c0,4.808,3.898,8.706,8.706,8.706h31.748    c0.353,5.479,0.674,10.96,0.965,16.445H336.61c-4.808,0-8.706,3.898-8.706,8.706s3.898,8.706,8.706,8.706h33.531    c0.224,5.48,0.417,10.961,0.578,16.445h-34.108c-4.808,0-8.706,3.898-8.706,8.706s3.898,8.706,8.706,8.706h34.517    c0.095,5.481,0.159,10.963,0.193,16.445h-34.708c-4.808,0-8.706,3.898-8.706,8.706S331.805,193.2,336.613,193.2z" fill="#4ea6ec"/>
	</g>
</g>
<g>
	<g>
		<path d="M305.409,74.215h-98.808c-4.808,0-8.706,3.898-8.706,8.706c0,4.808,3.898,8.706,8.706,8.706h98.808    c4.808,0,8.706-3.898,8.706-8.706C314.115,78.113,310.217,74.215,305.409,74.215z" fill="#4ea6ec"/>
	</g>
</g>
<g>
	<g>
		<path d="M305.409,108.072h-98.808c-4.808,0-8.706,3.898-8.706,8.706s3.898,8.706,8.706,8.706h98.808    c4.808,0,8.706-3.898,8.706-8.706S310.217,108.072,305.409,108.072z" fill="#4ea6ec"/>
	</g>
</g>
<g>
	<g>
		<path d="M305.409,141.929h-98.808c-4.808,0-8.706,3.898-8.706,8.706c0,4.808,3.898,8.706,8.706,8.706h98.808    c4.808,0,8.706-3.898,8.706-8.706C314.115,145.827,310.217,141.929,305.409,141.929z" fill="#4ea6ec"/>
	</g>
</g>
<g>
	<g>
		<path d="M305.409,175.785h-98.808c-4.808,0-8.706,3.898-8.706,8.706s3.898,8.706,8.706,8.706h98.808    c4.808,0,8.706-3.898,8.706-8.706S310.217,175.785,305.409,175.785z" fill="#4ea6ec"/>
	</g>
</g>
<g>
	<g>
		<path d="M305.409,209.642h-98.808c-4.808,0-8.706,3.898-8.706,8.706s3.898,8.706,8.706,8.706h98.808    c4.808,0,8.706-3.898,8.706-8.706S310.217,209.642,305.409,209.642z" fill="#4ea6ec"/>
	</g>
</g>
<g>
	<g>
		<path d="M305.409,243.5h-98.808c-4.808,0-8.706,3.898-8.706,8.706c0,4.808,3.898,8.706,8.706,8.706h98.808    c4.808,0,8.706-3.898,8.706-8.706C314.115,247.398,310.217,243.5,305.409,243.5z" fill="#4ea6ec"/>
	</g>
</g>
<g>
	<g>
		<path d="M305.409,277.356h-98.808c-4.808,0-8.706,3.898-8.706,8.706s3.898,8.706,8.706,8.706h98.808    c4.808,0,8.706-3.898,8.706-8.706S310.217,277.356,305.409,277.356z" fill="#4ea6ec"/>
	</g>
</g>
<g>
</g>
<g>
</g>
<g>
</g>
<g>
</g>
<g>
</g>
<g>
</g>
<g>
</g>
<g>
</g>
<g>
</g>
<g>
</g>
<g>
</g>
<g>
</g>
<g>
</g>
<g>
</g>
<g>
</g>
</svg>
