<?xml version="1.0" encoding="iso-8859-1"?>
<!-- Generator: Adobe Illustrator 19.0.0, SVG Export Plug-In . SVG Version: 6.00 Build 0)  -->
<svg version="1.1" id="Layer_1" xmlns="http://www.w3.org/2000/svg" xmlns:xlink="http://www.w3.org/1999/xlink" x="0px" y="0px"
	 viewBox="0 0 512 512" style="enable-background:new 0 0 512 512;" xml:space="preserve">
<circle style="fill:#FF507D;" cx="256" cy="256" r="256"/>
<path style="fill:#D23C69;" d="M312.889,455.111c-141.384,0-256-114.616-256-256c0-56.173,18.14-108.083,48.815-150.296
	C41.67,95.348,0,170.789,0,256c0,141.384,114.616,256,256,256c85.211,0,160.652-41.67,207.186-105.704
	C420.972,436.971,369.062,455.111,312.889,455.111z"/>
<g>
	<circle style="fill:#FFFFFF;" cx="256" cy="417.185" r="18.963"/>
	<path style="fill:#FFFFFF;" d="M341.333,218.074c0-47.128-38.206-85.333-85.333-85.333c-47.051,0-85.333,38.278-85.333,85.333
		c0,10.472-8.491,18.963-18.963,18.963s-18.963-8.491-18.963-18.963c0-67.963,55.291-123.259,123.259-123.259
		s123.259,55.296,123.259,123.259c0,61.518-45.301,112.658-104.296,121.805v1.454c0,10.472-8.491,18.963-18.963,18.963
		s-18.963-8.491-18.963-18.963V322.37c0-10.472,8.491-18.963,18.963-18.963C303.051,303.407,341.333,265.129,341.333,218.074z"/>
</g>
<g>
</g>
<g>
</g>
<g>
</g>
<g>
</g>
<g>
</g>
<g>
</g>
<g>
</g>
<g>
</g>
<g>
</g>
<g>
</g>
<g>
</g>
<g>
</g>
<g>
</g>
<g>
</g>
<g>
</g>
</svg>
