<?xml version="1.0" encoding="iso-8859-1"?>
<!-- Generator: Adobe Illustrator 19.0.0, SVG Export Plug-In . SVG Version: 6.00 Build 0)  -->
<svg version="1.1" id="Layer_1" xmlns="http://www.w3.org/2000/svg" xmlns:xlink="http://www.w3.org/1999/xlink" x="0px" y="0px"
	 viewBox="0 0 496.008 496.008" style="enable-background:new 0 0 496.008 496.008;" xml:space="preserve">
<path style="fill:#FFA64D;" d="M247.836,496.008c-63.536,0-123.368-23.664-169.88-67.504C27.692,381.144,0.012,317.032,0.012,248
	c0-35.04,7.224-69,21.48-100.928l1.8-4.032l4.36-0.624c44.656-6.472,76.536-33.272,92.208-77.512
	c5.408-15.288,8.152-32.728,8.152-51.824V0h240v13.08c0,19.104,2.744,36.536,8.16,51.824c15.672,44.24,47.552,71.048,92.208,77.512
	l4.36,0.624l1.8,4.032c17.064,38.24,24.168,80.688,20.528,122.744C484.596,391.296,384.876,488.336,263.1,495.56
	C257.988,495.856,252.892,496.008,247.836,496.008z"/>
<g>
	<path style="fill:#3F3A34;" d="M439.124,188.952l-1.248-4.008l-4-1.248c-48.96-15.32-84.56-50.848-102.944-102.768
		c-2.968-8.384-5.368-17.272-7.136-26.448L322.548,48H173.476l-1.248,6.488c-1.768,9.168-4.168,18.072-7.128,26.44
		c-18.392,51.92-53.992,87.464-102.944,102.768l-4.008,1.248l-1.24,4.016c-5.904,19.032-8.896,38.896-8.896,59.04
		c0,110.28,89.72,200,200,200c4.048,0,8.144-0.12,12.24-0.36c98.168-5.824,178.56-84.04,187-181.952
		C449.516,239.384,446.788,213.56,439.124,188.952z M431.308,264.312c-7.768,90.056-81.712,162.008-172.008,167.36
		C152.844,438,64.012,353.192,64.012,248c0-17.152,2.352-34.072,7-50.376c51.848-17.528,89.536-55.944,109.168-111.36
		c2.528-7.128,4.672-14.592,6.408-22.264h122.856c1.728,7.672,3.88,15.136,6.408,22.272c19.624,55.408,57.32,93.832,109.176,111.368
		C431.164,219.08,433.276,241.488,431.308,264.312z"/>
	<path style="fill:#3F3A34;" d="M278.42,396.984l3.192,15.672c32.736-6.672,62.552-22.936,86.232-47.048l-11.416-11.216
		C334.996,376.216,308.012,390.944,278.42,396.984z"/>
	<path style="fill:#3F3A34;" d="M257.412,399.728c-3.152,0.184-6.288,0.272-9.4,0.272v16c3.424,0,6.872-0.104,10.36-0.304
		c2.152-0.136,4.304-0.296,6.432-0.504l-1.592-15.92C261.284,399.464,259.348,399.608,257.412,399.728z"/>
	<path style="fill:#3F3A34;" d="M318.844,212.528c0.72-4.072,1.168-8.248,1.168-12.528c0-39.704-32.304-72-72-72s-72,32.296-72,72
		c0,4.28,0.448,8.456,1.168,12.536c-28.528,9.576-49.168,36.504-49.168,68.224c0,39.704,32.304,72,72,72
		c18.448,0,35.248-7.032,48-18.488c12.752,11.456,29.552,18.488,48,18.488c39.696,0,72-32.296,72-72
		C368.012,249.04,347.38,222.104,318.844,212.528z M192.012,200c0-30.872,25.12-56,56-56s56,25.128,56,56
		c0,3.112-0.32,6.144-0.808,9.12c-2.368-0.232-4.76-0.368-7.184-0.368c-3.136,0-6.208,0.272-9.24,0.664
		c0.752-3.128,1.232-6.28,1.232-9.416c0-22.056-17.944-40-40-40s-40,17.944-40,40c0,3.136,0.48,6.296,1.24,9.416
		c-3.032-0.392-6.104-0.664-9.24-0.664c-2.432,0-4.824,0.128-7.192,0.368C192.332,206.144,192.012,203.112,192.012,200z
		 M225.036,206.848c-0.68-2.288-1.024-4.592-1.024-6.848c0-13.232,10.768-24,24-24s24,10.768,24,24c0,2.248-0.344,4.552-1.016,6.84
		l-2.152,7.28c-7.712,3.16-14.72,7.64-20.832,13.12c-6.112-5.488-13.128-9.968-20.84-13.128L225.036,206.848z M248.012,252.064
		c0.752,1.248,1.448,2.52,2.104,3.832c-0.704,0.024-1.392,0.104-2.104,0.104s-1.4-0.08-2.096-0.104
		C246.564,254.584,247.268,253.312,248.012,252.064z M237.364,239.152c-3.032,4.256-5.656,8.824-7.712,13.696
		c-13.872-4.84-25.256-14.968-31.744-27.984c0.704-0.024,1.392-0.104,2.104-0.104C214.372,224.76,227.444,230.232,237.364,239.152z
		 M202.484,255.72c6.672,5.464,14.352,9.712,22.696,12.512c-0.72,4.072-1.168,8.248-1.168,12.528c0,2.832,0.208,5.616,0.528,8.368
		l-6.536,7.424c-4.664,5.296-11.048,8.208-17.992,8.208c-13.232,0-24-10.768-24-24c0-11.256,7.968-21.12,18.952-23.448
		L202.484,255.72z M240.012,280.76c0-3.112,0.32-6.144,0.808-9.12c2.368,0.232,4.768,0.36,7.192,0.36
		c2.432,0,4.824-0.128,7.192-0.368c0.488,2.976,0.808,6.016,0.808,9.128c0,10.496-2.952,20.288-8,28.696
		C242.972,301.048,240.012,291.256,240.012,280.76z M270.852,268.224c8.344-2.8,16.032-7.048,22.704-12.512l7.504,1.592
		c10.992,2.328,18.968,12.192,18.968,23.456c0,13.232-10.768,24-24,24c-6.944,0-13.328-2.912-17.984-8.2l-6.552-7.44
		c0.32-2.752,0.52-5.528,0.52-8.36C272.012,276.48,271.572,272.304,270.852,268.224z M266.38,252.84
		c-2.056-4.872-4.68-9.432-7.712-13.696c9.92-8.912,22.992-14.392,37.344-14.392c0.712,0,1.4,0.08,2.096,0.104
		C291.628,237.88,280.252,248.008,266.38,252.84z M144.012,280.76c0-24.432,15.76-45.216,37.632-52.84
		c2.16,5.112,4.944,9.872,8.168,14.304c-17.344,4.584-29.792,20.424-29.792,38.536c0,22.056,17.944,40,40,40
		c11.288,0,21.624-4.656,29.304-12.992c2.112,5.2,4.832,10.08,8.04,14.6c-9.92,8.912-22.992,14.392-37.344,14.392
		C169.14,336.76,144.012,311.632,144.012,280.76z M296.012,336.76c-14.352,0-27.424-5.48-37.344-14.392
		c3.216-4.52,5.928-9.4,8.04-14.608c7.68,8.336,18.016,12.992,29.304,12.992c22.056,0,40-17.944,40-40
		c0-18.12-12.456-33.96-29.808-38.544c3.224-4.432,6.008-9.192,8.16-14.296c21.888,7.624,37.648,28.408,37.648,52.848
		C352.012,311.632,326.892,336.76,296.012,336.76z"/>
</g>
<g>
</g>
<g>
</g>
<g>
</g>
<g>
</g>
<g>
</g>
<g>
</g>
<g>
</g>
<g>
</g>
<g>
</g>
<g>
</g>
<g>
</g>
<g>
</g>
<g>
</g>
<g>
</g>
<g>
</g>
</svg>
