<?xml version="1.0" encoding="iso-8859-1"?>
<!-- Generator: Adobe Illustrator 19.0.0, SVG Export Plug-In . SVG Version: 6.00 Build 0)  -->
<svg version="1.1" id="Layer_1" xmlns="http://www.w3.org/2000/svg" xmlns:xlink="http://www.w3.org/1999/xlink" x="0px" y="0px"
	 viewBox="0 0 512 512" style="enable-background:new 0 0 512 512;" xml:space="preserve">
<path style="fill:#FBCB34;" d="M490.037,253.748l-56.431,40.959l-14.579,70.119l35.282,77.465
	c5.009,11.13,3.338,32.611-9.128,47.971c-17.698,21.926-51.088,27.714-75.128,7.68l-108.518-69.34
	c-2.226-1.447-4.007-2.226-5.565-2.226c-1.67,0-3.339,0.779-5.565,2.226L142.11,497.608c-23.04,19.7-56.653,15.026-75.017-7.123
	c-12.244-14.803-14.582-35.95-9.794-46.969l34.837-79.691l-12.133-67.003l-58.544-43.407C3.096,239.835-4.25,217.019,2.427,195.204
	c6.79-21.704,25.934-36.284,48.64-37.063l106.068-3.673c5.788-0.223,10.907-4.007,12.688-9.461l36.061-107.183
	c8.125-24.041,29.049-36.061,50.085-36.061c21.369,0,42.629,12.243,50.419,36.841l33.724,106.181c1.78,5.565,6.9,9.461,12.798,9.683
	l107.852,3.673c22.927,0.779,42.071,15.471,48.861,37.397C516.304,217.464,508.623,240.281,490.037,253.748z"/>
<path style="fill:#F8AB32;" d="M490.037,253.748l-56.431,40.959l-14.579,70.119l35.282,77.465
	c5.009,11.13,3.338,32.611-9.128,47.971c-17.698,21.926-51.088,27.714-75.128,7.68l-108.518-69.34
	c-2.226-1.447-4.007-2.226-5.565-2.226V1.763c21.369,0,42.629,12.243,50.419,36.841l33.724,106.181
	c1.78,5.565,6.9,9.461,12.798,9.683l107.852,3.673c22.927,0.779,42.071,15.471,48.861,37.397
	C516.304,217.464,508.623,240.281,490.037,253.748z"/>
<path style="fill:#58718C;" d="M304.388,325.314c-4.787,8.014-15.026,10.574-22.927,5.899c-7.681-4.563-16.584-6.789-25.488-6.789
	c-8.904,0-17.808,2.226-25.488,6.789c-7.902,4.675-18.141,2.003-22.927-5.899c-4.675-7.902-2.116-18.142,5.898-22.817
	c12.801-7.68,27.603-11.464,42.518-11.464c14.915,0,29.716,3.784,42.518,11.464C306.502,307.172,309.062,317.412,304.388,325.314z"
	/>
<path style="fill:#50667F;" d="M304.388,325.314c-4.787,8.014-15.026,10.574-22.927,5.899c-7.681-4.563-16.584-6.789-25.488-6.789
	v-33.39c14.915,0,29.716,3.784,42.518,11.464C306.502,307.172,309.062,317.412,304.388,325.314z"/>
<path style="fill:#58718C;" d="M322.752,257.31H189.191c-9.217,0-16.695-7.361-16.695-16.584s7.478-16.695,16.695-16.695h133.561
	c9.217,0,16.695,7.473,16.695,16.695S331.969,257.31,322.752,257.31z"/>
<g>
	<path style="fill:#50667F;" d="M322.752,224.031h-66.78v33.279h66.78c9.217,0,16.695-7.361,16.695-16.584
		C339.447,231.503,331.969,224.031,322.752,224.031z"/>
	<path style="fill:#50667F;" d="M389.421,390.87h-33.39c-46.031,0-83.364-37.334-83.364-83.364v-33.39
		c0-27.618,22.356-50.085,49.974-50.085h66.78c27.618,0,50.085,22.467,50.085,50.085v66.78
		C439.507,368.515,417.04,390.87,389.421,390.87z"/>
</g>
<path style="fill:#58718C;" d="M155.69,390.87H122.3c-27.618,0-49.974-22.356-49.974-49.974v-66.78
	c0-27.618,22.356-50.085,49.974-50.085h66.78c27.618,0,50.085,22.467,50.085,50.085v33.39
	C239.165,353.537,201.721,390.87,155.69,390.87z"/>
<path style="fill:#80F4FF;" d="M322.641,257.421c-9.206,0-16.584,7.489-16.584,16.695v33.39c0,27.618,22.356,49.974,49.974,49.974
	h33.39c9.206,0,16.695-7.378,16.695-16.584v-66.78c0-9.206-7.489-16.695-16.695-16.695H322.641z"/>
<path style="fill:#99F6FF;" d="M122.3,257.421c-9.206,0-16.584,7.489-16.584,16.695v66.78c0,9.206,7.378,16.584,16.584,16.584h33.39
	c27.618,0,50.085-22.356,50.085-49.974v-33.39c0-9.206-7.489-16.695-16.695-16.695H122.3z"/>
<g>
</g>
<g>
</g>
<g>
</g>
<g>
</g>
<g>
</g>
<g>
</g>
<g>
</g>
<g>
</g>
<g>
</g>
<g>
</g>
<g>
</g>
<g>
</g>
<g>
</g>
<g>
</g>
<g>
</g>
</svg>
