<?xml version="1.0" encoding="iso-8859-1"?>
<!-- Generator: Adobe Illustrator 19.0.0, SVG Export Plug-In . SVG Version: 6.00 Build 0)  -->
<svg version="1.1" id="Layer_1" xmlns="http://www.w3.org/2000/svg" xmlns:xlink="http://www.w3.org/1999/xlink" x="0px" y="0px"
	 viewBox="0 0 512 512" style="enable-background:new 0 0 512 512;" xml:space="preserve">
<path style="fill:#2D2A2A;" d="M391.26,271.606c57.466,0,104.045,46.58,104.045,104.045s-46.58,104.045-104.045,104.045
	l-82.14-104.045L391.26,271.606z"/>
<path style="fill:#423D3C;" d="M391.26,271.606v208.09c-57.466,0-104.045-46.58-104.045-104.045S333.795,271.606,391.26,271.606z"/>
<path style="fill:#2D2A2A;" d="M120.744,271.606c57.466,0,104.045,46.58,104.045,104.045s-46.58,104.045-104.045,104.045
	L38.602,375.651L120.744,271.606z"/>
<path style="fill:#423D3C;" d="M120.744,271.606v208.09c-57.466,0-104.045-46.58-104.045-104.045S63.277,271.606,120.744,271.606z"
	/>
<path style="fill:#CCBAB8;" d="M36.798,351.404l-32.084-9.248L76.937,91.577c12.892-44.73,54.438-75.969,101.032-75.969h20.809
	v33.391h-20.809c-31.8,0-60.152,21.311-68.947,51.826L36.798,351.404z"/>
<path style="fill:#928483;" d="M475.408,351.404l-72.223-250.579c-8.794-30.515-37.147-51.826-68.946-51.826h-20.808V15.607h20.808
	c46.594,0,88.139,31.24,101.032,75.97l72.224,250.578L475.408,351.404z"/>
<g>
	<rect x="256.11" y="254.908" style="fill:#DFD1D0;" width="129.97" height="33.391"/>
	<path style="fill:#DFD1D0;" d="M300.776,365.911l-27.125,19.478c-5.087-7.09-11.308-11.008-17.541-11.052v-33.391
		C273.129,340.991,289.401,350.073,300.776,365.911z"/>
</g>
<g>
	<path style="fill:#F2E8E7;" d="M256.11,340.946v33.391c-0.033,0-0.078,0-0.111,0c-6.255,0-12.533,3.918-17.653,11.052
		l-27.114-19.478c11.398-15.872,27.715-24.965,44.766-24.965C256.032,340.946,256.077,340.946,256.11,340.946z"/>
	<rect x="120.742" y="254.908" style="fill:#F2E8E7;" width="135.368" height="33.391"/>
</g>
<path style="fill:#FF8C5C;" d="M120.742,254.908c66.582,0,120.742,54.172,120.742,120.742s-54.16,120.742-120.742,120.742
	l-22.261-16.698l22.261-16.693c48.161,0,87.351-39.19,87.351-87.351s-39.19-87.351-87.351-87.351l-22.261-16.693L120.742,254.908z"
	/>
<path style="fill:#FFB261;" d="M120.742,463.002v33.391C54.172,496.393,0,442.221,0,375.651s54.172-120.742,120.742-120.742v33.391
	c-48.161,0-87.351,39.19-87.351,87.351S72.581,463.002,120.742,463.002z"/>
<path style="fill:#FF8C5C;" d="M391.258,254.908C457.84,254.908,512,309.08,512,375.651s-54.16,120.742-120.742,120.742
	l-22.261-16.698l22.261-16.693c48.161,0,87.351-39.19,87.351-87.351s-39.19-87.351-87.351-87.351l-22.261-16.693L391.258,254.908z"
	/>
<path style="fill:#FFB261;" d="M391.258,463.002v33.391c-66.571,0-120.742-54.172-120.742-120.742s54.172-120.742,120.742-120.742
	v33.391c-48.161,0-87.351,39.19-87.351,87.351S343.096,463.002,391.258,463.002z"/>
<g>
</g>
<g>
</g>
<g>
</g>
<g>
</g>
<g>
</g>
<g>
</g>
<g>
</g>
<g>
</g>
<g>
</g>
<g>
</g>
<g>
</g>
<g>
</g>
<g>
</g>
<g>
</g>
<g>
</g>
</svg>
