<?xml version="1.0" encoding="iso-8859-1"?>
<!-- Generator: Adobe Illustrator 19.0.0, SVG Export Plug-In . SVG Version: 6.00 Build 0)  -->
<svg version="1.1" id="Layer_1" xmlns="http://www.w3.org/2000/svg" xmlns:xlink="http://www.w3.org/1999/xlink" x="0px" y="0px"
	 viewBox="0 0 496 496" style="enable-background:new 0 0 496 496;" xml:space="preserve">
<g>
	<path style="fill:#FFA64D;" d="M80,72c0-19.184,5.456-38.52,7.136-44.008C87.72,26.072,88,24.144,88,22.104v-1.672
		C88,9.168,78.832,0,67.568,0C63.56,0,59.656,1.168,56.28,3.4C43.08,12.088,0,44.464,0,96c0,49.232,45.832,73.704,70.064,79.76
		L88,168l25.576-71.84C104.864,94.392,80,86.16,80,72z"/>
	<path style="fill:#FFA64D;" d="M439.72,3.392C436.344,1.168,432.44,0,428.432,0C417.168,0,408,9.168,408,20.432v1.672
		c0,2.04,0.28,3.968,0.872,5.896C410.544,33.48,416,52.816,416,72c0,14.16-24.864,22.392-33.576,24.16L408,168l17.936,7.76
		C450.168,169.704,496,145.232,496,96C496,44.464,452.92,12.088,439.72,3.392z"/>
	<path style="fill:#FFA64D;" d="M168,320c-17.648,0-32-14.352-32-32s14.352-32,32-32s32,14.352,32,32S185.648,320,168,320z"/>
	<path style="fill:#FFA64D;" d="M328,320c-17.648,0-32-14.352-32-32s14.352-32,32-32s32,14.352,32,32S345.648,320,328,320z"/>
</g>
<g>
	<path style="fill:#3F3A34;" d="M296,384h-96c-13.232,0-24,10.768-24,24v32c0,13.232,10.768,24,24,24h96c13.232,0,24-10.768,24-24
		v-32C320,394.768,309.232,384,296,384z M304,440c0,4.408-3.584,8-8,8h-8v-16h-16v16h-16v-16h-16v16h-16v-16h-16v16h-8
		c-4.416,0-8-3.592-8-8v-32c0-4.408,3.584-8,8-8h8v16h16v-16h16v16h16v-16h16v16h16v-16h8c4.416,0,8,3.592,8,8V440z"/>
	<path style="fill:#3F3A34;" d="M236.944,368h22.112C270.6,368,280,358.608,280,347.056c0-3.232-0.768-6.472-2.208-9.368
		l-11.056-22.112C263.16,308.44,255.984,304,248,304s-15.16,4.44-18.736,11.576l-11.056,22.112c-1.44,2.896-2.208,6.136-2.208,9.368
		C216,358.608,225.4,368,236.944,368z M232.52,344.84l11.056-22.104C244.424,321.048,246.12,320,248,320s3.576,1.048,4.424,2.736
		l11.056,22.112c0.344,0.68,0.52,1.448,0.52,2.208c0,2.728-2.216,4.944-4.944,4.944h-22.112c-2.728,0-4.944-2.216-4.944-4.944
		C232,346.296,232.176,345.528,232.52,344.84z"/>
	<path style="fill:#3F3A34;" d="M467.584,295.304C470.512,287.872,472,280.064,472,272c0-26.8-16.576-49.768-40-59.288V160h-17.904
		C402.328,77.44,332.28,16,248,16S93.672,77.44,81.904,160H64v52.712C40.576,222.232,24,245.2,24,272
		c0,8.064,1.488,15.872,4.416,23.304C10.28,311.968,0,335.216,0,360c0,44.448,33.472,81.816,77.096,87.232
		C86.112,467.032,105.96,480,128,480c8.528,0,16.824-1.96,24.4-5.632C162.72,487.528,178.728,496,196.456,496h103.096
		c17.728,0,33.736-8.472,44.056-21.632C351.176,478.04,359.472,480,368,480c22.04,0,41.888-12.968,50.904-32.768
		C462.528,441.816,496,404.448,496,360C496,335.216,485.72,311.968,467.584,295.304z M397.944,160H280v-16h16v-16h-16v-16h16V96h-16
		V80h16V64h-16V35.464C340.688,48.352,388.032,97.16,397.944,160z M264,32.888V160h-32V32.888C237.264,32.336,242.592,32,248,32
		C253.408,32,258.736,32.336,264,32.888z M216,35.464V64h-16v16h16v16h-16v16h16v16h-16v16h16v16H98.056
		C107.968,97.16,155.312,48.352,216,35.464z M80,208v-32h336v32H80z M232,224h32v48h-32V224z M128,464
		c-16.992,0-32.168-10.808-37.752-26.888l-0.136-0.4C88.744,432.632,88,428.36,88,424c0-7.912,2.304-15.552,6.664-22.112
		l-13.328-8.856C75.224,402.216,72,412.928,72,424c0,2.072,0.296,4.104,0.52,6.144C40.096,423.016,16,394.088,16,360
		c0-18.968,7.4-36.816,20.512-50.208c4.992,6.8,11.176,12.648,18.496,17.064l8.264-13.704c-7.832-4.72-14.056-11.536-18.144-19.68
		C41.744,286.728,40,279.504,40,272c0-23.736,17.336-43.448,40-47.28v93.072c0,28.84,17.128,54.824,43.64,66.176l8.304,3.56
		c2.752,1.176,4.592,3.752,4.824,6.736l3.848,50.016c0.432,5.672,1.752,11.096,3.76,16.16C139.256,462.76,133.704,464,128,464z
		 M299.544,480H196.456c-20.776,0-38.288-16.224-39.88-36.936l-3.848-50.016c-0.68-8.944-6.224-16.688-14.48-20.216l-8.304-3.56
		C109.32,360.432,96,340.232,96,317.8V224h120v64h64v-64h120v93.8c0,22.432-13.32,42.64-33.936,51.48l-8.304,3.552
		c-8.248,3.528-13.8,11.28-14.48,20.216l-3.848,50.016C337.832,463.776,320.32,480,299.544,480z M423.48,430.144
		c0.224-2.04,0.52-4.072,0.52-6.144c0-11.072-3.224-21.784-9.336-30.968l-13.328,8.856c4.36,6.56,6.664,14.2,6.664,22.112
		c0,4.36-0.744,8.632-2.112,12.712l-0.136,0.4C400.168,453.192,384.992,464,368,464c-5.704,0-11.256-1.24-16.376-3.544
		c2.008-5.072,3.328-10.488,3.76-16.16l3.848-50.024c0.224-2.976,2.072-5.552,4.824-6.736l8.304-3.56
		C398.872,372.616,416,346.64,416,317.8v-93.08c22.664,3.824,40,23.536,40,47.28c0,7.504-1.744,14.728-5.136,21.472
		c-4.088,8.144-10.312,14.96-18.144,19.68l8.264,13.704c7.32-4.416,13.512-10.264,18.496-17.064C472.6,323.184,480,341.032,480,360
		C480,394.088,455.904,423.016,423.48,430.144z"/>
</g>
<g>
</g>
<g>
</g>
<g>
</g>
<g>
</g>
<g>
</g>
<g>
</g>
<g>
</g>
<g>
</g>
<g>
</g>
<g>
</g>
<g>
</g>
<g>
</g>
<g>
</g>
<g>
</g>
<g>
</g>
</svg>
