<?xml version="1.0" encoding="iso-8859-1"?>
<!-- Generator: Adobe Illustrator 19.0.0, SVG Export Plug-In . SVG Version: 6.00 Build 0)  -->
<svg version="1.1" id="Layer_1" xmlns="http://www.w3.org/2000/svg" xmlns:xlink="http://www.w3.org/1999/xlink" x="0px" y="0px"
	 viewBox="0 0 512 512" style="enable-background:new 0 0 512 512;" xml:space="preserve">
<polygon style="fill:#CCBAB8;" points="256,512 417.391,512 417.391,445.217 222.609,389.565 "/>
<polygon style="fill:#DFD1D0;" points="256,512 94.609,512 94.609,445.217 256,389.565 "/>
<polygon style="fill:#FE4E8E;" points="256.083,66.783 197.395,256 256.083,445.217 417.391,445.217 417.391,66.783 "/>
<rect x="94.609" y="66.783" style="fill:#FF8C5C;" width="161.469" height="378.435"/>
<polygon style="fill:#CCBAB8;" points="256,0 233.823,133.565 289.391,133.565 289.391,0 "/>
<g>
	<polygon style="fill:#DFD1D0;" points="256,0 222.609,0 222.609,133.565 256.083,133.565 	"/>
	<polygon style="fill:#DFD1D0;" points="256.042,116.87 225.687,133.565 256.042,150.261 322.783,150.261 322.783,116.87 	"/>
</g>
<rect x="189.217" y="116.87" style="fill:#FFFFFF;" width="66.827" height="33.391"/>
<polygon style="fill:#FFC929;" points="349.626,276.718 284.932,267.319 256,208.696 236.585,322.35 256,356.362 313.864,386.783 
	302.813,322.35 "/>
<polygon style="fill:#FFD866;" points="227.068,267.319 162.374,276.718 209.186,322.35 198.136,386.783 256,356.362 256,208.696 
	"/>
<g>
</g>
<g>
</g>
<g>
</g>
<g>
</g>
<g>
</g>
<g>
</g>
<g>
</g>
<g>
</g>
<g>
</g>
<g>
</g>
<g>
</g>
<g>
</g>
<g>
</g>
<g>
</g>
<g>
</g>
</svg>
