<svg xmlns="http://www.w3.org/2000/svg" viewBox="0 0 512 512"><path d="M375.013 82.521c-3.128 0-6.22.152-9.274.433C352.603 35.134 308.824 0 256.833 0c-62.374 0-112.939 50.565-112.939 112.939 0 1.289.03 2.572.073 3.852a83.97 83.97 0 0 0-22.568-3.095c-46.359 0-83.94 37.581-83.94 83.94s37.581 83.94 83.94 83.94h253.616c54.967 0 99.528-44.56 99.528-99.528s-44.562-99.527-99.53-99.527z" fill="#f0eae5"/><path d="M388.544 268.046H134.929c-46.359 0-83.94-37.581-83.94-83.94 0-19.732 6.825-37.858 18.221-52.188-19.339 15.377-31.752 39.092-31.752 65.719 0 46.359 37.581 83.94 83.94 83.94h253.615c30.93 0 58.563-14.109 76.818-36.24-17.201 14.186-39.249 22.709-63.287 22.709z" opacity=".1"/><path d="M438.483 512H73.516c-7.372 0-13.349-5.976-13.349-13.349v-19.13c0-7.372 5.976-13.348 13.349-13.348h364.967c7.372 0 13.349 5.976 13.349 13.348v19.13c-.001 7.373-5.977 13.349-13.349 13.349z" fill="#00b7cf"/><path d="M281.766 489.624h-51.532c-12.951 0-23.45-10.498-23.45-23.45h98.432c-.001 12.95-10.5 23.45-23.45 23.45z" opacity=".2"/><path d="M395.358 254.761H116.64c-12.073 0-21.859 9.787-21.859 21.859v189.553h322.436V276.62c.001-12.073-9.786-21.859-21.859-21.859z" fill="#006375"/><path fill="#fff" d="M121.595 281.575h268.803v157.779H121.595z"/><circle cx="197.327" cy="374.315" r="14.571" fill="#72d9e8"/><circle cx="314.666" cy="374.315" r="14.571" fill="#ffdf52"/><path opacity=".15" d="M94.786 452.511h322.433v13.663H94.786z"/><path d="M203.044 140.307v153.151h-31.885c-4.744 0-7.227 5.638-4.023 9.138l70.19 76.681c3.857 4.213 10.497 4.213 14.354 0l70.19-76.681c3.204-3.499.721-9.138-4.023-9.138h-31.885l-.01-153.152c0-7.46-6.047-13.506-13.507-13.506h-55.891c-7.463-.001-13.51 6.047-13.51 13.507z" opacity=".1"/><path d="M214.541 128.425v153.151h-31.885c-4.745 0-7.227 5.638-4.023 9.138l70.19 76.681c3.857 4.213 10.497 4.213 14.354 0l70.19-76.681c3.204-3.499.721-9.138-4.023-9.138h-31.885l-.01-153.152c0-7.46-6.047-13.506-13.507-13.506h-55.893c-7.461 0-13.508 6.048-13.508 13.507z" fill="#dc6c84"/></svg>