<svg xmlns="http://www.w3.org/2000/svg" viewBox="0 0 512.002 512.002" width="512" height="512"><path d="M244.524 242.662c-63.608 0-115.357 51.75-115.357 115.357 0 63.608 51.75 115.358 115.357 115.358 63.608 0 115.358-51.75 115.358-115.358 0-63.607-51.75-115.357-115.358-115.357zm0 213.509c-54.121 0-98.15-44.031-98.15-98.151s44.031-98.15 98.15-98.15c54.121 0 98.151 44.031 98.151 98.15 0 54.121-44.031 98.151-98.151 98.151zM138.679 38.257H82.244V16.255a8.603 8.603 0 0 0-17.206 0v22.003H8.603C3.852 38.257 0 42.109 0 46.861s3.852 8.603 8.603 8.603h130.075a8.603 8.603 0 1 0 .001-17.207z" fill="#4ea6ec"/><path d="M503.397 68.863h-79.389V51.962a8.603 8.603 0 0 0-17.206 0v16.902h-79.388a8.603 8.603 0 0 0 0 17.206h79.388v78.586l-77.16 11.095v-9.017a8.603 8.603 0 0 0-8.603-8.603H168.008a8.603 8.603 0 0 0-8.603 8.603v9.017l-77.161-11.095V86.07h56.434a8.603 8.603 0 0 0 0-17.206H8.603a8.603 8.603 0 0 0 0 17.206h56.434v23.601H51.962a8.603 8.603 0 0 0 0 17.206h13.076v35.305l-9.301-1.338a8.603 8.603 0 0 0-9.74 7.292L34.75 246.398a8.602 8.602 0 0 0 7.291 9.739l22.998 3.308v184.043l-46.173 46.174a8.602 8.602 0 0 0 0 12.166c1.679 1.68 3.882 2.52 6.083 2.52s4.404-.84 6.083-2.52l34.007-34.007v27.923a8.603 8.603 0 0 0 17.206 0v-27.923l34.007 34.007a8.602 8.602 0 0 0 12.166 0 8.602 8.602 0 0 0 0-12.166l-46.174-46.174V261.921l46.523 6.692c-19.156 24.744-30.574 55.764-30.574 89.406 0 45.046 20.464 85.395 52.578 112.26l-8.191 22.527a8.602 8.602 0 0 0 5.145 11.025c.97.353 1.963.521 2.94.521a8.609 8.609 0 0 0 8.086-5.666l6.456-17.754c22.868 14.808 50.105 23.417 79.317 23.417 29.212 0 56.449-8.609 79.317-23.417l6.456 17.754a8.606 8.606 0 0 0 8.086 5.666c.976 0 1.97-.167 2.94-.521a8.602 8.602 0 0 0 5.145-11.025l-8.191-22.527c32.113-26.864 52.578-67.214 52.578-112.26 0-33.641-11.418-64.661-30.574-89.406l46.522-6.692v181.568l-46.173 46.173a8.602 8.602 0 0 0 0 12.166 8.602 8.602 0 0 0 12.166 0l34.007-34.007v27.923a8.603 8.603 0 0 0 17.206 0v-27.923l34.007 34.007a8.58 8.58 0 0 0 6.083 2.52c2.201 0 4.404-.84 6.083-2.52a8.602 8.602 0 0 0 0-12.166l-46.173-46.174V259.447l23-3.308a8.603 8.603 0 0 0 7.291-9.739l-11.249-78.262a8.605 8.605 0 0 0-9.74-7.292l-9.302 1.338v-35.305h13.076a8.603 8.603 0 0 0 0-17.206H424.01V86.07h79.389a8.603 8.603 0 1 0-.002-17.207zM65.038 242.061l-12.033-1.73 8.799-61.23 3.234.465v62.495zm111.573-66.724h135.822v2.888l-25.547 3.674a8.605 8.605 0 0 0-7.292 9.74l3.632 25.257a146.006 146.006 0 0 0-38.704-5.206c-13.395 0-26.37 1.818-38.703 5.206l3.632-25.257a8.603 8.603 0 0 0-7.292-9.74l-25.547-3.674v-2.888zm-94.367 69.2v-62.498l108.951 15.666-3.673 25.545c-16.843 7.151-32.073 17.376-44.999 29.958l-60.279-8.671zM373.647 358.02c0 71.198-57.926 129.123-129.123 129.123-71.199 0-129.122-57.924-129.122-129.123s57.924-129.122 129.122-129.122 129.123 57.924 129.123 129.122zm33.155-113.484l-60.278 8.672c-12.926-12.582-28.156-22.807-44.999-29.958l-3.673-25.545 108.95-15.666v62.497zm20.441-65.435l8.799 61.23-12.035 1.731v-62.497l3.236-.464z" fill="#4ea6ec"/></svg>