<svg xmlns="http://www.w3.org/2000/svg" viewBox="0 0 512 512"><g fill="#54e3e3"><path d="M248 144v8l-8 4c6.4 16.8 12 30.4 16 39.2 3.2-7.2 7.2-17.6 12-30.4l-4-4.8v-8l11.2-5.6c4-9.6 8-20 12-32-10.4-1.6-20.8-2.4-32-2.4s-21.6.8-32 2.4c3.2 8 5.6 15.2 8.8 21.6l16 8zM74.4 227.2c0-.8.8-1.6.8-2.4 0 .8 0 1.6-.8 2.4zm4.8-8.8c0-.8.8-1.6.8-2.4 0 .8-.8 1.6-.8 2.4zm4.8-8.8c.8-.8.8-1.6 1.6-2.4-.8 1.6-.8 2.4-1.6 2.4z"/><path d="M440 304l-16 8v-8l-16-8v-8l-8-8h-8l8 24 16 16h16l8 8-32 40v16l-8 16v16l-24 24h-16l-16-40v-24l-24-40-32 8-16-24 8-8-8-16 16-24 16-8h8l8-8h16l8 8 16 8 8-8 16 8 16-8-8-8h-8l-8-16-8 8v8h-8l-8-24h-8v8h-16l-24 8v-8l24-24h16l8-8h16l-8-16h-8l-8 8h-16v-8l16-8 16-16h24l8 16 13.6-4.8c-26.4-29.6-61.6-52-102.4-61.6-4 9.6-7.2 18.4-10.4 26.4H312l8 16-8 16-32 8-8 16-.8-.8c-5.6 13.6-8 19.2-8 20l-1.6 4.8c20 .8 34.4 8 34.4 16 0 8.8-17.6 16-40 16s-40-7.2-40-16c0-8 15.2-14.4 34.4-16l-2.4-4.8s-5.6-12.8-17.6-42.4L224 184l-8-8-8-8 8-8 11.2 5.6c-1.6-3.2-2.4-6.4-4-9.6l-7.2-4v-14.4c-2.4-6.4-4.8-12.8-8-20-34.4 8-64.8 25.6-89.6 48.8l16-3.2 24.8 14.4L176 176l8-8h16v16l-24 8 8 16v8h8l8-16 16-8 16 8v16l-24 8v8h-8l-24 32h-8v16h-8l-8-8h-16l-16 24 8 8 8-8h8l8 16v8l16 8 16-8 24 8v8h16l8 8 32 16v16l-8 32-16 8-8 24-8 8-8 16v16l-8 8h-8l-24-48 8-24v-16l-24-16-8-24 8-16-24-24-16-8-24-8v-16l-8-8h-8l-8-16v-30.4c-10.4 24-16 50.4-16 78.4 0 110.4 89.6 200 200 200s200-89.6 200-200c0-8-.8-15.2-1.6-22.4L440 304zM176 168h-16v-8l16-8 8 8-8 8zm-63.2 4l4-4c-1.6 1.6-2.4 3.2-4 4zm302.4 19.2c2.4 3.2 4.8 6.4 6.4 9.6-1.6-3.2-4-6.4-6.4-9.6zM424 204l4.8 7.2-4.8-7.2zm12.8 22.4c1.6 3.2 3.2 7.2 4.8 10.4-1.6-3.2-3.2-7.2-4.8-10.4zm-6.4-12c1.6 3.2 3.2 6.4 5.6 9.6-1.6-2.4-3.2-5.6-5.6-9.6zm20 52l2.4 12c0-4-.8-8-2.4-12zm-4-14.4c1.6 4 2.4 8.8 3.2 12.8-.8-4.8-1.6-8.8-3.2-12.8zm-4-12c1.6 3.2 2.4 7.2 4 11.2-1.6-4-2.4-8-4-11.2z"/><path d="M432 280h16l6.4 6.4c0-2.4-.8-4.8-.8-7.2L432 272v8zm-331.2-93.6l2.4-2.4c-1.6.8-1.6 1.6-2.4 2.4zm306.4-5.6c2.4 2.4 4 4.8 5.6 7.2-1.6-2.4-4-4.8-5.6-7.2zM94.4 193.6c.8-.8.8-1.6 1.6-2.4 0 .8-.8 1.6-1.6 2.4zm-4.8 8c.8-.8.8-1.6 1.6-2.4-.8.8-1.6 1.6-1.6 2.4zm16.8-22.4c.8-.8 1.6-2.4 3.2-3.2l-3.2 3.2z"/></g><g fill="#fff"><path d="M384 168h-24l-16 16-16 8v8h16l8-8h8l8 16h-16l-8 8h-16l-24 24v8l24-8h16v-8h8l8 24h8v-8l8-8 8 16h8l8 8-16 8-16-8-8 8-16-8-8-8h-16l-8 8h-8l-16 8-16 24 8 16-8 8 16 24 32-8 24 40v24l16 40h16l24-24v-16l8-16v-16l32-40-8-8h-16l-16-16-8-24h8l8 8v8l16 8v8l16-8 14.4-14.4 1.6-1.6-1.6-1.6-6.4-6.4h-16v-8l21.6 7.2v-.8l-2.4-12c0-.8 0-1.6-.8-1.6-.8-4-2.4-8.8-3.2-12.8v-.8c-.8-4-2.4-7.2-4-11.2 0-.8-.8-2.4-1.6-3.2-1.6-3.2-3.2-7.2-4.8-10.4 0-.8-.8-.8-.8-1.6-1.6-3.2-3.2-6.4-5.6-9.6-.8-1.6-1.6-2.4-2.4-4l-4.8-7.2c-.8-.8-1.6-2.4-2.4-3.2-2.4-3.2-4-6.4-6.4-9.6-.8-.8-1.6-2.4-2.4-3.2-1.6-2.4-4-4.8-5.6-7.2l-1.6-1.6L392 184l-8-16zM80 280h8l8 8v16l24 8 16 8 24 24-8 16 8 24 24 16v16l-8 24 24 48h8l8-8v-16l8-16 8-8 8-24 16-8 8-32v-16l-32-16-8-8h-16v-8l-24-8-16 8-16-8v-8l-8-16h-8l-8 8-8-8 16-24h16l8 8h8v-16h8l24-32h8v-8l24-8v-16l-16-8-16 8-8 16h-8v-8l-8-16 24-8v-16h-16l-8 8-16.8 1.6-24.8-14.4-16 3.2-1.6 1.6-4 4c-.8.8-2.4 2.4-3.2 4-.8.8-1.6 2.4-3.2 3.2-1.6 1.6-2.4 3.2-4 4.8l-2.4 2.4c-1.6 1.6-3.2 3.2-4 5.6-.8.8-.8 1.6-1.6 2.4-1.6 1.6-3.2 4-4 5.6-.8.8-.8 1.6-1.6 2.4-1.6 2.4-2.4 4-4 6.4-.8.8-.8 1.6-1.6 2.4-1.6 2.4-2.4 4-4 6.4-.8.8-.8 1.6-1.6 2.4-.8 2.4-2.4 4-3.2 6.4 0 .8-.8 1.6-.8 2.4-.8 2.4-1.6 4-2.4 6.4V264l8.8 16z"/><path d="M160 160v8h16l8-8-8-8zm56 0l-8 8 8 8 8 8 7.2-7.2c-1.6-3.2-3.2-7.2-4.8-11.2L216 160zm56 40l8-16 32-8 8-16-8-16h-18.4c-10.4 25.6-17.6 43.2-21.6 56zm-8-40l4 4c2.4-5.6 4.8-11.2 7.2-17.6L264 152v8zm-48-8l7.2 3.2c-2.4-5.6-4.8-12-7.2-18.4V152zm32-8l-15.2-8c2.4 7.2 5.6 13.6 8 19.2l8-4V144h-.8z"/></g><path d="M250.4 224c-20 .8-34.4 8-34.4 16 0 8.8 17.6 16 40 16s40-7.2 40-16c0-8-15.2-14.4-34.4-16l-5.6 12.8-5.6-12.8z" fill="#1ccaca"/><path d="M223.2 155.2c1.6 3.2 2.4 6.4 4 9.6 1.6 4 3.2 8 4.8 11.2 12 29.6 16.8 42.4 17.6 42.4l2.4 4.8 5.6 12 5.6-12 2.4-4.8s2.4-6.4 8-20c4.8-12 12-30.4 21.6-55.2 3.2-8 6.4-16.8 10.4-26.4 3.2-7.2 5.6-15.2 8.8-23.2 1.6-8 5.6-18.4 5.6-29.6 0-35.2-28.8-64-64-64s-64 28.8-64 64c0 11.2 4 21.6 7.2 31.2 3.2 8 6.4 16 8.8 23.2 2.4 7.2 5.6 13.6 8 20l7.2 16.8zm-8.8-66.4c-3.2-8-6.4-16.8-6.4-24.8 0-26.4 21.6-48 48-48s48 21.6 48 48c0 8-3.2 16.8-6.4 24.8-3.2 8.8-6.4 17.6-9.6 25.6-4.8 12-8.8 22.4-12 32-2.4 6.4-4.8 12.8-7.2 17.6-4.8 12.8-9.6 23.2-12 30.4-4-8.8-8.8-21.6-16-39.2-2.4-5.6-4.8-12.8-8-19.2-2.4-6.4-5.6-14.4-8.8-21.6-3.2-8-6.4-16-9.6-25.6z" fill="#2b2b2b"/><circle cx="256" cy="64" r="28" fill="#ff661a"/><path d="M160 56h16v16h-16zm-32 0h16v16h-16zm-32 0h16v16H96zm304 0h16v16h-16zm-32 0h16v16h-16zm-32 0h16v16h-16z" fill="#2b2b2b"/></svg>