<svg xmlns="http://www.w3.org/2000/svg" viewBox="0 0 480.314 480.314"><path d="M412.8 194.157c0 2.4-1.6 4-4 4s-4-1.6-4-4v-140c0-2.4 1.6-4 4-4s4 1.6 4 4v140z" fill="#abb3b7"/><path d="M408.8 50.157c2.4 0 4 1.6 4 4v140c0 2.4-1.6 4-4 4s-4-1.6-4-4" fill="#979b9e"/><path d="M332.8 112.557c0 29.6-24 53.6-53.6 53.6h-16.8c-29.6 0-53.6-24-53.6-53.6v-45.6c0-29.6 24-53.6 53.6-53.6h16.8c29.6 0 53.6 24 53.6 53.6v45.6z" fill="#299eff"/><path d="M262.4 13.357h16.8c29.6 0 53.6 24 53.6 53.6v45.6c0 29.6-24 53.6-53.6 53.6h-16.8c-29.6 0-53.6-24-53.6-53.6" fill="#1881ea"/><path d="M262.4 69.357c-28 0-50.4 20.8-53.6 48 3.2 27.2 25.6 48 53.6 48h16.8c28 0 50.4-20.8 53.6-48-3.2-27.2-25.6-48-53.6-48h-16.8z" fill="#0662c6"/><path d="M208.8 118.157c3.2 27.2 25.6 48 53.6 48h16.8c28 0 50.4-20.8 53.6-48" fill="#175abc"/><path d="M145.6 112.557c0 29.6-24 53.6-53.6 53.6H75.2c-29.6 0-53.6-24-53.6-53.6v-45.6c0-29.6 24-53.6 53.6-53.6H92c29.6 0 53.6 24 53.6 53.6v45.6z" fill="#299eff"/><path d="M75.2 13.357H92c29.6 0 53.6 24 53.6 53.6v45.6c0 29.6-24 53.6-53.6 53.6H75.2c-29.6 0-53.6-24-53.6-53.6" fill="#1881ea"/><path d="M75.2 69.357c-28 0-50.4 20.8-53.6 48 3.2 27.2 25.6 48 53.6 48H92c28 0 50.4-20.8 53.6-48-3.2-27.2-25.6-48-53.6-48H75.2z" fill="#0662c6"/><path d="M21.6 118.157c3.2 27.2 25.6 48 53.6 48H92c28 0 50.4-20.8 53.6-48" fill="#175abc"/><path d="M232 51.757c0 4-3.2 7.2-8 7.2h-41.6c-4 0-7.2-3.2-7.2-7.2s3.2-7.2 7.2-7.2H224c4.8-.8 8 3.2 8 7.2z" fill="#abb3b7"/><path d="M232 51.757c0 4-3.2 7.2-8 7.2h-41.6c-4 0-7.2-3.2-7.2-7.2" fill="#979b9e"/><path d="M179.2 51.757c0 4-3.2 7.2-7.2 7.2h-41.6c-4 0-7.2-3.2-7.2-7.2s3.2-7.2 7.2-7.2H172c4-.8 7.2 3.2 7.2 7.2z" fill="#abb3b7"/><path d="M179.2 51.757c0 4-3.2 7.2-7.2 7.2h-41.6c-4 0-7.2-3.2-7.2-7.2" fill="#979b9e"/><path d="M51.2 388.557c-4-1.6-8.8.8-10.4 5.6l-16 51.2c-.8 4.8 1.6 9.6 5.6 10.4h2.4c3.2 0 7.2-2.4 8-5.6l16-51.2c1.6-4-.8-8.8-5.6-10.4z" fill="#838587"/><path d="M30.4 455.757h2.4c3.2 0 7.2-2.4 8-5.6l16-51.2c1.6-4-.8-8.8-5.6-10.4-4-1.6-8.8.8-10.4 5.6" fill="#696a6b"/><path d="M42.4 455.757c0 5.6-4.8 10.4-10.4 10.4H18.4c-5.6 0-7.2-4.8-7.2-10.4 0-5.6 4.8-10.4 10.4-10.4H32c6.4.8 10.4 4.8 10.4 10.4z" fill="#067eea"/><path d="M32 446.157c5.6 0 10.4 4.8 10.4 10.4 0 5.6-4.8 10.4-10.4 10.4H18.4c-5.6 0-7.2-4.8-7.2-10.4" fill="#0662c6"/><path d="M303.2 388.557c4-1.6 8.8.8 10.4 5.6l16 51.2c1.6 4-.8 8.8-5.6 10.4h-2.4c-3.2 0-7.2-2.4-8-5.6l-16-51.2c-1.6-4 .8-8.8 5.6-10.4z" fill="#838587"/><path d="M324 455.757h-2.4c-3.2 0-7.2-2.4-8-5.6l-16-51.2c-1.6-4 .8-8.8 5.6-10.4 4-1.6 8.8.8 10.4 5.6" fill="#696a6b"/><path d="M312 455.757c0 5.6 4.8 10.4 10.4 10.4H336c5.6 0 7.2-4.8 7.2-10.4 0-5.6-4.8-10.4-10.4-10.4h-10.4c-6.4.8-10.4 4.8-10.4 10.4z" fill="#067eea"/><path d="M322.4 446.157c-5.6 0-10.4 4.8-10.4 10.4 0 5.6 4.8 10.4 10.4 10.4H336c5.6 0 7.2-4.8 7.2-10.4" fill="#0662c6"/><path d="M337.6 289.357c0 88.8-72 160.8-160.8 160.8s-160.8-72-160.8-160.8 72-160.8 160.8-160.8c88.8 0 160.8 72 160.8 160.8z" fill="#efeed5"/><path d="M64 175.757c62.4-62.4 164.8-62.4 227.2 0s62.4 164.8 0 227.2" fill="#dddabf"/><path d="M177.6 186.157c79.2 0 144.8 56.8 157.6 132 1.6-9.6 2.4-19.2 2.4-28.8 0-88.8-72-160.8-160.8-160.8s-160.8 72-160.8 160.8c0 9.6.8 19.2 2.4 28.8 14.4-75.2 80-132 159.2-132z" fill="#ccc8a8"/><path d="M177.6 466.157c-98.4 0-177.6-79.2-177.6-176.8s79.2-177.6 177.6-177.6c97.6 0 177.6 79.2 177.6 177.6-.8 97.6-80 176.8-177.6 176.8zm0-320.8c-79.2 0-144 64.8-144 144s64.8 144 144 144 144-64.8 144-144-64.8-144-144-144z" fill="#1881ea"/><path d="M177.6 145.357c79.2 0 144 64.8 144 144 0 5.6 0 11.2-.8 16.8.8 5.6.8 11.2.8 16.8 0 79.2-64.8 144-144 144 92 0 168-70.4 176-160.8-8-90.4-84-160.8-176-160.8zm-144 177.6c0-5.6 0-11.2.8-16.8-.8-5.6-.8-11.2-.8-16.8 0-79.2 64.8-144 144-144-92 0-168 70.4-176.8 160.8 8.8 89.6 84 160.8 176.8 160.8-80-.8-144-64.8-144-144z" fill="#0662c6"/><circle cx="234.4" cy="346.957" r="35.2" fill="#dddabf"/><circle cx="234.4" cy="346.957" r="35.2" fill="#3a382d"/><path d="M234.4 337.357c-15.2 0-27.2 9.6-32.8 22.4 4.8 12.8 17.6 22.4 32.8 22.4 15.2 0 27.2-9.6 32.8-22.4-4.8-13.6-17.6-22.4-32.8-22.4z" fill="#5b594d"/><path d="M168.8 112.557v33.6c2.4 0 5.6-.8 8-.8 3.2 0 5.6 0 8 .8v-33.6c-2.4 0-5.6-.8-8-.8-2.4 0-4.8.8-8 .8z" fill="#0662c6"/><path d="M185.6 120.557c0 4.8-4 4-8 4-4.8 0-8 .8-8-4v-74.4c0-4.8 4-8 8-8 4.8 0 8 4 8 8v74.4z" fill="#838587"/><path d="M416.8 458.957c0 4-3.2 8-8 8-4 0-8-3.2-8-8v-252c0-4 3.2-8 8-8 4 0 8 3.2 8 8v252z" fill="#979b9e"/><path d="M408.8 229.357h8v-22.4c0-4-3.2-7.2-7.2-8H408c-4 .8-7.2 4-7.2 8v22.4h8z" fill="#878787"/><g fill="#838587"><path d="M439.2 453.357c3.2 3.2 3.2 8 0 11.2-3.2 3.2-8 3.2-11.2 0l-24.8-24.8c-3.2-3.2-3.2-8 0-11.2 3.2-3.2 8-3.2 11.2 0l24.8 24.8z"/><path d="M378.4 453.357c-3.2 3.2-3.2 8 0 11.2 3.2 3.2 8 3.2 11.2 0l24.8-24.8c3.2-3.2 3.2-8 0-11.2-3.2-3.2-8-3.2-11.2 0l-24.8 24.8z"/></g><path d="M476 189.357H341.6c-1.6 0-3.2.8-4 3.2-.8 1.6 0 3.2 1.6 4.8 3.2 2.4 32.8 22.4 69.6 22.4s66.4-20 69.6-22.4c1.6-1.6 1.6-4 1.6-5.6-.8-1.6-2.4-2.4-4-2.4z" fill="#ffac1a"/><path d="M408.8 218.957c36.8 0 66.4-20 69.6-22.4 1.6-.8 1.6-3.2 1.6-4.8-.8-1.6-2.4-3.2-4-3.2H368" fill="#f28f0c"/><path d="M341.6 178.157H476c1.6 0 3.2-.8 4-3.2.8-1.6 0-3.2-1.6-4.8-3.2-2.4-32.8-22.4-69.6-22.4s-66.4 20-69.6 22.4c-1.6.8-2.4 3.2-1.6 4.8.8 2.4 2.4 3.2 4 3.2z" fill="#ffac1a"/><path d="M408.8 147.757c-36.8 0-66.4 20-69.6 22.4-1.6.8-2.4 3.2-1.6 4.8s2.4 3.2 4 3.2h108" fill="#f28f0c"/><path d="M423.2 124.557c0 4.8-4 8-8 8h-12.8c-4.8 0-8-4-8-8 0-4.8 4-8 8-8h12.8c4 0 8 3.2 8 8z" fill="#838587"/><path d="M435.2 128.557c0 2.4-1.6 4-4 4s-4-1.6-4-4v-8c0-2.4 1.6-4 4-4s4 1.6 4 4v8z" fill="#abb3b7"/></svg>