<svg xmlns="http://www.w3.org/2000/svg" viewBox="0 0 496 496"><path d="M224 136h48v144h-48zM48.48 63.912C47.616 54.84 40.056 48 30.888 48c-7.656 0-14.4 4.864-16.784 12.128-7.28 22.24-28.632 98.568 2.176 147.168 14.52 22.912 38.32 36.592 70.728 40.64L144 160c-77.912 0-92.76-67.192-95.52-96.088zm433.416-3.792C479.512 52.864 472.768 48 465.112 48c-9.168 0-16.728 6.84-17.584 15.904C444.76 92.808 429.912 160 352 160l56.992 87.936c32.408-4.048 56.2-17.728 70.728-40.64 30.808-48.6 9.456-124.928 2.176-147.176z" fill="#ffa64d"/><g fill="#3f3a34"><path d="M439.376 320.424C435.56 284.56 409.592 128 248 128S60.44 284.56 56.624 320.424C24.8 324.088 0 351.2 0 384c0 35.288 28.712 64 64 64h368c35.288 0 64-28.712 64-64 0-32.8-24.8-59.912-56.624-63.576zM192 272H82.768a248.67 248.67 0 0 1 5.488-16H192v16zm0 16v25.992c-17.16-6.616-35.896-9.992-56-9.992-31.328 0-53.44 9.28-63.064 14.272.856-7.2 2.488-17.776 5.472-30.272H192zm16 0h32v24.704c-10.392 1.136-20.568 4.384-29.584 9.944-.792-.448-1.616-.832-2.416-1.256V288zm48 0h32v33.392c-.8.432-1.624.816-2.416 1.264-9.024-5.56-19.192-8.808-29.584-9.944V288zm48 0h80v-16h-80v-16h103.744a248.67 248.67 0 0 1 5.488 16h-13.24v16h17.6c2.984 12.496 4.616 23.072 5.48 30.272C413.44 313.28 391.328 304 360 304c-20.104 0-38.84 3.376-56 9.992V288zm94.624-52.864c.816 1.624 1.544 3.248 2.312 4.864H304v-16h16v-16h-16v-16h16v-16h-16v-24.104c41.352 12.632 73.088 40.424 94.624 83.24zM288 147.856V272h-80V147.856c12.56-2.52 25.872-3.856 40-3.856s27.44 1.336 40 3.856zm-96 4.04V176h-16v16h16v16h-16v16h16v16H95.064c.768-1.624 1.496-3.248 2.312-4.864 21.536-42.816 53.272-70.608 94.624-83.24zM432 432H64c-26.472 0-48-21.528-48-48s21.528-48 48-48 48 21.528 48 48h16c0-24.824-14.24-46.344-34.952-56.952C103.248 323.48 117.816 320 136 320c26.432 0 50.136 6.36 70.464 18.896l4.544 2.808 4.336-3.128c19.2-13.832 46.112-13.832 65.312 0l4.336 3.128 4.544-2.808C309.864 326.36 333.568 320 360 320c18.056 0 32.656 3.496 42.896 7.072C382.208 337.688 368 359.2 368 384h16c0-26.472 21.528-48 48-48s48 21.528 48 48-21.528 48-48 48z"/><path d="M248 200c13.232 0 24-10.768 24-24s-10.768-24-24-24-24 10.768-24 24 10.768 24 24 24zm0-32c4.416 0 8 3.592 8 8s-3.584 8-8 8-8-3.592-8-8 3.584-8 8-8zm0 48c-13.232 0-24 10.768-24 24s10.768 24 24 24 24-10.768 24-24-10.768-24-24-24zm0 32c-4.416 0-8-3.592-8-8s3.584-8 8-8 8 3.592 8 8-3.584 8-8 8zM69.024 210.824l5.92-14.856c-4.088-1.632-7.688-3.672-10.704-6.088l-9.984 12.496c4.248 3.4 9.224 6.24 14.768 8.448zm-12.2-29.232c-4.768-7.512-7.904-18.24-8.84-30.216l-15.952 1.248c1.144 14.528 5.152 27.856 11.28 37.536l13.512-8.568z"/></g></svg>