<svg xmlns="http://www.w3.org/2000/svg" viewBox="0 0 496 496"><path d="M80 72c0-19.184 5.456-38.52 7.136-44.008.584-1.92.864-3.848.864-5.888v-1.672C88 9.168 78.832 0 67.568 0A20.408 20.408 0 0 0 56.28 3.4C43.08 12.088 0 44.464 0 96c0 49.232 45.832 73.704 70.064 79.76L88 168l25.576-71.84C104.864 94.392 80 86.16 80 72zM439.72 3.392A20.465 20.465 0 0 0 428.432 0C417.168 0 408 9.168 408 20.432v1.672c0 2.04.28 3.968.872 5.896C410.544 33.48 416 52.816 416 72c0 14.16-24.864 22.392-33.576 24.16L408 168l17.936 7.76C450.168 169.704 496 145.232 496 96c0-51.536-43.08-83.912-56.28-92.608zM168 320c-17.648 0-32-14.352-32-32s14.352-32 32-32 32 14.352 32 32-14.352 32-32 32zm160 0c-17.648 0-32-14.352-32-32s14.352-32 32-32 32 14.352 32 32-14.352 32-32 32z" fill="#ffa64d"/><g fill="#3f3a34"><path d="M296 384h-96c-13.232 0-24 10.768-24 24v32c0 13.232 10.768 24 24 24h96c13.232 0 24-10.768 24-24v-32c0-13.232-10.768-24-24-24zm8 56c0 4.408-3.584 8-8 8h-8v-16h-16v16h-16v-16h-16v16h-16v-16h-16v16h-8c-4.416 0-8-3.592-8-8v-32c0-4.408 3.584-8 8-8h8v16h16v-16h16v16h16v-16h16v16h16v-16h8c4.416 0 8 3.592 8 8v32zm-67.056-72h22.112C270.6 368 280 358.608 280 347.056a21.16 21.16 0 0 0-2.208-9.368l-11.056-22.112C263.16 308.44 255.984 304 248 304s-15.16 4.44-18.736 11.576l-11.056 22.112a21.16 21.16 0 0 0-2.208 9.368c0 11.552 9.4 20.944 20.944 20.944zm-4.424-23.16l11.056-22.104c.848-1.688 2.544-2.736 4.424-2.736s3.576 1.048 4.424 2.736l11.056 22.112a4.947 4.947 0 0 1-4.424 7.152h-22.112a4.947 4.947 0 0 1-4.424-7.16z"/><path d="M467.584 295.304A63.185 63.185 0 0 0 472 272c0-26.8-16.576-49.768-40-59.288V160h-17.904C402.328 77.44 332.28 16 248 16S93.672 77.44 81.904 160H64v52.712C40.576 222.232 24 245.2 24 272a63.185 63.185 0 0 0 4.416 23.304C10.28 311.968 0 335.216 0 360c0 44.448 33.472 81.816 77.096 87.232C86.112 467.032 105.96 480 128 480c8.528 0 16.824-1.96 24.4-5.632C162.72 487.528 178.728 496 196.456 496h103.096c17.728 0 33.736-8.472 44.056-21.632C351.176 478.04 359.472 480 368 480c22.04 0 41.888-12.968 50.904-32.768C462.528 441.816 496 404.448 496 360c0-24.784-10.28-48.032-28.416-64.696zM397.944 160H280v-16h16v-16h-16v-16h16V96h-16V80h16V64h-16V35.464C340.688 48.352 388.032 97.16 397.944 160zM264 32.888V160h-32V32.888c5.264-.552 10.592-.888 16-.888 5.408 0 10.736.336 16 .888zm-48 2.576V64h-16v16h16v16h-16v16h16v16h-16v16h16v16H98.056C107.968 97.16 155.312 48.352 216 35.464zM80 208v-32h336v32H80zm152 16h32v48h-32v-48zM128 464c-16.992 0-32.168-10.808-37.752-26.888l-.136-.4C88.744 432.632 88 428.36 88 424a39.803 39.803 0 0 1 6.664-22.112l-13.328-8.856C75.224 402.216 72 412.928 72 424c0 2.072.296 4.104.52 6.144C40.096 423.016 16 394.088 16 360c0-18.968 7.4-36.816 20.512-50.208 4.992 6.8 11.176 12.648 18.496 17.064l8.264-13.704c-7.832-4.72-14.056-11.536-18.144-19.68C41.744 286.728 40 279.504 40 272c0-23.736 17.336-43.448 40-47.28v93.072a71.904 71.904 0 0 0 43.64 66.176l8.304 3.56a7.96 7.96 0 0 1 4.824 6.736l3.848 50.016c.432 5.672 1.752 11.096 3.76 16.16-5.12 2.32-10.672 3.56-16.376 3.56zm171.544 16H196.456c-20.776 0-38.288-16.224-39.88-36.936l-3.848-50.016a23.879 23.879 0 0 0-14.48-20.216l-8.304-3.56A55.934 55.934 0 0 1 96 317.8V224h120v64h64v-64h120v93.8a55.95 55.95 0 0 1-33.936 51.48l-8.304 3.552a23.903 23.903 0 0 0-14.48 20.216l-3.848 50.016C337.832 463.776 320.32 480 299.544 480zm123.936-49.856c.224-2.04.52-4.072.52-6.144 0-11.072-3.224-21.784-9.336-30.968l-13.328 8.856A39.803 39.803 0 0 1 408 424c0 4.36-.744 8.632-2.112 12.712l-.136.4C400.168 453.192 384.992 464 368 464c-5.704 0-11.256-1.24-16.376-3.544 2.008-5.072 3.328-10.488 3.76-16.16l3.848-50.024a7.965 7.965 0 0 1 4.824-6.736l8.304-3.56A71.913 71.913 0 0 0 416 317.8v-93.08c22.664 3.824 40 23.536 40 47.28 0 7.504-1.744 14.728-5.136 21.472-4.088 8.144-10.312 14.96-18.144 19.68l8.264 13.704c7.32-4.416 13.512-10.264 18.496-17.064C472.6 323.184 480 341.032 480 360c0 34.088-24.096 63.016-56.52 70.144z"/></g></svg>