<svg xmlns="http://www.w3.org/2000/svg" viewBox="0 0 511.999 511.999"><path d="M377.867 292.853h-.452V218.77h43.53v31.005c-.001 23.791-19.287 43.078-43.078 43.078zm-243.735 0h.452V218.77h-43.53v31.005c.001 23.791 19.286 43.078 43.078 43.078z" fill="#ffdac5"/><path d="M397.961 254.714h-20.542c-4.329 0-7.837-3.509-7.837-7.837s3.508-7.837 7.837-7.837h20.542a7.837 7.837 0 1 1 0 15.674zm-263.376 0h-20.543a7.837 7.837 0 0 1 0-15.674h20.543a7.837 7.837 0 0 1 0 15.674z" fill="#efc1ab"/><path d="M392.844 511.341v-47.916c0-42.12-19.028-79.799-48.964-104.897H168.118c-29.936 25.098-48.964 62.777-48.964 104.897v47.916" fill="#4bc999"/><path d="M218.179 358.528h-50.061c-29.936 25.098-48.964 62.777-48.964 104.897v47.916h50.061v-47.916c-.001-42.121 19.028-79.799 48.964-104.897z" fill="#41b787"/><path d="M300.928 379.036v30.48c0 14.629-11.86 26.488-26.488 26.488h-36.885c-14.629 0-26.488-11.86-26.488-26.488v-30.48m151.082-266.198H149.847C166.722 71.774 202.322 31.075 255.998 0c53.676 31.075 89.276 71.774 106.151 112.838z" fill="#ff525d"/><path d="M382.637 218.77v58.525c0 13.699-2.173 26.164-6.217 37.334-11.494 31.953-38.128 53.415-72.255 63.477-14.848 4.399-31.117 6.635-48.17 6.635-69.945 0-126.641-37.512-126.641-107.447V218.77c0-4.106.199-8.171.585-12.183l56.027-58.744 105.451-9.791 90.634 68.535c.388 4.012.586 8.076.586 12.183z" fill="#ffdac5"/><g fill="#efc1ab"><path d="M376.42 314.629c-11.494 31.953-38.128 53.415-72.255 63.477 2.717-51.973-35.025-83.644-47.877-111.48l92.891-11.389 27.241 59.392z"/><path d="M171.219 277.294V218.77c0-4.106.199-8.171.585-12.183l56.027-58.749 67.766-6.291-4.627-3.499-105.455 9.791-56.027 58.749a126.877 126.877 0 0 0-.585 12.183v58.525c0 69.935 56.696 107.447 126.641 107.447 7.211 0 14.277-.405 21.158-1.196-59.87-6.89-105.483-43.527-105.483-106.253z"/></g><path d="M331.385 406.747s12.539-96.13-43.206-115.304c-8.255-2.842-15.109-6.99-20.793-12.016-32.747-28.881-26.927-86.382-26.927-86.382l16.436-10.846 35.432-23.395 90.133 53.331s.188-5.548.188 65.16-51.263 129.452-51.263 129.452z" fill="#ffd15c"/><path d="M267.385 279.426c-32.747-28.881-26.927-86.382-26.927-86.382l16.436-10.846 23.27 11.254s-28.734 34.868-12.779 85.974z" fill="#edbb4c"/><path d="M210.326 100.623c-.956 5.708 25.527 8.213 23.761 12.215h-84.24C166.722 71.774 202.322 31.075 255.998 0c0 0-36.036 43.123-45.672 100.623z" fill="#ef4152"/><path d="M392.827 142.169v55.292c0 8.803-8.458 15.178-16.9 12.679a422.608 422.608 0 0 0-181.369-12.894 422.294 422.294 0 0 0-58.482 12.889c-8.444 2.5-16.907-3.87-16.907-12.677v-55.299c0-12.873 8.495-24.252 20.877-27.784a424.478 424.478 0 0 1 54.847-11.786 422.453 422.453 0 0 1 177.058 11.786c12.381 3.531 20.876 14.91 20.876 27.794z" fill="#4bc999"/><path d="M194.558 197.245a422.294 422.294 0 0 0-58.482 12.889c-8.444 2.5-16.907-3.87-16.907-12.677v-55.299c0-12.873 8.495-24.252 20.877-27.784a424.478 424.478 0 0 1 54.847-11.786l.042.01c-.001 0-26.269 45.317-.377 94.647z" fill="#41b787"/><path d="M197.251 280.16a7.837 7.837 0 0 1-7.837-7.837v-16.292a7.837 7.837 0 0 1 15.674 0v16.292a7.837 7.837 0 0 1-7.837 7.837z" fill="#313344"/><path d="M165.518 202.563c-.094 1.014-5.454 59.308-36.164 74.731V218.77c0-2.226.063-4.441.178-6.635a417.824 417.824 0 0 1 35.986-9.572z" fill="#edbb4c"/><path d="M257.81 336.509c-10.458 0-20.917-3.981-28.878-11.942a7.837 7.837 0 0 1 11.082-11.082c9.812 9.812 25.778 9.813 35.589 0a7.838 7.838 0 0 1 11.083 11.082c-7.961 7.962-18.418 11.942-28.876 11.942z" fill="#ce5b6c"/><g fill="#ff525d"><path d="M242.269 168.57a7.81 7.81 0 0 1-5.541-2.296 7.835 7.835 0 0 1 0-11.082l27.463-27.464a7.837 7.837 0 0 1 11.083 11.082l-27.464 27.464a7.812 7.812 0 0 1-5.541 2.296z"/><path d="M269.733 168.57a7.813 7.813 0 0 1-5.542-2.296l-27.463-27.464a7.835 7.835 0 0 1 0-11.082 7.835 7.835 0 0 1 11.082 0l27.464 27.464a7.837 7.837 0 0 1-5.541 13.378zm-115.394 12.402a7.788 7.788 0 0 1-4.542-1.457 7.836 7.836 0 0 1-1.832-10.93l22.546-31.627a7.835 7.835 0 0 1 10.93-1.832 7.836 7.836 0 0 1 1.832 10.93l-22.546 31.627a7.826 7.826 0 0 1-6.388 3.289z"/><path d="M181.425 176.432a7.788 7.788 0 0 1-4.542-1.457l-31.627-22.546a7.836 7.836 0 0 1-1.832-10.93 7.835 7.835 0 0 1 10.93-1.832l31.627 22.546a7.836 7.836 0 0 1-4.556 14.219zm176.239 4.54a7.83 7.83 0 0 1-6.389-3.288l-22.545-31.627a7.838 7.838 0 0 1 12.764-9.098l22.545 31.627a7.836 7.836 0 0 1-6.375 12.386z"/><path d="M330.579 176.432a7.836 7.836 0 0 1-4.555-14.218l31.627-22.546a7.838 7.838 0 0 1 9.098 12.762l-31.627 22.546a7.818 7.818 0 0 1-4.543 1.456z"/></g><path fill="#41b787" d="M248.162 436.004h15.673v75.995h-15.673z"/><path d="M284.729 472.26c-7.177 0-10.571-9.356-4.941-13.909 2.436-1.97 5.869-2.286 8.638-.837 3.042 1.592 4.679 5.176 3.971 8.522-.76 3.586-3.996 6.224-7.668 6.224zm0 31.525c-7.039 0-10.492-9.028-5.187-13.713 5.336-4.714 13.987-.071 12.938 7.006-.562 3.792-3.901 6.707-7.751 6.707zm-57.47-31.525c-7.105 0-10.512-9.173-5.089-13.794 5.539-4.719 14.202.358 12.769 7.493-.726 3.618-3.981 6.301-7.68 6.301zm0 31.525c-7.003 0-10.457-8.953-5.262-13.647 2.588-2.339 6.502-2.67 9.449-.812 2.714 1.711 4.124 5 3.493 8.148-.723 3.615-3.98 6.311-7.68 6.311z" fill="#ffd15c"/><ellipse cx="179.983" cy="301.975" rx="17.241" ry="10.449" fill="#fcb997"/></svg>