<svg xmlns="http://www.w3.org/2000/svg" viewBox="0 0 512.002 512.002"><path d="M119.287 388.062a15.997 15.997 0 0 1-7.28-13.439V31.999h287.987v342.624a15.994 15.994 0 0 1-7.28 13.439L256 476.858l-136.713-88.796z" fill="#bd6428"/><path d="M387.995 103.995c-6.624 0-11.999 5.376-11.999 11.999v73.197a10.795 10.795 0 0 1-10.799 10.799h-1.2c-6.584-.048-11.951 5.256-11.999 11.839v73.357a10.795 10.795 0 0 1-10.799 10.799h-1.12c-6.624-.048-12.031 5.296-12.079 11.919v36.078a104.96 104.96 0 0 1-47.998 87.996 53.293 53.293 0 0 0-23.999 44.638l136.714-88.556a15.989 15.989 0 0 0 7.28-12.079V103.995h-12.002z" fill="#a35623"/><circle cx="255.985" cy="375.982" r="8" fill="#2e485d"/><path d="M112.008 31.999v231.989h11.999c6.624 0 11.999-5.376 11.999-11.999v-81.196c.16-6.136 5.272-10.983 11.415-10.815.144 0 .288.008.424.016 6.624.088 12.071-5.216 12.159-11.839V87.996c0-17.671 14.327-31.999 31.998-31.999h151.993c13.255 0 23.999-10.743 23.999-23.999H112.008z" fill="#d17f4d"/><circle cx="343.981" cy="87.996" r="8" fill="#2e485d"/><path d="M399.994 0H112.008C94.337 0 80.009 14.327 80.009 31.999v342.624a47.986 47.986 0 0 0 21.839 39.998l145.433 94.796a15.993 15.993 0 0 0 17.439 0l145.433-94.556a47.987 47.987 0 0 0 21.839-39.998V31.999C431.993 14.327 417.665 0 399.994 0zm0 68.477a47.96 47.96 0 0 0-24.559-11.839 47.971 47.971 0 0 0-11.919-24.639h36.478v36.478zM148.486 31.999a48.019 48.019 0 0 0-11.919 24.559 48.034 48.034 0 0 0-24.559 11.919V31.999h36.478zm107.515 444.859l-26.479-17.199a55.974 55.974 0 0 0 26.479-22.879 55.969 55.969 0 0 0 26.479 22.879l-26.479 17.199zm143.993-102.236a15.994 15.994 0 0 1-7.28 13.439l-91.756 59.917c-20.895-1.592-37.022-19.039-36.958-39.998 0-4.416-3.584-8-8-8s-8 3.584-8 8c.064 20.959-16.063 38.406-36.958 39.998l-91.756-59.917a15.997 15.997 0 0 1-7.28-13.439V103.995c0-17.671 14.327-31.998 31.998-31.998 4.416 0 8-3.584 8-8 0-17.671 14.327-31.999 31.999-31.999h143.993c17.671 0 31.999 14.327 31.999 31.999 0 4.416 3.584 8 8 8 17.671 0 31.999 14.327 31.999 31.998v270.627z" fill="#2d4961"/><path d="M80.009 31.999v271.987c8.84 0 15.999-7.16 15.999-15.999V31.999c0-8.84 7.16-15.999 15.999-15.999h271.987c8.84 0 15.999-7.16 15.999-15.999H112.008C94.329 0 80.009 14.327 80.009 31.999z" fill="#44637f"/><path d="M410.154 414.861a47.987 47.987 0 0 0 21.839-39.998V55.997c-8.84 0-15.999 7.16-15.999 15.999v304.466c0 8.04-4.024 15.551-10.719 19.999L269.28 487.097a29.909 29.909 0 0 0-13.279 24.879c3.096.008 6.12-.88 8.72-2.56l145.433-94.555z" fill="#123247"/><g fill="#a35623"><circle cx="335.981" cy="215.99" r="15.999"/><circle cx="191.988" cy="215.99" r="15.999"/><circle cx="263.985" cy="143.993" r="15.999"/></g><g fill="#fff"><circle cx="327.982" cy="207.99" r="15.999"/><circle cx="255.985" cy="135.994" r="15.999"/><circle cx="183.988" cy="207.99" r="15.999"/></g><g fill="#2e485d"><circle cx="287.984" cy="375.982" r="8"/><circle cx="367.98" cy="111.995" r="8"/><circle cx="319.982" cy="63.997" r="8"/><circle cx="167.989" cy="87.996" r="8"/><circle cx="191.988" cy="63.997" r="8"/><circle cx="143.99" cy="111.995" r="8"/><circle cx="223.987" cy="375.982" r="8"/></g><path d="M292.399 218.31l30.399-30.399c5.824-5.56 6.808-14.511 2.32-21.199-5.224-7.128-15.231-8.68-22.359-3.456-.576.424-1.12.88-1.64 1.376l-31.039 31.039a7.995 7.995 0 0 1-11.279 0l-30.399-30.399a16.648 16.648 0 0 0-21.199-2.32c-7.128 5.224-8.68 15.231-3.456 22.359.424.576.88 1.12 1.376 1.64l31.039 31.039a7.995 7.995 0 0 1 0 11.279l-30.639 30.719c-6.224 5.952-6.888 15.663-1.52 22.399 5.712 6.736 15.815 7.568 22.551 1.856.336-.288.656-.584.968-.896l31.039-31.039a7.995 7.995 0 0 1 11.279 0l31.039 31.039c6.248 6.248 16.375 6.256 22.623.008.312-.312.608-.632.896-.968 5.368-6.736 4.704-16.447-1.52-22.399l-30.319-30.319c-3.184-3.064-3.272-8.128-.208-11.311l.048-.048z" fill="#a35623"/><path d="M284.32 210.31l30.399-30.399c5.824-5.56 6.808-14.511 2.32-21.199-5.224-7.128-15.231-8.68-22.359-3.456-.576.424-1.12.88-1.64 1.376l-31.039 31.039a7.995 7.995 0 0 1-11.279 0l-30.399-30.399a16.648 16.648 0 0 0-21.199-2.32c-7.128 5.224-8.68 15.231-3.456 22.359.424.576.88 1.12 1.376 1.64l31.039 31.039a7.995 7.995 0 0 1 0 11.279l-30.719 30.719c-6.224 5.952-6.888 15.663-1.52 22.399 5.712 6.736 15.815 7.568 22.551 1.856.336-.288.656-.584.968-.896l31.039-31.039a7.995 7.995 0 0 1 11.279 0l31.039 31.039c6.248 6.248 16.375 6.256 22.623.008.312-.312.608-.632.896-.968 5.368-6.736 4.704-16.447-1.52-22.399L284.4 221.67a7.998 7.998 0 0 1-.08-11.36z" fill="#fff"/><path d="M306.879 171.912l-30.399 30.399a7.995 7.995 0 0 0 0 11.279l8 8a8 8 0 0 1 0-10.96l30.399-30.399c5.824-5.56 6.808-14.511 2.32-21.199a16.021 16.021 0 0 0-6.32-5.12 16.974 16.974 0 0 1-4 18zm.56 72.877c5.6 5.992 5.976 15.175.88 21.599-5.712 6.736-15.815 7.568-22.551 1.856a17.106 17.106 0 0 1-.968-.896l-31.039-31.039a7.995 7.995 0 0 0-11.279 0l-31.039 31.039a16 16 0 0 1-17.919 3.28 14.47 14.47 0 0 0 2.32 3.84c5.712 6.736 15.815 7.568 22.551 1.856.336-.288.656-.584.968-.896l31.039-31.039a7.995 7.995 0 0 1 11.279 0l31.039 31.039c6.248 6.248 16.375 6.256 22.623.008.312-.312.608-.632.896-.968 5.368-6.736 4.704-16.447-1.52-22.399l-7.28-7.28z" fill="#dddfe1"/><path d="M311.998 351.984a15.963 15.963 0 0 1-11.279-4.72l-36.718-36.638-36.718 36.718c-6.248 6.248-16.391 6.248-22.639 0-6.248-6.248-6.248-16.391 0-22.639l47.998-47.998c6.248-6.248 16.375-6.256 22.623-.016l.016.016 47.998 47.998c6.232 6.264 6.2 16.399-.064 22.623a16 16 0 0 1-11.217 4.656z" fill="#a35623"/><path d="M303.999 343.984a15.963 15.963 0 0 1-11.279-4.72l-36.718-36.638-36.718 36.718c-6.248 6.248-16.391 6.248-22.639 0s-6.248-16.391 0-22.639l47.998-47.998c6.248-6.248 16.375-6.256 22.623-.016l.016.016 47.998 47.998c6.232 6.264 6.2 16.399-.064 22.623a16.002 16.002 0 0 1-11.217 4.656z" fill="#fff"/><path d="M314.638 315.985l-7.28-7.28c6.248 6.248 6.248 16.391 0 22.639-6.248 6.248-16.391 6.248-22.639 0l-31.039-31.039a7.995 7.995 0 0 0-11.279 0l-31.039 31.039a16.003 16.003 0 0 1-17.839 3.2 15.197 15.197 0 0 0 9.6 8.56 16.717 16.717 0 0 0 16.799-4.4L256 302.626l36.718 36.718c6.248 6.248 16.375 6.256 22.623.008.312-.312.608-.632.896-.968 5.345-6.752 4.649-16.471-1.599-22.399zM195.284 219.27a15.997 15.997 0 0 0 3.76-16.639 4.882 4.882 0 0 0-8-1.76l-14.239 14.239a4.886 4.886 0 0 0 .04 6.904c.488.48 1.072.856 1.72 1.096a15.99 15.99 0 0 0 16.719-3.84zm143.993 0a15.997 15.997 0 0 0 3.76-16.639 4.882 4.882 0 0 0-8-1.76l-14.239 14.239a4.886 4.886 0 0 0 .04 6.904c.488.48 1.072.856 1.72 1.096a15.99 15.99 0 0 0 16.719-3.84zm-71.997-71.997a15.997 15.997 0 0 0 3.76-16.639 4.882 4.882 0 0 0-8-1.76l-14.239 14.239a4.886 4.886 0 0 0 .04 6.904c.488.48 1.072.856 1.72 1.096a15.987 15.987 0 0 0 16.719-3.84z" fill="#dddfe1"/></svg>