<svg xmlns="http://www.w3.org/2000/svg" viewBox="0 0 204.348 204.348"><path d="M183.045 111.688s12.558 9.032 4.749 22.759c0 0 14.423 9.875 3.399 26.029 0 0 10.564 15.359 0 25.354 0 0 2.535 11.932-11.611 12.492 0 0-.592 6.026-12.936 6.026l-64.373-14.991v-80.202l80.772 2.533zm-161.742 0s-12.558 9.032-4.748 22.759c0 0-14.423 9.875-3.4 26.029 0 0-10.564 15.359 0 25.354 0 0-2.535 11.932 11.611 12.492 0 0 .592 6.026 12.936 6.026l64.373-14.991v-80.202l-80.772 2.533z" fill="#86461b"/><path d="M58.129 139.533s-8.173 12.392 1.204 17.219c0 0-7.951 7.275-2.252 13.792 0 0-15.267 4.467-5.566 18.033s50.759 7.393 50.759 7.393v-64.815l-44.145 8.378z" fill="#703910"/><path d="M146.219 139.533s8.174 12.392-1.204 17.219c0 0 7.952 7.275 2.252 13.792 0 0 15.267 4.467 5.566 18.033-9.7 13.566-50.759 7.393-50.759 7.393v-64.815l44.145 8.378z" fill="#703910"/><path fill="#fdcc9b" d="M87.377 154.083h29.395v32.923H87.377z"/><path d="M87.377 157.961s12.365 7.874 29.395 6.051v-9.929H87.377v3.878z" fill="#fcbc85"/><ellipse cx="44.99" cy="103.033" rx="14.343" ry="16.364" fill="#fcbc85"/><ellipse cx="159.158" cy="103.033" rx="14.343" ry="16.364" fill="#fcbc85"/><path d="M159.1 71.777c0-24.104-17.637-41.74-57.025-41.74-39.39 0-57.026 17.637-57.026 41.74 0 24.104-4.115 87.597 57.026 87.597 61.14 0 57.025-63.492 57.025-87.597z" fill="#fdcc9b"/><ellipse cx="74.299" cy="99.115" rx="6.173" ry="6.761" fill="#3b2519"/><circle cx="71.607" cy="96.13" r="1.846" fill="#fff"/><path d="M64.424 84.538c2.918 1.117 7.605-3.799 18.334.478 1.956.78 3.124-6.668-8.377-6.668-9.957-.001-11.72 5.514-9.957 6.19z" fill="#86461b"/><ellipse cx="130.613" cy="99.115" rx="6.173" ry="6.761" fill="#3b2519"/><circle cx="127.921" cy="96.13" r="1.847" fill="#fff"/><path d="M139.725 84.538c-2.919 1.117-7.605-3.799-18.335.478-1.955.78-3.123-6.668 8.378-6.668 9.957-.001 11.721 5.514 9.957 6.19z" fill="#86461b"/><path d="M102.075 122.895c-6.1 0-9.774-4.557-9.774-2.352 0 2.204 1.764 6.393 9.774 6.393s9.773-4.189 9.773-6.393c0-2.204-3.674 2.352-9.773 2.352zm0 20.271c-2.109 0-3.381-1.576-3.381-.813 0 .763.61 2.212 3.381 2.212s3.381-1.449 3.381-2.212c-.001-.763-1.272.813-3.381.813z" fill="#fcbc85"/><path d="M102.075 137.549c-9.668 0-15.493-3.938-15.493-2.939 0 .997 2.796 4.924 15.493 4.924 12.697 0 15.492-3.927 15.492-4.924 0-.999-5.824 2.939-15.492 2.939z" fill="#f7945e"/><circle cx="66.361" cy="120.72" r="8.378" fill="#f9aa8d"/><circle cx="138.818" cy="120.72" r="8.377" fill="#f9aa8d"/><path d="M102.075 167.31v37.038H37.702c0-14.991 30.569-37.038 64.373-37.038zm0 0v37.038h64.372c0-14.991-30.569-37.038-64.372-37.038z" fill="#f7acba"/><path d="M101.883 167.31c-7.271 0-14.715 1.005-21.933 2.721.049.063 8.006 10.213 21.933 10.213 12.898 0 21.472-8.692 22.715-10.03-7.46-1.831-15.181-2.904-22.715-2.904z" fill="#f5919d"/><path d="M87.377 168.592s4.299 5.332 14.697 5.332 14.697-5.332 14.697-5.332-15.247-5.551-29.394 0z" fill="#fdcc9b"/><path d="M180.861 75.051c16.453 14.07 3.347 27.982 3.347 27.982 5.464 16.364-13.055 20.406-13.055 20.406s-6.762 15.652-16.021 11.008c-9.26-4.645-4.409-20.047-4.409-20.047-5.908-6.394.44-13.228.44-13.228-7.055-6.614-.882-19.842-.882-19.842-7.055-2.204-9.259-11.464-9.259-11.464-11.023-.441-14.11-15.433-14.11-15.433s-3.527 12.787-17.637 8.378c0 0-12.786 11.464-22.046 2.646 0 0-13.228 9.259-20.282-.882 0 0 0 10.582-14.551 12.786 0 0 5.732 14.992-1.764 21.605 0 0 8.818 15.873 1.323 22.487 0 0 13.228 11.023 6.173 18.078s-18.519 1.764-18.96-8.378c0 0-16.755 2.205-15.873-16.314 0 0-12.346-16.313-2.204-29.542 0 0-8.378-15.873 3.526-27.777 0 0-1.322-22.928 14.992-27.778 0 0 6.613-19.842 24.25-16.755 0 0 11.464-16.755 29.542-8.378 0 0 19.842-11.464 31.306 1.764 0 0 11.554-7.495 20.106 6.614 0 0 14.727 2.792 16.049 17.049 0 0 20.574 4.409 14.992 22.046.002.001 15.389 5.332 5.007 22.969z" fill="#86461b"/><path d="M70.58 173.536c-19.172 7.632-32.879 20.785-32.879 30.813h41.32l-8.441-30.813z" fill="#d85b72"/><path d="M82.38 204.348s-8.231-24.251-9.112-33.805c0 0-4.482.273-9.554 4.557 0 0 6.467 20.576 10.582 29.101l8.084.147z" fill="#ba396a"/><path d="M133.569 173.536c19.172 7.632 32.878 20.785 32.878 30.813h-41.319l8.441-30.813z" fill="#d85b72"/><path d="M121.769 204.348s8.23-24.251 9.112-33.805c0 0 4.482.273 9.554 4.557 0 0-6.467 20.576-10.582 29.101l-8.084.147z" fill="#ba396a"/></svg>