<svg xmlns="http://www.w3.org/2000/svg" viewBox="0 0 202.413 202.413"><path d="M101.422 110.407v92.006H37.049s.002-39.459-7.055-70.891l71.428-21.115z" fill="#1c0d06"/><path d="M100.927 110.407v92.006H165.3s-.002-39.459 7.055-70.891l-71.428-21.115z" fill="#1c0d06"/><path fill="#fdcc9b" d="M86.724 152.148h29.395v32.922H86.724z"/><path d="M86.724 156.025s12.365 7.874 29.395 6.05v-9.928H86.724v3.878z" fill="#fcbc85"/><ellipse cx="44.337" cy="101.098" rx="14.343" ry="16.364" fill="#fcbc85"/><ellipse cx="158.505" cy="101.098" rx="14.343" ry="16.364" fill="#fcbc85"/><path d="M158.447 69.842c0-24.103-17.637-41.741-57.026-41.741S44.396 45.738 44.396 69.842s-4.115 87.597 57.025 87.597c61.141 0 57.026-63.493 57.026-87.597z" fill="#fdcc9b"/><ellipse cx="73.645" cy="97.179" rx="6.173" ry="6.761" fill="#3b2519"/><circle cx="70.954" cy="94.194" r="1.846" fill="#fff"/><path d="M63.77 82.602c2.919 1.118 7.605-3.798 18.335.478 1.956.78 3.123-6.668-8.378-6.668-9.957 0-11.72 5.515-9.957 6.19z" fill="#36221e"/><ellipse cx="129.96" cy="97.179" rx="6.173" ry="6.761" fill="#3b2519"/><circle cx="127.268" cy="94.194" r="1.846" fill="#fff"/><path d="M139.072 82.602c-2.919 1.118-7.606-3.798-18.335.478-1.956.78-3.123-6.668 8.377-6.668 9.958 0 11.722 5.515 9.958 6.19z" fill="#36221e"/><path d="M101.421 120.96c-6.099 0-9.773-4.556-9.773-2.352 0 2.205 1.764 6.394 9.773 6.394 8.011 0 9.774-4.189 9.774-6.394s-3.675 2.352-9.774 2.352zm0 20.27c-2.109 0-3.38-1.576-3.38-.813 0 .763.609 2.211 3.38 2.211s3.381-1.448 3.381-2.211c0-.763-1.272.813-3.381.813z" fill="#fcbc85"/><path d="M101.421 135.613c-9.668 0-15.492-3.936-15.492-2.939 0 .997 2.795 4.924 15.492 4.924 12.697 0 15.493-3.926 15.493-4.924 0-.998-5.825 2.939-15.493 2.939z" fill="#f7945e"/><circle cx="65.707" cy="118.784" r="8.377" fill="#f9aa8d"/><circle cx="138.164" cy="118.784" r="8.377" fill="#f9aa8d"/><path d="M101.421 165.375v37.038H37.049c0-14.992 30.568-37.038 64.372-37.038zm0 0v37.038h64.373c0-14.992-30.569-37.038-64.373-37.038z" fill="#c05371"/><path d="M101.421 165.375v37.038h64.373c0-14.992-30.569-37.038-64.373-37.038z" fill="#c05371"/><path d="M101.421 165.375c-14.605 0-28.594 4.125-39.787 10.009 8.461 12.851 21.058 23.381 39.787 23.381 18.73 0 31.327-10.531 39.787-23.381-11.193-5.884-25.182-10.009-39.787-10.009z" fill="#98375e"/><path d="M101.421 165.375c-11.439 0-22.473 2.56-32.112 6.481 6.077 10.609 16.005 20.386 32.112 20.386 16.107 0 26.035-9.777 32.113-20.386-9.64-3.921-20.673-6.481-32.113-6.481z" fill="#c05371"/><path d="M86.724 166.797s4.3 11.776 14.697 11.776c10.398 0 14.697-11.777 14.697-11.777s-15.248-5.551-29.394.001z" fill="#fdcc9b"/><path d="M101.421 165.375c-8.766 0-17.297 1.503-25.151 3.96 4.164 8.464 11.695 17.379 25.151 17.379 13.457 0 20.987-8.916 25.152-17.379-7.854-2.457-16.387-3.96-25.152-3.96z" fill="#98375e"/><path d="M82.642 167.607c2.454 6.538 7.74 15.217 18.779 15.217 11.04 0 16.326-8.679 18.78-15.217-6.019-1.405-12.334-2.232-18.78-2.232-6.446 0-12.76.827-18.779 2.232z" fill="#c05371"/><path d="M116.118 166.796s-1.91 11.777-14.697 11.777c-12.786 0-14.697-11.776-14.697-11.776s5.732-3.289 14.697-3.289c8.966 0 14.697 3.288 14.697 3.288z" fill="#fdcc9b"/><path d="M101.421.012V0c-.073 0-.141.005-.214.006-.074-.001-.142-.006-.216-.006v.012C34.804.266 23.827 57.886 27.787 114.64c3.969 56.879 37.92 76.72 37.92 76.72-18.517-19.4-13.966-64.198-13.966-64.198 8.079 12.081 19.213 13.047 19.213 13.047-21.207-13.673-20.239-60.843-5.247-63.797 14.142-2.786 33.36-16.896 35.5-18.49 2.139 1.595 21.356 15.704 35.498 18.49 14.992 2.954 15.961 50.124-5.246 63.797 0 0 11.134-.966 19.214-13.047 0 0 4.551 44.797-13.968 64.198 0 0 33.952-19.841 37.921-76.72C178.585 57.886 167.609.266 101.421.012z" fill="#342620"/></svg>