<svg xmlns="http://www.w3.org/2000/svg" viewBox="0 0 512.005 512.005"><path d="M129.361,285.722c-17.67,0-31.995-14.324-31.995-31.995s14.324-31.995,31.995-31.995h253.283	c17.67,0,31.995,14.324,31.995,31.995s-14.324,31.995-31.995,31.995" fill="#efc1ab"/><path d="M409.76,511.455v-20.897c0-42.454-17.209-80.896-45.035-108.721c-1.881-1.881-3.814-3.72-5.789-5.496	H153.071c-31.211,28.139-50.824,68.89-50.824,114.218v20.897" fill="#34abe0"/><path d="M200.088 376.34H153.07c-31.211 28.139-50.824 68.89-50.824 114.218v20.897h47.018v-20.897C149.264 445.23 168.877 404.479 200.088 376.34zM248.166 430.612H263.839V512.005H248.166z" fill="#279fc9"/><path d="M303.149,59.099c0.784-3.459,1.202-7.053,1.202-10.752C304.351,21.65,282.701,0,256.004,0	s-48.347,21.65-48.347,48.347c0,3.688,0.418,7.283,1.191,10.742" fill="#34abe0"/><path d="M240.129,59.089c-0.773-3.459-1.191-7.053-1.191-10.742c0-21.222,13.686-39.241,32.706-45.746	C266.736,0.924,261.479,0,256.004,0c-26.697,0-48.347,21.65-48.347,48.347c0,3.688,0.418,7.283,1.191,10.742l94.302,0.01	c0-0.001,0-0.002,0.001-0.003L240.129,59.089z" fill="#279fc9"/><path fill="#fcf8f2" d="M333.635 404.553L282.03 472.923 256.004 430.607 229.976 472.923 178.371 404.553"/><path d="M382.645,217.175v68.547c0,94.303-56.706,144.885-126.641,144.885	c-69.945,0-126.641-50.582-126.641-144.885v-68.562l61.434-67.095l167.697,14.105L382.645,217.175z" fill="#5c5e70"/><path d="M164.632,285.722V178.641l-35.269,38.52v68.561c0,94.303,56.696,144.885,126.641,144.885	c5.985,0,11.87-0.379,17.634-1.116C212.042,421.62,164.632,371.954,164.632,285.722z" fill="#494b5b"/><path d="M349.892,187.681v126.714c0,9.651-7.823,17.475-17.475,17.475l0,0	c-9.651,0-17.475-7.823-17.475-17.475l0,0c0-9.651-7.823-17.475-17.475-17.475h-41.465h-41.465c-9.651,0-17.475,7.823-17.475,17.475	l0,0c0,9.651-7.823,17.475-17.475,17.475l0,0c-9.651,0-17.475-7.823-17.475-17.475V187.681" fill="#ffdac5"/><path d="M153.049,122.347c14.441-43.02,55.079-74,102.955-74c29.976,0,57.121,12.148,76.777,31.803	c11.727,11.727,20.784,26.115,26.178,42.196" fill="#fcf8f2"/><path d="M278.744,50.74c-7.334-1.563-14.94-2.393-22.74-2.393c-47.876,0-88.513,30.979-102.955,74H198.5	C210.591,86.327,241.051,58.762,278.744,50.74z" fill="#e5e1dc"/><path d="M195.441 275.278c-4.328 0-7.837-3.509-7.837-7.837v-16.292c0-4.328 3.509-7.837 7.837-7.837s7.837 3.509 7.837 7.837v16.292C203.278 271.769 199.769 275.278 195.441 275.278zM316.558 275.278c-4.329 0-7.837-3.509-7.837-7.837v-16.292c0-4.328 3.508-7.837 7.837-7.837s7.837 3.509 7.837 7.837v16.292C324.395 271.769 320.886 275.278 316.558 275.278z" fill="#313344"/><path d="M387.858,217.923c-69.987-10.47-140.81-12.56-211.132-6.269c-17.565,1.557-35.098,3.657-52.59,6.269	l8.244-75.818c1.264-11.619,10.282-20.919,21.87-22.486c8.547-1.16,17.105-2.173,25.673-3.041	c59.183-5.977,118.773-4.963,177.82,3.041c11.588,1.567,20.605,10.867,21.87,22.486L387.858,217.923z" fill="#34abe0"/><path d="M176.727,211.654c-17.565,1.557-35.098,3.657-52.59,6.269l8.244-75.818	c1.264-11.619,10.282-20.919,21.87-22.486c8.547-1.16,17.105-2.173,25.673-3.041C179.924,116.579,158.024,172.157,176.727,211.654z" fill="#279fc9"/><g fill="#fcf8f2"><path d="M244.678,179.309c-2.005,0-4.011-0.765-5.541-2.296c-3.061-3.061-3.061-8.023,0-11.082 l22.643-22.643c3.063-3.061,8.024-3.059,11.083,0c3.06,3.061,3.06,8.023,0,11.082l-22.644,22.643 C248.689,178.543,246.683,179.309,244.678,179.309z"/><path d="M267.322,179.309c-2.005,0-4.011-0.765-5.542-2.296l-22.643-22.643 c-3.061-3.061-3.061-8.022,0-11.082s8.023-3.061,11.082,0l22.644,22.643c3.06,3.061,3.06,8.022,0,11.082 C271.333,178.544,269.327,179.309,267.322,179.309z"/></g><path d="M256.004,347.004c-10.909,0-21.164-4.249-28.878-11.962c-3.061-3.06-3.061-8.022,0-11.082	s8.023-3.06,11.082,0c4.753,4.753,11.073,7.371,17.795,7.371c6.722,0,13.04-2.617,17.794-7.371c3.062-3.06,8.024-3.06,11.082,0	c3.062,3.06,3.062,8.023,0.001,11.083C277.168,342.755,266.911,347.004,256.004,347.004z" fill="#797b89"/></svg>