<svg xmlns="http://www.w3.org/2000/svg" viewBox="0 0 512 512"><path d="M401.05 495.932H120.133s-41.462 2.413-52.723-25.74c-14.779-36.958 29.804-104.374 19.305-159.254-10.585-55.351-8.902-101.082.375-138.126l21.514-67.781 87.901-1.888 211.312-4.547 24.399 73.68c2.96 25.815 2.016 54.279-4.462 82.356-28.956 125.482 76.898 241.3-26.704 241.3z" fill="#c69a6a"/><path d="M153.649 244.981c11.754 67.996 11.615 169.464 8.805 250.951h-42.32s-41.462 2.413-52.723-25.74c-14.779-36.958 29.804-104.374 19.305-159.254-10.585-55.351-8.902-101.082.375-138.126l21.514-67.781 87.901-1.888c-25.944 20.464-56.617 62.238-42.857 141.838z" fill="#b58657"/><path d="M400.739 511.44v-49.184c0-22.308-5.202-43.414-14.457-62.14l-251.595-.783c-9.513 18.929-14.865 40.304-14.865 62.923v49.184" fill="#ffd15c"/><path d="M181.267 399.478l-46.58-.145c-9.513 18.929-14.865 40.304-14.865 62.923v49.184h46.651v-49.184c0-22.562 5.326-43.884 14.794-62.778z" fill="#edbb4c"/><path fill="#ff525d" d="M364.357 439.318V512h-72.371v-36.1z"/><path d="M364.357 439.318v15.015c-17.664 19.198-43.05 31.542-72.371 36.593V475.9l72.371-36.582z" fill="#ef4152"/><path d="M390.579 281.533v86.7c0 3.539-.139 6.993-.418 10.36-5.341 65.121-61.314 99.924-129.567 99.924-21.771 0-42.288-3.539-60.306-10.478-12.634-4.858-24.056-11.39-33.816-19.541-22.222-18.554-35.864-45.506-35.864-80.265v-80.844l18.565 8.269 51.115 22.78 190.291-36.905z" fill="#ff525d"/><path d="M166.472 318.438v130.06c-22.222-18.554-35.864-45.506-35.864-80.265v-97.017l18.565 24.442 17.299 22.78z" fill="#ef4152"/><path d="M390.582 233.72v37.494c0 71.782-58.193 110.284-129.985 110.284s-129.985-38.502-129.985-110.284v-58.375c51.25-37.302 152.159-8.628 185.727-52.546a4.085 4.085 0 0 1 3.464-1.583 4.128 4.128 0 0 1 3.797 3.151c5.006 20.565 21.127 65.679 66.982 71.859z" fill="#ffdac5"/><path d="M279.366 380.586c-1.501.15-3.003.279-4.515.386-.483.043-.965.075-1.459.107-.922.064-1.855.118-2.788.161-.804.043-1.598.086-2.402.107a7.091 7.091 0 0 1-.483.021c-.418.011-.847.032-1.266.043-.837.021-1.662.043-2.499.054-1.115.021-2.231.032-3.357.032-71.792 0-129.985-38.502-129.985-110.284v-58.386c12.259-8.923 27.37-14.071 43.715-17.342l-5.684 4.386a126.33 126.33 0 0 0-.493 11.261v60.07c-.001 65.423 48.314 103.185 111.216 109.384z" fill="#efc1ab"/><path d="M113.614 75.954C134.115 31.797 191.806 0 259.771 0c42.555 0 81.092 12.469 108.996 32.643 16.648 12.037 29.506 26.805 37.163 43.31" fill="#fcf8f2"/><path d="M295.759 3.062C284.212 1.064 272.164 0 259.771 0c-67.967 0-125.656 31.797-146.159 75.954h71.95c16.767-36.11 58.409-63.943 110.197-72.892z" fill="#e5e1dc"/><path d="M442.494 144.403c2.003 13.322-10.525 24.286-23.427 20.406-94.672-28.472-191.534-28.412-279.446-9.402a589.228 589.228 0 0 0-39.405 9.93c-12.866 3.717-25.24-7.215-23.248-20.458l7.313-48.642c1.791-11.937 14.597-21.471 31.038-23.08a1490.557 1490.557 0 0 1 43.146-3.593c81.82-5.598 164.144-4.408 245.75 3.593 16.441 1.609 29.247 11.143 31.038 23.08l7.241 48.166z" fill="#ff525d"/><path d="M139.621 155.396v.011a589.228 589.228 0 0 0-39.405 9.93c-12.866 3.717-25.24-7.215-23.248-20.458l7.313-48.642c1.791-11.937 14.597-21.471 31.038-23.08a1490.557 1490.557 0 0 1 43.146-3.593c-.001.001-28.486 38.535-18.844 85.832z" fill="#ef4152"/><path d="M200.291 268.791a8.043 8.043 0 0 1-8.044-8.044v-16.722c0-4.442 3.6-8.044 8.044-8.044a8.043 8.043 0 0 1 8.044 8.044v16.722a8.044 8.044 0 0 1-8.044 8.044zm124.315 0a8.043 8.043 0 0 1-8.044-8.044v-16.722c0-4.442 3.6-8.044 8.044-8.044s8.044 3.601 8.044 8.044v16.722a8.043 8.043 0 0 1-8.044 8.044z" fill="#313344"/><path d="M262.448 326.628c-10.736 0-21.468-4.085-29.64-12.257a8.044 8.044 0 1 1 11.376-11.375c10.072 10.071 26.458 10.072 36.53 0a8.044 8.044 0 0 1 11.374 11.376c-8.171 8.17-18.907 12.256-29.64 12.256z" fill="#ce5b6c"/><path d="M390.579 333.806v34.427c0 3.539-.139 6.993-.418 10.36-12.945 19.047-32.807 34.255-58.847 44.594a8.05 8.05 0 0 1-10.446-4.505 8.043 8.043 0 0 1 4.504-10.446c37.419-14.864 60.113-40.979 65.207-74.43zm-259.967 0v34.427c0 3.539.139 6.993.418 10.36 12.945 19.047 32.807 34.255 58.847 44.594a8.05 8.05 0 0 0 10.446-4.505 8.043 8.043 0 0 0-4.504-10.446c-37.419-14.864-60.113-40.979-65.207-74.43z" fill="#ef4152"/><g fill="#fcb997"><ellipse cx="343.979" cy="296.714" rx="17.696" ry="10.725"/><ellipse cx="177.207" cy="296.714" rx="17.696" ry="10.725"/></g></svg>