<svg xmlns="http://www.w3.org/2000/svg" viewBox="0 0 511.999 511.999"><path d="M222.768 413.884s6.221-32.662 33.569-44.457c20.224-8.722 51.956-26.735 69.85-45.226 6.335-6.548 6.173-17.005-.382-23.327-5.619-5.438-14.102-6.068-20.401-2.002 0 0-14.742 9.786-40.834-3.142-19.238-9.533-4.229-30.546-4.229-30.546s-29.456-29.918-29.646-29.739c-18.715 17.575-18.13-5.263-18.13-5.263-.548-25.551 18.934-47.711 18.934-47.711 8.772-8.399 9.077-22.318.681-31.093-8.424-8.81-22.322-9.086-31.099-.688-2.575 2.463-33.715 32.66-60.574 75.753 0 0-24.022 38.387-57.579 42.469-.046.005-23.842 3.992-41.175 16.945-47.577 35.557-56.062 106.445-17.345 160.526s109.253 69.893 157.55 35.319c22.608-16.187 36.575-40.939 40.81-67.818z" fill="#d80027"/><path d="M39.122 458.224C.406 404.144 8.89 333.256 56.468 297.699c17.333-12.954 41.13-16.94 41.175-16.945 33.557-4.081 57.489-42.325 57.576-42.464a.061.061 0 0 0 .004-.006c26.859-43.092 57.999-73.29 60.574-75.753 5.601-5.358 13.282-7.168 20.299-5.5a21.99 21.99 0 0 0-3.913-5.653c-8.424-8.81-22.322-9.086-31.099-.688-2.575 2.463-33.715 32.66-60.574 75.753 0 0-24.022 38.387-57.579 42.469-.046.005-23.842 3.992-41.175 16.945-47.578 35.557-56.063 106.445-17.346 160.526 9.237 12.903 20.289 23.622 32.415 32.003a134.578 134.578 0 0 1-17.703-20.162z" fill="#a5001e"/><path d="M290.663 319.977c-1.759-3.622-6.979-4.034-10.888-3.783a57.468 57.468 0 0 1-4.63.631l-.024.005.004-.003c-11.021 1.043-25.353-.854-38.289-12.803l-.003-.003c-9.432-9.432-6.756-19.823-3.09-28.779-4.617-4.678-9.174-10.072-14.044-14.949-10.922 6.234-21.237-1.929-24.063-4.753l-.002-.002c-4.018-4.018-5.319-9.694-5.717-13.642-.882-4.872-2.829-8.461-2.829-8.461s-16.352-28.113-28.482 17.458c0 0-8.48 50.683-48.598 72.668.091.091-62.747 25.447 15.158 104.086 0 0 16.775 19.623 18.32 41.161 0 0-.371 9.608 6.601 7.262a80.713 80.713 0 0 0 15.085-8.499c18.411-13.18 30.486-32.761 34.227-56.503 0 0 7.443-37.516 38.001-50.694 14.033-6.052 32.461-16.182 47.383-27.289 9.724-8.038 5.872-12.955 5.88-13.108z" fill="#fff"/><path d="M120.648 334.011c40.118-21.986 48.598-72.668 48.598-72.668 6.068-22.795 13.192-27.154 18.798-25.816-.537-1.312-.956-2.091-.956-2.091s-16.352-28.113-28.483 17.458c0 0-8.48 50.683-48.598 72.668.091.091-62.747 25.447 15.158 104.086 0 0 16.775 19.623 18.32 41.161 0 0-.372 9.608 6.601 7.262a82.413 82.413 0 0 0 3.396-1.561c-3.54-19.427-17.677-36.414-17.677-36.414-77.904-78.637-15.066-103.994-15.157-104.085z" fill="#d8d7da"/><g fill="#57565c"><circle cx="166.545" cy="419.848" r="13.584"/><circle cx="166.545" cy="452.282" r="7.732"/><path d="M108.477 430.502l-43.353-43.353c-4.046-4.046-4.046-10.667 0-14.713l3.432-3.432c4.046-4.046 10.667-4.046 14.713 0l43.353 43.353c4.046 4.046 4.046 10.667 0 14.713l-3.432 3.432c-4.045 4.046-10.667 4.046-14.713 0z"/></g><path d="M75.573 383.445l3.432-3.432c4.047-4.046 10.667-4.046 14.714 0L83.27 369.004c-4.046-4.046-10.667-4.046-14.714 0l-3.432 3.432c-4.046 4.046-4.046 10.667 0 14.714l8.749 8.749c-2.22-3.964-1.66-9.094 1.7-12.454z" fill="#2d2d30"/><path d="M146.062 394.403a7.813 7.813 0 0 1-5.542-2.296l-36.946-36.946a7.834 7.834 0 0 1-.001-11.082 7.836 7.836 0 0 1 11.083 0l36.946 36.945a7.834 7.834 0 0 1 .001 11.082 7.805 7.805 0 0 1-5.541 2.297zm26.035-27.731a7.812 7.812 0 0 1-5.542-2.296l-35.282-35.282a7.838 7.838 0 0 1 11.083-11.082l35.282 35.282a7.835 7.835 0 0 1 0 11.082 7.81 7.81 0 0 1-5.541 2.296zm24.103-30.606a7.813 7.813 0 0 1-5.542-2.296l-31.229-31.228a7.838 7.838 0 0 1 11.083-11.082l31.229 31.228a7.835 7.835 0 0 1 0 11.082 7.813 7.813 0 0 1-5.541 2.296z" fill="#acabb1"/><path d="M391.499 125.906l-21.386-21.386-178.647 167.766c-3.012 3.012-1.375 6.131.913 8.419l22.691 22.691c2.293 2.293 5.696 3.646 8.439.903l167.99-178.393z" fill="#57565c"/><path d="M201.226 283.049l178.646-167.766-9.759-10.763-178.647 167.766c-3.012 3.012-1.375 6.131.913 8.419l7.531 7.531c-.61-1.641-.44-3.431 1.316-5.187z" fill="#2d2d30"/><path d="M206.983 257.949c-.044-.044-.096-.076-.142-.116l-3.721 3.494c.07.091.135.184.218.267l30.799 30.799c.099.099.21.182.321.262l3.489-3.705c-.055-.067-.102-.139-.165-.202l-30.799-30.799zm12.714-12.19l30.346 30.345 3.536-3.754-30.122-30.122zm16.605-15.593l29.356 29.356 3.535-3.754-29.133-29.133zm16.602-15.592l28.368 28.368 3.536-3.754-28.144-28.145zm16.604-15.592l27.379 27.379 3.535-3.755-27.155-27.155zm16.604-15.593l26.389 26.39 3.536-3.754-26.165-26.166zm16.604-15.592l25.4 25.401 3.535-3.755-25.177-25.176zm16.603-15.592l24.411 24.412 3.536-3.754-24.189-24.189zm43.561 4.076l-23.198-23.199-3.76 3.531 23.423 23.422zm15.615-16.581l-22.211-22.209-3.758 3.53 22.433 22.433z" fill="#ffdaaa"/><path d="M206.84 257.833l-3.721 3.494c.07.091.135.184.218.267l10.041 10.041 3.76-3.531-10.156-10.156c-.044-.043-.095-.074-.142-.115zm12.858-12.074l10.285 10.285 3.759-3.531-10.285-10.285zm16.604-15.593l10.285 10.285 3.759-3.53-10.285-10.286zm16.603-15.592l10.285 10.285 3.76-3.53-10.286-10.286zm16.603-15.592l10.286 10.285 3.759-3.531-10.286-10.285zm16.604-15.593l10.285 10.286 3.76-3.531-10.285-10.285zm16.604-15.592L313 178.082l3.76-3.53-10.285-10.285zm16.603-15.592l10.285 10.285 3.759-3.53-10.286-10.286zm16.603-15.592l10.285 10.285 3.76-3.531-10.285-10.285zm20.363-19.122l-3.759 3.53 10.285 10.285 3.759-3.531z" fill="#ffb655"/><path d="M509.798 42.317l-.002-.006a5.065 5.065 0 0 0-.643-1.174 23.781 23.781 0 0 0-2.361-2.762c-11.776-11.776-29.758-4.648-30.518-4.338l-97.062 39.544a5.111 5.111 0 0 0-3.17 5.089l.923 13.217-7.1 7.1a5.11 5.11 0 0 0 0 7.228l19.876 19.876.015.015a5.11 5.11 0 0 0 7.57-.377l7.657-7.8c31.575 11.839 49.654-5.208 50.605-6.015 4.003-3.395 5.744-7.202 6.01-7.722 14.618-28.592 20.978-27.964 23.221-28.317.798-.126 1.846-.231 2.776.996 2.895 3.821 5.907 4.905 8.633 2.621 20.061-16.817 16.312-31.429 13.57-37.175z" fill="#ffc477"/><path d="M381.369 112.342l7.1-7.1-.923-13.217a5.111 5.111 0 0 1 3.17-5.089l97.062-39.544c.624-.254 12.792-5.072 23.647-.346a22.644 22.644 0 0 0-1.627-4.729l-.002-.006a5.065 5.065 0 0 0-.643-1.174 23.781 23.781 0 0 0-2.361-2.762c-11.776-11.776-29.758-4.648-30.519-4.338l-97.062 39.544a5.111 5.111 0 0 0-3.17 5.089l.923 13.217-7.1 7.1a5.11 5.11 0 0 0 0 7.228l10.036 10.037c-.08-1.405.396-2.837 1.469-3.91z" fill="#ffa733"/><path d="M399.473 92.673L384.16 51.767a7.837 7.837 0 0 1 14.679-5.494l15.313 40.906a7.837 7.837 0 0 1-4.592 10.086c-.904.339-7.623 1.543-10.087-4.592z" fill="#57565c"/><circle cx="391.501" cy="49.019" r="12.539" fill="#2d2d30"/><path d="M430.062 80.267l-15.314-40.906a7.837 7.837 0 0 1 14.677-5.494l15.314 40.906a7.835 7.835 0 0 1-4.591 10.086c-.904.339-7.387 1.758-10.086-4.592z" fill="#57565c"/><circle cx="422.086" cy="36.611" r="12.539" fill="#2d2d30"/><path d="M462.031 68.174l-15.313-40.906a7.837 7.837 0 0 1 4.592-10.086 7.836 7.836 0 0 1 10.087 4.592L476.71 62.68a7.837 7.837 0 0 1-4.592 10.086c-.904.338-6.965 2.009-10.087-4.592z" fill="#57565c"/><circle cx="454.06" cy="24.521" r="12.539" fill="#2d2d30"/></svg>