<svg xmlns="http://www.w3.org/2000/svg" viewBox="0 0 468.116 468.116"><path d="M38.058 125.875s18.23-3.512 31.532 16.328c0 0-18.532 37.172-18.532 75.672s16.5 69 16.5 69l49 168s-1 2.833-12 7.833-17 6-24 2-32-23.666-40.667-54-13.667-47.333-14.333-88c0 0-14.333-38.999-14.667-66.333-.333-27.333.333-52.333 6.333-75.333s20.834-55.167 20.834-55.167z" fill="#d1d5d5"/><path d="M38.058 125.875s6.835 1.392 12.239 3.99c0 0-27.009 44.991-30.239 94.51-3 46 8.227 66.665 16.197 85.999s2.803 31.001 3.303 46.501 7.765 53.5 24.132 76.5 36.456 31.221 36.456 31.221-11.175 5.507-18.268.812-33.632-23.428-41.986-54.699-12.377-42.662-13.355-65.331-2.138-20.663-7.595-43.47-9.855-42.533-8.119-82.533 27.235-93.5 27.235-93.5z" fill="#c6cbcb"/><path d="M104.558 462.708c11-5 12-7.833 12-7.833l-46.22-158.47s-6.28 3.47-10.28 5.97-10 13-10 29-.5 32.5 11.5 65 43 66.333 43 66.333z" fill="#253744"/><path d="M116.558 454.875s-1 2.833-12 7.833c0 0-31-33.833-43-66.333s-11.5-49-11.5-65 6-26.5 10-29 10.28-5.97 10.28-5.97-12.515 5.97-6.648 49.97 25.659 75.643 33.72 87.754c10.148 15.246 19.148 20.746 19.148 20.746z" fill="#2d404e"/><path d="M89.558 260.375s-6.251 4.5-6.251 31 8.251 62 14.251 82 31 84.666 59 89.333c0 0-18 10.332-31-2.001s-30.334-40.333-44.5-77.333-14.5-75.332-13.833-89.666 2.333-21.667 6.333-25.334 11.666-6.998 16-7.999z" fill="#2d404e"/><path d="M89.558 260.375s-8.5 3.5-8.5 30 9.167 65 15.167 85 32.333 82.666 60.333 87.333c0 0 9.25-5.333 9-13.333s-59.965-185.18-59.965-185.18-3.535-5.82-16.035-3.82z" fill="#253744"/><path d="M144.152 466.584c-5.8.645-12.709-.294-18.594-5.877-13-12.333-30.334-40.333-44.5-77.333s-14.5-75.332-13.833-89.666 2.333-21.667 6.333-25.334c1.629-1.493 3.867-2.931 6.239-4.179 0 0-6.904 3.512-7.238 26.179s5.16 59.668 10.747 79.001 24.253 58.333 29.92 67.333 15.173 21.977 22.082 26 8.844 3.876 8.844 3.876z" fill="#df584c"/><path d="M90.891 268.708c5.334-8.687 8.958-11.847 18.333-15.001 12.667-4.262 20-6.665 33.334 4.335 13.334 11 31.667 53 41.667 83s17.667 72 16 83.333-5.667 19.666-16.667 25.333-22.667 7.334-29 4.667-33.263-26.97-48.965-74.818-22.034-89.848-14.702-110.849z" fill="#df584c"/><path d="M194.481 440.551c3.169-4.504 4.817-9.876 5.744-16.176 1.667-11.333-6-53.333-16-83.333s-28.333-72-41.667-83c0 0-7.334-4.666-12.001 0s-.667 33.333 3 49.666 14 49.334 20 65.667 23.667 52.999 31.333 62.666 9.591 4.51 9.591 4.51z" fill="#b9483e"/><path d="M160.224 296.589c6.667 8.786 17 37.452 22 54.119s11 45.666 4 51.333-22.999-33.523-29.666-53.095-17.211-60.962-8.667-64.905c4.333-2 12.333 12.548 12.333 12.548z" fill="#253744"/><path d="M430.058 125.875s-18.23-3.512-31.531 16.328c0 0 18.531 37.172 18.531 75.672s-16.5 69-16.5 69l-49 168s1 2.833 12 7.833 17 6 24 2 31.999-23.666 40.666-54 13.666-47.333 14.333-88c0 0 14.333-38.999 14.667-66.333.332-27.333-.334-52.333-6.334-75.333s-20.832-55.167-20.832-55.167z" fill="#d1d5d5"/><path d="M430.058 125.875s-6.836 1.392-12.238 3.99c0 0 27.009 44.991 30.238 94.51 3 46-8.227 66.665-16.197 85.999-7.969 19.334-2.803 31.001-3.303 46.501s-7.765 53.5-24.133 76.5c-16.367 23-36.455 31.221-36.455 31.221s11.176 5.507 18.268.812c7.094-4.695 33.633-23.428 41.986-54.699s12.377-42.662 13.355-65.331 2.137-20.663 7.595-43.47 9.855-42.533 8.119-82.533-27.235-93.5-27.235-93.5z" fill="#c6cbcb"/><path d="M363.558 462.708c-11-5-12-7.833-12-7.833l46.221-158.47s6.279 3.47 10.279 5.97 10 13 10 29 .5 32.5-11.5 65-43 66.333-43 66.333z" fill="#253744"/><path d="M351.558 454.875s1 2.833 12 7.833c0 0 31-33.833 43-66.333s11.5-49 11.5-65-6-26.5-10-29-10.279-5.97-10.279-5.97 12.515 5.97 6.646 49.97c-5.867 44-25.658 75.643-33.72 87.754-10.147 15.246-19.147 20.746-19.147 20.746z" fill="#2d404e"/><path d="M378.558 260.375s6.252 4.5 6.252 31-8.252 62-14.252 82-31 84.666-59 89.333c0 0 18 10.332 31-2.001s30.334-40.333 44.5-77.333 14.5-75.332 13.833-89.666-2.333-21.667-6.333-25.334-11.666-6.998-16-7.999z" fill="#2d404e"/><path d="M378.558 260.375s8.5 3.5 8.5 30-9.166 65-15.166 85-32.334 82.666-60.334 87.333c0 0-9.25-5.333-9-13.333s59.965-185.18 59.965-185.18 3.535-5.82 16.035-3.82z" fill="#253744"/><path d="M323.964 466.584c5.801.645 12.709-.294 18.594-5.877 13-12.333 30.334-40.333 44.5-77.333s14.5-75.332 13.833-89.666-2.333-21.667-6.333-25.334c-1.63-1.493-3.867-2.931-6.24-4.179 0 0 6.904 3.512 7.238 26.179s-5.16 59.668-10.746 79.001c-5.588 19.333-24.254 58.333-29.92 67.333-5.668 9-15.174 21.977-22.082 26s-8.844 3.876-8.844 3.876z" fill="#df584c"/><path d="M377.224 268.708c-5.334-8.687-8.957-11.847-18.332-15.001-12.667-4.262-20-6.665-33.334 4.335-13.334 11-31.667 53-41.667 83s-17.667 72-16 83.333 5.667 19.666 16.667 25.333 22.667 7.334 29 4.667 33.264-26.97 48.965-74.818 22.034-89.848 14.701-110.849z" fill="#df584c"/><path d="M273.634 440.551c-3.169-4.504-4.816-9.876-5.743-16.176-1.667-11.333 6-53.333 16-83.333s28.333-72 41.667-83c0 0 7.334-4.666 12.001 0s.667 33.333-3 49.666-14 49.334-20 65.667-23.667 52.999-31.333 62.666c-7.667 9.667-9.592 4.51-9.592 4.51z" fill="#b9483e"/><path d="M307.892 296.589c-6.666 8.786-17 37.452-22 54.119s-11 45.666-4 51.333 22.998-33.523 29.666-53.095 17.211-60.962 8.668-64.905c-4.334-2-12.334 12.548-12.334 12.548z" fill="#253744"/><path d="M352.558 43.375s-45.582-32.198-118-39.398v-.102c-.167.016-.333.035-.5.051-.167-.016-.333-.035-.5-.051v.102c-72.417 7.2-118 39.398-118 39.398-45.5 26.5-77.5 82.5-77.5 82.5s5 1 13.5 4.5 16.667 12 16.667 12 11.515.095 40.537-24.09 29.989-48.37 59.979-63.848c27.946-14.424 60.949-16.246 65.318-16.427 4.369.182 37.372 2.003 65.318 16.427 29.989 15.479 30.957 39.663 59.979 63.848s40.536 24.09 40.536 24.09 8.166-8.5 16.666-12 13.5-4.5 13.5-4.5-32-56-77.5-82.5z" fill="#586a73"/><path d="M463.687 231.875s3.371-47.5-26.129-103.5-75-89-111-106C293.361 6.698 258.962 0 234.058 0c-21.589 0-59.302 6.698-92.5 22.375-36 17-81.5 50-111 106s-26.129 103.5-26.129 103.5l2.071 1.346.39 4.56-2.332 1.594c2 45 11 67.666 13 74.666s4.667 21.668 5 36.001 1.333 38.667 15.333 68 30.667 43.334 39.333 48 16 0 16 0c-11.333-.083-18.751-5.993-27.417-16.167s-16.916-25.168-24.583-45.835-12.666-51.334-12.332-59.001-.334-23.666-2.334-31.332-11.717-30.125-13-54-1.383-53.81 8.667-87.999 24.333-53.666 41.465-75.333 48.535-53.667 94.201-72c40.932-16.433 75.848-15.019 76.167-15.044.319.025 35.234-1.389 76.166 15.044 45.667 18.333 77.069 50.333 94.201 72 17.133 21.667 31.417 41.144 41.467 75.333 10.049 34.189 9.949 64.124 8.666 87.999s-11 46.334-13 54-2.668 23.665-2.334 31.332-4.666 38.334-12.333 59.001-15.917 35.661-24.583 45.835-16.083 16.084-27.416 16.167c0 0 7.333 4.666 16 0 8.666-4.666 25.332-18.667 39.332-48s15-53.667 15.334-68 3-29.001 5-36.001 11-29.666 13-74.666l-2.332-1.595.39-4.56 2.071-1.345z" fill="#253744"/></svg>