<svg xmlns="http://www.w3.org/2000/svg" viewBox="0 0 512.002 512.002" width="512" height="512"><path d="M382.114 45.083c-1.775-18.458-15.705-33.619-33.877-36.871-61.203-10.95-123.268-10.95-184.472 0-18.171 3.251-32.102 18.413-33.877 36.871-8.893 92.502-8.893 186.306 0 278.808 1.775 18.458 15.705 33.619 33.877 36.871 9.596 1.717 19.216 3.133 28.848 4.311l-12.005 86.567H158.85a8.706 8.706 0 0 0-8.582 7.242l-7.325 42.95a8.706 8.706 0 0 0 8.582 10.17H360.47a8.702 8.702 0 0 0 8.582-10.17l-7.324-42.95a8.704 8.704 0 0 0-8.582-7.242H331.39l-11.996-86.567c9.63-1.178 19.248-2.593 28.842-4.31 18.171-3.251 32.101-18.413 33.876-36.871 8.895-92.502 8.895-186.307.002-278.809zm-36.315 423.968l4.355 25.538H161.842l4.354-25.538h179.603zM198.187 451.64l11.747-84.709c7.42.658 14.846 1.151 22.275 1.492v83.217h-34.022zm51.433-.001v-82.736c2.127.026 4.254.071 6.381.071 2.129 0 4.259-.045 6.388-.071v82.736H249.62zm30.181 0v-83.217a520.79 520.79 0 0 0 22.272-1.492l11.738 84.709h-34.01zM336.613 193.2h34.708c-.032 5.482-.097 10.964-.193 16.445h-34.517a8.706 8.706 0 0 0 0 17.412h34.108c-.161 5.484-.354 10.965-.578 16.445h-33.53a8.706 8.706 0 0 0 0 17.412h32.713c-.29 5.485-.612 10.966-.965 16.445h-31.748a8.706 8.706 0 0 0 0 17.412h30.518a1427.58 1427.58 0 0 1-2.347 27.457c-1.031 10.714-9.095 19.513-19.611 21.394-59.17 10.585-119.172 10.585-178.339 0-10.517-1.882-18.581-10.681-19.611-21.397a1418.926 1418.926 0 0 1-2.347-27.457h30.525a8.706 8.706 0 0 0 0-17.412h-31.755c-.353-5.479-.674-10.96-.965-16.445h32.72a8.706 8.706 0 0 0 0-17.412h-33.537c-.224-5.48-.417-10.961-.578-16.445h34.115a8.706 8.706 0 0 0 0-17.412h-34.522c-.095-5.481-.159-10.963-.193-16.445h34.715a8.706 8.706 0 0 0 0-17.412h-34.715c.033-5.483.098-10.964.193-16.445h34.522a8.706 8.706 0 0 0 0-17.412h-34.116c.161-5.484.354-10.965.578-16.445h33.538a8.706 8.706 0 0 0 0-17.412h-32.72c.29-5.485.612-10.966.965-16.445h31.755a8.706 8.706 0 0 0 0-17.412h-30.526a1436.59 1436.59 0 0 1 2.348-27.466c1.03-10.717 9.094-19.515 19.611-21.397 2.443-.436 4.891-.829 7.336-1.229v7.884a8.706 8.706 0 0 0 17.412 0v-10.44a507.833 507.833 0 0 1 19.153-2.112v12.549a8.706 8.706 0 0 0 17.412 0V18.216a503.972 503.972 0 0 1 19.153-.706v14.498a8.706 8.706 0 0 0 17.412 0V17.51c6.387.11 12.771.353 19.153.706v13.792a8.706 8.706 0 0 0 17.412 0V19.459c6.39.577 12.775 1.291 19.153 2.112v10.438a8.706 8.706 0 0 0 17.412 0v-7.884c2.444.401 4.888.792 7.329 1.228 10.517 1.882 18.581 10.681 19.611 21.397.879 9.141 1.645 18.3 2.348 27.466h-30.519a8.706 8.706 0 0 0 0 17.412h31.748c.353 5.479.674 10.96.965 16.445H336.61a8.706 8.706 0 0 0 0 17.412h33.531c.224 5.48.417 10.961.578 16.445h-34.108a8.706 8.706 0 0 0 0 17.412h34.517c.095 5.481.159 10.963.193 16.445h-34.708a8.707 8.707 0 0 0 0 17.413z" fill="#4ea6ec"/><path d="M305.409 74.215h-98.808a8.706 8.706 0 0 0 0 17.412h98.808a8.706 8.706 0 0 0 0-17.412zm0 33.857h-98.808a8.706 8.706 0 0 0 0 17.412h98.808a8.706 8.706 0 0 0 0-17.412zm0 33.857h-98.808a8.706 8.706 0 0 0 0 17.412h98.808a8.706 8.706 0 0 0 0-17.412zm0 33.856h-98.808a8.706 8.706 0 0 0 0 17.412h98.808a8.706 8.706 0 0 0 0-17.412zm0 33.857h-98.808a8.706 8.706 0 0 0 0 17.412h98.808a8.706 8.706 0 0 0 0-17.412zm0 33.858h-98.808a8.706 8.706 0 0 0 0 17.412h98.808a8.706 8.706 0 0 0 0-17.412zm0 33.856h-98.808a8.706 8.706 0 0 0 0 17.412h98.808a8.706 8.706 0 0 0 0-17.412z" fill="#4ea6ec"/></svg>