<svg xmlns="http://www.w3.org/2000/svg" viewBox="0 0 492.835 492.835"><ellipse transform="rotate(-45.001 224.048 260.345)" cx="224.05" cy="260.341" rx="20" ry="39.2" fill="#cc055f"/><path d="M201.666 472.072c-35.2 35.2-104 24.8-153.6-24.8-49.6-48.8-60-117.6-24.8-153.6 35.2-35.2 104-24.8 153.6 24.8s60.8 118.4 24.8 153.6z" fill="#af095c"/><path d="M199.266 333.672c-28 28-84.8-6.4-123.2-44.8s14.4-8.8 42.4-36.8 30.4-69.6 68.8-31.2c38.4 38.4 40 84.8 12 112.8z" fill="#f29c11"/><path d="M285.666 280.072c-20.8-9.6-41.6-12.8-60-11.2 4-28.8.8-60.8-10.4-86.4-24-54.4-69.6 42.4-96.8 69.6-8.8 8.8-20.8 12-31.2 12.8-6.4 0-12.8.8-18.4 1.6-.8 0-1.6 0-2.4.8-13.6 3.2-25.6 8.8-35.2 18.4-36 36-24.8 104.8 24.8 154.4s118.4 60.8 153.6 24.8c9.6-9.6 16-21.6 18.4-35.2v-1.6c.8-5.6 1.6-12 1.6-18.4 1.6-10.4 4-22.4 13.6-31.2 28-28.8 96.8-74.4 42.4-98.4z" fill="#bc005e"/><path d="M285.666 280.072c-20.8-9.6-41.6-12.8-60-11.2 4-28.8.8-60.8-10.4-86.4-24-54.4-69.6 42.4-96.8 69.6-8.8 8.8-20.8 12-31.2 12.8-6.4 0-12.8.8-18.4 1.6-.8 0-1.6 0-2.4.8-13.6 3.2-25.6 8.8-35.2 18.4-15.2 15.2-22.4 36.8-20.8 60.8h266.4c25.6-24 45.6-50.4 8.8-66.4z" fill="#d80579"/><path d="M248.066 290.472c-8 8-20-6.4-27.2-13.6l-1.6-1.6c-8-8-21.6-20-13.6-27.2l174.4-160c8-8 20-8 27.2 0l1.6 1.6c8 8 8 20 0 27.2l-160.8 173.6z"/><g fill="#3a382d"><path d="M257.666 281.672c-8 8-20-6.4-27.2-13.6l-1.6-1.6c-8-8-21.6-20-13.6-27.2l174.4-160c8-8 20-8 27.2 0l1.6 1.6c7.2 8 7.2 20 0 27.2l-160.8 173.6z"/><path d="M433.666 105.672c-8 8-20 8-27.2 0l-16-16c-8-8-8-20 0-27.2l64.8-48c9.6-6.4 18.4-10.4 27.2 0l1.6 1.6c18.4 19.2-8.8 22.4-16.8 29.6l-33.6 60z"/></g><path d="M148.866 411.272c-4.8 4.8-5.6 12-10.4 7.2l-61.6-61.6c-4.8-4.8 2.4-5.6 7.2-10.4 4.8-4.8 12.8-4.8 17.6 0l47.2 47.2c4.8 5.6 4.8 12.8 0 17.6z" fill="#d3d3d3"/><path d="M152.066 408.072c-4.8 4.8-5.6 12-10.4 7.2l-61.6-61.6c-4.8-4.8 2.4-5.6 7.2-10.4 4.8-4.8 12.8-4.8 17.6 0l47.2 47.2c4.8 4.8 4.8 12.8 0 17.6z" fill="#e8e3dd"/><path d="M457.666 8.872c-1.6 1.6-4.8.8-5.6-.8-1.6-1.6-.8-4.8.8-5.6l2.4-1.6c1.6-1.6 4.8-.8 5.6.8 1.6 1.6.8 4.8-.8 5.6l-2.4 1.6zm-13.6 9.6c-1.6 1.6-4.8.8-5.6-.8-1.6-1.6-.8-4.8.8-5.6l2.4-1.6c1.6-1.6 4.8-.8 5.6.8 1.6 1.6.8 4.8-.8 5.6l-2.4 1.6zm-13.6 9.6c-1.6 1.6-4.8.8-5.6-.8-1.6-1.6-.8-4.8.8-5.6l2.4-1.6c1.6-1.6 4.8-.8 5.6.8 1.6 1.6.8 4.8-.8 5.6l-2.4 1.6zm-13.6 9.6c-1.6.8-4 .8-5.6-1.6-1.6-1.6-.8-4.8.8-5.6l2.4-1.6c1.6-1.6 4.8-.8 5.6.8 1.6 1.6.8 4.8-.8 5.6l-2.4 2.4zm-13.6 9.6c-1.6 1.6-4.8.8-5.6-.8-1.6-1.6-.8-4.8.8-5.6l2.4-2.4c1.6-1.6 4.8-.8 5.6.8 1.6 1.6.8 4.8-.8 5.6l-2.4 2.4zm-13.6 9.6c-1.6 1.6-4.8.8-5.6-.8-1.6-1.6-.8-4.8.8-5.6l2.4-1.6c1.6-1.6 4.8-.8 5.6.8 1.6 1.6.8 4.8-.8 5.6l-2.4 1.6z" fill="#cc055f"/><path d="M408.866 106.472c-.8.8-1.6.8-2.4 0l-16.8-16.8c-.8-.8-.8-1.6 0-2.4.8-.8 1.6-.8 2.4 0l16.8 16.8v2.4z" fill="#f29c11"/><g fill="#ddd3c3"><circle cx="375.266" cy="120.072" r="3.2"/><path d="M346.466 153.672c-1.6 1.6-3.2 1.6-4.8 0-1.6-1.6-1.6-3.2 0-4.8s3.2-1.6 4.8 0c.8 1.6.8 4 0 4.8z"/><circle cx="279.266" cy="216.872" r="3.2"/><path d="M312.066 178.472c-1.6 1.6-3.2 1.6-4.8 0-1.6-1.6-1.6-3.2 0-4.8s3.2-1.6 4.8 0c.8 1.6.8 4 0 4.8zm9.6 9.6c-1.6 1.6-3.2 1.6-4.8 0-1.6-1.6-1.6-3.2 0-4.8s3.2-1.6 4.8 0c.8 1.6.8 4 0 4.8z"/></g><path d="M177.666 372.872c-1.6 1.6-4.8 1.6-6.4 0l-48-48c-1.6-1.6-1.6-4.8 0-6.4l13.6-13.6c1.6-1.6 4.8-1.6 6.4 0l48 48c1.6 1.6 1.6 4.8 0 6.4l-13.6 13.6z" fill="#3a382d"/><g fill="#e8e3dd"><circle cx="138.466" cy="320.072" r="1.6"/><circle cx="145.666" cy="328.072" r="1.6"/><circle cx="153.666" cy="335.272" r="1.6"/><circle cx="160.866" cy="342.472" r="1.6"/><circle cx="168.066" cy="349.672" r="1.6"/><circle cx="175.266" cy="356.872" r="1.6"/></g><path d="M206.466 344.072c-1.6 1.6-4.8 1.6-6.4 0l-48-48c-1.6-1.6-1.6-4.8 0-6.4l13.6-13.6c1.6-1.6 4.8-1.6 6.4 0l48 48c1.6 1.6 1.6 4.8 0 6.4l-13.6 13.6z" fill="#3a382d"/><g fill="#e8e3dd"><circle cx="167.266" cy="292.072" r="1.6"/><circle cx="174.466" cy="299.272" r="1.6"/><circle cx="181.666" cy="306.472" r="1.6"/><circle cx="189.666" cy="313.672" r="1.6"/><path d="M197.666 322.472c-.8.8-1.6.8-2.4 0-.8-.8-.8-1.6 0-2.4s1.6-.8 2.4 0c.8 0 .8 1.6 0 2.4z"/><circle cx="204.066" cy="328.072" r="1.6"/></g></svg>