<svg xmlns="http://www.w3.org/2000/svg" viewBox="0 0 511.997 511.997"><path d="M377.875 511.446v-62.035c0-37.642-13.227-72.195-35.296-99.264H98.767c-22.069 27.069-35.296 61.622-35.296 99.264v62.035" fill="#ff525d"/><path d="M130.445 350.148H98.767c-22.069 27.069-35.296 61.622-35.296 99.264v62.035h40.849v-62.035c.001-37.643 9.79-72.195 26.125-99.264z" fill="#ef4152"/><g fill="#fcf8f2"><path d="M212.717 350.984h15.923v161.013h-15.923z"/><circle cx="405.777" cy="103.064" r="46.707"/></g><path d="M393.035 103.066c0-19.802 12.329-36.712 29.723-43.509a46.565 46.565 0 0 0-16.984-3.198c-25.796 0-46.707 20.911-46.707 46.707s20.911 46.707 46.707 46.707a46.565 46.565 0 0 0 16.984-3.198c-17.394-6.797-29.723-23.707-29.723-43.509z" fill="#e5e1dc"/><path d="M406.251 56.889l-37.589 40.763-107.511-37.026-78.882-27.165s8.28-9.83 31.782-19.936C249.729-1.813 288.549-3.798 324.312 6.01h.021a169.698 169.698 0 0 1 81.441 50.348l.477.531z" fill="#ff525d"/><path d="M92.017 241.051c-17.952 0-32.504-14.553-32.504-32.504s14.553-32.504 32.504-32.504h257.315c17.952 0 32.504 14.553 32.504 32.504s-14.552 32.504-32.504 32.504" fill="#efc1ab"/><path d="M340.117 286.918l11.754 20.388c7.195 12.479 4.795 28.277-5.781 38.058l-53.762 49.716c-14.044 12.987-36.399 10.194-46.817-5.848l-24.837-38.244-24.837 38.244c-10.418 16.042-32.773 18.834-46.817 5.848l-53.76-49.717c-10.576-9.78-12.976-25.578-5.781-38.058l11.754-20.388" fill="#fcf8f2"/><path d="M348.196 165.261a128.005 128.005 0 0 1 1.136 17.101v59.456c0 71.059-57.599 109.168-128.657 109.168S92.018 312.877 92.018 241.818v-59.456c0-28.364 9.172-54.584 24.734-75.846l89.476-26.273 130.568 18.046 11.4 66.972z" fill="#ffdac5"/><path d="M127.047 241.051V135.737l-35.03 46.626v58.689c0 71.069 57.599 109.168 128.657 109.168 5.942 0 11.787-.273 17.515-.803-62.771-5.806-111.142-43.239-111.142-108.366z" fill="#efc1ab"/><g fill="#fcb997"><ellipse cx="303.212" cy="266.306" rx="17.515" ry="10.615"/><ellipse cx="138.144" cy="266.306" rx="17.515" ry="10.615"/></g><path d="M349.332 182.362v59.456c0 5.382-.329 10.562-.977 15.562-18.747-5.265-26.039-22.94-28.481-40.285-1.921-13.577-.87-48.385-.021-68.957a306.422 306.422 0 0 1 28.343 17.133 127.866 127.866 0 0 1 1.136 17.091zm-95.973-61.048s-22.388 48.204-125.112 56.144c-2.123.17-4.289.318-6.486.446 0 0 12.568 69.159-28.64 79.721l-.096.032c-.669-5.085-1.008-10.361-1.008-15.838v-59.456c0-28.364 9.172-54.584 24.734-75.846 0 0 13.29-1.412 34.861-.839 25.243.679 61.834 4.076 101.747 15.636z" fill="#5c5e70"/><path d="M324.312 6.01C294.239.639 263.55 21.381 263.55 54.766c0 2.548-.839 4.48-2.399 5.86l-78.882-27.165s8.28-9.83 31.782-19.936C249.729-1.813 288.549-3.798 324.312 6.01z" fill="#ef4152"/><path d="M128.248 177.458c-2.123.17-4.289.318-6.486.446 0 0 12.568 69.159-28.64 79.721-.732-5.308-1.104-10.828-1.104-16.57v-58.692c0-28.364 9.172-54.584 24.734-75.846 0 0 13.29-1.412 34.861-.839a187.515 187.515 0 0 0-23.365 71.78z" fill="#494b5b"/><path d="M367.58 115.826l-19.384 49.446c-62.397-42.514-131.693-55.316-178.05-58.671-32.249-2.325-53.395-.085-53.395-.085l21.358-54.51a29.506 29.506 0 0 1 27.111-18.725c8.365-.106 19.012.064 31.379.902 41.049 2.781 100.898 12.961 157.998 45.189 12.803 7.219 18.344 22.77 12.983 36.454z" fill="#fcf8f2"/><path d="M170.146 106.601c-32.249-2.325-53.395-.085-53.395-.085l21.358-54.51a29.506 29.506 0 0 1 27.111-18.725c8.365-.106 19.012.064 31.379.902-5.955 3.981-33.066 24.946-26.453 72.418z" fill="#e5e1dc"/><path d="M159.152 250.045a7.961 7.961 0 0 1-7.961-7.961v-16.551a7.961 7.961 0 0 1 15.922 0v16.551a7.96 7.96 0 0 1-7.961 7.961zm123.044 0a7.961 7.961 0 0 1-7.961-7.961v-16.551a7.961 7.961 0 0 1 15.922 0v16.551a7.96 7.96 0 0 1-7.961 7.961z" fill="#313344"/><path d="M220.674 291.387c-11.082 0-21.501-4.316-29.337-12.152a7.961 7.961 0 0 1 11.259-11.259c4.829 4.829 11.249 7.488 18.078 7.488s13.249-2.659 18.078-7.488a7.961 7.961 0 1 1 11.259 11.26c-7.837 7.835-18.255 12.151-29.337 12.151z" fill="#ce5b6c"/><circle cx="180.754" cy="446.469" r="19.108" fill="#fcf8f2"/></svg>