<svg xmlns="http://www.w3.org/2000/svg" viewBox="0 0 512 512"><path fill="#ccbab8" d="M256 512h161.391v-66.783l-194.782-55.652z"/><path fill="#dfd1d0" d="M256 512H94.609v-66.783L256 389.565z"/><path fill="#fe4e8e" d="M256.083 66.783L197.395 256l58.688 189.217h161.308V66.783z"/><path fill="#ff8c5c" d="M94.609 66.783h161.469v378.435H94.609z"/><path fill="#ccbab8" d="M256 0l-22.177 133.565h55.568V0z"/><g fill="#dfd1d0"><path d="M256 0h-33.391v133.565h33.474z"/><path d="M256.042 116.87l-30.355 16.695 30.355 16.696h66.741V116.87z"/></g><path fill="#fff" d="M189.217 116.87h66.827v33.391h-66.827z"/><path fill="#ffc929" d="M349.626 276.718l-64.694-9.399L256 208.696 236.585 322.35 256 356.362l57.864 30.421-11.051-64.433z"/><path fill="#ffd866" d="M227.068 267.319l-64.694 9.399 46.812 45.632-11.05 64.433L256 356.362V208.696z"/></svg>