<svg xmlns="http://www.w3.org/2000/svg" viewBox="0 0 512 512"><path d="M466.039 466.998c0 15.083-3.302 30.53-8.093 45.002H54.055c-4.792-14.472-8.093-29.919-8.093-45.002 0-54.66 48.228-57.876 32.149-136.667-16.069-78.791 31.012-120.92 31.012-120.92h293.755s47.081 42.129 31.012 120.92c-16.08 78.791 32.149 82.007 32.149 136.667z" fill="#5c5e70"/><path d="M283.92 209.412V512H54.055c-4.792-14.472-8.093-29.919-8.093-45.002 0-54.66 48.228-57.876 32.149-136.667-16.069-78.791 31.012-120.92 31.012-120.92l174.797.001z" fill="#494b5b"/><path d="M236.698 5.638L135.959 69.945a35.871 35.871 0 0 0-16.571 30.237v98.302h273.22v-98.302a35.872 35.872 0 0 0-16.571-30.237L275.302 5.638a35.87 35.87 0 0 0-38.604 0z" fill="#ffd15c"/><path d="M236.696 5.639A35.792 35.792 0 0 1 255.991 0c-3.923 0-7.825 1.876-11.267 5.639l-58.852 64.308c-6.025 6.593-9.68 17.988-9.68 30.23v98.311h-56.804v-98.311a35.873 35.873 0 0 1 16.573-30.23L236.696 5.639z" fill="#edbb4c"/><path d="M388.309 512v-1.565c0-41.389-13.368-79.059-35.247-107.198l-194.125.011c-21.879 28.129-35.247 65.798-35.247 107.187V512" fill="#34abe0"/><path d="M202.351 403.247l150.714-.009-.002-.002-194.125.011c-21.879 28.129-35.247 65.798-35.247 107.187V512h43.413v-1.565c0-41.389 13.367-79.059 35.247-107.188z" fill="#279fc9"/><path fill="#ffd15c" d="M278.463 413.942V512h-46.62v-97.705"/><path d="M216.213 432.202c6.914 14.45 21.675 24.43 38.774 24.43 17.366 0 32.331-10.312 39.106-25.149l21.99-89.897-114.161 12.863 14.291 77.753z" fill="#edbb4c"/><path d="M376.613 316.862l11.87 20.588c7.266 12.602 4.842 28.555-5.838 38.433l-54.292 50.205c-14.182 13.115-36.757 10.294-47.278-5.906l-25.081-38.62-25.081 38.62c-10.52 16.2-33.095 19.019-47.278 5.906l-54.292-50.205c-10.68-9.876-13.104-25.829-5.838-38.433l11.87-20.589" fill="#fcf8f2"/><path d="M385.533 281.427c-5.221 65.252-61.221 100.134-129.538 100.134-5.703 0-11.32-.247-16.83-.729-60.471-5.306-107.916-39.599-112.697-99.405 31.238-23.455 35.097-59.795 35.097-59.795h188.872c-.001 0 3.858 36.34 35.096 59.795z" fill="#ffdac5"/><path d="M239.165 380.832c-60.471-5.306-107.916-39.599-112.697-99.405 31.238-23.455 35.097-59.795 35.097-59.795h14.461c-10.237 62.711-4.642 134.073 63.108 159.189.009.001.02.011.031.011z" fill="#efc1ab"/><path d="M195.727 279.629a8.04 8.04 0 0 1-8.04-8.04v-16.714a8.04 8.04 0 1 1 16.08 0v16.714c0 4.44-3.6 8.04-8.04 8.04zm124.255 0a8.04 8.04 0 0 1-8.04-8.04v-16.714a8.04 8.04 0 1 1 16.08 0v16.714c0 4.44-3.6 8.04-8.04 8.04z" fill="#313344"/><path d="M257.855 337.438c-10.731 0-21.458-4.083-29.626-12.252a8.04 8.04 0 0 1 11.371-11.369c10.066 10.066 26.445 10.067 36.513 0a8.04 8.04 0 0 1 11.368 11.37c-8.167 8.167-18.898 12.251-29.626 12.251z" fill="#ce5b6c"/><path d="M390.662 137.384H121.337c-6.746 0-12.215 5.469-12.215 12.215v59.814c0 6.746 5.468 12.215 12.215 12.215h269.326c6.746 0 12.215-5.469 12.215-12.215v-59.814c0-6.747-5.47-12.215-12.216-12.215z" fill="#ffd15c"/><g fill="#edbb4c"><path d="M160.576 209.413v-59.814c0-6.746 5.469-12.215 12.215-12.215h-51.455c-6.746 0-12.215 5.469-12.215 12.215v59.814c0 6.746 5.469 12.215 12.215 12.215h51.455c-6.745 0-12.215-5.469-12.215-12.215z"/><path d="M135.922 206.524a8.04 8.04 0 0 1-8.04-8.04v-36.981a8.04 8.04 0 1 1 16.08 0v36.981c0 4.44-3.6 8.04-8.04 8.04zm101.274 0a8.04 8.04 0 0 1-8.04-8.04v-36.981a8.04 8.04 0 1 1 16.08 0v36.981a8.04 8.04 0 0 1-8.04 8.04zm112.82 0a8.04 8.04 0 0 1-8.04-8.04v-36.981a8.04 8.04 0 1 1 16.08 0v36.981a8.04 8.04 0 0 1-8.04 8.04zm-150.427 0a8.04 8.04 0 0 1-8.04-8.04v-36.981a8.04 8.04 0 1 1 16.08 0v36.981a8.04 8.04 0 0 1-8.04 8.04zm-37.606 0a8.04 8.04 0 0 1-8.04-8.04v-36.981a8.04 8.04 0 1 1 16.08 0v36.981a8.04 8.04 0 0 1-8.04 8.04zm112.82 0a8.04 8.04 0 0 1-8.04-8.04v-36.981a8.04 8.04 0 1 1 16.08 0v36.981a8.04 8.04 0 0 1-8.04 8.04zm37.607 0a8.04 8.04 0 0 1-8.04-8.04v-36.981a8.04 8.04 0 1 1 16.08 0v36.981a8.04 8.04 0 0 1-8.04 8.04zm63.668 0a8.04 8.04 0 0 1-8.04-8.04v-36.981a8.04 8.04 0 1 1 16.08 0v36.981c0 4.44-3.6 8.04-8.04 8.04z"/></g><g fill="#fcb997"><ellipse cx="339.347" cy="296.821" rx="17.688" ry="10.72"/><ellipse cx="172.653" cy="296.821" rx="17.688" ry="10.72"/></g></svg>