<svg xmlns="http://www.w3.org/2000/svg" viewBox="0 0 496.008 496.008"><path d="M247.836 496.008c-63.536 0-123.368-23.664-169.88-67.504C27.692 381.144.012 317.032.012 248c0-35.04 7.224-69 21.48-100.928l1.8-4.032 4.36-.624c44.656-6.472 76.536-33.272 92.208-77.512 5.408-15.288 8.152-32.728 8.152-51.824V0h240v13.08c0 19.104 2.744 36.536 8.16 51.824 15.672 44.24 47.552 71.048 92.208 77.512l4.36.624 1.8 4.032c17.064 38.24 24.168 80.688 20.528 122.744-10.472 121.48-110.192 218.52-231.968 225.744-5.112.296-10.208.448-15.264.448z" fill="#ffa64d"/><g fill="#3f3a34"><path d="M439.124 188.952l-1.248-4.008-4-1.248c-48.96-15.32-84.56-50.848-102.944-102.768-2.968-8.384-5.368-17.272-7.136-26.448L322.548 48H173.476l-1.248 6.488c-1.768 9.168-4.168 18.072-7.128 26.44-18.392 51.92-53.992 87.464-102.944 102.768l-4.008 1.248-1.24 4.016c-5.904 19.032-8.896 38.896-8.896 59.04 0 110.28 89.72 200 200 200 4.048 0 8.144-.12 12.24-.36 98.168-5.824 178.56-84.04 187-181.952 2.264-26.304-.464-52.128-8.128-76.736zm-7.816 75.36c-7.768 90.056-81.712 162.008-172.008 167.36C152.844 438 64.012 353.192 64.012 248c0-17.152 2.352-34.072 7-50.376 51.848-17.528 89.536-55.944 109.168-111.36 2.528-7.128 4.672-14.592 6.408-22.264h122.856a195.39 195.39 0 0 0 6.408 22.272c19.624 55.408 57.32 93.832 109.176 111.368 6.136 21.44 8.248 43.848 6.28 66.672z"/><path d="M278.42 396.984l3.192 15.672c32.736-6.672 62.552-22.936 86.232-47.048l-11.416-11.216c-21.432 21.824-48.416 36.552-78.008 42.592zm-21.008 2.744a161.32 161.32 0 0 1-9.4.272v16c3.424 0 6.872-.104 10.36-.304a188.39 188.39 0 0 0 6.432-.504l-1.592-15.92a155.84 155.84 0 0 1-5.8.456zm61.432-187.2c.72-4.072 1.168-8.248 1.168-12.528 0-39.704-32.304-72-72-72s-72 32.296-72 72c0 4.28.448 8.456 1.168 12.536-28.528 9.576-49.168 36.504-49.168 68.224 0 39.704 32.304 72 72 72 18.448 0 35.248-7.032 48-18.488 12.752 11.456 29.552 18.488 48 18.488 39.696 0 72-32.296 72-72 0-31.72-20.632-58.656-49.168-68.232zM192.012 200c0-30.872 25.12-56 56-56s56 25.128 56 56c0 3.112-.32 6.144-.808 9.12a73.577 73.577 0 0 0-7.184-.368c-3.136 0-6.208.272-9.24.664.752-3.128 1.232-6.28 1.232-9.416 0-22.056-17.944-40-40-40s-40 17.944-40 40c0 3.136.48 6.296 1.24 9.416-3.032-.392-6.104-.664-9.24-.664-2.432 0-4.824.128-7.192.368-.488-2.976-.808-6.008-.808-9.12zm33.024 6.848c-.68-2.288-1.024-4.592-1.024-6.848 0-13.232 10.768-24 24-24s24 10.768 24 24c0 2.248-.344 4.552-1.016 6.84l-2.152 7.28c-7.712 3.16-14.72 7.64-20.832 13.12-6.112-5.488-13.128-9.968-20.84-13.128l-2.136-7.264zm22.976 45.216a55.439 55.439 0 0 1 2.104 3.832c-.704.024-1.392.104-2.104.104s-1.4-.08-2.096-.104a55.349 55.349 0 0 1 2.096-3.832zm-10.648-12.912c-3.032 4.256-5.656 8.824-7.712 13.696-13.872-4.84-25.256-14.968-31.744-27.984.704-.024 1.392-.104 2.104-.104 14.36 0 27.432 5.472 37.352 14.392zm-34.88 16.568c6.672 5.464 14.352 9.712 22.696 12.512-.72 4.072-1.168 8.248-1.168 12.528 0 2.832.208 5.616.528 8.368l-6.536 7.424c-4.664 5.296-11.048 8.208-17.992 8.208-13.232 0-24-10.768-24-24 0-11.256 7.968-21.12 18.952-23.448l7.52-1.592zm37.528 25.04c0-3.112.32-6.144.808-9.12 2.368.232 4.768.36 7.192.36 2.432 0 4.824-.128 7.192-.368.488 2.976.808 6.016.808 9.128 0 10.496-2.952 20.288-8 28.696-5.04-8.408-8-18.2-8-28.696zm30.84-12.536c8.344-2.8 16.032-7.048 22.704-12.512l7.504 1.592c10.992 2.328 18.968 12.192 18.968 23.456 0 13.232-10.768 24-24 24-6.944 0-13.328-2.912-17.984-8.2l-6.552-7.44c.32-2.752.52-5.528.52-8.36 0-4.28-.44-8.456-1.16-12.536zm-4.472-15.384c-2.056-4.872-4.68-9.432-7.712-13.696 9.92-8.912 22.992-14.392 37.344-14.392.712 0 1.4.08 2.096.104-6.48 13.024-17.856 23.152-31.728 27.984zm-122.368 27.92c0-24.432 15.76-45.216 37.632-52.84 2.16 5.112 4.944 9.872 8.168 14.304-17.344 4.584-29.792 20.424-29.792 38.536 0 22.056 17.944 40 40 40 11.288 0 21.624-4.656 29.304-12.992 2.112 5.2 4.832 10.08 8.04 14.6-9.92 8.912-22.992 14.392-37.344 14.392-30.88 0-56.008-25.128-56.008-56zm152 56c-14.352 0-27.424-5.48-37.344-14.392a71.593 71.593 0 0 0 8.04-14.608c7.68 8.336 18.016 12.992 29.304 12.992 22.056 0 40-17.944 40-40 0-18.12-12.456-33.96-29.808-38.544 3.224-4.432 6.008-9.192 8.16-14.296 21.888 7.624 37.648 28.408 37.648 52.848 0 30.872-25.12 56-56 56z"/></g></svg>