<svg xmlns="http://www.w3.org/2000/svg" viewBox="0 0 512.005 512.005"><path d="M129.361 285.722c-17.67 0-31.995-14.324-31.995-31.995s14.324-31.995 31.995-31.995h253.283c17.67 0 31.995 14.324 31.995 31.995s-14.324 31.995-31.995 31.995" fill="#efc1ab"/><path d="M409.76 511.455v-20.897c0-42.454-17.209-80.896-45.035-108.721a150.802 150.802 0 0 0-5.789-5.496H153.071c-31.211 28.139-50.824 68.89-50.824 114.218v20.897" fill="#34abe0"/><path d="M200.088 376.34H153.07c-31.211 28.139-50.824 68.89-50.824 114.218v20.897h47.018v-20.897c0-45.328 19.613-86.079 50.824-114.218zm48.078 54.272h15.673v81.393h-15.673z" fill="#279fc9"/><path d="M303.149 59.099a48.565 48.565 0 0 0 1.202-10.752C304.351 21.65 282.701 0 256.004 0s-48.347 21.65-48.347 48.347c0 3.688.418 7.283 1.191 10.742" fill="#34abe0"/><path d="M240.129 59.089a49.205 49.205 0 0 1-1.191-10.742c0-21.222 13.686-39.241 32.706-45.746A48.274 48.274 0 0 0 256.004 0c-26.697 0-48.347 21.65-48.347 48.347 0 3.688.418 7.283 1.191 10.742l94.302.01.001-.003-63.022-.007z" fill="#279fc9"/><path fill="#fcf8f2" d="M333.635 404.553l-51.605 68.37-26.026-42.316-26.028 42.316-51.605-68.37"/><path d="M382.645 217.175v68.547c0 94.303-56.706 144.885-126.641 144.885-69.945 0-126.641-50.582-126.641-144.885V217.16l61.434-67.095 167.697 14.105 24.151 53.005z" fill="#5c5e70"/><path d="M164.632 285.722V178.641l-35.269 38.52v68.561c0 94.303 56.696 144.885 126.641 144.885 5.985 0 11.87-.379 17.634-1.116-61.596-7.871-109.006-57.537-109.006-143.769z" fill="#494b5b"/><path d="M349.892 187.681v126.714c0 9.651-7.823 17.475-17.475 17.475-9.651 0-17.475-7.823-17.475-17.475 0-9.651-7.823-17.475-17.475-17.475h-82.93c-9.651 0-17.475 7.823-17.475 17.475 0 9.651-7.823 17.475-17.475 17.475-9.651 0-17.475-7.823-17.475-17.475V187.681" fill="#ffdac5"/><path d="M153.049 122.347c14.441-43.02 55.079-74 102.955-74 29.976 0 57.121 12.148 76.777 31.803 11.727 11.727 20.784 26.115 26.178 42.196" fill="#fcf8f2"/><path d="M278.744 50.74a108.997 108.997 0 0 0-22.74-2.393c-47.876 0-88.513 30.979-102.955 74H198.5c12.091-36.02 42.551-63.585 80.244-71.607z" fill="#e5e1dc"/><path d="M195.441 275.278a7.837 7.837 0 0 1-7.837-7.837v-16.292a7.837 7.837 0 0 1 15.674 0v16.292a7.837 7.837 0 0 1-7.837 7.837zm121.117 0a7.837 7.837 0 0 1-7.837-7.837v-16.292c0-4.328 3.508-7.837 7.837-7.837s7.837 3.509 7.837 7.837v16.292a7.837 7.837 0 0 1-7.837 7.837z" fill="#313344"/><path d="M387.858 217.923a890.306 890.306 0 0 0-211.132-6.269 885.43 885.43 0 0 0-52.59 6.269l8.244-75.818c1.264-11.619 10.282-20.919 21.87-22.486a761.856 761.856 0 0 1 25.673-3.041 756.706 756.706 0 0 1 177.82 3.041c11.588 1.567 20.605 10.867 21.87 22.486l8.245 75.818z" fill="#34abe0"/><path d="M176.727 211.654a885.43 885.43 0 0 0-52.59 6.269l8.244-75.818c1.264-11.619 10.282-20.919 21.87-22.486a761.856 761.856 0 0 1 25.673-3.041c0 .001-21.9 55.579-3.197 95.076z" fill="#279fc9"/><g fill="#fcf8f2"><path d="M244.678 179.309a7.81 7.81 0 0 1-5.541-2.296 7.835 7.835 0 0 1 0-11.082l22.643-22.643a7.838 7.838 0 0 1 11.083 11.082l-22.644 22.643a7.814 7.814 0 0 1-5.541 2.296z"/><path d="M267.322 179.309a7.813 7.813 0 0 1-5.542-2.296l-22.643-22.643c-3.061-3.061-3.061-8.022 0-11.082s8.023-3.061 11.082 0l22.644 22.643a7.837 7.837 0 0 1 0 11.082 7.81 7.81 0 0 1-5.541 2.296z"/></g><path d="M256.004 347.004c-10.909 0-21.164-4.249-28.878-11.962a7.837 7.837 0 0 1 11.082-11.082c4.753 4.753 11.073 7.371 17.795 7.371 6.722 0 13.04-2.617 17.794-7.371a7.837 7.837 0 0 1 11.082 0 7.835 7.835 0 0 1 .001 11.083c-7.712 7.712-17.969 11.961-28.876 11.961z" fill="#797b89"/></svg>