<?xml version="1.0" encoding="iso-8859-1"?>
<!-- Generator: Adobe Illustrator 16.0.0, SVG Export Plug-In . SVG Version: 6.00 Build 0)  -->
<!DOCTYPE svg PUBLIC "-//W3C//DTD SVG 1.1//EN" "http://www.w3.org/Graphics/SVG/1.1/DTD/svg11.dtd">
<svg xmlns="http://www.w3.org/2000/svg" xmlns:xlink="http://www.w3.org/1999/xlink" version="1.1" id="Capa_1" x="0px" y="0px" width="512px" height="512px" viewBox="0 0 556.665 556.665" style="enable-background:new 0 0 556.665 556.665;" xml:space="preserve">
<g>
	<g>
		<path d="M545.783,241.475l-45.267-60.229l-13.474-74.122c-4.184-23.004-22.54-40.669-45.702-43.958L366.75,52.582L304.814,9.696    C289.254-1.079,269.614-2.982,252.27,4.601c-3.834,1.675-7.478,3.801-10.843,6.331l-60.225,45.262l-74.127,13.474    c-4.138,0.751-8.177,1.988-12.016,3.663c-17.08,7.465-29.316,23.574-31.936,42.031l-10.579,74.588l-42.89,61.948    c-13.311,19.222-12.816,44.698,1.23,63.391l45.267,60.222l13.468,74.125c4.184,23.007,22.54,40.669,45.699,43.957l74.596,10.584    l61.93,42.886c15.33,10.609,35.463,12.572,52.545,5.1c3.843-1.678,7.498-3.811,10.849-6.332l60.231-45.268l74.13-13.474    c4.133-0.751,8.172-1.988,12.014-3.661c17.077-7.467,29.313-23.57,31.934-42.035l10.578-74.592l42.891-61.94    C560.324,285.634,559.821,260.159,545.783,241.475z M278.331,476.405c-109.22,0-198.071-88.852-198.071-198.068    c0-109.22,88.852-198.071,198.071-198.071s198.071,88.851,198.071,198.071C476.402,387.554,387.551,476.405,278.331,476.405z" fill="#AAFAC8"/>
		<path d="M278.331,98.941c-98.915,0-179.396,80.473-179.396,179.396c0,98.913,80.476,179.396,179.396,179.396    c98.92,0,179.394-80.483,179.394-179.396C457.725,179.415,377.246,98.941,278.331,98.941z M334.02,278.428h-36.434    c0,58.21,0,129.891,0,129.891h-53.995c0,0,0-70.972,0-129.891h-25.67v-45.904h25.67V202.83c0-21.262,10.095-54.492,54.492-54.492    l39.985,0.158v44.545c0,0-24.312,0-29.039,0c-4.723,0-11.438,2.361-11.438,12.5v26.978h41.15L334.02,278.428z" fill="#AAFAC8"/>
	</g>
</g>
<g>
</g>
<g>
</g>
<g>
</g>
<g>
</g>
<g>
</g>
<g>
</g>
<g>
</g>
<g>
</g>
<g>
</g>
<g>
</g>
<g>
</g>
<g>
</g>
<g>
</g>
<g>
</g>
<g>
</g>
</svg>
