<?xml version="1.0" encoding="iso-8859-1"?>
<!-- Generator: Adobe Illustrator 16.0.0, SVG Export Plug-In . SVG Version: 6.00 Build 0)  -->
<!DOCTYPE svg PUBLIC "-//W3C//DTD SVG 1.1//EN" "http://www.w3.org/Graphics/SVG/1.1/DTD/svg11.dtd">
<svg xmlns="http://www.w3.org/2000/svg" xmlns:xlink="http://www.w3.org/1999/xlink" version="1.1" id="Capa_1" x="0px" y="0px" width="512px" height="512px" viewBox="0 0 556.665 556.665" style="enable-background:new 0 0 556.665 556.665;" xml:space="preserve">
<g>
	<g>
		<path d="M545.783,241.469l-45.267-60.229l-13.474-74.125c-4.184-23.001-22.54-40.669-45.702-43.954L366.75,52.582L304.814,9.697    C289.254-1.079,269.614-2.982,252.27,4.599c-3.834,1.678-7.478,3.803-10.843,6.333l-60.225,45.262l-74.127,13.474    c-4.138,0.75-8.177,1.988-12.016,3.664c-17.08,7.464-29.316,23.573-31.936,42.031L52.544,189.95l-42.89,61.948    c-13.311,19.221-12.816,44.697,1.23,63.391l45.267,60.217l13.468,74.124c4.184,23.012,22.54,40.669,45.699,43.963l74.596,10.584    l61.93,42.885c15.33,10.615,35.463,12.572,52.545,5.096c3.843-1.678,7.498-3.812,10.849-6.328l60.231-45.267l74.13-13.474    c4.133-0.746,8.172-1.979,12.014-3.65c17.077-7.467,29.313-23.571,31.934-42.036l10.578-74.596l42.891-61.941    C560.324,285.633,559.821,260.155,545.783,241.469z M278.331,476.401c-109.22,0-198.071-88.856-198.071-198.073    c0-109.22,88.852-198.074,198.071-198.074s198.071,88.854,198.071,198.074C476.402,387.544,387.551,476.401,278.331,476.401z" fill="#AAFAC8"/>
		<path d="M330.917,265.462c-0.129-0.977-0.253-1.947-0.439-2.895c-0.187-0.94-0.436-1.851-0.663-2.762    c-0.166-0.684-0.326-1.38-0.523-2.048c-0.32-1.072-0.688-2.11-1.076-3.154c-0.177-0.474-0.332-0.956-0.519-1.421    c-0.466-1.163-0.983-2.302-1.527-3.425c-0.145-0.298-0.279-0.601-0.435-0.896c-0.627-1.225-1.3-2.423-2.01-3.591    c-0.098-0.163-0.191-0.324-0.295-0.477c-0.776-1.25-1.61-2.473-2.49-3.648c-0.042-0.06-0.088-0.117-0.125-0.176    c-0.937-1.229-1.91-2.428-2.946-3.578c-9.729-10.848-23.819-17.714-39.532-17.714c-15.721,0-29.805,6.861-39.54,17.714l0,0    c-1.038,1.155-2.024,2.359-2.959,3.599c-0.031,0.049-0.067,0.096-0.106,0.14c-0.885,1.186-1.722,2.423-2.506,3.679    c-0.096,0.143-0.182,0.292-0.272,0.44c-0.72,1.178-1.393,2.387-2.025,3.622c-0.142,0.285-0.277,0.577-0.419,0.87    c-0.551,1.129-1.072,2.273-1.538,3.451c-0.184,0.456-0.339,0.927-0.513,1.39c-0.389,1.049-0.764,2.098-1.083,3.18    c-0.202,0.663-0.349,1.346-0.525,2.027c-0.233,0.922-0.481,1.838-0.668,2.778c-0.187,0.953-0.308,1.924-0.44,2.895    c-0.101,0.709-0.233,1.411-0.309,2.136c-0.168,1.719-0.264,3.464-0.264,5.229c0,29.365,23.801,53.153,53.151,53.153    c29.341,0,53.151-23.788,53.151-53.153c0-1.766-0.099-3.511-0.265-5.229C331.155,266.873,331.021,266.167,330.917,265.462z     M278.347,306.599c-18.67,0-33.777-15.109-33.777-33.776c0-6.439,1.877-12.371,4.997-17.479c-0.494,1.582-0.833,3.241-0.833,5.002    c0,9.453,7.661,17.132,17.122,17.132c9.465,0,17.121-7.685,17.121-17.132c0-9.466-7.656-17.132-17.121-17.132    c-1.745,0-3.399,0.329-4.995,0.82c5.111-3.102,11.045-4.994,17.476-4.994c18.654,0,33.79,15.107,33.79,33.777    C312.126,291.485,296.99,306.599,278.347,306.599z" fill="#AAFAC8"/>
		<path d="M350.314,175.373H206.363c-14.043,0-25.468,11.433-25.468,25.474v36.544h36.161    c12.282-21.147,35.118-35.436,61.286-35.436s49.003,14.284,61.286,35.436h36.159v-36.544    C375.78,186.806,364.368,175.373,350.314,175.373z M366.926,210.81c0,4.877-3.981,8.862-8.859,8.862h-17.72    c-4.878,0-8.854-3.985-8.854-8.862v-17.714c0-4.878,3.977-8.854,8.854-8.854h17.72c4.878,0,8.859,3.977,8.859,8.854V210.81z" fill="#AAFAC8"/>
		<path d="M278.331,98.934c-98.915,0-179.396,80.476-179.396,179.394c0,98.912,80.476,179.391,179.396,179.391    c98.92,0,179.394-80.479,179.394-179.391C457.725,179.41,377.246,98.934,278.331,98.934z M393.506,344.793    c0,23.86-19.33,43.196-43.191,43.196H206.363c-23.855,0-43.188-19.336-43.188-43.196V200.842    c0-23.861,19.333-43.188,43.188-43.188h143.952c23.861,0,43.191,19.327,43.191,43.188V344.793z" fill="#AAFAC8"/>
	</g>
</g>
<g>
</g>
<g>
</g>
<g>
</g>
<g>
</g>
<g>
</g>
<g>
</g>
<g>
</g>
<g>
</g>
<g>
</g>
<g>
</g>
<g>
</g>
<g>
</g>
<g>
</g>
<g>
</g>
<g>
</g>
</svg>
