<?xml version="1.0" encoding="iso-8859-1"?>
<!-- Generator: Adobe Illustrator 16.0.0, SVG Export Plug-In . SVG Version: 6.00 Build 0)  -->
<!DOCTYPE svg PUBLIC "-//W3C//DTD SVG 1.1//EN" "http://www.w3.org/Graphics/SVG/1.1/DTD/svg11.dtd">
<svg xmlns="http://www.w3.org/2000/svg" xmlns:xlink="http://www.w3.org/1999/xlink" version="1.1" id="Capa_1" x="0px" y="0px" width="512px" height="512px" viewBox="0 0 556.665 556.665" style="enable-background:new 0 0 556.665 556.665;" xml:space="preserve">
<g>
	<g>
		<path d="M545.783,241.475l-45.267-60.229l-13.474-74.122c-4.184-23.004-22.54-40.669-45.702-43.958L366.75,52.582L304.814,9.696    C289.254-1.079,269.614-2.982,252.27,4.601c-3.834,1.675-7.478,3.801-10.843,6.331l-60.225,45.262l-74.127,13.474    c-4.138,0.751-8.177,1.988-12.016,3.663c-17.08,7.465-29.316,23.574-31.936,42.031l-10.579,74.588l-42.89,61.948    c-13.311,19.222-12.816,44.698,1.23,63.391l45.267,60.222l13.468,74.125c4.184,23.007,22.54,40.669,45.699,43.957l74.596,10.584    l61.93,42.886c15.33,10.609,35.463,12.572,52.545,5.1c3.843-1.678,7.498-3.811,10.849-6.332l60.231-45.268l74.13-13.474    c4.133-0.751,8.172-1.988,12.014-3.661c17.077-7.467,29.313-23.57,31.934-42.035l10.578-74.592l42.891-61.94    C560.324,285.634,559.821,260.159,545.783,241.475z M278.331,476.405c-109.22,0-198.071-88.852-198.071-198.068    c0-109.22,88.852-198.071,198.071-198.071s198.071,88.851,198.071,198.071C476.402,387.554,387.551,476.405,278.331,476.405z" fill="#63C7B2"/>
		<path d="M278.331,98.941c-98.915,0-179.396,80.473-179.396,179.396c0,98.913,80.476,179.396,179.396,179.396    c98.92,0,179.394-80.483,179.394-179.396C457.725,179.415,377.246,98.941,278.331,98.941z M413.503,270.684l0.161,0.261    c-6.582,8.601-17.218,12.638-31.976,12.136c-2.283,11.578-8.021,23.627-17.129,36.293c-19.744,24.114-43.703,40.068-71.971,47.835    h-0.502c-29.106,7.845-58.306,7.183-87.498-2.019c-25.481-9.627-46.067-24.975-61.591-46.236    c15.441,12.143,29.699,18.223,43.028,18.311l0.334-0.166c21.857,1.43,40.506-5.411,55.947-20.599    c0.085-0.083,0.168-0.165,0.249-0.254l-0.502-0.59c-8.945,0.425-15.022-2.273-18.396-8.099c-0.927-3.868,0-7.25,2.874-10.123    c1.608-1.869,4.046-3.537,7.174-5.07c-15.786,0.426-26.665-5.053-32.827-16.53c4.73-5.054,10.801-7.503,18.139-7.1l0.091-0.249    c-18.729-5.054-28.606-14.165-29.528-27.403c4.813-1.449,9.787-2.206,14.936-2.123v-0.253    c-14.602-8.272-21.937-19.656-21.856-33.919c13.414,4.135,26.665,9.448,39.742,15.863c11.977,5.059,22.359,10.289,31.219,15.765    c7.508,4.249,13.75,9.466,18.988,15.711l0.248-0.249l1.344-1.007c3.633-13.759,9.709-27.261,18.393-40.674l0.171-0.424    c3.371-4.898,7.757-10.287,13.251-16.12c2.604-2.609,5.649-5.064,9.108-7.342c0.673,0.424-0.342,2.789-3.045,7.172    c7.265-6.144,14.183-9.279,20.594-9.448c1.439,1.432-1.093,4.215-7.591,8.182c5.142-1.944,10.879-3.208,17.124-3.967    c2.713,0.334,3.64,1.686,2.874,4.138c-2.196,3.021-9.533,5.81-21.936,8.521c-0.082,0-0.17,0-0.253,0.083l0.419,0.93    c13.676-0.526,25.569,3.79,35.688,12.815c0.171,0.168,0.342,0.354,0.513,0.44c11.982,11.555,18.9,24.29,20.832,38.3    c10.631,3.79,21.349,3.71,32.239-0.347c-2.952,7.943-12.153,12.748-27.761,14.434c-0.088-0.075-0.088-0.075-0.088,0v1.527    C398.983,271.862,408.604,272.372,413.503,270.684z" fill="#63C7B2"/>
	</g>
</g>
<g>
</g>
<g>
</g>
<g>
</g>
<g>
</g>
<g>
</g>
<g>
</g>
<g>
</g>
<g>
</g>
<g>
</g>
<g>
</g>
<g>
</g>
<g>
</g>
<g>
</g>
<g>
</g>
<g>
</g>
</svg>
