<?xml version="1.0" encoding="iso-8859-1"?>
<!-- Generator: Adobe Illustrator 16.0.0, SVG Export Plug-In . SVG Version: 6.00 Build 0)  -->
<!DOCTYPE svg PUBLIC "-//W3C//DTD SVG 1.1//EN" "http://www.w3.org/Graphics/SVG/1.1/DTD/svg11.dtd">
<svg xmlns="http://www.w3.org/2000/svg" xmlns:xlink="http://www.w3.org/1999/xlink" version="1.1" id="Capa_1" x="0px" y="0px" width="512px" height="512px" viewBox="0 0 556.672 556.672" style="enable-background:new 0 0 556.672 556.672;" xml:space="preserve">
<g>
	<g>
		<path d="M545.789,241.478l-45.268-60.229l-13.474-74.123c-4.179-23.003-22.54-40.669-45.696-43.957l-74.591-10.584L304.825,9.701    C289.26-1.075,269.619-2.978,252.274,4.605c-3.834,1.675-7.477,3.801-10.843,6.33l-60.224,45.262L107.08,69.671    c-4.137,0.75-8.176,1.988-12.016,3.664c-17.08,7.464-29.316,23.573-31.936,42.031l-10.584,74.588l-42.89,61.948    c-13.311,19.221-12.816,44.697,1.23,63.391l45.267,60.222l13.468,74.125c4.181,23.006,22.54,40.669,45.699,43.957l74.596,10.584    l61.93,42.885c15.33,10.61,35.463,12.572,52.55,5.101c3.838-1.678,7.498-3.811,10.849-6.333l60.227-45.267l74.136-13.474    c4.132-0.751,8.171-1.988,12.008-3.661c17.082-7.467,29.313-23.57,31.938-42.036l10.579-74.591l42.891-61.94    C560.329,285.637,559.832,260.164,545.789,241.478z M278.336,476.41c-109.219,0-198.071-88.852-198.071-198.068    c0-109.22,88.852-198.071,198.071-198.071c109.22,0,198.071,88.851,198.071,198.071    C476.407,387.558,387.556,476.41,278.336,476.41z" fill="#AAFAC8"/>
		<path d="M278.336,98.945c-98.915,0-179.396,80.473-179.396,179.396c0,98.912,80.476,179.396,179.396,179.396    c98.926,0,179.398-80.484,179.398-179.396C457.734,179.418,377.251,98.945,278.336,98.945z M286.536,161.46    c9.424-11.029,25.305-19.221,38.432-19.752c1.673,15.276-4.479,30.611-13.582,41.65c-9.119,11.02-24.058,19.602-38.702,18.463    C270.717,186.831,278.103,171.248,286.536,161.46z M361.179,370.196c-10.88,15.897-22.147,31.711-39.913,32.032    c-17.481,0.336-23.084-10.356-43.072-10.356c-19.975,0-26.212,10.04-42.743,10.692c-17.143,0.653-30.215-17.16-41.179-33    c-22.424-32.389-39.54-91.539-16.534-131.449c11.402-19.83,31.819-32.381,53.974-32.715c16.844-0.301,32.759,11.363,43.041,11.363    c10.307,0,29.642-14.025,49.956-11.961c8.497,0.349,32.373,3.425,47.706,25.838c-1.222,0.795-28.501,16.646-28.175,49.689    c0.353,39.452,34.611,52.579,35.015,52.76C378.939,333.991,373.767,351.808,361.179,370.196z" fill="#AAFAC8"/>
	</g>
</g>
<g>
</g>
<g>
</g>
<g>
</g>
<g>
</g>
<g>
</g>
<g>
</g>
<g>
</g>
<g>
</g>
<g>
</g>
<g>
</g>
<g>
</g>
<g>
</g>
<g>
</g>
<g>
</g>
<g>
</g>
</svg>
