<?xml version="1.0" encoding="iso-8859-1"?>
<!-- Generator: Adobe Illustrator 19.0.0, SVG Export Plug-In . SVG Version: 6.00 Build 0)  -->
<svg xmlns="http://www.w3.org/2000/svg" xmlns:xlink="http://www.w3.org/1999/xlink" version="1.1" id="Layer_1" x="0px" y="0px" viewBox="0 0 485 485" style="enable-background:new 0 0 485 485;" xml:space="preserve" width="512px" height="512px">
<g>
	<path d="M200.478,321.062c13.414-1.676,23.481-13.86,22.453-27.256c0-0.223-0.066-0.446-0.083-0.669h0.118v-82.184l62.995-11.725   v65.796c-3.627-1.483-7.691-2.065-11.93-1.536c-13.414,1.658-23.498,13.877-22.474,27.256   c1.011,13.401,12.731,22.903,26.149,21.227c13.431-1.676,23.481-13.86,22.474-27.261c-0.017-0.236-0.052-0.442-0.105-0.665h0.122   V164.161c0,0,0.031-0.411,0-0.411l-0.087,0.035l-91.398,15.601v94.745c-3.622-1.483-7.687-2.082-11.926-1.553   c-13.436,1.658-23.498,13.86-22.457,27.256C175.353,313.217,187.043,322.72,200.478,321.062z" fill="#404447"/>
	<path d="M242.5,400c86.988,0,157.5-70.512,157.5-157.5S329.488,85,242.5,85S85,155.512,85,242.5S155.512,400,242.5,400z    M242.5,116.496c69.589,0,126.004,56.416,126.004,126.004S312.089,368.504,242.5,368.504c-69.589,0-126.004-56.416-126.004-126.005   S172.911,116.496,242.5,116.496z" fill="#404447"/>
	<path d="M0,0v485h485V0H0z M455,455H30V30h425V455z" fill="#404447"/>
</g>
<g>
</g>
<g>
</g>
<g>
</g>
<g>
</g>
<g>
</g>
<g>
</g>
<g>
</g>
<g>
</g>
<g>
</g>
<g>
</g>
<g>
</g>
<g>
</g>
<g>
</g>
<g>
</g>
<g>
</g>
</svg>
