<?xml version="1.0" encoding="iso-8859-1"?>
<!-- Generator: Adobe Illustrator 16.0.0, SVG Export Plug-In . SVG Version: 6.00 Build 0)  -->
<!DOCTYPE svg PUBLIC "-//W3C//DTD SVG 1.1//EN" "http://www.w3.org/Graphics/SVG/1.1/DTD/svg11.dtd">
<svg xmlns="http://www.w3.org/2000/svg" xmlns:xlink="http://www.w3.org/1999/xlink" version="1.1" id="Capa_1" x="0px" y="0px" width="512px" height="512px" viewBox="0 0 556.664 556.664" style="enable-background:new 0 0 556.664 556.664;" xml:space="preserve">
<g>
	<g>
		<path d="M545.777,241.469l-45.257-60.229l-13.474-74.125c-4.179-23.001-22.545-40.669-45.696-43.954l-74.597-10.579l-61.93-42.885    C289.253-1.08,269.607-2.982,252.276,4.598c-3.837,1.678-7.478,3.803-10.843,6.333l-60.232,45.262l-74.125,13.474    c-4.132,0.75-8.171,1.988-12.019,3.664c-17.078,7.464-29.313,23.573-31.934,42.031l-10.574,74.588L9.655,251.897    c-13.31,19.221-12.821,44.697,1.23,63.391l45.265,60.217l13.463,74.124c4.184,23.012,22.545,40.669,45.702,43.963l74.596,10.584    l61.93,42.885c15.327,10.615,35.459,12.572,52.547,5.096c3.843-1.678,7.498-3.812,10.854-6.328l60.217-45.267l74.14-13.474    c4.122-0.746,8.172-1.979,12.003-3.65c17.083-7.467,29.319-23.571,31.938-42.036l10.574-74.596l42.896-61.941    C560.323,285.633,559.825,260.154,545.777,241.469z M278.333,476.4c-109.222,0-198.074-88.856-198.074-198.073    c0-109.22,88.857-198.074,198.074-198.074c109.211,0,198.069,88.854,198.069,198.074C476.401,387.544,387.55,476.4,278.333,476.4z    " fill="#63C7B2"/>
		<path d="M278.333,98.933c-98.913,0-179.391,80.476-179.391,179.394c0,98.912,80.478,179.391,179.391,179.391    c98.922,0,179.391-80.479,179.391-179.391C457.724,179.409,377.255,98.933,278.333,98.933z M131.409,315.697    c-0.285,3.475-0.632,6.146-1.196,8.72l-0.021,0.021c-0.042,0.197-0.119,0.373-0.218,0.477c-0.031,0.031-0.062,0.067-0.093,0.099    c-0.088,0.104-0.238,0.196-0.373,0.196c-0.14,0-0.27-0.098-0.383-0.196c-0.031-0.031-0.052-0.067-0.052-0.099    c-0.129-0.104-0.218-0.279-0.259-0.477l-0.011-0.021c-0.554-2.543-0.911-5.24-1.201-8.72c-0.217-2.968-0.336-5.856-0.336-8.674    c0-2.733,0.114-5.623,0.336-8.637c0.29-3.49,0.647-6.162,1.212-8.72l0.021-0.031c0.099-0.414,0.373-0.762,0.684-0.762    c0.342,0,0.611,0.342,0.704,0.762l0.011,0.031c0.569,2.553,0.947,5.225,1.175,8.72c0.228,3.014,0.347,5.903,0.336,8.668    C131.755,309.851,131.636,312.729,131.409,315.697z M148.724,318.457c-0.476,5.965-1.108,10.553-2.04,14.882    c0,0.036-0.031,0.057-0.031,0.057c-0.088,0.348-0.217,0.622-0.394,0.834c-0.042,0.057-0.072,0.088-0.114,0.135    c-0.191,0.187-0.43,0.301-0.673,0.301c-0.249,0-0.466-0.104-0.673-0.301c-0.031-0.052-0.052-0.083-0.109-0.135    c-0.166-0.212-0.316-0.508-0.394-0.834c0,0-0.031-0.021-0.031-0.057c-0.942-4.323-1.574-8.917-2.04-14.882    c-0.373-4.986-0.569-9.942-0.569-14.727c-0.021-4.671,0.196-9.616,0.569-14.7c0.487-5.945,1.119-10.554,2.071-14.882    c0-0.034,0-0.034,0-0.06c0.197-0.749,0.652-1.279,1.217-1.279c0.539,0,1.01,0.536,1.181,1.279c0,0.026,0.031,0.026,0.031,0.06    c0.942,4.329,1.574,8.937,2.02,14.882c0.394,5.084,0.58,10.035,0.569,14.736C149.314,308.515,149.107,313.455,148.724,318.457z     M166.568,324.392c-0.642,8.326-1.543,14.727-2.869,20.847c-0.01,0-0.021,0.031-0.021,0.057c-0.145,0.466-0.316,0.854-0.58,1.16    c-0.052,0.083-0.108,0.108-0.187,0.166c-0.269,0.269-0.585,0.455-0.921,0.455c-0.337,0-0.663-0.155-0.932-0.455    c-0.083-0.058-0.114-0.088-0.166-0.166c-0.269-0.306-0.476-0.694-0.585-1.16c0-0.025-0.036-0.057-0.036-0.057    c-1.336-6.115-2.227-12.516-2.869-20.847c-0.539-7.012-0.813-13.95-0.803-20.661c-0.021-6.515,0.249-13.438,0.803-20.588    c0.642-8.327,1.533-14.755,2.869-20.873c0.036,0,0.036-0.026,0.036-0.052c0.249-1.015,0.901-1.779,1.662-1.779    c0.777,0,1.424,0.764,1.688,1.779c0,0.025,0.031,0.052,0.031,0.052c1.336,6.118,2.237,12.546,2.9,20.873    c0.549,7.15,0.797,14.073,0.787,20.635C167.386,310.441,167.102,317.4,166.568,324.392z M185.256,325.986    c-0.746,9.206-1.693,16.384-3.189,23.146c0,0.031-0.031,0.062-0.031,0.083c-0.114,0.513-0.337,0.938-0.611,1.274    c-0.062,0.082-0.108,0.135-0.196,0.196c-0.311,0.301-0.663,0.497-1.041,0.497c-0.394,0-0.751-0.196-1.036-0.497    c-0.098-0.062-0.145-0.114-0.197-0.196c-0.29-0.337-0.507-0.767-0.621-1.274c0-0.021-0.031-0.052-0.031-0.083    c-1.491-6.752-2.475-13.918-3.19-23.146c-0.621-7.799-0.917-15.504-0.917-22.929c0-7.255,0.295-14.96,0.891-22.893    c0.73-9.243,1.709-16.399,3.21-23.167c0-0.016,0.031-0.042,0.031-0.072c0.28-1.142,0.989-1.999,1.859-1.999    c0.865,0,1.574,0.857,1.854,1.999c0,0.031,0.031,0.057,0.031,0.072c1.491,6.75,2.475,13.924,3.195,23.167    c0.616,7.933,0.922,15.638,0.891,22.929C186.183,310.482,185.867,318.188,185.256,325.986z M205.839,319.514    c-0.927,11.589-2.133,20.588-3.987,29.091c0,0.021-0.067,0.052-0.067,0.104c-0.16,0.652-0.445,1.18-0.782,1.604    c-0.088,0.114-0.155,0.146-0.249,0.274c-0.373,0.348-0.818,0.616-1.294,0.616c-0.513,0-0.948-0.269-1.326-0.616    c-0.088-0.124-0.155-0.155-0.228-0.274c-0.363-0.425-0.632-0.952-0.787-1.604c0-0.052-0.052-0.083-0.052-0.104    c-1.854-8.508-3.097-17.508-3.998-29.091c-0.761-9.823-1.139-19.491-1.128-28.837c-0.021-9.145,0.336-18.815,1.119-28.788    c0.911-11.63,2.154-20.606,4.008-29.127c0.031-0.031,0.052-0.06,0.052-0.091c0.342-1.421,1.253-2.485,2.34-2.485    c1.098,0,1.999,1.049,2.325,2.485c0,0.034,0.067,0.06,0.067,0.091c1.854,8.521,3.086,17.497,4.008,29.143    c0.767,9.958,1.14,19.633,1.119,28.804C206.978,300.028,206.605,309.695,205.839,319.514z M227.991,315.283    c-1.025,13.038-2.413,23.167-4.521,32.726c0,0.031-0.021,0.062-0.021,0.108c-0.197,0.751-0.507,1.336-0.901,1.802    c-0.083,0.156-0.15,0.187-0.259,0.306c-0.435,0.414-0.922,0.715-1.492,0.715c-0.549,0-1.03-0.301-1.455-0.715    c-0.114-0.113-0.197-0.145-0.285-0.306c-0.388-0.466-0.704-1.051-0.891-1.802c0-0.052-0.042-0.083-0.042-0.108    c-2.097-9.559-3.49-19.688-4.515-32.726c-0.859-11.04-1.274-21.93-1.264-32.437c-0.031-10.275,0.383-21.165,1.253-32.376    c1.02-13.09,2.423-23.203,4.525-32.757c0-0.06,0.042-0.085,0.042-0.121c0.383-1.624,1.414-2.802,2.62-2.802    c1.222,0,2.247,1.184,2.63,2.802c0,0.041,0.052,0.083,0.052,0.121c2.113,9.554,3.521,19.651,4.536,32.772    c0.87,11.195,1.294,22.095,1.253,32.423C229.265,293.39,228.851,304.238,227.991,315.283z M429.384,294.782    c0,19.967-8.746,37.884-22.587,50.187c0,0-5.194,6.214-15.565,6.214c-3.926,0-86.47,0-147.846,0c-1.108,0-2.206,0-3.283,0V215.024    c13.556-20.011,36.454-33.177,62.464-33.177c31.446,0,58.353,19.211,69.739,46.539    C404.632,233.298,429.384,261.12,429.384,294.782z" fill="#63C7B2"/>
	</g>
</g>
<g>
</g>
<g>
</g>
<g>
</g>
<g>
</g>
<g>
</g>
<g>
</g>
<g>
</g>
<g>
</g>
<g>
</g>
<g>
</g>
<g>
</g>
<g>
</g>
<g>
</g>
<g>
</g>
<g>
</g>
</svg>
