<?xml version="1.0" encoding="iso-8859-1"?>
<!-- Generator: Adobe Illustrator 19.0.0, SVG Export Plug-In . SVG Version: 6.00 Build 0)  -->
<svg xmlns="http://www.w3.org/2000/svg" xmlns:xlink="http://www.w3.org/1999/xlink" version="1.1" id="Layer_1" x="0px" y="0px" viewBox="0 0 485 485" style="enable-background:new 0 0 485 485;" xml:space="preserve" width="512px" height="512px">
<g>
	<path d="M242.494,399.992C329.47,399.992,400,329.478,400,242.498c0-86.992-70.53-157.49-157.506-157.49   C155.514,85.008,85,155.506,85,242.498C85,329.478,155.514,399.992,242.494,399.992z M303.109,317.299   c-2.55,0-4.283-0.877-6.66-2.33c-22.827-13.805-51.297-21.062-81.489-21.062c-16.855,0-33.818,2.157-49.688,5.456   c-2.582,0.564-5.816,1.549-7.757,1.549c-5.988,0-9.958-4.739-9.958-9.898c0-6.612,3.798-9.91,8.554-10.819   c19.465-4.439,38.837-6.973,58.958-6.973c34.458,0,65.166,7.913,91.591,23.767c3.939,2.281,6.24,4.627,6.24,10.459   C312.9,313.14,308.285,317.299,303.109,317.299z M320.276,275.615c-3.422,0-5.564-1.377-7.893-2.738   c-25.629-15.198-61.135-25.296-100.005-25.296c-19.949,0-37.164,2.798-51.409,6.58c-3.078,0.86-4.799,1.769-7.661,1.769   c-6.768,0-12.304-5.52-12.304-12.352c0-6.693,3.254-11.303,9.79-13.149c17.712-4.863,35.787-8.618,62.1-8.618   c41.231,0,81.117,10.275,112.465,29.035c5.251,3.018,7.193,6.848,7.193,12.448C332.552,270.112,327.125,275.615,320.276,275.615z    M141.348,177.396c22.467-6.616,47.515-9.694,74.769-9.694c46.234,0,94.905,9.506,130.444,30.38   c4.783,2.718,8.113,6.801,8.113,14.305c-0.016,8.581-6.912,14.742-14.87,14.742c-3.19,0-5.095-0.781-8.097-2.422   c-28.518-17.091-72.751-26.501-115.531-26.501c-21.354,0-43.04,2.173-62.913,7.565c-2.302,0.564-5.175,1.721-8.085,1.721   c-8.393,0-14.838-6.644-14.838-15.058C130.341,183.884,135.641,179.085,141.348,177.396z" fill="#404447"/>
	<path d="M0,0v485h485V0H0z M455,455H30V30h425V455z" fill="#404447"/>
</g>
<g>
</g>
<g>
</g>
<g>
</g>
<g>
</g>
<g>
</g>
<g>
</g>
<g>
</g>
<g>
</g>
<g>
</g>
<g>
</g>
<g>
</g>
<g>
</g>
<g>
</g>
<g>
</g>
<g>
</g>
</svg>
