<?xml version="1.0" encoding="iso-8859-1"?>
<!-- Generator: Adobe Illustrator 16.0.0, SVG Export Plug-In . SVG Version: 6.00 Build 0)  -->
<!DOCTYPE svg PUBLIC "-//W3C//DTD SVG 1.1//EN" "http://www.w3.org/Graphics/SVG/1.1/DTD/svg11.dtd">
<svg xmlns="http://www.w3.org/2000/svg" xmlns:xlink="http://www.w3.org/1999/xlink" version="1.1" id="Capa_1" x="0px" y="0px" width="512px" height="512px" viewBox="0 0 556.664 556.665" style="enable-background:new 0 0 556.664 556.665;" xml:space="preserve">
<g>
	<g>
		<path d="M545.777,241.474l-45.257-60.229l-13.474-74.122c-4.179-23.004-22.545-40.669-45.696-43.958l-74.597-10.584l-61.93-42.885    C289.253-1.08,269.607-2.983,252.276,4.601c-3.837,1.675-7.478,3.801-10.843,6.331l-60.232,45.262l-74.125,13.474    c-4.132,0.751-8.171,1.988-12.019,3.663c-17.078,7.465-29.313,23.574-31.934,42.031l-10.574,74.588L9.655,251.897    c-13.31,19.222-12.821,44.698,1.23,63.391l45.265,60.222l13.463,74.125c4.184,23.007,22.545,40.669,45.702,43.957l74.596,10.584    l61.93,42.886c15.327,10.609,35.459,12.572,52.547,5.1c3.843-1.678,7.498-3.811,10.854-6.332l60.217-45.268l74.14-13.474    c4.122-0.751,8.172-1.988,12.003-3.661c17.083-7.467,29.319-23.57,31.938-42.035l10.574-74.592l42.896-61.94    C560.323,285.633,559.825,260.159,545.777,241.474z M278.333,476.405c-109.222,0-198.074-88.852-198.074-198.068    c0-109.22,88.857-198.071,198.074-198.071c109.211,0,198.069,88.851,198.069,198.071    C476.401,387.553,387.55,476.405,278.333,476.405z" fill="#AAFAC8"/>
		<path d="M302.68,305.025c-1.646,0-3.262,0.409-4.856,1.253c-1.585,0.834-3.097,2.066-4.516,3.656v-23.012h-10.662v71.447h10.662    v-4.033c1.367,1.626,2.879,2.807,4.495,3.572c1.604,0.771,3.433,1.14,5.52,1.14c3.106,0,5.52-0.984,7.156-2.982    c1.651-1.994,2.475-4.857,2.475-8.58v-29.257c0-4.309-0.864-7.611-2.625-9.849C308.562,306.133,306.015,305.025,302.68,305.025z     M302.095,346.045c0,1.688-0.311,2.88-0.911,3.631c-0.611,0.756-1.554,1.128-2.848,1.128c-0.891,0-1.725-0.201-2.538-0.569    c-0.808-0.367-1.662-1.02-2.495-1.88v-32.829c0.714-0.72,1.429-1.279,2.159-1.615c0.74-0.348,1.491-0.508,2.236-0.508    c1.414,0,2.522,0.456,3.283,1.357c0.751,0.926,1.108,2.272,1.108,4.059v27.227H302.095z" fill="#AAFAC8"/>
		<path d="M264.196,345.705c-1,1.144-2.087,2.086-3.283,2.832c-1.18,0.745-2.164,1.103-2.931,1.103    c-0.989,0-1.708-0.259-2.164-0.828c-0.425-0.56-0.643-1.455-0.643-2.708v-40.437h-10.542v44.082c0,3.148,0.632,5.483,1.859,7.058    c1.238,1.574,3.05,2.361,5.499,2.361c1.989,0,4.019-0.539,6.116-1.688c2.123-1.103,4.132-2.734,6.089-4.872v5.773h10.527v-52.714    h-10.527V345.705z" fill="#AAFAC8"/>
		<polygon points="203.565,297.315 215.843,297.315 215.843,358.37 227.722,358.37 227.722,297.315 239.999,297.315     239.999,286.922 203.565,286.922   " fill="#AAFAC8"/>
		<path d="M276.484,246.605c1.61,0,2.89-0.438,3.847-1.331c0.942-0.896,1.419-2.115,1.419-3.668v-31.639    c0-1.269-0.486-2.286-1.444-3.086c-0.969-0.779-2.227-1.163-3.816-1.163c-1.435,0-2.604,0.383-3.532,1.163    c-0.891,0.8-1.346,1.817-1.346,3.086v31.639c0,1.59,0.425,2.812,1.264,3.687C273.724,246.183,274.931,246.605,276.484,246.605z" fill="#AAFAC8"/>
		<path d="M278.333,98.941c-98.913,0-179.391,80.473-179.391,179.396c0,98.913,80.478,179.396,179.391,179.396    c98.922,0,179.391-80.483,179.391-179.396C457.724,179.414,377.255,98.941,278.333,98.941z M303.452,197.121h11.847v44.526    c0,1.37,0.28,2.361,0.771,2.97c0.487,0.627,1.3,0.935,2.408,0.935c0.859,0,1.979-0.409,3.314-1.225    c1.325-0.823,2.547-1.856,3.655-3.12v-44.082h11.857v58.07h-11.857v-6.426c-2.186,2.363-4.453,4.188-6.835,5.424    c-2.361,1.22-4.66,1.856-6.877,1.856c-2.76,0-4.805-0.886-6.203-2.62c-1.377-1.717-2.087-4.306-2.087-7.762v-48.547H303.452z     M259.412,210.402c0-4.513,1.584-8.083,4.785-10.75c3.189-2.662,7.487-3.992,12.873-3.992c4.919,0,8.942,1.416,12.075,4.209    c3.117,2.807,4.691,6.45,4.691,10.866v30c0,4.974-1.533,8.844-4.599,11.692c-3.086,2.827-7.312,4.235-12.696,4.235    c-5.199,0-9.357-1.468-12.474-4.383c-3.107-2.929-4.661-6.841-4.661-11.778v-30.101H259.412z M227.09,176.47l8.679,31.47h0.839    l8.264-31.47h13.582l-15.55,46.07v32.656h-13.365v-31.188l-15.896-47.53h13.447V176.47z M382.475,342.141    c0,21.008-17.046,38.049-38.059,38.049H212.239c-21.018,0-38.054-17.041-38.054-38.049v-30.576    c0-21.008,17.036-38.06,38.054-38.06h132.177c21.013,0,38.059,17.047,38.059,38.06V342.141z" fill="#AAFAC8"/>
		<path d="M334.494,304.352c-4.722,0-8.554,1.439-11.536,4.312c-2.993,2.874-4.49,6.629-4.49,11.175v23.685    c0,5.085,1.383,9.072,4.086,11.951c2.703,2.895,6.432,4.34,11.144,4.34c5.261,0,9.206-1.357,11.827-4.07    c2.661-2.75,3.977-6.825,3.977-12.226v-2.708h-10.844v2.397c0,3.106-0.372,5.095-1.046,6.012c-0.704,0.901-1.915,1.372-3.66,1.372    c-1.688,0-2.869-0.533-3.589-1.605c-0.693-1.077-1.02-2.998-1.02-5.778v-9.937h20.163v-13.433c0-4.986-1.305-8.813-3.884-11.49    C343.018,305.688,339.311,304.352,334.494,304.352z M338.657,325.09h-9.32v-5.323c0-2.216,0.347-3.806,1.098-4.728    c0.735-0.984,1.922-1.455,3.604-1.455c1.604,0,2.796,0.477,3.5,1.455c0.735,0.922,1.118,2.512,1.118,4.728V325.09z" fill="#AAFAC8"/>
	</g>
</g>
<g>
</g>
<g>
</g>
<g>
</g>
<g>
</g>
<g>
</g>
<g>
</g>
<g>
</g>
<g>
</g>
<g>
</g>
<g>
</g>
<g>
</g>
<g>
</g>
<g>
</g>
<g>
</g>
<g>
</g>
</svg>
