<svg xmlns="http://www.w3.org/2000/svg" width="512" height="512" viewBox="0 0 387.543 387.544"><path d="M207.826 111.955L194.898.006h137.548v154.068l-15.54-1.589 6.71-1.909-6.99-24.566-25.209 7.173 4.896 17.202-10.479-1.072 5.895-2.433-18.913-45.83-11.946 4.932 16.636-20.414 18.669 44.476 14.894-4.232-7.879-48.74-4.847-17.05 25.824-31.676L295.9 51.4l-.39-1.34-26.11 7.432 3.593 12.577-55.996 45.647 1.767-17.171-10.938 13.41zm124.632 51.459v224.13H55.098v-224.13l53.356 5.45-33.46 13.804 18.907 45.834 28.494-11.765-59.022 72.399 107.154-87.342-1.754 17.165 10.93-13.402 12.909 126.35-4.609-10.339a6.565 6.565 0 0 0-8.674-3.331c-3.315 1.468-4.631 6.388-3.154 9.712l7.693 16.636c-6.777-2.759-14.553.354-17.503 7.101-.085.207-.122.414-.198.614a13.22 13.22 0 0 0-2.326-.98c.399-.614.786-1.242 1.083-1.93 2.993-6.862-.137-14.846-6.993-17.842-2.354-1.028-4.835-1.284-7.209-.968l13.369-28.905c1.477-3.307.155-8.227-3.154-9.7a6.578 6.578 0 0 0-8.674 3.324l-10.65 23.912a6.43 6.43 0 0 0-2.302-1.534c-3.386-1.297-7.794 1.249-9.091 4.634l-2.825 7.666c-.548-.377-1.151-.688-1.769-.992l-3.3-7.41a6.568 6.568 0 0 0-8.671-3.331c-3.318 1.462-4.634 6.382-3.157 9.706l1.087 2.351c-1.82 1.352-3.361 3.142-4.335 5.364-2.268 5.2-1.001 11.04 2.725 14.876a11.38 11.38 0 0 0-1.982.597l-25.078-49.279a6.57 6.57 0 0 0-8.674-3.331c-3.315 1.474-4.631 6.394-3.154 9.706l13.673 29.557c-3.06-1.084-6.272-1.035-9.146.013v-15.661a6.566 6.566 0 0 0-6.567-6.564c-.073 0-.131.043-.204.043-.076-.006-.131-.043-.207-.043a6.564 6.564 0 0 0-6.564 6.564v55.679h.25v4.093h262.869V367.42l.512-57.805c-.024-3.629-2.996-6.559-6.619-6.521-3.629.03-6.795 4-6.771 7.629l.561 26.519c-6.132-1.272-12.544 1.863-15.149 7.843a13.385 13.385 0 0 0-1.114 5.066 13.526 13.526 0 0 0-10.029 4.933l-.28-38.892a6.568 6.568 0 0 0-6.618-6.521c-3.63.03-6.809 4.007-6.771 7.636l.024 1.193c-.134-.067-.22-.213-.354-.274a6.597 6.597 0 0 0-8.683 3.325l-11.1 24.922c-.901-.688-1.852-1.327-2.935-1.797-3.069-1.346-6.37-1.406-9.354-.486l-.194-27.992a6.57 6.57 0 0 0-6.625-6.521c-3.63.03-6.796 4.013-6.771 7.643l.712 33.514c-.712-.121-1.442-.219-2.197-.219-2.808 0-5.401.853-7.575 2.314-1.157-3.557-3.727-6.632-7.411-8.245a13.415 13.415 0 0 0-7.721-.926l7.313-15.819c1.479-3.312.152-8.215-3.154-9.7a6.587 6.587 0 0 0-8.677 3.331l-2.938 6.594 12.534-122.604 10.924 13.408-1.741-17.189 107.163 87.36-87.354-107.159 17.159 1.753-13.396-10.933 91.886-9.384h.01zM272.03 299.537l-.012-7.66-61.306.116.012 7.666 61.306-.122zm9.803-19.723l-.013-7.666-71.146.141.013 7.666 71.146-.141zm-8.573 53.488l-7.819 16.916c1.401.128 2.802.42 4.153 1.011a13.17 13.17 0 0 1 4.104 2.831l-.438-20.758zM146.974 144.684l-91.888 9.383V0H192.63l-12.921 111.949-10.93-13.405 1.754 17.165-107.16-87.364 87.361 107.16-17.166-1.751 13.406 10.93zm26.969-99.837l-1.998-7.411L112.75 53.38l1.994 7.401 59.199-15.934zm-66.32-10.483l1.997 7.401 68.713-18.508-1.998-7.401-68.712 18.508zm144.964 81.774l-131.042 54.066-38.414 15.85 14.148 34.3 33.396-13.779 142.06-58.605 10.852-4.476-14.157-34.3-16.843 6.944zm50.108 33.895l13.214-3.76-3.581-12.568-13.22 3.764 3.587 12.564zm-20.478-70.247l.87 3.008 16.696 39.744 4.251-1.212-6.918-42.904-3.58-12.52-2.313-8.138-4.811 1.364-9.305 2.652 1.139 4.004 3.971 14.002z" fill="#0b88ee"/></svg>