<svg xmlns="http://www.w3.org/2000/svg" viewBox="0 0 512 512"><path d="M504.017 146.545c-22.597 0-40.981-18.384-40.981-40.981a7.983 7.983 0 0 0-7.983-7.983H56.948a7.983 7.983 0 0 0-7.983 7.983c0 22.597-18.384 40.981-40.981 40.981a7.983 7.983 0 0 0-7.983 7.983v202.943a7.983 7.983 0 0 0 7.983 7.983c22.597 0 40.981 18.384 40.981 40.981a7.983 7.983 0 0 0 7.983 7.983h398.104a7.983 7.983 0 0 0 7.983-7.983c0-22.597 18.384-40.981 40.981-40.981a7.983 7.983 0 0 0 7.983-7.983V154.529a7.982 7.982 0 0 0-7.982-7.984z" fill="#0e4151"/><path d="M256 97.581H56.948a7.983 7.983 0 0 0-7.983 7.983c0 22.597-18.384 40.981-40.981 40.981a7.983 7.983 0 0 0-7.983 7.983v202.943a7.983 7.983 0 0 0 7.983 7.983c22.597 0 40.981 18.384 40.981 40.981a7.983 7.983 0 0 0 7.983 7.983H256V97.581z" fill="#144f66"/><path d="M128.566 214.613v82.776c0 5.879 4.766 10.645 10.644 10.645s10.645-4.766 10.645-10.645v-82.776c0-5.879-4.766-10.644-10.645-10.644-5.878-.001-10.644 4.765-10.644 10.644zm-38.273 10.644h13.078c5.879 0 10.644-4.766 10.644-10.644s-4.766-10.644-10.644-10.644H55.926c-5.879 0-10.644 4.766-10.644 10.644s4.766 10.644 10.644 10.644h13.078v72.131c0 5.879 4.766 10.645 10.644 10.645 5.879 0 10.644-4.766 10.644-10.645l.001-72.131z" fill="#fff"/><path d="M456.074 203.968h-47.445c-5.879 0-10.644 4.766-10.644 10.644s4.766 10.644 10.644 10.644h13.078v72.131c0 5.879 4.766 10.645 10.645 10.645s10.644-4.766 10.644-10.645v-72.131h13.078c5.879 0 10.644-4.766 10.644-10.644s-4.765-10.644-10.644-10.644zm-83.285 21.289c5.879 0 10.645-4.766 10.645-10.644s-4.766-10.644-10.645-10.644h-34.195c-9.279 0-16.828 7.549-16.828 16.828v70.409c0 9.279 7.549 16.828 16.828 16.828h34.195c5.879 0 10.645-4.766 10.645-10.645s-4.766-10.644-10.645-10.644h-29.733v-20.099h17.62c5.879 0 10.644-4.766 10.644-10.644 0-5.879-4.766-10.645-10.644-10.645h-17.62v-20.099h29.733z" fill="#dee1e7"/><path d="M197.125 225.257c5.263 0 9.545 4.281 9.545 9.545 0 5.879 4.766 10.644 10.644 10.644s10.644-4.766 10.644-10.644c0-17.001-13.833-30.834-30.834-30.834s-30.834 13.833-30.834 30.834v42.397c0 17.001 13.833 30.834 30.834 30.834s30.834-13.833 30.834-30.834c0-5.879-4.766-10.644-10.644-10.644s-10.644 4.766-10.644 10.644c0 5.263-4.281 9.545-9.545 9.545s-9.545-4.281-9.545-9.545v-42.397c.001-5.263 4.283-9.545 9.545-9.545z" fill="#fff"/><path d="M305.33 217.641v-3.028c0-5.879-4.766-10.644-10.644-10.644-5.879 0-10.645 4.766-10.645 10.644v3.028c0 11.226-7.855 20.644-18.355 23.067v-26.095c0-5.879-4.766-10.644-10.644-10.644-5.879 0-10.644 4.766-10.644 10.644v82.776c0 5.879 4.766 10.645 10.644 10.645 5.879 0 10.644-4.766 10.644-10.645v-26.095c10.501 2.422 18.355 11.841 18.355 23.067v3.028c0 5.879 4.766 10.645 10.645 10.645s10.644-4.766 10.644-10.645v-3.028c0-16.214-8.627-30.448-21.531-38.36 12.903-7.913 21.531-22.146 21.531-38.36z" fill="#dee1e7"/><path d="M255.996 204.011a10.774 10.774 0 0 0-.955-.043c-5.879 0-10.645 4.766-10.645 10.644v82.776c0 5.879 4.766 10.645 10.645 10.645.324 0 .643-.015.959-.043l-.004-103.979z" fill="#fff"/><path d="M99.852 167.651H412.15c5.879 0 10.645-4.766 10.645-10.644s-4.766-10.644-10.645-10.644H99.852c-5.879 0-10.644 4.766-10.644 10.644s4.765 10.644 10.644 10.644z" fill="#39b7b6"/><path d="M99.852 167.651H256v-21.289H99.852c-5.879 0-10.644 4.766-10.644 10.644s4.765 10.645 10.644 10.645z" fill="#66cbc4"/><path d="M99.852 365.639H412.15c5.879 0 10.645-4.766 10.645-10.645s-4.766-10.644-10.645-10.644H99.852c-5.879 0-10.644 4.766-10.644 10.644s4.765 10.645 10.644 10.645z" fill="#39b7b6"/><path d="M99.852 365.639H256V344.35H99.852c-5.879 0-10.644 4.766-10.644 10.644s4.765 10.645 10.644 10.645z" fill="#66cbc4"/></svg>