<svg xmlns="http://www.w3.org/2000/svg" viewBox="0 0 512 512"><path d="M378.026 293.231h-.453v-74.179h43.586v31.045C421.16 273.919 401.848 293.231 378.026 293.231zM133.974 293.231h.453v-74.179H90.84v31.045C90.84 273.919 110.152 293.231 133.974 293.231z" fill="#ffdac5"/><path d="M403.374 255.043h-20.569c-4.334 0-7.847-3.513-7.847-7.847 0-4.334 3.513-7.847 7.847-7.847h20.569c4.334 0 7.847 3.513 7.847 7.847C411.221 251.529 407.707 255.043 403.374 255.043zM129.195 255.043h-20.569c-4.334 0-7.847-3.513-7.847-7.847 0-4.334 3.513-7.847 7.847-7.847h20.569c4.334 0 7.847 3.513 7.847 7.847C137.042 251.529 133.529 255.043 129.195 255.043z" fill="#fcb997"/><path d="M393.022,512v-47.978c0-42.174-19.052-79.902-49.027-105.032H168.007	c-29.975,25.131-49.027,62.858-49.027,105.032V512" fill="#ff525d"/><path d="M218.132,358.99h-50.126c-29.975,25.131-49.027,62.858-49.027,105.032V512h50.126v-47.978	C169.105,421.847,188.157,384.121,218.132,358.99z" fill="#ef4152"/><path d="M390.735,439.004c0,0-25.779-25.455-59.259-31.733c0,0,0.628,39.381-11.509,61.728	c0,0-30.896-4.76-63.967-41.85c-33.061,37.089-63.967,41.85-63.967,41.85c-10.525-19.387-11.456-51.59-11.519-59.782	c0-1.255,0.01-1.946,0.01-1.946c-33.48,6.277-59.249,31.733-59.249,31.733h-0.01c5.88-31.921,22.839-59.971,46.746-80.017H344	c23.907,20.046,40.866,48.096,46.746,80.017H390.735z" fill="#4bc999"/><path d="M218.136,358.987c-16.123,13.517-29.086,30.686-37.623,50.23c0-1.255,0.01-1.946,0.01-1.946	c-33.48,6.277-59.249,31.733-59.249,31.733h-0.01c5.88-31.921,22.839-59.971,46.746-80.017H218.136z" fill="#41b787"/><path d="M362.288,112.984H149.712C166.609,71.866,202.255,31.115,256,0	C309.746,31.115,345.391,71.866,362.288,112.984z" fill="#4bc999"/><path d="M185.881,148.028l105.591-9.803l90.747,68.628c0.387,4.018,0.586,8.087,0.586,12.199v58.6	c0,70.025-56.769,107.585-126.805,107.585s-126.805-37.56-126.805-107.585v-58.6c0-4.112,0.199-8.182,0.586-12.199L185.881,148.028z" fill="#ffdac5"/><path d="M171.113,277.652v-58.6c0-4.112,0.199-8.182,0.586-12.199l56.1-58.825l67.853-6.299l-4.633-3.504	l-105.591,9.803l-56.1,58.825c-0.387,4.018-0.586,8.087-0.586,12.199v58.6c0,70.025,56.769,107.585,126.805,107.585	c7.22,0,14.296-0.406,21.185-1.198C216.784,377.142,171.113,340.458,171.113,277.652z" fill="#efc1ab"/><path d="M197.174 285.752c-4.334 0-7.847-3.513-7.847-7.847v-16.313c0-4.334 3.513-7.847 7.847-7.847s7.847 3.513 7.847 7.847v16.313C205.021 282.239 201.507 285.752 197.174 285.752zM318.446 285.752c-4.334 0-7.847-3.513-7.847-7.847v-16.313c0-4.334 3.513-7.847 7.847-7.847 4.334 0 7.847 3.513 7.847 7.847v16.313C326.293 282.239 322.78 285.752 318.446 285.752z" fill="#313344"/><path d="M233.935,98.849c1.967,5.451,1.894,10.128,0.126,14.135h-84.348C166.609,71.866,202.255,31.115,256,0	C256,0,211.869,37.696,233.935,98.849z" fill="#41b787"/><path d="M257.81,342.175c-10.473,0-20.942-3.985-28.914-11.957c-3.064-3.064-3.064-8.033,0-11.096	c3.064-3.064,8.033-3.064,11.096,0c9.825,9.824,25.811,9.824,35.635,0c3.064-3.064,8.033-3.065,11.096,0	c3.064,3.064,3.064,8.033,0,11.096C278.754,338.188,268.281,342.175,257.81,342.175z" fill="#ce5b6c"/><path d="M393.009,142.356v55.982c0,8.505-8.176,14.679-16.328,12.253	c-59.283-17.645-121.476-22.005-182.197-13.086c-19.933,2.932-39.7,7.29-59.151,13.082c-8.154,2.428-16.335-3.741-16.335-12.249	v-55.991c0-12.89,8.506-24.283,20.904-27.82c18.09-5.158,36.43-9.092,54.917-11.802c59.05-8.632,119.491-4.698,177.286,11.802	C384.503,118.062,393.009,129.456,393.009,142.356z" fill="#ff525d"/><path d="M194.481,197.499c-19.933,2.932-39.7,7.29-59.151,13.082c-8.154,2.428-16.335-3.741-16.335-12.249	v-55.991c0-12.89,8.506-24.283,20.904-27.82c18.09-5.158,36.43-9.092,54.917-11.802l0.042,0.01	C194.858,102.731,168.555,148.106,194.481,197.499z" fill="#ef4152"/><path d="M393.009,163.019v21.793c-11.812-11.404-24.848-23.896-32.256-30.644	c-10.933,5.053-21.793,10.421-32.339,16.008c-2.762,1.454-6.131,1.14-8.569-0.816c-9.333-7.46-19-14.794-28.814-21.814	c-10.431,6.079-20.737,12.461-30.707,19.01c-2.616,1.716-6.005,1.716-8.621,0c-9.981-6.56-20.297-12.942-30.718-19.021	c-9.814,7.041-19.481,14.365-28.803,21.825c-2.061,1.653-4.781,2.134-7.23,1.371c-0.46-0.136-0.91-0.324-1.35-0.555	c-10.546-5.587-21.417-10.965-32.371-16.018c-8.035,7.24-21.364,19.962-32.235,30.425v-21.751	c10.222-9.741,20.391-19.303,25.769-23.896c2.312-1.977,5.556-2.438,8.328-1.182c10.096,4.572,20.14,9.406,29.975,14.449	c1.109,0.565,2.218,1.14,3.327,1.716c9.615-7.585,19.565-15.003,29.63-22.107c2.49-1.758,5.775-1.915,8.422-0.398	c10.672,6.121,21.27,12.565,31.565,19.219c10.274-6.644,20.873-13.099,31.555-19.219c2.647-1.517,5.932-1.36,8.422,0.398	c10.065,7.094,20.004,14.522,29.63,22.107c10.891-5.66,22.065-11.08,33.291-16.164c2.773-1.255,6.026-0.795,8.339,1.182	C371.927,142.931,382.086,152.546,393.009,163.019z" fill="#4bc999"/><circle cx="256.005" cy="473.948" r="17.786" fill="#5c5e70"/><g fill="#fcb997"><ellipse cx="337.351" cy="307.595" rx="17.263" ry="10.462"/><ellipse cx="174.66" cy="307.595" rx="17.263" ry="10.462"/></g><path d="M184.953,170.73c-0.46-0.136-0.91-0.324-1.35-0.555c-10.546-5.587-21.417-10.965-32.371-16.018	c-8.035,7.24-21.364,19.962-32.235,30.425v-21.751c10.222-9.741,20.391-19.303,25.769-23.896c2.312-1.977,5.556-2.438,8.328-1.182	c10.096,4.572,20.14,9.406,29.975,14.449C183.111,158.081,183.666,164.296,184.953,170.73z" fill="#41b787"/></svg>