<svg xmlns="http://www.w3.org/2000/svg" width="512" height="512" viewBox="0 0 556.665 556.665"><g fill="#AAFAC8"><path d="M545.783 241.469l-45.267-60.229-13.474-74.125a54.105 54.105 0 0 0-45.702-43.954l-74.59-10.579-61.936-42.885c-15.56-10.776-35.2-12.679-52.544-5.098a54.242 54.242 0 0 0-10.843 6.333l-60.225 45.262-74.127 13.474a54.248 54.248 0 0 0-12.016 3.664c-17.08 7.464-29.316 23.573-31.936 42.031L52.544 189.95l-42.89 61.948a54.102 54.102 0 0 0 1.23 63.391l45.267 60.217 13.468 74.124a54.112 54.112 0 0 0 45.699 43.963l74.596 10.584 61.93 42.885c15.33 10.615 35.463 12.572 52.545 5.096a54.292 54.292 0 0 0 10.849-6.328l60.231-45.267 74.13-13.474a54.38 54.38 0 0 0 12.014-3.65c17.077-7.467 29.313-23.571 31.934-42.036l10.578-74.596 42.891-61.941a54.129 54.129 0 0 0-1.233-63.397zM278.331 476.401c-109.22 0-198.071-88.856-198.071-198.073 0-109.22 88.852-198.074 198.071-198.074s198.071 88.854 198.071 198.074c0 109.216-88.851 198.073-198.071 198.073z"/><path d="M330.917 265.462c-.129-.977-.253-1.947-.439-2.895-.187-.94-.436-1.851-.663-2.762-.166-.684-.326-1.38-.523-2.048a50.448 50.448 0 0 0-1.076-3.154c-.177-.474-.332-.956-.519-1.421a53.57 53.57 0 0 0-1.527-3.425c-.145-.298-.279-.601-.435-.896a56.32 56.32 0 0 0-2.01-3.591c-.098-.163-.191-.324-.295-.477a50.755 50.755 0 0 0-2.49-3.648c-.042-.06-.088-.117-.125-.176a56.564 56.564 0 0 0-2.946-3.578c-9.729-10.848-23.819-17.714-39.532-17.714-15.721 0-29.805 6.861-39.54 17.714a54.21 54.21 0 0 0-2.959 3.599 1.096 1.096 0 0 1-.106.14 53.774 53.774 0 0 0-2.506 3.679c-.096.143-.182.292-.272.44a54.88 54.88 0 0 0-2.025 3.622c-.142.285-.277.577-.419.87a48.778 48.778 0 0 0-1.538 3.451c-.184.456-.339.927-.513 1.39a48.931 48.931 0 0 0-1.083 3.18c-.202.663-.349 1.346-.525 2.027-.233.922-.481 1.838-.668 2.778-.187.953-.308 1.924-.44 2.895-.101.709-.233 1.411-.309 2.136a53.746 53.746 0 0 0-.264 5.229c0 29.365 23.801 53.153 53.151 53.153 29.341 0 53.151-23.788 53.151-53.153a54.35 54.35 0 0 0-.265-5.229c-.052-.725-.186-1.431-.29-2.136zm-52.57 41.137c-18.67 0-33.777-15.109-33.777-33.776 0-6.439 1.877-12.371 4.997-17.479-.494 1.582-.833 3.241-.833 5.002 0 9.453 7.661 17.132 17.122 17.132 9.465 0 17.121-7.685 17.121-17.132 0-9.466-7.656-17.132-17.121-17.132-1.745 0-3.399.329-4.995.82 5.111-3.102 11.045-4.994 17.476-4.994 18.654 0 33.79 15.107 33.79 33.777-.001 18.668-15.137 33.782-33.78 33.782z"/><path d="M350.314 175.373H206.363c-14.043 0-25.468 11.433-25.468 25.474v36.544h36.161c12.282-21.147 35.118-35.436 61.286-35.436s49.003 14.284 61.286 35.436h36.159v-36.544c-.007-14.041-11.419-25.474-25.473-25.474zm16.612 35.437c0 4.877-3.981 8.862-8.859 8.862h-17.72c-4.878 0-8.854-3.985-8.854-8.862v-17.714c0-4.878 3.977-8.854 8.854-8.854h17.72c4.878 0 8.859 3.977 8.859 8.854v17.714z"/><path d="M278.331 98.934c-98.915 0-179.396 80.476-179.396 179.394 0 98.912 80.476 179.391 179.396 179.391 98.92 0 179.394-80.479 179.394-179.391 0-98.918-80.479-179.394-179.394-179.394zm115.175 245.859c0 23.86-19.33 43.196-43.191 43.196H206.363c-23.855 0-43.188-19.336-43.188-43.196V200.842c0-23.861 19.333-43.188 43.188-43.188h143.952c23.861 0 43.191 19.327 43.191 43.188v143.951z"/></g></svg>