<svg xmlns="http://www.w3.org/2000/svg" width="512" height="512" viewBox="0 0 556.665 556.665"><g fill="#3A6355"><path d="M545.783 241.475l-45.267-60.229-13.474-74.122a54.11 54.11 0 0 0-45.702-43.958l-74.59-10.584-61.936-42.886c-15.56-10.775-35.2-12.678-52.544-5.095a54.09 54.09 0 0 0-10.843 6.331l-60.225 45.262-74.127 13.474a54.352 54.352 0 0 0-12.016 3.663c-17.08 7.465-29.316 23.574-31.936 42.031L52.544 189.95l-42.89 61.948a54.102 54.102 0 0 0 1.23 63.391l45.267 60.222 13.468 74.125a54.105 54.105 0 0 0 45.699 43.957l74.596 10.584 61.93 42.886c15.33 10.609 35.463 12.572 52.545 5.1a54.07 54.07 0 0 0 10.849-6.332l60.231-45.268 74.13-13.474a54.567 54.567 0 0 0 12.014-3.661c17.077-7.467 29.313-23.57 31.934-42.035l10.578-74.592 42.891-61.94a54.112 54.112 0 0 0-1.233-63.386zm-267.452 234.93c-109.22 0-198.071-88.852-198.071-198.068 0-109.22 88.852-198.071 198.071-198.071s198.071 88.851 198.071 198.071c0 109.217-88.851 198.068-198.071 198.068z"/><path d="M278.331 98.941c-98.915 0-179.396 80.473-179.396 179.396 0 98.913 80.476 179.396 179.396 179.396 98.92 0 179.394-80.483 179.394-179.396 0-98.922-80.479-179.396-179.394-179.396zm55.689 179.487h-36.434v129.891h-53.995V278.428h-25.67v-45.904h25.67V202.83c0-21.262 10.095-54.492 54.492-54.492l39.985.158v44.545h-29.039c-4.723 0-11.438 2.361-11.438 12.5v26.978h41.15l-4.721 45.909z"/></g></svg>