<?xml version="1.0" encoding="iso-8859-1"?>
<!-- Generator: Adobe Illustrator 19.0.0, SVG Export Plug-In . SVG Version: 6.00 Build 0)  -->
<svg version="1.1" id="Layer_1" xmlns="http://www.w3.org/2000/svg" xmlns:xlink="http://www.w3.org/1999/xlink" x="0px" y="0px"
	 viewBox="0 0 512 512" style="enable-background:new 0 0 512 512;" xml:space="preserve">
<circle style="fill:#EDEDED;" cx="256" cy="256" r="256"/>
<path style="fill:#D8D8DA;" d="M256,0c-9.617,0-19.103,0.548-28.444,1.582C355.551,15.733,455.111,124.231,455.111,256
	s-99.56,240.267-227.556,254.418C236.897,511.451,246.383,512,256,512c141.385,0,256-114.615,256-256S397.385,0,256,0z"/>
<circle style="fill:#98C8ED;" cx="256" cy="256" r="199.111"/>
<path style="fill:#7AB9E8;" d="M256,56.889c-9.66,0-19.153,0.703-28.444,2.031C324.045,72.724,398.222,155.694,398.222,256
	s-74.177,183.276-170.667,197.08c9.291,1.33,18.785,2.031,28.444,2.031c109.966,0,199.111-89.145,199.111-199.111
	S365.966,56.889,256,56.889z"/>
<g>
	<polygon style="fill:#EDEDED;" points="192,241.778 192,298.667 248.889,298.667 248.889,384 305.778,384 305.778,241.778 	"/>
	<circle style="fill:#EDEDED;" cx="256" cy="163.556" r="35.556"/>
</g>
<g>
</g>
<g>
</g>
<g>
</g>
<g>
</g>
<g>
</g>
<g>
</g>
<g>
</g>
<g>
</g>
<g>
</g>
<g>
</g>
<g>
</g>
<g>
</g>
<g>
</g>
<g>
</g>
<g>
</g>
</svg>
