<?xml version="1.0" encoding="iso-8859-1"?>
<!-- Generator: Adobe Illustrator 19.0.0, SVG Export Plug-In . SVG Version: 6.00 Build 0)  -->
<svg xmlns="http://www.w3.org/2000/svg" xmlns:xlink="http://www.w3.org/1999/xlink" version="1.1" id="Layer_1" x="0px" y="0px" viewBox="0 0 512 512" style="enable-background:new 0 0 512 512;" xml:space="preserve" width="512px" height="512px">
<g>
	<g>
		<g>
			<path d="M426.703,65.219c-4.212-3.772-10.686-3.415-14.459,0.797c-3.774,4.213-3.416,10.686,0.797,14.459     C462.916,125.13,491.52,189.107,491.52,256c0,129.866-105.654,235.52-235.52,235.52S20.48,385.866,20.48,256     S126.134,20.48,256,20.48c40.854,0,81.095,10.62,116.376,30.712c4.914,2.8,11.168,1.085,13.966-3.831     c2.798-4.915,1.084-11.167-3.831-13.966C344.147,11.548,300.401,0,256,0C114.841,0,0,114.841,0,256s114.841,256,256,256     s256-114.841,256-256C512,183.291,480.91,113.753,426.703,65.219z" fill="#63c7b2"/>
			<path d="M122.608,393.287c-3.721,4.261-3.284,10.729,0.976,14.449c36.661,32.017,83.687,49.65,132.415,49.65     c111.045,0,201.387-90.341,201.387-201.387S367.045,54.613,256,54.613S54.613,144.955,54.613,256     c0,40.355,11.895,79.293,34.4,112.606c3.168,4.686,9.533,5.917,14.219,2.753c4.686-3.166,5.919-9.531,2.753-14.219     C85.774,327.227,75.093,292.254,75.093,256c0-99.753,81.154-180.907,180.907-180.907S436.907,156.247,436.907,256     S355.753,436.907,256,436.907c-43.774,0-86.016-15.838-118.942-44.596C132.798,388.59,126.329,389.027,122.608,393.287z" fill="#63c7b2"/>
			<path d="M184.32,242.347v54.613c0,5.655,4.585,10.24,10.24,10.24h44.373v71.68c0,5.655,4.585,10.24,10.24,10.24h54.613     c5.655,0,10.24-4.585,10.24-10.24V242.347c0-5.655-4.585-10.24-10.24-10.24H194.56     C188.905,232.107,184.32,236.691,184.32,242.347z M204.8,252.587h88.747V368.64h-34.133v-71.68c0-5.655-4.585-10.24-10.24-10.24     H204.8V252.587z" fill="#63c7b2"/>
			<path d="M300.373,167.253c0-24.467-19.907-44.373-44.373-44.373s-44.373,19.907-44.373,44.373     c0,24.467,19.907,44.373,44.373,44.373S300.373,191.72,300.373,167.253z M232.107,167.253c0-13.174,10.719-23.893,23.893-23.893     c13.174,0,23.893,10.719,23.893,23.893c0,13.174-10.719,23.893-23.893,23.893C242.826,191.147,232.107,180.427,232.107,167.253z" fill="#63c7b2"/>
		</g>
	</g>
</g>
<g>
</g>
<g>
</g>
<g>
</g>
<g>
</g>
<g>
</g>
<g>
</g>
<g>
</g>
<g>
</g>
<g>
</g>
<g>
</g>
<g>
</g>
<g>
</g>
<g>
</g>
<g>
</g>
<g>
</g>
</svg>
