<?xml version="1.0" encoding="iso-8859-1"?>
<!-- Generator: Adobe Illustrator 19.0.0, SVG Export Plug-In . SVG Version: 6.00 Build 0)  -->
<svg xmlns="http://www.w3.org/2000/svg" xmlns:xlink="http://www.w3.org/1999/xlink" version="1.1" id="Layer_1" x="0px" y="0px" viewBox="0 0 512 512" style="enable-background:new 0 0 512 512;" xml:space="preserve" width="512px" height="512px">
<g>
	<g>
		<path d="M495.422,151.593c-12.945-6.306-23.471-16.833-29.776-29.776c-4.997-10.256-15.611-16.578-27.02-16.578H73.374    c-11.409,0-22.023,6.322-27.02,16.578c-6.306,12.945-16.833,23.471-29.776,29.776C6.322,156.589,0,167.204,0,178.613v154.773    c0,11.409,6.322,22.024,16.578,27.02c12.945,6.306,23.471,16.833,29.776,29.776c4.997,10.256,15.611,16.578,27.02,16.578h365.25    c11.409,0,22.024-6.322,27.02-16.578c6.306-12.945,16.833-23.471,29.776-29.776c10.257-4.996,16.579-15.61,16.579-27.02V178.613    C512,167.204,505.678,156.589,495.422,151.593z M87.598,137.758h336.805c6.34,0,11.48,5.139,11.48,11.48s-5.139,11.48-11.48,11.48    H87.598c-6.34,0-11.48-5.139-11.48-11.48C76.118,142.897,81.258,137.758,87.598,137.758z M368.89,244.52    c6.34,0,11.48,5.14,11.48,11.48c0,6.34-5.14,11.48-11.48,11.48h-19.003v21.676h32.067c6.34,0,11.48,5.139,11.48,11.48    s-5.139,11.48-11.48,11.48h-36.879c-10.007,0-18.148-8.142-18.148-18.148v-75.934c0-10.007,8.142-18.148,18.148-18.148h36.879    c6.34,0,11.48,5.14,11.48,11.48c0,6.34-5.139,11.48-11.48,11.48h-32.067v21.676H368.89z M309.201,297.37v3.266    c0,6.34-5.14,11.48-11.48,11.48c-6.34,0-11.48-5.14-11.48-11.48v-3.266c0-12.107-8.471-22.264-19.796-24.877v28.143    c0,6.34-5.14,11.48-11.48,11.48c-6.34,0-11.48-5.14-11.48-11.48v-89.272c0-6.34,5.14-11.48,11.48-11.48    c6.34,0,11.48,5.14,11.48,11.48v28.143c11.325-2.612,19.796-12.77,19.796-24.877v-3.266c0-6.34,5.14-11.48,11.48-11.48    c6.34,0,11.48,5.14,11.48,11.48v3.266c0,17.486-9.304,32.837-23.22,41.37C299.897,264.533,309.201,279.884,309.201,297.37z     M192.505,289.156c5.676,0,10.294-4.617,10.294-10.294c0-6.34,5.14-11.48,11.48-11.48c6.34,0,11.48,5.14,11.48,11.48    c0,18.336-14.918,33.254-33.254,33.254s-33.254-14.918-33.254-33.254v-45.724c0-18.336,14.918-33.254,33.254-33.254    s33.254,14.918,33.254,33.254c0,6.34-5.14,11.48-11.48,11.48c-6.34,0-11.48-5.14-11.48-11.48c0-5.676-4.617-10.294-10.294-10.294    s-10.294,4.617-10.294,10.294v45.724C182.212,284.538,186.83,289.156,192.505,289.156z M141.526,211.364v89.272    c0,6.34-5.14,11.48-11.48,11.48c-6.34,0-11.48-5.14-11.48-11.48v-89.272c0-6.34,5.14-11.48,11.48-11.48    C136.386,199.884,141.526,205.024,141.526,211.364z M65.809,312.116c-6.34,0-11.48-5.14-11.48-11.48v-77.792H40.225    c-6.34,0-11.48-5.14-11.48-11.48c0-6.34,5.14-11.48,11.48-11.48h51.168c6.34,0,11.48,5.14,11.48,11.48    c0,6.34-5.14,11.48-11.48,11.48H77.289v77.792C77.289,306.976,72.15,312.116,65.809,312.116z M424.402,374.242H87.598    c-6.34,0-11.48-5.14-11.48-11.48c0-6.34,5.14-11.48,11.48-11.48h336.805c6.34,0,11.48,5.14,11.48,11.48    C435.883,369.103,430.742,374.242,424.402,374.242z M471.775,222.844h-14.104v77.792c0,6.34-5.139,11.48-11.48,11.48    s-11.48-5.14-11.48-11.48v-77.792h-14.104c-6.34,0-11.48-5.14-11.48-11.48c0-6.34,5.14-11.48,11.48-11.48h51.168    c6.34,0,11.48,5.14,11.48,11.48C483.255,217.704,478.115,222.844,471.775,222.844z" fill="#63c7b2"/>
	</g>
</g>
<g>
</g>
<g>
</g>
<g>
</g>
<g>
</g>
<g>
</g>
<g>
</g>
<g>
</g>
<g>
</g>
<g>
</g>
<g>
</g>
<g>
</g>
<g>
</g>
<g>
</g>
<g>
</g>
<g>
</g>
</svg>
