<?xml version="1.0" encoding="iso-8859-1"?>
<!-- Generator: Adobe Illustrator 19.0.0, SVG Export Plug-In . SVG Version: 6.00 Build 0)  -->
<svg version="1.1" id="Layer_1" xmlns="http://www.w3.org/2000/svg" xmlns:xlink="http://www.w3.org/1999/xlink" x="0px" y="0px"
	 viewBox="0 0 512 512" style="enable-background:new 0 0 512 512;" xml:space="preserve">
<circle style="fill:#57565C;" cx="167.748" cy="256" r="167.748"/>
<path style="fill:#787680;" d="M30.866,159.183l136.884,96.99L87.116,109.046C64.782,121.313,45.541,138.512,30.866,159.183z"/>
<path style="fill:#3E3D42;" d="M167.75,88.25c-6.487,0-12.883,0.381-19.177,1.097c-1.11,3.265-1.721,6.76-1.721,10.397v312.512
	c0,3.636,0.611,7.13,1.721,10.396c6.294,0.717,12.691,1.097,19.177,1.097c92.646,0,167.75-75.104,167.75-167.75
	S260.396,88.25,167.75,88.25z"/>
<circle style="fill:#ACABB1;" cx="167.748" cy="256" r="73.394"/>
<path style="fill:#898890;" d="M167.75,182.609c-7.263,0-14.273,1.071-20.898,3.036v140.708c6.626,1.965,13.635,3.036,20.898,3.036
	c40.533,0,73.39-32.858,73.39-73.391S208.283,182.609,167.75,182.609z"/>
<circle style="fill:#B6E892;" cx="167.748" cy="256" r="29.487"/>
<path style="fill:#91DC5A;" d="M167.75,226.513c-8.167,0-15.559,3.322-20.898,8.686v41.602c5.339,5.365,12.731,8.686,20.898,8.686
	c16.286,0,29.487-13.202,29.487-29.487C197.237,239.714,184.036,226.513,167.75,226.513z"/>
<circle style="fill:#57565C;" cx="167.748" cy="256" r="8.238"/>
<g>
	<path style="fill:#787680;" d="M90.068,371.237C63.742,352.6,43.6,326.288,34.463,295.546c-1.233-4.149,1.131-8.512,5.28-9.745
		c4.152-1.236,8.512,1.131,9.745,5.28c8.106,27.276,25.636,51.131,49.36,67.172c3.586,2.424,4.526,7.295,2.102,10.882
		C99.436,371.374,94.36,374.275,90.068,371.237z"/>
	<path style="fill:#787680;" d="M36.571,263.837c-4.329,0-7.837-3.508-7.837-7.837c0-8.631,0.802-17.277,2.382-25.702
		c0.798-4.254,4.898-7.061,9.147-6.257c4.254,0.798,7.056,4.894,6.257,9.147c-1.401,7.475-2.113,15.149-2.113,22.812
		C44.408,260.329,40.9,263.837,36.571,263.837z"/>
</g>
<path style="fill:#FFB655;" d="M500.506,423.75H179.244c-6.322,0-11.494-5.172-11.494-11.494V99.744
	c0-6.322,5.172-11.494,11.494-11.494h321.262c6.322,0,11.494,5.172,11.494,11.494v312.512
	C512,418.578,506.828,423.75,500.506,423.75z"/>
<path style="fill:#FFA733;" d="M222.159,412.256V99.744c0-6.322,5.172-11.494,11.494-11.494h-54.409
	c-6.322,0-11.494,5.172-11.494,11.494v312.512c0,6.322,5.172,11.494,11.494,11.494h54.409
	C227.331,423.75,222.159,418.578,222.159,412.256z"/>
<circle style="fill:#FF3F62;" cx="339.874" cy="256" r="73.206"/>
<g>
</g>
<g>
</g>
<g>
</g>
<g>
</g>
<g>
</g>
<g>
</g>
<g>
</g>
<g>
</g>
<g>
</g>
<g>
</g>
<g>
</g>
<g>
</g>
<g>
</g>
<g>
</g>
<g>
</g>
</svg>
