<svg xmlns="http://www.w3.org/2000/svg" width="512" height="512" viewBox="0 0 556.664 556.664"><g fill="#3A6355"><path d="M545.777 241.469L500.52 181.24l-13.474-74.125a54.105 54.105 0 0 0-45.696-43.954l-74.597-10.579-61.93-42.885c-15.57-10.777-35.216-12.679-52.547-5.099a54.158 54.158 0 0 0-10.843 6.333l-60.232 45.262-74.125 13.474a54.516 54.516 0 0 0-12.019 3.664c-17.078 7.464-29.313 23.573-31.934 42.031L52.549 189.95 9.655 251.897a54.096 54.096 0 0 0 1.23 63.391l45.265 60.217 13.463 74.124a54.118 54.118 0 0 0 45.702 43.963l74.596 10.584 61.93 42.885c15.327 10.615 35.459 12.572 52.547 5.096a54.47 54.47 0 0 0 10.854-6.328l60.217-45.267 74.14-13.474a54.289 54.289 0 0 0 12.003-3.65c17.083-7.467 29.319-23.571 31.938-42.036l10.574-74.596 42.896-61.941a54.103 54.103 0 0 0-1.233-63.396zM278.333 476.4c-109.222 0-198.074-88.856-198.074-198.073 0-109.22 88.857-198.074 198.074-198.074 109.211 0 198.069 88.854 198.069 198.074C476.401 387.544 387.55 476.4 278.333 476.4z"/><path d="M278.333 98.933c-98.913 0-179.391 80.476-179.391 179.394 0 98.912 80.478 179.391 179.391 179.391 98.922 0 179.391-80.479 179.391-179.391 0-98.918-80.469-179.394-179.391-179.394zM131.409 315.697c-.285 3.475-.632 6.146-1.196 8.72l-.021.021c-.042.197-.119.373-.218.477-.031.031-.062.067-.093.099-.088.104-.238.196-.373.196-.14 0-.27-.098-.383-.196-.031-.031-.052-.067-.052-.099-.129-.104-.218-.279-.259-.477l-.011-.021c-.554-2.543-.911-5.24-1.201-8.72a119.038 119.038 0 0 1-.336-8.674c0-2.733.114-5.623.336-8.637.29-3.49.647-6.162 1.212-8.72l.021-.031c.099-.414.373-.762.684-.762.342 0 .611.342.704.762l.011.031c.569 2.553.947 5.225 1.175 8.72.228 3.014.347 5.903.336 8.668a108.36 108.36 0 0 1-.336 8.643zm17.315 2.76c-.476 5.965-1.108 10.553-2.04 14.882 0 .036-.031.057-.031.057-.088.348-.217.622-.394.834-.042.057-.072.088-.114.135a.98.98 0 0 1-.673.301c-.249 0-.466-.104-.673-.301a.497.497 0 0 0-.109-.135 2.229 2.229 0 0 1-.394-.834s-.031-.021-.031-.057c-.942-4.323-1.574-8.917-2.04-14.882a198.43 198.43 0 0 1-.569-14.727c-.021-4.671.196-9.616.569-14.7.487-5.945 1.119-10.554 2.071-14.882v-.06c.197-.749.652-1.279 1.217-1.279.539 0 1.01.536 1.181 1.279 0 .026.031.026.031.06.942 4.329 1.574 8.937 2.02 14.882.394 5.084.58 10.035.569 14.736 0 4.749-.207 9.689-.59 14.691zm17.844 5.935c-.642 8.326-1.543 14.727-2.869 20.847-.01 0-.021.031-.021.057-.145.466-.316.854-.58 1.16-.052.083-.108.108-.187.166-.269.269-.585.455-.921.455-.337 0-.663-.155-.932-.455a.516.516 0 0 1-.166-.166 2.654 2.654 0 0 1-.585-1.16c0-.025-.036-.057-.036-.057-1.336-6.115-2.227-12.516-2.869-20.847a265.492 265.492 0 0 1-.803-20.661c-.021-6.515.249-13.438.803-20.588.642-8.327 1.533-14.755 2.869-20.873.036 0 .036-.026.036-.052.249-1.015.901-1.779 1.662-1.779.777 0 1.424.764 1.688 1.779 0 .025.031.052.031.052 1.336 6.118 2.237 12.546 2.9 20.873.549 7.15.797 14.073.787 20.635.011 6.663-.273 13.622-.807 20.614zm18.688 1.594c-.746 9.206-1.693 16.384-3.189 23.146 0 .031-.031.062-.031.083a3.048 3.048 0 0 1-.611 1.274.777.777 0 0 1-.196.196c-.311.301-.663.497-1.041.497-.394 0-.751-.196-1.036-.497a.56.56 0 0 1-.197-.196 2.917 2.917 0 0 1-.621-1.274c0-.021-.031-.052-.031-.083-1.491-6.752-2.475-13.918-3.19-23.146a289.923 289.923 0 0 1-.917-22.929c0-7.255.295-14.96.891-22.893.73-9.243 1.709-16.399 3.21-23.167 0-.016.031-.042.031-.072.28-1.142.989-1.999 1.859-1.999.865 0 1.574.857 1.854 1.999 0 .031.031.057.031.072 1.491 6.75 2.475 13.924 3.195 23.167.616 7.933.922 15.638.891 22.929.025 7.389-.291 15.095-.902 22.893zm20.583-6.472c-.927 11.589-2.133 20.588-3.987 29.091 0 .021-.067.052-.067.104a4.135 4.135 0 0 1-.782 1.604c-.088.114-.155.146-.249.274-.373.348-.818.616-1.294.616-.513 0-.948-.269-1.326-.616-.088-.124-.155-.155-.228-.274-.363-.425-.632-.952-.787-1.604 0-.052-.052-.083-.052-.104-1.854-8.508-3.097-17.508-3.998-29.091-.761-9.823-1.139-19.491-1.128-28.837a358.699 358.699 0 0 1 1.119-28.788c.911-11.63 2.154-20.606 4.008-29.127.031-.031.052-.06.052-.091.342-1.421 1.253-2.485 2.34-2.485 1.098 0 1.999 1.049 2.325 2.485 0 .034.067.06.067.091 1.854 8.521 3.086 17.497 4.008 29.143.767 9.958 1.14 19.633 1.119 28.804a372.079 372.079 0 0 1-1.14 28.805zm22.152-4.231c-1.025 13.038-2.413 23.167-4.521 32.726 0 .031-.021.062-.021.108-.197.751-.507 1.336-.901 1.802-.083.156-.15.187-.259.306-.435.414-.922.715-1.492.715-.549 0-1.03-.301-1.455-.715-.114-.113-.197-.145-.285-.306a4.436 4.436 0 0 1-.891-1.802c0-.052-.042-.083-.042-.108-2.097-9.559-3.49-19.688-4.515-32.726a414.502 414.502 0 0 1-1.264-32.437c-.031-10.275.383-21.165 1.253-32.376 1.02-13.09 2.423-23.203 4.525-32.757 0-.06.042-.085.042-.121.383-1.624 1.414-2.802 2.62-2.802 1.222 0 2.247 1.184 2.63 2.802 0 .041.052.083.052.121 2.113 9.554 3.521 19.651 4.536 32.772.87 11.195 1.294 22.095 1.253 32.423a413.515 413.515 0 0 1-1.265 32.375zm201.393-20.501c0 19.967-8.746 37.884-22.587 50.187 0 0-5.194 6.214-15.565 6.214H240.103V215.024c13.556-20.011 36.454-33.177 62.464-33.177 31.446 0 58.353 19.211 69.739 46.539 32.326 4.912 57.078 32.734 57.078 66.396z"/></g></svg>